<svg id="Sei" xmlns="http://www.w3.org/2000/svg" xmlns:xlink="http://www.w3.org/1999/xlink" width="32" height="32" viewBox="0 0 32 32">
  <defs>
    <linearGradient id="linear-gradient" x1="0.5" x2="0.5" y2="1" gradientUnits="objectBoundingBox">
      <stop offset="0" stop-color="#780000"/>
      <stop offset="1" stop-color="#b52a2a"/>
    </linearGradient>
  </defs>
  <rect id="Boundary" width="32" height="32" rx="12" transform="translate(0 32) rotate(-90)" fill="#ebecff" opacity="0.05"/>
  <g id="Sei_Colors_Logo_Light" transform="translate(-150 33.975)">
    <path id="Path_9924" data-name="Path 9924" d="M9.975,20.051a10,10,0,0,0,7.476-3.345,2.378,2.378,0,0,0-3.05-.054l-.174.14a4.013,4.013,0,0,1-5.514-.451,2.142,2.142,0,0,0-2.993-.2l-2,1.717A9.983,9.983,0,0,0,9.975,20.051ZM13.225,15.2a4.249,4.249,0,0,1,5.339,0,10.033,10.033,0,0,0-.318-10.84,2.374,2.374,0,0,0-2.073.546l-.167.148a4.013,4.013,0,0,1-5.529-.2,2.142,2.142,0,0,0-3-.062L5.147,6.987,3.865,5.625,6.2,3.432a4.013,4.013,0,0,1,5.618.115,2.142,2.142,0,0,0,2.952.1l.167-.148a4.23,4.23,0,0,1,1.747-.933A10.027,10.027,0,0,0,.035,8.705a4.107,4.107,0,0,1,4.713.834,2.235,2.235,0,0,0,2.974.2l1.3-1.018a4.337,4.337,0,0,1,5.519.148l2.537,2.21L15.852,12.49l-2.537-2.21a2.466,2.466,0,0,0-3.138-.084l-1.3,1.018a4.105,4.105,0,0,1-5.465-.367,2.235,2.235,0,0,0-3.128-.068L0,11.043a9.983,9.983,0,0,0,2.365,5.51L4.5,14.721a4.013,4.013,0,0,1,5.606.375,2.142,2.142,0,0,0,2.944.241Z" transform="translate(156 -28)" fill-rule="evenodd" fill="url(#linear-gradient)"/>
  </g>
</svg>
