<svg id="Claim_icon" data-name="Claim icon" xmlns="http://www.w3.org/2000/svg" xmlns:xlink="http://www.w3.org/1999/xlink" width="50" height="50" viewBox="0 0 50 50">
  <defs>
    <clipPath id="clip-path">
      <path id="Path_1620" data-name="Path 1620" d="M4475.343-21234.279c2.4,1.721,2.946,4.352-1.1,4.352s-.672,2.926-.672,2.926l7.039-.539-.143-5.8Z" transform="translate(-4472.253 21234.279)" fill="#6000ff" stroke="#707070" stroke-width="1"/>
    </clipPath>
  </defs>
  <rect id="Rectangle_874" data-name="Rectangle 874" width="50" height="50" fill="none"/>
  <g id="Group_577" data-name="Group 577" transform="translate(-3918.439 20930.26)">
    <g id="Group_402" data-name="Group 402" transform="translate(3920.561 -20924.664)">
      <g id="Group_396" data-name="Group 396" transform="translate(0 0)">
        <g id="wallet_back" data-name="wallet back" transform="translate(0 0)">
          <rect id="Rectangle_845" data-name="Rectangle 845" width="39.373" height="31.065" rx="5" transform="translate(0 0.937)" fill="#904dff"/>
          <rect id="Rectangle_846" data-name="Rectangle 846" width="34.168" height="6.481" rx="3.241" transform="translate(3.389 4.326)" fill="#6000ff"/>
          <g id="Mask_Group_19" data-name="Mask Group 19" transform="translate(32.234)" clip-path="url(#clip-path)">
            <rect id="Rectangle_849" data-name="Rectangle 849" width="39.373" height="31.065" rx="5" transform="translate(-32.234 0.937)" fill="#6000ff"/>
          </g>
        </g>
        <g id="wallet_front" data-name="wallet front" transform="translate(0 6.189)">
          <rect id="Rectangle_844" data-name="Rectangle 844" width="45.186" height="31.508" rx="5" transform="translate(0 0)" fill="#904dff"/>
          <path id="Rectangle_848" data-name="Rectangle 848" d="M4,0h8.991a0,0,0,0,1,0,0V8.984a0,0,0,0,1,0,0H4a4,4,0,0,1-4-4V4A4,4,0,0,1,4,0Z" transform="translate(32.195 12.991)" fill="#6000ff"/>
          <rect id="Rectangle_847" data-name="Rectangle 847" width="16.38" height="9.114" rx="4" transform="translate(30.5 11.861)" fill="#ae60ff"/>
          <circle id="Ellipse_127" data-name="Ellipse 127" cx="2.259" cy="2.259" r="2.259" transform="translate(33.324 14.685)" fill="#6000ff"/>
          <circle id="Ellipse_126" data-name="Ellipse 126" cx="1.977" cy="1.977" r="1.977" transform="translate(33.324 14.12)" fill="#ffbc00"/>
        </g>
      </g>
    </g>
    <g id="_WALLET" data-name="$WALLET" transform="translate(3934.5 -20913.053)">
      <g id="Layer_x0020_1">
        <g id="_2328355826240">
          <path id="Path_166" data-name="Path 166" d="M5682.822,6658.952l2.629,5.347a.146.146,0,0,1-.031.167l-6.919,6.384a.078.078,0,0,1-.13-.056v-5.865l4.36-4.02a.136.136,0,0,0,.045-.1l.013-1.853C5682.79,6658.941,5682.815,6658.941,5682.822,6658.952Z" transform="translate(-5672.123 -6651.73)" fill="#ebecff"/>
          <path id="Path_167" data-name="Path 167" d="M5678.33,8190.41v5.865a.077.077,0,0,0,.13.054h0l6.92-6.383a.149.149,0,0,0,.032-.166h0l-2.7-3.41Z" transform="translate(-5672.082 -8177.21)" fill="#ebecff" fill-rule="evenodd"/>
          <path id="Path_168" data-name="Path 168" d="M8960.714,6653.792h0c-.008,0-.019,0-.019.014h0l-.011,1.852a.164.164,0,0,1-.023.086l2.712,3.5a.167.167,0,0,0-.013-.094h0l-2.631-5.347a.018.018,0,0,0-.016-.007Z" transform="translate(-8950.033 -6646.585)" fill="#ebecff" fill-rule="evenodd"/>
          <path id="Path_169" data-name="Path 169" d="M9048.986,8305.367a.151.151,0,0,0-.014-.094h0l-.135-.277-2.449-2.977Z" transform="translate(-9035.647 -8292.713)" fill="#ebecff" fill-rule="evenodd"/>
          <path id="Path_170" data-name="Path 170" d="M1310.4,3125.186l-1.238,3.346a.149.149,0,0,0,.007.117l1.153,2.167-3.174,1.716a.086.086,0,0,1-.11-.031l-.687-1.364a.126.126,0,0,1,.013-.142l4-5.828C1310.384,3125.156,1310.41,3125.167,1310.4,3125.186Z" transform="translate(-1305.923 -3122.452)" fill="#ebecff"/>
          <path id="Path_171" data-name="Path 171" d="M1456.87,3125.18h0a.02.02,0,0,0-.012,0h0l-3.833,5.579,0,.007,2.632-2.221.008-.023h0v0l1.228-3.322A.019.019,0,0,0,1456.87,3125.18Z" transform="translate(-1452.409 -3122.469)" fill="#ebecff" fill-rule="evenodd"/>
          <path id="Path_172" data-name="Path 172" d="M1306.393,5772.262a.126.126,0,0,0-.013.142h0l.687,1.365a.085.085,0,0,0,.11.031h0l3.174-1.716-1.153-2.167a.147.147,0,0,1-.006-.117Z" transform="translate(-1305.948 -5763.718)" fill="#ebecff" fill-rule="evenodd"/>
          <path id="Path_173" data-name="Path 173" d="M1001.252,997.641v5.2a.144.144,0,0,1-.032.087h0l-6.187,8.007a.138.138,0,0,0,.019.191h0l4.341,4a.076.076,0,0,0,.123-.025h0l4.716-10.539a.162.162,0,0,0,0-.111h0l-2.922-6.828a.028.028,0,0,0-.026-.018h0A.031.031,0,0,0,1001.252,997.641Z" transform="translate(-995.003 -997.611)" fill="#ebecff" fill-rule="evenodd"/>
          <path id="Path_174" data-name="Path 174" d="M5672.318,997.61h0a.031.031,0,0,0-.032.03l0,5.2a.148.148,0,0,1-.009.043l2.95,1.483-2.886-6.743A.028.028,0,0,0,5672.318,997.61Zm-.038,5.278.564.309Z" transform="translate(-5666.039 -997.61)" fill="#ebecff" fill-rule="evenodd"/>
          <path id="Path_175" data-name="Path 175" d="M5675.278,5141.507h0a.18.18,0,0,0-.009-.055h0l-.038-.088-2.951-1.483.565.31Z" transform="translate(-5666.039 -5134.602)" fill="#ebecff" fill-rule="evenodd"/>
          <path id="Path_176" data-name="Path 176" d="M1329.713,5772.023l-.163.238,2.8-2.461Z" transform="translate(-1329.104 -5763.719)" fill="#ebecff"/>
        </g>
      </g>
    </g>
  </g>
</svg>
