<svg class="Header_logoImage__eVayc" width="140" height="136" viewBox="0 0 920 136" fill="none" xmlns="http://www.w3.org/2000/svg" aria-labelledby="logoTitle"><title id="logoTitle">Swappin Gifts logo</title><g clip-path="url(#clip0_177_2250)"><path d="M168.999 0.296814H131.26C135.565 3.61063 138.313 8.76546 138.313 14.5646C138.313 20.3638 135.565 25.5187 131.26 28.8325H161.946C165.426 28.8325 168.266 31.6861 168.266 35.184V42.7321V44.5731V46.4141V75.4101C168.266 83.3264 174.586 89.6779 182.464 89.6779C190.341 89.6779 196.661 83.3264 196.661 75.4101V46.4141V44.5731V42.7321V28.0961C196.661 12.7236 184.296 0.296814 168.999 0.296814Z" fill="url(#paint0_linear_177_2250)"></path><path d="M14.1977 47.1505C19.9684 47.1505 25.0979 49.9121 28.3955 54.2384V35.184C28.3955 31.686 31.235 28.8325 34.7158 28.8325H38.2881H40.1201H41.952H120.452C128.329 28.8325 134.65 22.481 134.65 14.5646C134.65 6.6483 128.329 0.296814 120.452 0.296814H41.952H40.1201H38.2881H27.6627C12.3658 0.296814 0 12.7236 0 28.0961V54.2384C3.29754 49.9121 8.42705 47.1505 14.1977 47.1505Z" fill="url(#paint1_linear_177_2250)"></path><path d="M182.464 93.452C176.693 93.452 171.564 90.6905 168.266 86.3641V100.632C168.266 104.222 165.335 107.075 161.854 107.075H98.9262H97.0942H95.2623H70.0727C62.1953 107.075 55.875 113.427 55.875 121.343C55.875 129.26 62.1953 135.611 70.0727 135.611H95.2623H97.0942H98.9262H168.907C184.204 135.611 196.57 123.184 196.57 107.812V86.272C193.364 90.5984 188.235 93.452 182.464 93.452Z" fill="url(#paint2_linear_177_2250)"></path><path d="M52.211 121.435C52.211 115.636 54.959 110.481 59.2641 107.168H34.8074C31.235 107.168 28.3955 104.222 28.3955 100.724V90.4143V88.5733V86.7323V65.1004C28.3955 57.1841 22.0752 50.8326 14.1977 50.8326C6.32028 50.8326 0 57.1841 0 65.1004V86.7323V88.5733V90.4143V107.904C0 123.276 12.3658 135.703 27.6627 135.703H59.2641C54.959 132.389 52.211 127.235 52.211 121.435Z" fill="url(#paint3_linear_177_2250)"></path></g><path d="M301.819 95.1523H320.739L329.864 59.8472L338.72 95.1523H357.774L372.936 40.7318H356.767L348.918 79.4178L339.323 40.7318H321.142L311.682 79.6129L303.698 40.7318H286.522L301.819 95.1523Z" fill="#7377C3"></path><path d="M417.15 67.9095C417.15 76.557 411.447 81.3683 404.872 81.3683C398.431 81.3683 392.594 76.4919 392.594 67.8445C392.594 59.197 398.431 54.4507 404.872 54.4507C411.447 54.4507 417.15 59.262 417.15 67.9095ZM375.083 67.8445C375.083 85.0094 386.086 95.9325 399.773 95.9325C408.092 95.9325 414.064 92.2264 417.15 87.4801V95.1523H434.392V40.7318H417.15V48.4039C414.131 43.6576 408.16 39.9515 399.84 39.9515C386.086 39.9515 375.083 50.6796 375.083 67.8445Z" fill="#7377C3"></path><path d="M487.596 67.8445C487.596 76.492 481.759 81.3684 475.184 81.3684C468.743 81.3684 462.906 76.622 462.906 67.9095C462.906 59.197 468.743 54.4507 475.184 54.4507C481.759 54.4507 487.596 59.132 487.596 67.8445ZM463.04 48.404V40.7318H445.798V121.095H463.04V87.5451C466.127 92.1615 472.098 95.9325 480.35 95.9325C494.104 95.9325 505.107 85.0094 505.107 67.8445C505.107 50.6796 494.104 39.8865 480.35 39.8865C472.098 39.8865 466.127 43.6576 463.04 48.404Z" fill="#7377C3"></path><path d="M554.888 67.8445C554.888 76.492 549.051 81.3683 542.476 81.3683C536.036 81.3683 530.199 76.622 530.199 67.9095C530.199 59.197 536.036 54.4507 542.476 54.4507C549.051 54.4507 554.888 59.132 554.888 67.8445ZM530.333 48.404V40.7318H513.09V121.095H530.333V87.5451C533.419 92.1614 539.39 95.9325 547.642 95.9325C561.396 95.9325 572.399 85.0094 572.399 67.8445C572.399 50.6796 561.396 39.9515 547.642 39.9515C539.39 39.8865 533.419 43.6576 530.333 48.404Z" fill="#7377C3"></path><path d="M589.038 35.0752C595.076 35.0752 599.169 31.109 599.169 26.1026C599.169 21.0311 595.076 17 589.038 17C582.866 17 578.773 21.0311 578.773 26.1026C578.773 31.044 582.933 35.0752 589.038 35.0752ZM580.383 95.1523H597.626V40.7318H580.383V95.1523Z" fill="#7377C3"></path><path d="M647.81 95.1523H664.918V63.3582C664.918 48.7291 656.263 40.1466 643.315 40.1466C635.801 40.1466 629.762 43.3325 626.341 47.9488V40.7318H609.098V95.1523H626.341V65.5689C626.341 58.1567 630.567 54.0606 637.075 54.0606C643.583 54.0606 647.81 58.1567 647.81 65.5689V95.1523Z" fill="#7377C3"></path><path d="M694.103 86.96C694.103 81.8235 689.943 77.7924 683.905 77.7924C677.733 77.7924 673.64 81.8235 673.64 86.96C673.64 91.9664 677.733 95.9325 683.905 95.9325C689.943 95.9325 694.103 91.9014 694.103 86.96Z" fill="#7377C3"></path><path d="M741.939 67.9095C741.939 76.557 736.17 81.3684 729.662 81.3684C723.221 81.3684 717.384 76.492 717.384 67.8445C717.384 59.197 723.221 54.4507 729.662 54.4507C736.17 54.4507 741.939 59.2621 741.939 67.9095ZM699.873 67.8445C699.873 85.0094 710.809 95.9325 724.63 95.9325C732.882 95.9325 738.853 92.1615 741.939 87.3501V95.0223C741.939 104.19 736.773 107.506 730.266 107.506C724.361 107.506 720.135 104.84 718.994 100.744H701.953C703.429 113.683 714.365 121.94 731.071 121.94C750.527 121.94 759.115 109.521 759.115 95.0223V40.7318H741.939V48.404C738.92 43.5276 732.882 39.8865 724.63 39.8865C710.809 39.8865 699.873 50.6796 699.873 67.8445Z" fill="#7377C3"></path><path d="M779.243 35.0752C785.281 35.0752 789.373 31.109 789.373 26.1026C789.373 21.0311 785.281 17 779.243 17C773.07 17 768.978 21.0311 768.978 26.1026C768.978 31.044 773.07 35.0752 779.243 35.0752ZM770.588 95.1523H787.83V40.7318H770.588V95.1523Z" fill="#7377C3"></path><path d="M800.98 95.1523H818.222V54.5807H827.481V40.7318H818.222V40.2116C818.222 34.49 820.503 32.5394 827.145 32.9295V18.7555C810.037 17.9103 800.98 24.9323 800.98 39.1713V40.7318H794.74V54.5807H800.98V95.1523Z" fill="#7377C3"></path><path d="M837.209 76.2319C837.209 90.4059 845.394 95.1523 857.068 95.1523H865.79V80.9782H859.618C855.794 80.9782 854.385 79.6128 854.385 76.4269V54.5807H865.656V40.7318H854.385V27.468H837.142V40.7318H830.299V54.5807H837.142V76.2319H837.209Z" fill="#7377C3"></path><path d="M920 79.3528C919.732 59.067 889.339 65.1787 889.339 56.5313C889.339 53.9305 891.553 52.3701 895.579 52.3701C900.41 52.3701 903.294 54.7758 903.831 58.4818H919.732C918.591 47.7538 910.54 39.9515 896.116 39.9515C881.423 39.9515 873.305 47.5587 873.305 56.8564C873.305 76.8821 903.898 70.5102 903.898 79.2878C903.898 81.7585 901.55 83.644 897.189 83.644C892.493 83.644 888.937 81.1083 888.534 77.2722H871.493C872.298 87.8052 882.362 95.9325 897.323 95.9325C911.345 95.9325 920 88.7805 920 79.3528Z" fill="#7377C3"></path><path d="M284.507 79.3528C284.239 59.067 253.846 65.1787 253.846 56.5313C253.846 53.9305 256.06 52.3701 260.086 52.3701C264.916 52.3701 267.801 54.7758 268.338 58.4818H284.239C283.098 47.7538 275.047 39.9515 260.623 39.9515C245.93 39.9515 237.811 47.5587 237.811 56.8564C237.811 76.8821 268.405 70.5102 268.405 79.2878C268.405 81.7585 266.057 83.644 261.696 83.644C257 83.644 253.444 81.1083 253.041 77.2722H236C236.805 87.8052 246.869 95.9325 261.83 95.9325C275.852 95.9325 284.507 88.7805 284.507 79.3528Z" fill="#7377C3"></path><defs><linearGradient id="paint0_linear_177_2250" x1="163.961" y1="0.296814" x2="163.961" y2="89.6779" gradientUnits="userSpaceOnUse"><stop stop-color="#B292C0"></stop><stop offset="1" stop-color="#9585C6"></stop></linearGradient><linearGradient id="paint1_linear_177_2250" x1="67.3248" y1="0.296814" x2="67.3248" y2="54.2384" gradientUnits="userSpaceOnUse"><stop stop-color="#B292C0"></stop><stop offset="1" stop-color="#9585C6"></stop></linearGradient><linearGradient id="paint2_linear_177_2250" x1="126.223" y1="86.272" x2="126.223" y2="135.611" gradientUnits="userSpaceOnUse"><stop stop-color="#B292C0"></stop><stop offset="1" stop-color="#9585C6"></stop></linearGradient><linearGradient id="paint3_linear_177_2250" x1="29.6321" y1="50.8326" x2="29.6321" y2="135.703" gradientUnits="userSpaceOnUse"><stop stop-color="#B292C0"></stop><stop offset="1" stop-color="#9585C6"></stop></linearGradient><clipPath id="clip0_177_2250"><rect width="196.662" height="135.406" fill="white" transform="translate(0 0.296814)"></rect></clipPath></defs></svg>