<svg xmlns="http://www.w3.org/2000/svg" width="30" height="30" viewBox="0 0 30 30">
  <g id="ToS_icon" data-name="ToS icon" transform="translate(-28 -325)">
    <rect id="Boundary" width="30" height="30" rx="13" transform="translate(28 355) rotate(-90)" fill="#1e2033" opacity="0"/>
    <path id="Path_1579" data-name="Path 1579" d="M42.916,331.826l1.982.26,1.674,1.137,1.188,1.594.568,2.357s-.049,2.338-.082,2.42-1.17,1.51-1.268,1.689-1.447,1.561-1.447,1.561v2.17H40v-2.941l-1.658-1.592-.553-1.432-.227-2.145s.293-1.445.373-1.641,1.121-1.428,1.219-1.543,1.951-1.186,1.982-1.252S42.916,331.826,42.916,331.826Z" fill="#ebecff"/>
    <path id="Icon_material-lightbulb-outline" data-name="Icon material-lightbulb-outline" d="M11.192,20.538a.926.926,0,0,0,.923.923h3.692a.926.926,0,0,0,.923-.923v-.923H11.192ZM13.962,3a6.459,6.459,0,0,0-3.692,11.76v2.086a.926.926,0,0,0,.923.923h5.538a.926.926,0,0,0,.923-.923V14.76A6.459,6.459,0,0,0,13.962,3Zm2.631,10.246-.785.554v2.123H12.115V13.8l-.785-.554a4.615,4.615,0,1,1,5.262,0Z" transform="translate(29.039 328.022)" fill="#ebecff"/>
  </g>
</svg>
