<svg id="Binance_icon" data-name="Binance icon" xmlns="http://www.w3.org/2000/svg" width="32" height="32" viewBox="0 0 32 32">
  <rect id="Boundary" width="32" height="32" rx="12" transform="translate(0 32) rotate(-90)" fill="transparent" />
  <g id="Layer_x0020_1" transform="translate(6.284 6.284)">
    <path id="Path_58" data-name="Path 58" d="M15.664,13.485,9.716,19.432,3.769,13.485l2.168-2.168L9.716,15.1,13.5,11.317l2.168,2.168ZM9.716,7.538l2.178,2.178L9.716,11.894,7.539,9.716,9.716,7.538ZM2.168,11.884,0,9.716,2.168,7.548,4.336,9.716Zm15.1-4.336,2.168,2.168-2.168,2.168L15.1,9.716l2.168-2.168ZM9.716,0l5.947,5.947L13.5,8.115,9.716,4.336,5.937,8.115,3.769,5.947Z" transform="translate(0)" fill="#ffbc00" fill-rule="evenodd"/>
  </g>
</svg>
