<svg id="svg" version="1.1" xmlns="http://www.w3.org/2000/svg" xmlns:xlink="http://www.w3.org/1999/xlink" width="140" height="72.91666666666667" viewBox="0, 0, 400,72.91666666666667"><g id="svgg"><path id="path0" d="M77.333 35.581 L 77.333 60.167 82.583 60.167 L 87.833 60.167 87.844 43.792 C 87.850 33.852,87.914 27.564,88.005 27.792 C 88.088 27.998,88.215 28.167,88.287 28.167 C 88.360 28.167,88.514 28.383,88.631 28.647 C 88.748 28.911,89.029 29.342,89.255 29.605 C 89.481 29.868,89.666 30.173,89.666 30.283 C 89.667 30.393,89.760 30.543,89.875 30.617 C 89.990 30.690,90.230 31.012,90.408 31.333 C 90.587 31.654,90.868 32.062,91.033 32.240 C 91.198 32.417,91.333 32.657,91.333 32.773 C 91.333 32.889,91.427 33.043,91.542 33.117 C 91.656 33.190,91.899 33.550,92.082 33.917 C 92.264 34.283,92.508 34.643,92.623 34.717 C 92.739 34.790,92.833 34.945,92.833 35.060 C 92.833 35.176,92.968 35.416,93.133 35.594 C 93.298 35.771,93.580 36.179,93.758 36.500 C 93.937 36.821,94.177 37.143,94.292 37.217 C 94.406 37.290,94.500 37.445,94.500 37.560 C 94.500 37.676,94.635 37.916,94.800 38.094 C 94.965 38.271,95.246 38.679,95.425 39.000 C 95.604 39.321,95.796 39.621,95.852 39.667 C 95.908 39.712,96.078 39.994,96.231 40.292 C 96.384 40.590,96.564 40.833,96.632 40.833 C 96.699 40.833,96.885 41.133,97.044 41.500 C 97.202 41.867,97.398 42.167,97.479 42.167 C 97.560 42.167,97.720 42.393,97.835 42.671 C 97.950 42.948,98.132 43.229,98.239 43.296 C 98.347 43.362,98.565 43.698,98.725 44.042 C 98.885 44.385,99.080 44.667,99.158 44.667 C 99.236 44.667,99.439 45.004,99.608 45.416 C 99.778 45.828,99.971 46.166,100.037 46.166 C 100.104 46.166,100.283 46.410,100.436 46.708 C 100.588 47.006,100.784 47.296,100.872 47.352 C 100.959 47.409,101.119 47.634,101.228 47.852 C 101.425 48.248,101.439 48.250,104.656 48.295 C 108.238 48.346,108.077 48.390,108.758 47.167 C 108.937 46.846,109.177 46.523,109.292 46.450 C 109.406 46.377,109.500 46.222,109.500 46.106 C 109.500 45.991,109.635 45.751,109.800 45.573 C 109.965 45.395,110.246 44.987,110.425 44.667 C 110.604 44.346,110.844 44.023,110.958 43.950 C 111.073 43.877,111.167 43.708,111.167 43.575 C 111.167 43.442,111.300 43.200,111.464 43.036 C 111.627 42.873,111.893 42.460,112.055 42.119 C 112.217 41.779,112.411 41.500,112.488 41.500 C 112.564 41.500,112.720 41.273,112.835 40.996 C 112.950 40.719,113.132 40.438,113.239 40.371 C 113.347 40.304,113.565 39.969,113.725 39.625 C 113.885 39.281,114.078 39.000,114.154 39.000 C 114.231 39.000,114.387 38.773,114.502 38.496 C 114.616 38.219,114.796 37.938,114.902 37.871 C 115.007 37.804,115.233 37.431,115.405 37.042 C 115.577 36.652,115.777 36.333,115.851 36.333 C 115.924 36.333,116.115 36.052,116.275 35.708 C 116.435 35.365,116.653 35.029,116.761 34.962 C 116.868 34.896,117.050 34.614,117.165 34.337 C 117.280 34.060,117.440 33.833,117.521 33.833 C 117.602 33.833,117.798 33.533,117.956 33.167 C 118.115 32.800,118.301 32.500,118.368 32.500 C 118.436 32.500,118.616 32.256,118.769 31.958 C 118.922 31.660,119.092 31.379,119.148 31.333 C 119.204 31.287,119.396 30.988,119.575 30.667 C 119.754 30.346,120.035 29.938,120.200 29.760 C 120.365 29.583,120.500 29.343,120.500 29.227 C 120.500 29.111,120.594 28.957,120.710 28.883 C 120.825 28.810,121.068 28.469,121.248 28.125 C 121.428 27.781,121.634 27.500,121.705 27.500 C 121.775 27.500,121.833 34.850,121.833 43.833 L 121.833 60.167 126.917 60.167 L 132.000 60.167 132.000 35.583 L 132.000 11.000 126.769 11.000 L 121.538 11.000 121.261 11.583 C 121.109 11.904,120.931 12.167,120.866 12.167 C 120.801 12.167,120.652 12.383,120.535 12.647 C 120.418 12.912,120.175 13.298,119.995 13.506 C 119.814 13.714,119.667 13.971,119.667 14.077 C 119.667 14.184,119.532 14.416,119.367 14.594 C 119.202 14.771,118.920 15.179,118.742 15.500 C 118.563 15.821,118.323 16.143,118.208 16.217 C 118.094 16.290,118.000 16.440,118.000 16.550 C 118.000 16.660,117.814 16.965,117.588 17.228 C 117.362 17.491,117.081 17.923,116.964 18.187 C 116.848 18.451,116.699 18.667,116.634 18.667 C 116.569 18.667,116.391 18.929,116.239 19.250 C 116.087 19.571,115.897 19.833,115.817 19.833 C 115.737 19.833,115.562 20.094,115.429 20.413 C 115.296 20.731,115.032 21.158,114.843 21.361 C 114.655 21.564,114.500 21.824,114.500 21.940 C 114.500 22.055,114.406 22.210,114.292 22.283 C 114.177 22.357,113.937 22.679,113.758 23.000 C 113.580 23.321,113.298 23.729,113.133 23.906 C 112.968 24.084,112.833 24.324,112.833 24.440 C 112.833 24.555,112.740 24.710,112.625 24.783 C 112.510 24.857,112.270 25.179,112.092 25.500 C 111.913 25.821,111.632 26.229,111.467 26.406 C 111.302 26.584,111.167 26.824,111.167 26.940 C 111.167 27.055,111.073 27.210,110.958 27.283 C 110.844 27.357,110.601 27.717,110.418 28.083 C 110.236 28.450,109.992 28.810,109.877 28.883 C 109.761 28.957,109.667 29.111,109.667 29.227 C 109.667 29.343,109.532 29.583,109.367 29.760 C 109.202 29.938,108.920 30.346,108.742 30.667 C 108.563 30.988,108.323 31.310,108.208 31.383 C 108.094 31.457,108.000 31.611,108.000 31.727 C 108.000 31.843,107.865 32.083,107.700 32.260 C 107.535 32.438,107.254 32.846,107.075 33.167 C 106.896 33.487,106.656 33.810,106.542 33.883 C 106.427 33.957,106.333 34.111,106.333 34.227 C 106.333 34.343,106.202 34.583,106.042 34.760 C 105.881 34.938,105.640 35.308,105.505 35.583 C 105.061 36.491,104.715 36.735,104.484 36.303 C 104.376 36.102,104.148 35.788,103.977 35.604 C 103.807 35.421,103.667 35.176,103.667 35.060 C 103.667 34.945,103.573 34.790,103.458 34.717 C 103.344 34.643,103.104 34.321,102.925 34.000 C 102.746 33.679,102.465 33.271,102.300 33.094 C 102.135 32.916,102.000 32.676,102.000 32.560 C 102.000 32.445,101.906 32.290,101.792 32.217 C 101.677 32.143,101.434 31.783,101.252 31.417 C 101.069 31.050,100.825 30.690,100.710 30.617 C 100.594 30.543,100.500 30.389,100.500 30.273 C 100.500 30.157,100.365 29.917,100.200 29.740 C 100.035 29.562,99.754 29.154,99.575 28.833 C 99.396 28.512,99.156 28.190,99.042 28.117 C 98.927 28.043,98.833 27.889,98.833 27.773 C 98.833 27.657,98.679 27.397,98.490 27.194 C 98.301 26.991,98.037 26.565,97.904 26.246 C 97.771 25.927,97.597 25.667,97.518 25.667 C 97.439 25.667,97.280 25.440,97.165 25.163 C 97.050 24.886,96.868 24.604,96.761 24.538 C 96.653 24.471,96.435 24.135,96.275 23.792 C 96.115 23.448,95.927 23.167,95.856 23.167 C 95.786 23.167,95.603 22.904,95.450 22.583 C 95.297 22.262,95.111 22.000,95.037 22.000 C 94.963 22.000,94.764 21.667,94.596 21.260 C 94.429 20.853,94.188 20.480,94.062 20.432 C 93.936 20.383,93.833 20.258,93.833 20.153 C 93.833 20.047,93.571 19.604,93.250 19.167 C 92.929 18.730,92.667 18.288,92.667 18.186 C 92.667 18.084,92.595 18.000,92.508 18.000 C 92.420 18.000,92.224 17.737,92.072 17.417 C 91.920 17.096,91.746 16.833,91.686 16.833 C 91.625 16.833,91.428 16.552,91.248 16.208 C 91.067 15.865,90.873 15.546,90.817 15.500 C 90.760 15.454,90.588 15.173,90.436 14.875 C 90.283 14.577,90.103 14.333,90.035 14.333 C 89.967 14.333,89.782 14.033,89.623 13.667 C 89.464 13.300,89.268 13.000,89.187 13.000 C 89.107 13.000,88.947 12.773,88.832 12.496 C 88.717 12.219,88.539 11.938,88.436 11.871 C 88.334 11.804,88.167 11.600,88.065 11.417 C 87.887 11.096,87.684 11.082,82.607 11.039 L 77.333 10.995 77.333 35.581 M272.167 35.571 L 272.167 60.167 277.417 60.167 L 282.667 60.167 282.667 51.350 L 282.667 42.533 289.708 42.452 C 296.141 42.377,299.234 42.189,299.500 41.855 C 299.546 41.797,300.105 41.617,300.743 41.454 C 301.381 41.291,301.943 41.100,301.993 41.030 C 302.043 40.960,302.412 40.797,302.814 40.667 C 303.215 40.538,303.629 40.354,303.733 40.258 C 303.837 40.162,304.221 39.934,304.586 39.752 C 304.951 39.569,305.310 39.325,305.383 39.210 C 305.457 39.094,305.624 39.000,305.754 39.000 C 305.885 39.000,306.108 38.824,306.248 38.609 C 306.389 38.394,306.691 38.133,306.919 38.029 C 307.147 37.925,307.333 37.764,307.333 37.670 C 307.333 37.576,307.633 37.208,308.000 36.853 C 308.367 36.497,308.667 36.136,308.667 36.051 C 308.667 35.966,308.800 35.751,308.964 35.573 C 309.282 35.227,309.833 34.143,309.833 33.864 C 309.833 33.771,309.902 33.669,309.987 33.639 C 310.071 33.608,310.276 33.058,310.442 32.417 C 310.609 31.775,310.800 31.210,310.867 31.160 C 311.416 30.757,311.407 22.759,310.858 22.333 C 310.798 22.287,310.620 21.739,310.460 21.115 C 310.301 20.491,310.073 19.882,309.953 19.762 C 309.833 19.642,309.632 19.234,309.507 18.855 C 309.382 18.477,309.219 18.167,309.144 18.167 C 309.070 18.167,308.889 17.936,308.743 17.653 C 308.442 17.071,306.118 14.667,305.857 14.667 C 305.763 14.667,305.588 14.535,305.468 14.373 C 305.348 14.212,304.932 13.931,304.544 13.748 C 304.155 13.566,303.836 13.363,303.835 13.296 C 303.834 13.230,303.421 13.056,302.917 12.909 C 302.412 12.763,302.000 12.588,302.000 12.522 C 302.000 12.455,301.419 12.258,300.708 12.084 C 299.998 11.909,299.379 11.718,299.333 11.659 C 299.013 11.242,295.711 11.107,284.208 11.043 L 272.167 10.975 272.167 35.571 M294.928 19.849 C 295.472 19.950,295.954 20.085,296.000 20.150 C 296.046 20.214,296.458 20.406,296.917 20.576 C 297.375 20.746,297.810 20.986,297.883 21.109 C 297.957 21.232,298.105 21.333,298.212 21.333 C 298.493 21.333,299.433 22.434,299.685 23.056 C 299.802 23.346,299.960 23.626,300.036 23.679 C 300.615 24.079,300.594 29.405,300.011 29.833 C 299.949 29.879,299.793 30.179,299.664 30.500 C 299.463 31.002,298.961 31.560,297.822 32.546 C 297.480 32.843,296.247 33.333,295.844 33.333 C 295.670 33.333,295.503 33.404,295.472 33.491 C 295.359 33.811,292.453 34.000,287.629 34.000 L 282.667 34.000 282.667 26.833 L 282.667 19.667 288.303 19.667 C 291.679 19.667,294.335 19.740,294.928 19.849 M155.421 24.112 C 154.873 24.153,154.385 24.239,154.337 24.304 C 154.289 24.370,153.466 24.554,152.508 24.714 C 151.550 24.874,150.725 25.072,150.675 25.153 C 150.625 25.235,150.140 25.417,149.599 25.558 C 149.057 25.700,148.570 25.881,148.515 25.961 C 148.461 26.041,148.079 26.239,147.667 26.402 C 147.255 26.564,146.880 26.748,146.834 26.811 C 146.788 26.874,146.436 27.064,146.051 27.234 C 145.667 27.403,145.313 27.645,145.265 27.771 C 145.217 27.897,145.067 28.000,144.931 28.000 C 144.796 28.000,144.588 28.133,144.468 28.295 C 144.348 28.457,144.062 28.709,143.833 28.855 C 142.986 29.394,141.266 31.262,141.062 31.863 C 141.010 32.018,140.862 32.184,140.734 32.233 C 140.605 32.283,140.500 32.424,140.500 32.547 C 140.500 32.670,140.366 32.916,140.203 33.094 C 139.877 33.447,139.333 34.526,139.333 34.817 C 139.333 34.918,139.270 35.000,139.192 35.000 C 139.046 35.000,138.500 36.527,138.500 36.936 C 138.500 37.063,138.434 37.167,138.354 37.167 C 138.058 37.167,137.750 39.973,137.750 42.667 C 137.750 45.361,138.058 48.167,138.354 48.167 C 138.434 48.167,138.500 48.271,138.500 48.398 C 138.500 48.806,139.046 50.333,139.192 50.333 C 139.270 50.333,139.334 50.427,139.334 50.542 C 139.335 50.656,139.438 50.938,139.564 51.167 C 139.690 51.396,139.983 51.932,140.216 52.358 C 140.867 53.550,143.686 56.660,144.119 56.665 C 144.230 56.666,144.402 56.817,144.500 57.000 C 144.598 57.183,144.770 57.333,144.881 57.334 C 144.992 57.334,145.298 57.518,145.559 57.743 C 145.821 57.968,146.290 58.236,146.601 58.339 C 146.912 58.442,147.167 58.580,147.167 58.647 C 147.167 58.713,147.542 58.902,148.000 59.067 C 148.458 59.232,148.833 59.418,148.833 59.480 C 148.833 59.542,149.377 59.732,150.042 59.902 C 150.706 60.072,151.288 60.271,151.335 60.343 C 151.440 60.504,154.696 61.000,155.646 61.000 C 156.024 61.000,156.333 61.075,156.333 61.167 C 156.333 61.267,157.028 61.333,158.083 61.333 C 159.139 61.333,159.833 61.267,159.833 61.167 C 159.833 61.075,160.233 61.000,160.721 61.000 C 161.737 61.000,164.708 60.523,164.833 60.340 C 164.879 60.272,165.460 60.085,166.125 59.924 C 166.790 59.763,167.333 59.579,167.333 59.515 C 167.333 59.451,167.708 59.264,168.167 59.100 C 168.625 58.935,169.000 58.751,169.001 58.692 C 169.001 58.632,169.338 58.445,169.751 58.275 C 170.163 58.106,170.500 57.908,170.500 57.836 C 170.500 57.764,170.631 57.661,170.792 57.608 C 171.226 57.462,171.717 57.121,171.965 56.792 C 172.086 56.631,172.254 56.500,172.338 56.500 C 172.516 56.500,174.667 54.411,174.667 54.238 C 174.667 54.174,174.835 53.946,175.042 53.732 C 175.727 53.019,175.914 52.753,176.234 52.040 C 176.408 51.651,176.602 51.333,176.665 51.333 C 176.728 51.333,176.919 50.921,177.091 50.417 C 177.262 49.913,177.452 49.500,177.513 49.500 C 177.574 49.500,177.760 48.844,177.926 48.042 C 178.092 47.240,178.308 46.530,178.406 46.464 C 178.523 46.386,178.583 45.087,178.583 42.667 C 178.583 40.246,178.523 38.947,178.406 38.869 C 178.308 38.804,178.092 38.094,177.926 37.292 C 177.760 36.490,177.574 35.833,177.513 35.833 C 177.452 35.833,177.262 35.421,177.091 34.917 C 176.919 34.412,176.728 34.000,176.665 34.000 C 176.602 34.000,176.408 33.682,176.234 33.293 C 175.914 32.580,175.727 32.314,175.042 31.602 C 174.835 31.387,174.667 31.157,174.667 31.090 C 174.667 30.899,172.551 28.833,172.355 28.833 C 172.258 28.833,172.098 28.683,172.000 28.500 C 171.902 28.317,171.716 28.167,171.587 28.167 C 171.458 28.167,171.254 28.034,171.134 27.871 C 171.015 27.709,170.598 27.435,170.208 27.263 C 169.819 27.090,169.500 26.901,169.500 26.841 C 169.500 26.781,169.125 26.598,168.667 26.433 C 168.208 26.268,167.833 26.074,167.833 26.002 C 167.833 25.929,167.327 25.735,166.708 25.570 C 166.090 25.405,165.546 25.219,165.500 25.155 C 165.401 25.017,162.963 24.500,162.413 24.500 C 162.201 24.500,162.003 24.427,161.972 24.338 C 161.911 24.161,157.042 23.993,155.421 24.112 M200.958 24.111 C 200.340 24.150,199.833 24.253,199.833 24.341 C 199.833 24.428,199.665 24.500,199.458 24.500 C 198.910 24.500,196.264 25.036,196.167 25.167 C 196.121 25.229,195.615 25.418,195.042 25.588 C 194.469 25.758,194.000 25.954,194.000 26.025 C 194.000 26.096,193.712 26.231,193.360 26.326 C 193.007 26.421,192.546 26.649,192.334 26.833 C 192.122 27.016,191.862 27.167,191.756 27.167 C 191.650 27.167,191.417 27.302,191.240 27.467 C 191.062 27.632,190.662 27.913,190.350 28.092 C 190.038 28.270,189.176 29.037,188.433 29.794 C 186.723 31.540,186.612 31.669,186.231 32.352 C 186.058 32.663,185.836 32.969,185.738 33.034 C 185.639 33.098,185.459 33.454,185.336 33.825 C 185.214 34.196,185.054 34.500,184.982 34.500 C 184.910 34.500,184.717 34.931,184.555 35.458 C 184.392 35.985,184.210 36.454,184.149 36.500 C 184.013 36.603,183.500 39.055,183.500 39.601 C 183.500 39.821,183.425 40.000,183.333 40.000 C 183.229 40.000,183.167 41.000,183.167 42.667 C 183.167 44.333,183.229 45.333,183.333 45.333 C 183.425 45.333,183.500 45.513,183.500 45.732 C 183.500 46.278,184.013 48.730,184.149 48.833 C 184.210 48.879,184.392 49.348,184.555 49.875 C 184.717 50.402,184.910 50.833,184.982 50.833 C 185.054 50.833,185.215 51.141,185.339 51.518 C 185.463 51.894,185.663 52.240,185.783 52.286 C 185.902 52.331,186.000 52.447,186.000 52.543 C 186.000 53.053,189.482 56.833,189.952 56.833 C 190.070 56.833,190.167 56.910,190.167 57.003 C 190.167 57.096,190.429 57.297,190.750 57.450 C 191.071 57.603,191.333 57.790,191.333 57.866 C 191.333 57.941,191.633 58.123,192.000 58.269 C 192.367 58.416,192.667 58.594,192.667 58.666 C 192.667 58.737,193.060 58.924,193.542 59.081 C 194.023 59.238,194.454 59.419,194.500 59.483 C 194.611 59.638,196.291 60.167,196.672 60.167 C 196.837 60.167,196.997 60.234,197.028 60.315 C 197.102 60.514,199.999 61.000,201.113 61.000 C 201.601 61.000,202.000 61.075,202.000 61.167 C 202.000 61.267,202.694 61.333,203.750 61.333 C 204.806 61.333,205.500 61.267,205.500 61.167 C 205.500 61.075,205.809 61.000,206.187 61.000 C 207.106 61.000,210.391 60.506,210.498 60.352 C 210.545 60.285,211.108 60.091,211.750 59.921 C 212.392 59.752,212.954 59.564,213.000 59.504 C 213.046 59.443,213.421 59.261,213.833 59.098 C 214.245 58.936,214.620 58.754,214.666 58.693 C 214.712 58.633,215.050 58.434,215.417 58.252 C 215.783 58.069,216.143 57.825,216.217 57.710 C 216.290 57.594,216.441 57.500,216.552 57.500 C 216.663 57.500,217.053 57.239,217.418 56.920 C 217.784 56.601,218.128 56.338,218.182 56.337 C 218.352 56.331,220.333 54.340,220.333 54.175 C 220.333 54.089,220.468 53.921,220.633 53.801 C 220.797 53.681,221.063 53.302,221.224 52.958 C 221.384 52.615,221.573 52.333,221.642 52.333 C 221.765 52.333,222.333 51.181,222.333 50.932 C 222.333 50.865,222.431 50.712,222.549 50.593 C 222.668 50.475,222.871 50.049,223.001 49.647 C 223.130 49.245,223.289 48.879,223.354 48.832 C 223.510 48.720,224.000 46.117,224.000 45.398 C 224.000 45.088,224.075 44.833,224.167 44.833 C 224.269 44.833,224.333 44.000,224.333 42.667 C 224.333 41.333,224.269 40.500,224.167 40.500 C 224.075 40.500,224.000 40.246,224.000 39.935 C 224.000 39.217,223.510 36.613,223.354 36.501 C 223.289 36.455,223.130 36.088,223.001 35.686 C 222.871 35.285,222.668 34.859,222.549 34.740 C 222.431 34.621,222.333 34.469,222.333 34.401 C 222.333 34.153,221.765 33.000,221.642 33.000 C 221.573 33.000,221.383 32.719,221.222 32.375 C 221.060 32.031,220.757 31.613,220.547 31.446 C 220.338 31.279,220.167 31.080,220.167 31.003 C 220.167 30.803,218.381 29.000,218.183 29.000 C 218.093 29.000,217.921 28.864,217.801 28.697 C 217.681 28.531,217.321 28.249,217.000 28.072 C 216.679 27.895,216.357 27.656,216.283 27.542 C 216.210 27.427,216.055 27.333,215.940 27.333 C 215.824 27.333,215.582 27.196,215.402 27.028 C 215.221 26.860,214.720 26.587,214.287 26.422 C 213.854 26.257,213.500 26.072,213.500 26.012 C 213.500 25.952,212.975 25.759,212.333 25.583 C 211.692 25.408,211.167 25.212,211.167 25.149 C 211.167 25.019,208.479 24.499,207.806 24.500 C 207.561 24.500,207.336 24.424,207.305 24.332 C 207.244 24.149,202.821 23.995,200.958 24.111 M248.833 24.333 C 248.833 24.425,248.576 24.500,248.261 24.500 C 247.565 24.500,245.299 24.963,245.173 25.131 C 245.124 25.197,244.652 25.395,244.125 25.569 C 243.598 25.744,243.167 25.942,243.167 26.008 C 243.167 26.074,242.890 26.260,242.551 26.421 C 242.213 26.581,241.745 26.890,241.511 27.106 C 241.278 27.323,241.035 27.500,240.973 27.500 C 240.819 27.500,239.883 28.444,239.778 28.707 C 239.731 28.822,239.687 28.110,239.680 27.125 L 239.667 25.333 234.750 25.333 L 229.833 25.333 229.833 42.750 L 229.833 60.167 234.742 60.167 L 239.651 60.167 239.700 49.555 C 239.739 41.250,239.795 38.929,239.958 38.875 C 240.073 38.837,240.167 38.684,240.167 38.536 C 240.167 38.109,240.728 36.333,240.862 36.333 C 240.930 36.333,241.111 36.066,241.267 35.738 C 241.641 34.950,242.535 34.076,243.333 33.719 C 243.471 33.658,243.627 33.542,243.681 33.462 C 243.800 33.288,245.432 32.838,245.958 32.835 C 246.165 32.834,246.333 32.758,246.333 32.667 C 246.333 32.569,246.889 32.500,247.667 32.500 C 248.444 32.500,249.000 32.569,249.000 32.667 C 249.000 32.758,249.260 32.833,249.578 32.833 C 250.267 32.833,251.629 33.272,251.957 33.599 C 252.085 33.728,252.271 33.833,252.370 33.833 C 252.710 33.833,254.343 35.684,254.621 36.384 C 254.774 36.769,254.987 37.173,255.095 37.282 C 255.561 37.756,255.667 40.121,255.667 50.090 L 255.667 60.167 260.675 60.167 L 265.683 60.167 265.623 48.042 C 265.564 36.220,265.453 33.667,264.998 33.667 C 264.933 33.667,264.782 33.210,264.664 32.653 C 264.545 32.095,264.363 31.552,264.259 31.445 C 264.155 31.338,263.966 30.988,263.839 30.667 C 263.712 30.346,263.472 29.949,263.304 29.785 C 263.137 29.621,263.000 29.418,263.000 29.334 C 263.000 29.250,262.555 28.747,262.010 28.216 C 260.615 26.854,260.320 26.610,259.796 26.383 C 259.541 26.273,259.333 26.116,259.333 26.035 C 259.333 25.954,258.902 25.744,258.375 25.569 C 257.848 25.395,257.374 25.194,257.322 25.123 C 257.198 24.955,255.068 24.507,254.375 24.503 C 254.077 24.501,253.833 24.425,253.833 24.333 C 253.833 24.230,252.889 24.167,251.333 24.167 C 249.778 24.167,248.833 24.230,248.833 24.333 M328.833 24.333 C 328.833 24.425,328.596 24.500,328.306 24.500 C 327.571 24.500,324.833 25.039,324.833 25.183 C 324.833 25.249,324.402 25.436,323.875 25.599 C 323.348 25.762,322.879 25.942,322.833 25.999 C 322.787 26.056,322.487 26.203,322.167 26.327 C 321.846 26.450,321.508 26.641,321.417 26.750 C 321.325 26.859,321.006 27.075,320.708 27.229 C 320.410 27.383,320.167 27.582,320.167 27.671 C 320.167 27.760,320.065 27.833,319.940 27.833 C 319.815 27.833,319.459 28.095,319.148 28.415 C 318.838 28.735,318.492 28.997,318.381 28.998 C 318.270 28.999,318.091 29.169,317.985 29.375 C 317.878 29.581,317.519 30.021,317.187 30.353 C 316.513 31.025,316.204 31.442,316.059 31.875 C 316.005 32.035,315.906 32.167,315.839 32.167 C 315.772 32.167,315.576 32.485,315.403 32.875 C 315.231 33.265,315.009 33.667,314.912 33.770 C 314.814 33.872,314.629 34.285,314.499 34.686 C 314.370 35.088,314.218 35.454,314.162 35.500 C 314.017 35.618,313.500 37.535,313.500 37.955 C 313.500 38.148,313.426 38.331,313.336 38.361 C 312.916 38.503,312.881 46.864,313.300 47.157 C 313.373 47.208,313.560 47.845,313.715 48.573 C 313.870 49.300,314.064 49.938,314.146 49.989 C 314.227 50.041,314.418 50.451,314.570 50.900 C 314.722 51.349,314.994 51.923,315.173 52.176 C 315.353 52.428,315.500 52.702,315.500 52.783 C 315.500 52.937,315.548 53.005,316.675 54.453 C 317.376 55.352,319.307 57.333,319.483 57.334 C 319.538 57.334,319.846 57.559,320.167 57.833 C 320.487 58.108,320.840 58.333,320.950 58.333 C 321.060 58.333,321.210 58.434,321.283 58.557 C 321.357 58.681,321.773 58.916,322.208 59.080 C 322.644 59.244,323.000 59.435,323.000 59.504 C 323.000 59.573,323.506 59.765,324.125 59.930 C 324.744 60.095,325.288 60.284,325.334 60.351 C 325.458 60.527,328.079 61.000,328.935 61.000 C 329.337 61.000,329.667 61.075,329.667 61.167 C 329.667 61.267,330.333 61.333,331.333 61.333 C 332.250 61.333,333.000 61.269,333.000 61.191 C 333.000 61.113,333.612 61.002,334.360 60.945 C 335.969 60.820,337.667 60.507,337.667 60.334 C 337.667 60.266,338.117 60.084,338.667 59.930 C 339.217 59.776,339.668 59.597,339.669 59.533 C 339.670 59.469,339.988 59.267,340.377 59.085 C 340.765 58.903,341.181 58.621,341.301 58.460 C 341.421 58.299,341.601 58.167,341.701 58.167 C 341.801 58.167,342.202 57.829,342.592 57.417 C 343.524 56.429,343.500 56.402,343.500 58.417 L 343.500 60.167 348.500 60.167 L 353.500 60.167 353.500 42.750 L 353.500 25.333 348.500 25.333 L 343.500 25.333 343.500 27.000 C 343.500 28.800,343.466 28.880,342.970 28.250 C 342.790 28.021,342.576 27.833,342.495 27.833 C 342.415 27.833,342.139 27.641,341.883 27.405 C 341.025 26.617,340.920 26.545,340.292 26.322 C 339.948 26.200,339.667 26.042,339.667 25.971 C 339.667 25.900,339.254 25.723,338.750 25.576 C 338.246 25.430,337.833 25.253,337.833 25.183 C 337.833 25.031,335.138 24.497,334.375 24.499 C 334.077 24.500,333.833 24.425,333.833 24.333 C 333.833 24.230,332.889 24.167,331.333 24.167 C 329.778 24.167,328.833 24.230,328.833 24.333 M357.833 25.439 C 357.833 25.737,358.263 26.943,358.431 27.116 C 358.537 27.225,358.725 27.657,358.849 28.074 C 358.972 28.492,359.129 28.833,359.198 28.833 C 359.267 28.833,359.444 29.246,359.591 29.750 C 359.737 30.254,359.913 30.667,359.981 30.667 C 360.050 30.667,360.236 31.079,360.395 31.583 C 360.554 32.087,360.741 32.500,360.810 32.500 C 360.880 32.500,361.072 32.950,361.236 33.500 C 361.401 34.050,361.590 34.500,361.657 34.500 C 361.723 34.500,361.921 34.950,362.097 35.500 C 362.273 36.050,362.461 36.500,362.515 36.500 C 362.568 36.500,362.753 36.912,362.924 37.417 C 363.095 37.921,363.287 38.333,363.350 38.333 C 363.413 38.333,363.599 38.783,363.764 39.333 C 363.928 39.883,364.120 40.333,364.190 40.333 C 364.259 40.333,364.446 40.746,364.605 41.250 C 364.764 41.754,364.950 42.167,365.019 42.167 C 365.087 42.167,365.263 42.579,365.409 43.083 C 365.556 43.587,365.733 44.000,365.802 44.000 C 365.871 44.000,366.028 44.342,366.151 44.759 C 366.275 45.177,366.462 45.608,366.567 45.718 C 366.673 45.827,366.907 46.385,367.088 46.958 C 367.269 47.531,367.471 48.000,367.537 48.000 C 367.603 48.000,367.777 48.413,367.924 48.917 C 368.070 49.421,368.250 49.833,368.322 49.833 C 368.395 49.833,368.584 50.246,368.743 50.750 C 368.901 51.254,369.093 51.667,369.169 51.667 C 369.245 51.667,369.358 51.910,369.420 52.208 C 369.482 52.506,369.699 53.050,369.903 53.417 C 370.107 53.783,370.374 54.402,370.497 54.792 C 370.620 55.181,370.770 55.500,370.832 55.500 C 370.894 55.500,371.088 55.950,371.264 56.500 C 371.439 57.050,371.627 57.500,371.681 57.500 C 371.735 57.500,371.919 57.913,372.091 58.417 C 372.262 58.921,372.462 59.333,372.535 59.333 C 372.607 59.333,372.667 59.521,372.667 59.750 C 372.667 59.979,372.606 60.167,372.533 60.167 C 372.459 60.167,372.264 60.542,372.100 61.000 C 371.935 61.458,371.747 61.833,371.683 61.833 C 371.619 61.833,371.431 62.208,371.266 62.667 C 371.101 63.125,370.914 63.500,370.850 63.500 C 370.785 63.500,370.598 63.875,370.433 64.333 C 370.268 64.792,370.075 65.167,370.003 65.167 C 369.931 65.167,369.733 65.616,369.561 66.165 C 369.390 66.714,369.201 67.164,369.142 67.165 C 369.082 67.166,368.899 67.542,368.734 68.000 C 368.569 68.458,368.381 68.833,368.317 68.833 C 368.253 68.833,368.065 69.208,367.900 69.667 C 367.736 70.125,367.551 70.500,367.490 70.500 C 367.429 70.500,367.243 70.856,367.076 71.292 C 366.910 71.727,366.675 72.182,366.554 72.303 C 366.062 72.795,366.435 72.833,371.656 72.833 L 376.978 72.833 377.189 72.250 C 377.305 71.929,377.453 71.667,377.517 71.667 C 377.581 71.667,377.768 71.292,377.933 70.833 C 378.098 70.375,378.285 70.000,378.350 70.000 C 378.414 70.000,378.601 69.625,378.766 69.167 C 378.931 68.708,379.119 68.333,379.183 68.333 C 379.247 68.333,379.435 67.958,379.600 67.500 C 379.764 67.042,379.949 66.667,380.010 66.667 C 380.071 66.667,380.257 66.310,380.424 65.875 C 380.590 65.440,380.810 65.000,380.912 64.897 C 381.015 64.795,381.205 64.382,381.334 63.980 C 381.463 63.579,381.617 63.212,381.675 63.167 C 381.733 63.121,381.915 62.727,382.080 62.292 C 382.244 61.856,382.429 61.500,382.490 61.500 C 382.551 61.500,382.736 61.125,382.900 60.667 C 383.065 60.208,383.253 59.833,383.317 59.833 C 383.381 59.833,383.569 59.458,383.734 59.000 C 383.899 58.542,384.086 58.167,384.150 58.167 C 384.215 58.167,384.402 57.792,384.567 57.333 C 384.732 56.875,384.919 56.500,384.984 56.500 C 385.048 56.500,385.236 56.125,385.400 55.667 C 385.565 55.208,385.760 54.833,385.833 54.833 C 385.907 54.833,386.101 54.458,386.266 54.000 C 386.431 53.542,386.619 53.167,386.683 53.167 C 386.747 53.167,386.935 52.792,387.100 52.333 C 387.264 51.875,387.454 51.500,387.521 51.500 C 387.588 51.500,387.763 51.087,387.909 50.583 C 388.056 50.079,388.234 49.667,388.305 49.667 C 388.376 49.667,388.569 49.292,388.734 48.833 C 388.899 48.375,389.086 48.000,389.150 48.000 C 389.215 48.000,389.402 47.625,389.567 47.167 C 389.732 46.708,389.919 46.333,389.984 46.333 C 390.048 46.333,390.236 45.958,390.400 45.500 C 390.565 45.042,390.753 44.667,390.817 44.667 C 390.881 44.667,391.069 44.292,391.234 43.833 C 391.399 43.375,391.586 43.000,391.650 43.000 C 391.715 43.000,391.902 42.625,392.067 42.167 C 392.232 41.708,392.419 41.333,392.484 41.333 C 392.548 41.333,392.736 40.958,392.900 40.500 C 393.065 40.042,393.253 39.667,393.317 39.667 C 393.381 39.667,393.569 39.292,393.734 38.833 C 393.899 38.375,394.085 38.000,394.147 38.000 C 394.209 38.000,394.361 37.658,394.485 37.241 C 394.608 36.823,394.799 36.392,394.908 36.282 C 395.018 36.173,395.243 35.727,395.410 35.292 C 395.576 34.856,395.762 34.500,395.823 34.500 C 395.884 34.500,396.069 34.125,396.234 33.667 C 396.399 33.208,396.586 32.833,396.650 32.833 C 396.715 32.833,396.902 32.458,397.067 32.000 C 397.232 31.542,397.419 31.167,397.484 31.167 C 397.548 31.167,397.736 30.792,397.900 30.333 C 398.065 29.875,398.256 29.500,398.323 29.500 C 398.391 29.500,398.549 29.190,398.674 28.811 C 398.799 28.432,398.982 28.039,399.081 27.936 C 399.336 27.673,400.000 26.017,400.000 25.644 C 400.000 25.348,399.768 25.333,394.903 25.333 L 389.807 25.333 389.545 26.000 C 389.401 26.367,389.228 26.667,389.161 26.667 C 389.094 26.667,388.899 27.116,388.728 27.665 C 388.557 28.214,388.368 28.664,388.308 28.665 C 388.249 28.666,388.065 29.042,387.900 29.500 C 387.736 29.958,387.548 30.333,387.484 30.333 C 387.419 30.333,387.232 30.708,387.067 31.167 C 386.902 31.625,386.711 32.000,386.642 32.000 C 386.573 32.000,386.387 32.412,386.228 32.917 C 386.069 33.421,385.885 33.833,385.820 33.833 C 385.754 33.833,385.565 34.208,385.400 34.667 C 385.236 35.125,385.048 35.500,384.984 35.500 C 384.919 35.500,384.732 35.875,384.567 36.333 C 384.402 36.792,384.213 37.167,384.146 37.167 C 384.079 37.167,383.904 37.579,383.757 38.083 C 383.611 38.587,383.433 39.000,383.362 39.000 C 383.291 39.000,383.098 39.375,382.933 39.833 C 382.768 40.292,382.581 40.667,382.516 40.667 C 382.452 40.667,382.264 41.042,382.100 41.500 C 381.935 41.958,381.746 42.333,381.680 42.333 C 381.615 42.333,381.431 42.746,381.272 43.250 C 381.113 43.754,380.927 44.167,380.858 44.167 C 380.789 44.167,380.598 44.542,380.433 45.000 C 380.268 45.458,380.081 45.833,380.016 45.833 C 379.952 45.833,379.764 46.208,379.600 46.667 C 379.435 47.125,379.247 47.500,379.181 47.500 C 379.116 47.500,378.928 47.950,378.764 48.500 C 378.599 49.050,378.405 49.500,378.333 49.500 C 378.261 49.500,378.068 49.050,377.903 48.500 C 377.738 47.950,377.558 47.500,377.503 47.500 C 377.448 47.500,377.258 47.069,377.083 46.542 C 376.907 46.015,376.715 45.546,376.656 45.500 C 376.597 45.454,376.420 45.023,376.261 44.542 C 376.103 44.060,375.922 43.667,375.860 43.667 C 375.797 43.667,375.606 43.179,375.436 42.583 C 375.265 41.987,375.064 41.500,374.988 41.500 C 374.912 41.500,374.724 41.050,374.570 40.500 C 374.416 39.950,374.238 39.500,374.176 39.500 C 374.114 39.500,373.928 39.050,373.764 38.500 C 373.599 37.950,373.407 37.500,373.337 37.500 C 373.268 37.500,373.084 37.050,372.930 36.500 C 372.776 35.950,372.588 35.500,372.512 35.500 C 372.436 35.500,372.235 35.012,372.064 34.417 C 371.894 33.821,371.703 33.333,371.640 33.333 C 371.578 33.333,371.397 32.940,371.239 32.458 C 371.080 31.977,370.901 31.546,370.840 31.500 C 370.779 31.454,370.596 30.985,370.432 30.458 C 370.269 29.931,370.080 29.500,370.011 29.500 C 369.943 29.500,369.747 29.012,369.577 28.417 C 369.407 27.821,369.210 27.333,369.140 27.333 C 369.070 27.333,368.897 26.944,368.756 26.468 C 368.615 25.992,368.405 25.543,368.291 25.470 C 368.046 25.315,357.833 25.284,357.833 25.439 M159.694 32.625 C 159.725 32.694,160.424 32.887,161.248 33.054 C 162.071 33.221,162.784 33.416,162.831 33.488 C 162.878 33.559,163.217 33.758,163.583 33.930 C 164.707 34.457,166.550 36.209,167.083 37.257 C 167.267 37.617,167.505 38.006,167.613 38.122 C 167.721 38.238,167.904 38.764,168.019 39.292 C 168.135 39.819,168.307 40.302,168.402 40.366 C 168.634 40.522,168.634 44.811,168.402 44.967 C 168.307 45.031,168.135 45.515,168.019 46.042 C 167.904 46.569,167.721 47.095,167.613 47.211 C 167.505 47.327,167.267 47.716,167.083 48.076 C 166.480 49.261,164.331 51.219,163.292 51.532 C 162.948 51.635,162.667 51.777,162.667 51.846 C 162.667 51.995,160.548 52.500,159.925 52.500 C 159.691 52.500,159.500 52.575,159.500 52.667 C 159.500 52.860,156.558 52.901,156.472 52.708 C 156.442 52.640,155.785 52.455,155.014 52.298 C 154.242 52.141,153.567 51.946,153.514 51.863 C 153.460 51.781,153.126 51.610,152.771 51.482 C 152.415 51.355,152.089 51.157,152.045 51.042 C 152.000 50.927,151.879 50.832,151.774 50.831 C 151.549 50.829,149.500 48.782,149.500 48.560 C 149.500 48.476,149.367 48.294,149.205 48.154 C 149.042 48.015,148.802 47.567,148.670 47.159 C 148.538 46.751,148.374 46.377,148.306 46.328 C 147.622 45.841,147.616 39.516,148.300 39.005 C 148.365 38.957,148.521 38.617,148.647 38.250 C 148.773 37.883,149.017 37.449,149.188 37.285 C 149.360 37.121,149.500 36.904,149.500 36.802 C 149.500 36.545,151.369 34.674,151.630 34.670 C 151.748 34.668,151.883 34.564,151.932 34.438 C 151.980 34.312,152.334 34.070,152.718 33.900 C 153.102 33.731,153.454 33.541,153.500 33.478 C 153.618 33.317,155.543 32.833,156.066 32.833 C 156.305 32.833,156.500 32.758,156.500 32.667 C 156.500 32.473,159.609 32.432,159.694 32.625 M205.333 32.634 C 205.333 32.708,205.895 32.863,206.582 32.978 C 207.269 33.094,207.929 33.287,208.050 33.407 C 208.170 33.527,208.492 33.675,208.765 33.735 C 209.038 33.795,209.476 34.029,209.740 34.255 C 210.003 34.482,210.271 34.667,210.335 34.667 C 210.488 34.667,212.167 36.345,212.167 36.498 C 212.167 36.562,212.354 36.833,212.583 37.099 C 212.812 37.365,213.000 37.672,213.000 37.780 C 213.000 37.888,213.103 38.079,213.229 38.205 C 213.511 38.487,214.000 40.572,214.000 41.491 C 214.000 41.863,214.075 42.167,214.167 42.167 C 214.258 42.167,214.333 42.392,214.333 42.667 C 214.333 42.942,214.258 43.167,214.167 43.167 C 214.075 43.167,214.000 43.471,214.000 43.842 C 214.000 44.761,213.511 46.846,213.229 47.128 C 213.103 47.254,213.000 47.460,213.000 47.587 C 213.000 47.713,212.813 48.018,212.583 48.266 C 212.354 48.513,212.167 48.769,212.167 48.834 C 212.167 48.988,210.489 50.667,210.335 50.667 C 210.271 50.667,210.003 50.852,209.740 51.078 C 209.476 51.304,209.034 51.539,208.756 51.599 C 208.477 51.659,208.203 51.782,208.146 51.871 C 208.025 52.062,206.287 52.494,205.625 52.497 C 205.373 52.499,205.167 52.575,205.167 52.667 C 205.167 52.860,202.224 52.901,202.139 52.708 C 202.108 52.640,201.409 52.447,200.586 52.280 C 199.762 52.112,199.049 51.915,199.002 51.840 C 198.955 51.765,198.635 51.587,198.292 51.444 C 197.948 51.301,197.667 51.105,197.667 51.009 C 197.667 50.912,197.573 50.832,197.458 50.830 C 197.344 50.828,196.951 50.566,196.585 50.247 C 196.219 49.928,195.872 49.667,195.813 49.667 C 195.754 49.667,195.661 49.535,195.608 49.375 C 195.486 49.014,195.175 48.542,194.792 48.140 C 194.631 47.971,194.500 47.726,194.500 47.595 C 194.500 47.464,194.382 47.239,194.238 47.095 C 194.093 46.950,193.850 46.214,193.696 45.458 C 193.542 44.702,193.360 44.058,193.292 44.028 C 193.223 43.997,193.167 43.385,193.167 42.667 C 193.167 41.949,193.223 41.336,193.292 41.306 C 193.360 41.275,193.545 40.619,193.702 39.847 C 193.859 39.076,194.056 38.401,194.141 38.347 C 194.226 38.294,194.413 37.969,194.556 37.625 C 194.699 37.281,194.895 37.000,194.991 37.000 C 195.088 37.000,195.167 36.893,195.167 36.763 C 195.167 36.466,197.117 34.500,197.412 34.500 C 197.533 34.500,197.671 34.395,197.721 34.267 C 197.770 34.139,198.078 33.945,198.405 33.837 C 198.732 33.729,199.000 33.578,199.000 33.500 C 199.000 33.342,201.090 32.833,201.741 32.833 C 201.975 32.833,202.167 32.758,202.167 32.667 C 202.167 32.567,202.806 32.500,203.750 32.500 C 204.621 32.500,205.333 32.560,205.333 32.634 M334.500 32.667 C 334.500 32.758,334.776 32.833,335.114 32.833 C 335.793 32.833,337.868 33.310,338.000 33.496 C 338.046 33.561,338.440 33.748,338.875 33.913 C 339.310 34.077,339.667 34.279,339.667 34.361 C 339.667 34.443,339.798 34.558,339.958 34.616 C 340.366 34.764,342.159 36.537,342.163 36.797 C 342.165 36.914,342.271 37.050,342.398 37.099 C 342.525 37.148,342.762 37.540,342.924 37.969 C 343.087 38.399,343.267 38.787,343.326 38.833 C 344.091 39.431,344.174 45.615,343.427 46.389 C 343.324 46.496,343.134 46.910,343.004 47.309 C 342.874 47.709,342.670 48.073,342.551 48.119 C 342.431 48.165,342.333 48.301,342.333 48.422 C 342.333 48.543,342.146 48.790,341.917 48.970 C 341.688 49.150,341.498 49.362,341.494 49.441 C 341.482 49.754,340.682 50.472,340.000 50.782 C 339.862 50.845,339.675 50.983,339.583 51.089 C 339.492 51.195,339.154 51.383,338.833 51.506 C 338.512 51.630,338.206 51.795,338.152 51.874 C 338.033 52.046,336.397 52.495,335.875 52.498 C 335.669 52.499,335.500 52.575,335.500 52.667 C 335.500 52.768,334.778 52.833,333.667 52.833 C 332.556 52.833,331.833 52.768,331.833 52.667 C 331.833 52.575,331.639 52.500,331.401 52.500 C 330.882 52.500,329.118 52.008,329.000 51.830 C 328.954 51.761,328.635 51.587,328.292 51.444 C 327.948 51.301,327.667 51.105,327.667 51.009 C 327.667 50.912,327.566 50.833,327.443 50.833 C 327.152 50.833,325.167 48.848,325.167 48.557 C 325.167 48.434,325.088 48.333,324.991 48.333 C 324.895 48.333,324.699 48.052,324.556 47.708 C 324.413 47.365,324.239 47.046,324.170 47.000 C 323.978 46.873,323.500 45.100,323.500 44.516 C 323.500 44.232,323.425 44.000,323.333 44.000 C 323.140 44.000,323.100 41.391,323.292 41.306 C 323.360 41.275,323.542 40.631,323.696 39.875 C 323.850 39.120,324.093 38.383,324.238 38.239 C 324.382 38.094,324.500 37.888,324.500 37.780 C 324.500 37.672,324.688 37.365,324.917 37.099 C 325.146 36.833,325.333 36.567,325.333 36.508 C 325.333 36.311,326.647 35.031,327.160 34.727 C 327.439 34.563,327.667 34.377,327.667 34.314 C 327.667 34.251,328.042 34.065,328.500 33.900 C 328.958 33.736,329.333 33.547,329.333 33.480 C 329.333 33.317,331.506 32.833,332.241 32.833 C 332.567 32.833,332.833 32.758,332.833 32.667 C 332.833 32.575,333.208 32.500,333.667 32.500 C 334.125 32.500,334.500 32.575,334.500 32.667 " stroke="none" fill="#fcfcfc" fill-rule="evenodd"></path><path id="path1" d="M51.676 0.343 C 50.994 0.522,50.394 0.724,50.343 0.792 C 50.292 0.861,49.955 1.067,49.594 1.250 C 48.746 1.681,46.679 3.745,46.250 4.589 C 46.067 4.950,45.828 5.340,45.720 5.456 C 45.612 5.572,45.429 6.098,45.314 6.625 C 45.198 7.152,45.024 7.637,44.927 7.702 C 44.659 7.882,44.689 12.202,44.958 12.292 C 45.073 12.330,45.167 12.502,45.167 12.675 C 45.167 13.036,45.654 14.542,45.811 14.667 C 45.869 14.713,46.060 15.032,46.235 15.376 C 46.562 16.018,48.557 18.167,48.826 18.167 C 48.909 18.167,49.079 18.270,49.205 18.396 C 50.731 19.921,58.070 20.654,58.989 19.373 C 59.041 19.300,59.402 19.100,59.792 18.928 C 60.181 18.757,60.500 18.557,60.500 18.486 C 60.500 18.414,60.632 18.314,60.794 18.263 C 62.075 17.856,64.262 14.727,64.666 12.722 C 64.774 12.187,64.931 11.620,65.014 11.461 C 65.210 11.089,65.213 8.919,65.019 8.539 C 64.937 8.380,64.790 7.813,64.691 7.279 C 64.300 5.158,62.047 2.109,60.244 1.262 C 59.881 1.091,59.542 0.888,59.491 0.810 C 58.999 0.061,53.915 -0.243,51.676 0.343 M20.167 16.356 C 19.571 16.438,18.933 16.573,18.750 16.656 C 18.567 16.739,17.873 16.934,17.208 17.088 C 16.544 17.243,16.000 17.418,16.000 17.478 C 16.000 17.538,15.512 17.727,14.917 17.898 C 14.321 18.068,13.833 18.264,13.833 18.331 C 13.833 18.399,13.479 18.590,13.046 18.755 C 12.614 18.920,12.182 19.118,12.088 19.195 C 11.655 19.547,10.161 20.500,10.042 20.500 C 9.969 20.500,9.542 20.837,9.092 21.250 C 8.643 21.662,8.226 22.000,8.165 22.000 C 7.900 22.000,4.731 25.521,4.453 26.125 C 4.358 26.331,4.234 26.500,4.178 26.500 C 4.122 26.500,3.928 26.781,3.748 27.125 C 3.567 27.469,3.373 27.787,3.316 27.833 C 3.006 28.082,1.469 31.355,1.163 32.417 C 1.058 32.783,0.871 33.308,0.747 33.584 C -0.224 35.754,-0.169 46.979,0.816 47.666 C 0.883 47.712,1.072 48.256,1.237 48.875 C 1.402 49.494,1.592 50.000,1.659 50.000 C 1.726 50.000,1.875 50.319,1.990 50.708 C 2.105 51.098,2.294 51.529,2.410 51.667 C 2.526 51.804,2.758 52.235,2.926 52.625 C 3.093 53.015,3.274 53.333,3.328 53.333 C 3.381 53.333,3.573 53.613,3.754 53.954 C 3.935 54.296,4.196 54.704,4.333 54.860 C 4.471 55.017,4.733 55.352,4.917 55.604 C 5.358 56.212,8.959 59.833,9.122 59.834 C 9.193 59.834,9.512 60.059,9.833 60.335 C 10.154 60.610,10.548 60.877,10.708 60.929 C 10.869 60.980,11.000 61.081,11.000 61.153 C 11.000 61.224,11.300 61.418,11.667 61.583 C 12.033 61.749,12.333 61.948,12.333 62.025 C 12.333 62.103,12.427 62.168,12.542 62.169 C 12.656 62.170,13.162 62.378,13.667 62.632 C 14.171 62.885,14.921 63.200,15.333 63.331 C 15.746 63.462,16.121 63.616,16.167 63.674 C 16.273 63.808,18.381 64.333,18.812 64.333 C 18.992 64.333,19.164 64.400,19.194 64.482 C 19.416 65.075,29.058 65.108,29.500 64.517 C 29.546 64.456,30.071 64.308,30.667 64.188 C 31.262 64.068,32.050 63.839,32.417 63.680 C 32.783 63.520,33.402 63.290,33.792 63.168 C 34.181 63.046,34.500 62.884,34.500 62.807 C 34.500 62.730,34.610 62.667,34.744 62.667 C 35.069 62.667,36.167 62.138,36.167 61.982 C 36.167 61.914,36.421 61.775,36.732 61.672 C 37.043 61.570,37.512 61.302,37.774 61.076 C 38.036 60.851,38.341 60.667,38.452 60.667 C 38.564 60.667,38.735 60.517,38.833 60.333 C 38.931 60.150,39.108 60.000,39.226 60.000 C 39.344 60.000,39.602 59.831,39.799 59.625 C 39.997 59.419,40.517 58.950,40.955 58.584 C 41.394 58.218,42.052 57.560,42.418 57.122 C 42.784 56.684,43.252 56.164,43.458 55.966 C 43.665 55.768,43.833 55.505,43.833 55.381 C 43.833 55.258,43.949 55.112,44.089 55.058 C 44.230 55.004,44.466 54.725,44.613 54.438 C 44.760 54.151,44.941 53.877,45.015 53.829 C 45.212 53.700,47.167 49.805,47.167 49.540 C 47.167 49.416,47.310 49.000,47.484 48.616 C 47.659 48.231,47.896 47.429,48.011 46.833 C 48.126 46.237,48.276 45.712,48.344 45.667 C 48.925 45.274,48.926 36.646,48.344 35.417 C 48.257 35.233,48.065 34.523,47.916 33.838 C 47.767 33.153,47.585 32.515,47.512 32.421 C 47.438 32.327,47.244 31.837,47.081 31.333 C 46.918 30.829,46.732 30.379,46.668 30.333 C 46.605 30.287,46.418 29.894,46.254 29.458 C 46.089 29.023,45.904 28.667,45.842 28.667 C 45.780 28.667,45.625 28.403,45.499 28.080 C 45.372 27.757,45.133 27.370,44.967 27.221 C 44.802 27.071,44.667 26.848,44.667 26.726 C 44.667 26.603,44.517 26.409,44.333 26.295 C 44.150 26.180,44.000 26.018,44.000 25.935 C 44.000 25.535,40.981 22.345,39.667 21.356 C 39.346 21.114,38.938 20.785,38.760 20.625 C 38.583 20.465,38.339 20.333,38.219 20.333 C 38.098 20.333,38.000 20.264,38.000 20.178 C 38.000 20.093,37.644 19.849,37.208 19.637 C 36.773 19.424,36.379 19.205,36.333 19.149 C 36.191 18.976,33.776 17.878,33.292 17.766 C 33.040 17.708,32.833 17.596,32.833 17.518 C 32.833 17.440,32.177 17.240,31.375 17.074 C 30.573 16.908,29.879 16.720,29.833 16.657 C 29.526 16.231,22.647 16.017,20.167 16.356 " stroke="none" fill="#7c04fc" fill-rule="evenodd"></path><path id="path2" d="" stroke="none" fill="#100bcfc" fill-rule="evenodd"></path><path id="path3" d="" stroke="none" fill="#100bcfc" fill-rule="evenodd"></path><path id="path4" d="" stroke="none" fill="#100bcfc" fill-rule="evenodd"></path></g></svg>