<svg fill="none" xmlns="http://www.w3.org/2000/svg" viewBox="0 0 92 96">
  <path
    d="M17.618 96h-1.82l-3.531-9.188h2.41l2.229 6.17 2.457-6.17h2.034l2.477 6.15 2.229-6.15h2.386L24.947 96H22.89l-2.542-6.263L17.806 96h-.188Zm21.18 0h-2.006l-1.086-2.057h-4.902L29.72 96h-2.422l4.949-9.188h2.062c1.652 3.064 3.306 6.127 4.962 9.188h-.472Zm-5.543-6.695-1.472 2.775h2.934l-1.462-2.775ZM48.293 96H40.51v-9.188h2.257v7.276h5.811V96h-.285Zm9.78 0H50.29v-9.188h2.257v7.276h5.811V96h-.285Zm10.506 0h-8.51v-9.188h8.708v1.875H62.29v1.695h5.8v1.863H62.29v1.88h6.575V96h-.286Zm7.143 0H73.75v-7.276h-3.915V86.81h10.114v1.913h-3.94V96h-.287Z"
    fill="#fff" />
  <path fill-rule="evenodd" clip-rule="evenodd"
    d="m13.409 82.514-1.519-2.88H5.02l-1.518 2.88H.109L7.042 69.64h2.891l6.953 12.874h-3.48.003Zm-4.953-9.378-2.06 3.886h4.107l-2.048-3.886h.001Zm10.164 9.379V69.64h3.123l5.504 7.7 5.454-7.7h3.105v12.874h-3.008v-8.273l-4.342 6.22H25.99l-4.363-6.15v8.203H18.62Zm30.178 0h-9.18V69.64h8.922a5.143 5.143 0 0 1 3.169.902 3.106 3.106 0 0 1 1.215 2.571 3.135 3.135 0 0 1-1.434 2.701c.453.207.86.505 1.192.877.517.595.794 1.36.777 2.149a3.29 3.29 0 0 1-1.273 2.735 5.486 5.486 0 0 1-3.388.94Zm.614-10a2.108 2.108 0 0 0-1.303-.335h-5.38v2.546h5.397c.45.026.896-.104 1.263-.367a1.167 1.167 0 0 0 .406-.94 1.085 1.085 0 0 0-.383-.904Zm.377 5.147a2.384 2.384 0 0 0-1.456-.377H42.73v2.686h5.657a2.365 2.365 0 0 0 1.428-.35 1.132 1.132 0 0 0 .412-.957 1.195 1.195 0 0 0-.438-1v-.002Zm6.584 4.85V69.64h3.163v12.874l-3.163-.002Zm6.975 0V69.64H71.7a5.239 5.239 0 0 1 3.506 1.091 3.925 3.925 0 0 1 1.292 3.104 3.84 3.84 0 0 1-1.146 2.884 4.488 4.488 0 0 1-2.314 1.106l4.356 4.69h-4.04l-4.088-4.433H66.51v4.433h-3.163v-.003Zm9.518-9.828a2.441 2.441 0 0 0-1.563-.416h-4.792v3.186h4.792a2.44 2.44 0 0 0 1.556-.42 1.42 1.42 0 0 0 .476-1.165 1.45 1.45 0 0 0-.47-1.185Zm6.703 9.828V69.64H91.89v2.628H82.68v2.374h8.124v2.611H82.68v2.633h9.211v2.63H79.568v-.004Z"
    fill="#fff" />
  <path
    d="m58.326 22.372 7.78 16.56a.468.468 0 0 1-.097.514L45.546 59.219a.229.229 0 0 1-.384-.172V40.881L58.06 28.433a.419.419 0 0 0 .134-.325l.038-5.736c0-.039.077-.039.096 0h-.002Z"
    fill="#fff" />
  <path fill-rule="evenodd" clip-rule="evenodd"
    d="M45.163 40.882v18.165a.229.229 0 0 0 .383.171l20.463-19.77a.468.468 0 0 0 .096-.515l-7.99-10.56-12.952 12.509Z"
    fill="url(#a)" />
  <path fill-rule="evenodd" clip-rule="evenodd"
    d="M58.273 22.323h-.003a.044.044 0 0 0-.043.029.045.045 0 0 0-.003.018l-.033 5.735a.474.474 0 0 1-.075.267l8.02 10.824a.498.498 0 0 0-.038-.285l-7.78-16.56a.053.053 0 0 0-.047-.027h.002Z"
    fill="url(#b)" />
  <path fill-rule="evenodd" clip-rule="evenodd"
    d="M66.136 39.196a.5.5 0 0 0-.038-.286l-.4-.86-7.244-9.222 7.682 10.368Z" fill="#fff" />
  <path
    d="m39.931 8.471-3.657 10.364a.48.48 0 0 0 .02.363l3.41 6.712-9.389 5.314a.246.246 0 0 1-.325-.096L27.959 26.9a.406.406 0 0 1 .038-.44L39.838 8.41a.057.057 0 0 1 .096.057l-.003.004Z"
    fill="#fff" />
  <path fill-rule="evenodd" clip-rule="evenodd"
    d="M39.872 8.399a.051.051 0 0 0-.036.015l-11.335 17.28-.013.022 7.784-6.881.025-.07v-.005L39.93 8.471a.057.057 0 0 0-.058-.072Z"
    fill="url(#c)" />
  <path fill-rule="evenodd" clip-rule="evenodd"
    d="M27.995 26.465a.407.407 0 0 0-.039.44l2.031 4.228a.246.246 0 0 0 .326.095l9.388-5.314-3.41-6.712a.477.477 0 0 1-.02-.363l-8.276 7.626Z"
    fill="url(#d)" />
  <path d="m28.483 25.72-.482.736 8.268-7.62-7.786 6.885Z" fill="#fff" />
  <path fill-rule="evenodd" clip-rule="evenodd"
    d="M45.163.095v16.12a.457.457 0 0 1-.096.268l-18.298 24.8a.444.444 0 0 0 .057.593l12.837 12.39a.22.22 0 0 0 .365-.076l13.948-32.64a.527.527 0 0 0 0-.343L45.335.057A.083.083 0 0 0 45.257 0a.094.094 0 0 0-.095.093v.002Z"
    fill="url(#e)" />
  <path fill-rule="evenodd" clip-rule="evenodd"
    d="M45.253.002a.094.094 0 0 0-.094.093l.006 16.12a.447.447 0 0 1-.024.134l8.723 4.593L45.329.059a.082.082 0 0 0-.076-.057Z"
    fill="url(#f)" />
  <path fill-rule="evenodd" clip-rule="evenodd"
    d="M54.007 21.385a.52.52 0 0 0-.027-.167l-.111-.273-8.73-4.596 1.672.956 7.196 4.08Z"
    fill="#fff" />
  <defs>
    <linearGradient id="a" x1="56.786" y1="46.298" x2="45.628" y2="43.718"
      gradientUnits="userSpaceOnUse">
      <stop stop-color="#fff" />
      <stop offset=".562" stop-color="#CACDE6" />
      <stop offset="1" stop-color="#54597A" />
    </linearGradient>
    <linearGradient id="b" x1="58.597" y1="20.855" x2="66.76" y2="27.601"
      gradientUnits="userSpaceOnUse">
      <stop stop-color="#E7E9FB" />
      <stop offset="1" stop-color="#fff" />
    </linearGradient>
    <linearGradient id="c" x1="40.744" y1="9.472" x2="25.127" y2="19.909"
      gradientUnits="userSpaceOnUse">
      <stop stop-color="#E7E9FB" />
      <stop offset="1" stop-color="#fff" />
    </linearGradient>
    <linearGradient id="d" x1="33.192" y1="22.527" x2="34.365" y2="28.751"
      gradientUnits="userSpaceOnUse">
      <stop stop-color="#E7E9FB" />
      <stop offset="1" stop-color="#54597A" />
    </linearGradient>
    <linearGradient id="e" x1="12.226" y1="58.082" x2="57.067" y2="55.175"
      gradientUnits="userSpaceOnUse">
      <stop stop-color="#fff" />
      <stop offset=".322" stop-color="#fff" />
      <stop offset="1" stop-color="#CACDE6" />
    </linearGradient>
    <linearGradient id="f" x1="44.17" y1="5.739" x2="58.443" y2="11.487"
      gradientUnits="userSpaceOnUse">
      <stop stop-color="#CACDE6" />
      <stop offset="1" stop-color="#F2F3FA" />
    </linearGradient>
  </defs>
</svg>