<svg xmlns="http://www.w3.org/2000/svg" xmlns:xlink="http://www.w3.org/1999/xlink" width="111.98" height="128.468" viewBox="0 0 111.98 128.468">
  <defs>
    <linearGradient id="linear-gradient" x1="0.5" y1="0.049" x2="0.5" y2="0.959" gradientUnits="objectBoundingBox">
      <stop offset="0" stop-color="#3e436b"/>
      <stop offset="1" stop-color="#2d314d"/>
    </linearGradient>
    <filter id="Path_1847" x="0" y="1.257" width="111.98" height="127.211" filterUnits="userSpaceOnUse">
      <feOffset dy="10" input="SourceAlpha"/>
      <feGaussianBlur stdDeviation="3" result="blur"/>
      <feFlood flood-opacity="0.161"/>
      <feComposite operator="in" in2="blur"/>
      <feComposite in="SourceGraphic"/>
    </filter>
    <clipPath id="clip-path">
      <path id="Path_1858" data-name="Path 1858" d="M708.756,365.03c8.733,0,15.806,2.564,15.806,5.732s-7.09,5.372-15.814,5.372-15.8-2.212-15.8-5.372,7.073-5.732,15.806-5.732" transform="translate(-692.95 -365.03)"/>
    </clipPath>
    <clipPath id="clip-path-2">
      <path id="Path_1862" data-name="Path 1862" d="M707.64,373.51c0,.7,1.534,1.274,3.428,1.274s3.428-.57,3.428-1.274v-2.43H707.64Z" transform="translate(-707.64 -371.08)"/>
    </clipPath>
  </defs>
  <g id="Gas_Tank_NFT" transform="translate(7.743)">
    <g id="Group_516" data-name="Group 516">
      <g id="Group_515" data-name="Group 515">
        <g transform="matrix(1, 0, 0, 1, -7.74, 0)" filter="url(#Path_1847)">
          <path id="Path_1847-2" data-name="Path 1847" d="M702.689,451.6a47,47,0,0,1-47-46.99V368.222a13.74,13.74,0,0,1,9.135-12.931l33.816-11.247a12.807,12.807,0,0,1,8.079,0L740.561,355.3a13.733,13.733,0,0,1,9.11,12.923v36.389a47,47,0,0,1-46.982,46.99Z" transform="translate(-646.69 -342.13)" fill="url(#linear-gradient)"/>
        </g>
        <path id="Path_1848" data-name="Path 1848" d="M702.446,344.4a11.729,11.729,0,0,1,3.646.587l33.816,11.247a12.487,12.487,0,0,1,8.28,11.741v36.389a45.733,45.733,0,1,1-91.466,0V367.979a12.5,12.5,0,0,1,8.272-11.741l33.816-11.247a11.558,11.558,0,0,1,3.637-.587m0-2.514a14.126,14.126,0,0,0-4.442.721l-33.841,11.255a14.984,14.984,0,0,0-9.973,14.113v36.389a48.26,48.26,0,0,0,21.664,40.269h0a48.233,48.233,0,0,0,53.167,0h0a48.249,48.249,0,0,0,21.664-40.269V367.979a14.976,14.976,0,0,0-9.973-14.113l-33.841-11.255a14.019,14.019,0,0,0-4.425-.721Z" transform="translate(-654.19 -341.89)" fill="#6770b3"/>
      </g>
    </g>
    <g id="Group_517" data-name="Group 517" transform="translate(30.242 82.346)">
      <text id="x1.25" transform="translate(0 15)" fill="#ebecff" font-size="14" font-family="Poppins" font-weight="600"><tspan x="0" y="0">x1.25</tspan></text>
    </g>
    <g id="Group_528" data-name="Group 528" transform="translate(17.033 17.842)">
      <g id="Group_526" data-name="Group 526" transform="translate(11.946)">
        <path id="Path_1849" data-name="Path 1849" d="M690.01,372.221l36.514-.151v44.635h0v.008c0,4.785-8.171,8.657-18.253,8.657s-18.253-3.88-18.253-8.657v-.008h0V372.221Z" transform="translate(-688.971 -364.62)" fill="#904dff" fill-rule="evenodd"/>
        <g id="Group_518" data-name="Group 518" transform="translate(1.039 7.543)">
          <path id="Path_1850" data-name="Path 1850" d="M717.894,425.483a35.91,35.91,0,0,1-7.844.838,37.253,37.253,0,0,1-5.12-.344l-3.939-47.837,18.806-.2Z" transform="translate(-691.788 -373.113)" fill="#cca4ff" fill-rule="evenodd"/>
          <path id="Path_1851" data-name="Path 1851" d="M732.531,372.18v44.535h0v.008c0,2.414-2.078,4.593-5.431,6.16a8.141,8.141,0,0,0,2.841-7.191c-.31-3.143.126-16.024.436-20.239a8.377,8.377,0,0,0-1.827-6.361c.939-.947,1.592-2.447,1.592-5.54s.067-4.593.092-6.126-.93-1.534-1.567-1.441l2.849-3.478Z" transform="translate(-696.016 -372.18)" fill="#6000ff" fill-rule="evenodd"/>
          <path id="Path_1852" data-name="Path 1852" d="M690.01,372.76h1.349l.947,1.651c0,2.883-.025,6.554,0,8.5s.461,5.489,1.71,6.461c0,0-2.271,1.433-1.944,6.16s.461,18.991.511,20.985.495,5.146,2.321,6.21c-3.034-1.55-4.894-3.62-4.894-5.9v-.008h0V372.76Z" transform="translate(-690.01 -372.274)" fill="#6000ff" fill-rule="evenodd"/>
          <path id="Path_1853" data-name="Path 1853" d="M694.216,412.289s-1.525-.913-1.592-4.291-1.173,3.931-1.173,3.931l1.341,8.02c0,.008.117-6.772,1.425-7.66" transform="translate(-690.243 -377.836)" fill="#6000ff" fill-rule="evenodd"/>
          <path id="Path_1854" data-name="Path 1854" d="M728.64,412.079s1.525-.914,1.592-4.291,1.173,3.931,1.173,3.931l-1.291,8.02c-.008.042-.168-6.772-1.475-7.66" transform="translate(-696.266 -377.802)" fill="#6000ff" fill-rule="evenodd"/>
        </g>
        <path id="Path_1855" data-name="Path 1855" d="M690.01,372.221l36.514-.151v44.635h0v.008c0,4.785-8.171,8.657-18.253,8.657s-18.253-3.88-18.253-8.657v-.008h0V372.221Z" transform="translate(-688.971 -364.62)" fill="none" stroke="#24263d" stroke-width="1"/>
        <ellipse id="Ellipse_172" data-name="Ellipse 172" cx="18.253" cy="7.031" rx="18.253" ry="7.031" transform="translate(1.048 0.419)" fill="#904dff"/>
        <ellipse id="Ellipse_173" data-name="Ellipse 173" cx="18.253" cy="7.45" rx="18.253" ry="7.45" transform="translate(1.048)" fill="none" stroke="#24263d" stroke-width="1"/>
        <path id="Path_1856" data-name="Path 1856" d="M708.793,365.1c8.59,0,15.563,2.564,15.563,5.732s-6.964,5.732-15.563,5.732S693.23,374,693.23,370.832s6.973-5.732,15.563-5.732" transform="translate(-689.492 -363.491)" fill="#6000ff" fill-rule="evenodd"/>
        <g id="Group_520" data-name="Group 520" transform="translate(3.503 1.55)">
          <g id="Group_519" data-name="Group 519" clip-path="url(#clip-path)">
            <path id="Path_1857" data-name="Path 1857" d="M710.338,368.79c6.78,0,12.278,2.564,12.278,5.732s-5.5,5.732-12.278,5.732-12.278-2.564-12.278-5.732,5.5-5.732,12.278-5.732" transform="translate(-693.778 -365.639)" fill="#904dff" fill-rule="evenodd"/>
          </g>
        </g>
        <path id="Path_1859" data-name="Path 1859" d="M708.882,365.56c8.389,0,15.169,2.6,15.169,5.766s-6.8,5.313-15.186,5.313-15.186-2.145-15.186-5.313S700.493,365.56,708.882,365.56Z" transform="translate(-689.565 -363.565)" fill="none" stroke="#24263d" stroke-width="1"/>
        <g id="cap" transform="translate(15.806 4.903)">
          <path id="Path_1860" data-name="Path 1860" d="M707.64,373.51c0,.7,1.534,1.274,3.428,1.274s3.428-.57,3.428-1.274v-2.43H707.64Z" transform="translate(-707.632 -369.362)" fill="#ffbc00" fill-rule="evenodd"/>
          <g id="Group_522" data-name="Group 522" transform="translate(0.008 1.718)">
            <g id="Group_521" data-name="Group 521" clip-path="url(#clip-path-2)">
              <path id="Path_1861" data-name="Path 1861" d="M707.64,373.51c0,.377.436.712,1.131.939.067-1.793,1.165-3.218,2.514-3.218,1.307,0,2.38,1.341,2.506,3.051.444-.218.712-.486.712-.771v-2.43h-6.855v2.43Z" transform="translate(-707.64 -371.08)" fill="#b78404" fill-rule="evenodd"/>
            </g>
          </g>
          <path id="Path_1863" data-name="Path 1863" d="M707.64,373.51c0,.7,1.534,1.274,3.428,1.274s3.428-.57,3.428-1.274v-2.43H707.64Z" transform="translate(-707.632 -369.362)" fill="none" stroke="#24263d" stroke-width="1"/>
          <path id="Path_1864" data-name="Path 1864" d="M711.068,369.57c-1.894,0-3.428.57-3.428,1.274s1.534,1.274,3.428,1.274,3.428-.57,3.428-1.274-1.534-1.274-3.428-1.274" transform="translate(-707.632 -369.117)" fill="#ffbc00" fill-rule="evenodd"/>
          <g id="Group_523" data-name="Group 523" transform="translate(0.008 0.913)">
            <path id="Path_1865" data-name="Path 1865" d="M707.875,370.472a.651.651,0,0,0-.235.461c0,.7,1.534,1.274,3.428,1.274s3.428-.57,3.428-1.274c0-.31-.293-.6-.788-.813a.576.576,0,0,1,.285.444c0,.587-1.374,1.056-3.059,1.056s-3.059-.478-3.059-1.056a.172.172,0,0,1,0-.092" transform="translate(-707.64 -370.12)" fill="#f9e2c3" fill-rule="evenodd"/>
          </g>
          <path id="Path_1866" data-name="Path 1866" d="M711.066,369.03c-1.894,0-3.436.57-3.436,1.274s1.534,1.274,3.436,1.274,3.436-.57,3.436-1.274S712.96,369.03,711.066,369.03Z" transform="translate(-707.63 -369.03)" fill="none" stroke="#24263d" stroke-width="1"/>
        </g>
        <path id="Path_1867" data-name="Path 1867" d="M726.324,386.33a4.211,4.211,0,0,1,1.031,2.657c0,4.526-8.641,8.2-19.292,8.2s-19.292-3.671-19.292-8.2a4.276,4.276,0,0,1,1.031-2.657v.293h0v.034c0,4.526,8.171,8.2,18.261,8.2s18.261-3.671,18.261-8.2v-.327Z" transform="translate(-688.77 -366.929)" fill="#cca4ff" fill-rule="evenodd"/>
        <g id="Group_524" data-name="Group 524" transform="translate(0.008 19.393)">
          <path id="Path_1868" data-name="Path 1868" d="M698.066,395.991c-5.565-1.441-9.286-4.039-9.286-7.015a4.277,4.277,0,0,1,1.031-2.657v.293h0v.034c0,2.95,3.478,5.54,8.691,6.981a3.283,3.283,0,0,0-.494,1.752,3.532,3.532,0,0,0,.059.612" transform="translate(-688.78 -386.32)" fill="#904dff" fill-rule="evenodd"/>
          <path id="Path_1869" data-name="Path 1869" d="M691.311,393.041c-1.609-1.2-2.531-2.59-2.531-4.065a4.277,4.277,0,0,1,1.031-2.657v.293h0v.034a5.034,5.034,0,0,0,1.953,3.7,2.441,2.441,0,0,0-.679,1.685,2.562,2.562,0,0,0,.226,1.014" transform="translate(-688.78 -386.32)" fill="#6000ff" fill-rule="evenodd"/>
          <path id="Path_1870" data-name="Path 1870" d="M726.13,395.4c4.442-1.5,7.283-3.822,7.283-6.42a4.228,4.228,0,0,0-1.031-2.657v.293h0v.034c0,2.464-2.422,4.676-6.252,6.177a4.068,4.068,0,0,1,.2,1.282,4.333,4.333,0,0,1-.2,1.291" transform="translate(-694.828 -386.32)" fill="#904dff" fill-rule="evenodd"/>
          <path id="Path_1871" data-name="Path 1871" d="M731.7,393.041c1.609-1.2,2.531-2.59,2.531-4.065a4.228,4.228,0,0,0-1.031-2.657v.293h0v.034a5.035,5.035,0,0,1-1.953,3.7,2.442,2.442,0,0,1,.679,1.685,2.3,2.3,0,0,1-.226,1.014" transform="translate(-695.657 -386.32)" fill="#6000ff" fill-rule="evenodd"/>
        </g>
        <path id="Path_1872" data-name="Path 1872" d="M726.324,386.33a4.211,4.211,0,0,1,1.031,2.657c0,4.526-8.641,8.2-19.292,8.2s-19.292-3.671-19.292-8.2a4.276,4.276,0,0,1,1.031-2.657v.293h0v.034c0,4.526,8.171,8.2,18.261,8.2s18.261-3.671,18.261-8.2v-.327Z" transform="translate(-688.77 -366.929)" fill="none" stroke="#24263d" stroke-width="1"/>
        <path id="Path_1873" data-name="Path 1873" d="M726.324,406.81a4.211,4.211,0,0,1,1.031,2.657c0,4.526-8.641,8.2-19.292,8.2s-19.292-3.671-19.292-8.2a4.276,4.276,0,0,1,1.031-2.657v.293h0v.042c0,4.526,8.171,8.2,18.261,8.2s18.261-3.671,18.261-8.2v-.335Z" transform="translate(-688.77 -370.245)" fill="#cca4ff" fill-rule="evenodd"/>
        <g id="Group_525" data-name="Group 525" transform="translate(0.008 36.556)">
          <path id="Path_1874" data-name="Path 1874" d="M698.066,416.471c-5.565-1.441-9.286-4.039-9.286-7.015a4.277,4.277,0,0,1,1.031-2.657v.293h0v.042c0,2.95,3.478,5.54,8.691,6.981a3.283,3.283,0,0,0-.494,1.752,3.514,3.514,0,0,0,.059.6" transform="translate(-688.78 -406.8)" fill="#904dff" fill-rule="evenodd"/>
          <path id="Path_1875" data-name="Path 1875" d="M691.311,413.531c-1.609-1.2-2.531-2.59-2.531-4.065a4.277,4.277,0,0,1,1.031-2.657v.293h0v.042a5.034,5.034,0,0,0,1.953,3.7,2.441,2.441,0,0,0-.679,1.685,2.555,2.555,0,0,0,.226,1.006" transform="translate(-688.78 -406.802)" fill="#6000ff" fill-rule="evenodd"/>
          <path id="Path_1876" data-name="Path 1876" d="M726.13,415.886c4.442-1.5,7.283-3.822,7.283-6.42a4.228,4.228,0,0,0-1.031-2.657v.293h0v.042c0,2.464-2.422,4.676-6.252,6.177a4.068,4.068,0,0,1,.2,1.282,4.363,4.363,0,0,1-.2,1.282" transform="translate(-694.828 -406.802)" fill="#904dff" fill-rule="evenodd"/>
          <path id="Path_1877" data-name="Path 1877" d="M731.7,413.531c1.609-1.2,2.531-2.59,2.531-4.065a4.228,4.228,0,0,0-1.031-2.657v.293h0v.042a5.035,5.035,0,0,1-1.953,3.7,2.442,2.442,0,0,1,.679,1.685,2.3,2.3,0,0,1-.226,1.006" transform="translate(-695.657 -406.802)" fill="#6000ff" fill-rule="evenodd"/>
        </g>
        <path id="Path_1878" data-name="Path 1878" d="M726.324,406.81a4.211,4.211,0,0,1,1.031,2.657c0,4.526-8.641,8.2-19.292,8.2s-19.292-3.671-19.292-8.2a4.276,4.276,0,0,1,1.031-2.657v.293h0v.042c0,4.526,8.171,8.2,18.261,8.2s18.261-3.671,18.261-8.2v-.335Z" transform="translate(-688.77 -370.245)" fill="none" stroke="#24263d" stroke-width="1"/>
      </g>
      <g id="Group_527" data-name="Group 527" transform="translate(0 11.951)">
        <path id="Path_1879" data-name="Path 1879" d="M694.1,402.34c.394.017.67,1.157.62,2.548s-.4,2.506-.8,2.5-.67-1.157-.62-2.548S693.709,402.332,694.1,402.34Z" transform="translate(-677.556 -381.472)" fill="none" stroke="#24263d" stroke-width="1"/>
        <path id="Path_1880" data-name="Path 1880" d="M692.242,405.26c-4.215,0-7.517,1.156-6.2,6.8,2.682,11.515-3.931,10.417-3.931,5.531v-8.624" transform="translate(-675.745 -381.945)" fill="none" stroke="#24263d" stroke-width="2"/>
        <path id="Path_1881" data-name="Path 1881" d="M683.76,396.407a13.954,13.954,0,0,1,1.358,1.869,1.443,1.443,0,0,1,.109,1.584,1.8,1.8,0,0,0-.344,1.165c-.034.721.52,1.157.922.511a8.675,8.675,0,0,0,.821-1.55,2.889,2.889,0,0,0-.218-2.673c-.553-1.031-.913-1.852-.913-1.852Z" transform="translate(-676.012 -380.358)" fill="#898dcb" fill-rule="evenodd"/>
        <path id="Path_1882" data-name="Path 1882" d="M683.76,396.405a13.954,13.954,0,0,1,1.358,1.869,1.384,1.384,0,0,1,.109,1.584,2.152,2.152,0,0,0-.352,1.048c-.042.721.26,1.3.662.654a9.531,9.531,0,0,0,1.081-1.584,2.889,2.889,0,0,0-.218-2.673c-.553-1.031-.913-1.852-.913-1.852Z" transform="translate(-676.012 -380.356)" fill="none" stroke="#24263d" stroke-width="1"/>
        <path id="Path_1883" data-name="Path 1883" d="M679.558,406.284c0-1.793-2.154-4.534-3.126-5.59s-2.179-2.983-1.852-4.919a21.383,21.383,0,0,1,1.818-5.791c.528-.687,1.617-.36,3.654.059s5.146.846,5.045,2.548.159,1.735-1.14,2.187-3.109,1.986-3.059,3.7a4.431,4.431,0,0,0,1.7,3.143c.6.654.746,1.509.377,2.967A3.645,3.645,0,0,1,682,406.5a3.816,3.816,0,0,1-2.439-.218" transform="translate(-674.517 -379.407)" fill="#6770b3" fill-rule="evenodd"/>
        <path id="Path_1884" data-name="Path 1884" d="M681.206,390.22c2.028.4,4.8.872,4.71,2.481-.1,1.7.159,1.735-1.14,2.187s-3.109,1.986-3.059,3.7a4.43,4.43,0,0,0,1.7,3.143c.6.654.746,1.509.377,2.967-.025.109-.059.209-.084.31a11.232,11.232,0,0,0-2.162-3.352c-2.757-3.059-2.1-6.948-.344-11.431" transform="translate(-675.352 -379.509)" fill="#898dcb" fill-rule="evenodd"/>
        <path id="Path_1885" data-name="Path 1885" d="M679.874,406.419a.575.575,0,0,1-.352-.478c-.243-1.785-2.2-4.257-3.1-5.238-.964-1.048-2.179-2.983-1.852-4.919a21.382,21.382,0,0,1,1.819-5.791c.528-.687,1.617-.36,3.654.059s5.146.846,5.045,2.548.159,1.735-1.14,2.187-3.109,1.986-3.059,3.7a4.43,4.43,0,0,0,1.7,3.143c.6.654.746,1.509.377,2.967a4.767,4.767,0,0,1-.679,1.576.994.994,0,0,1-.7.411A3.9,3.9,0,0,1,679.874,406.419Z" transform="translate(-674.515 -379.408)" fill="none" stroke="#24263d" stroke-width="1"/>
        <path id="Path_1886" data-name="Path 1886" d="M677.74,388.05s2.179-6.663,4.517-10.09l1.6.846s-3.218,5.514-4.207,9.445a.984.984,0,0,1-.478.352,1.089,1.089,0,0,1-1.433-.553" transform="translate(-675.037 -377.524)" fill="#6770b3" fill-rule="evenodd"/>
        <path id="Path_1887" data-name="Path 1887" d="M677.52,387.622s2.238-6.755,4.576-10.182l.52.318c-.67,1.324-1.584,3.159-2.313,4.718a16.877,16.877,0,0,0-1.752,5.766.964.964,0,0,1-1.031-.62" transform="translate(-675.002 -377.44)" fill="#898dcb" fill-rule="evenodd"/>
        <path id="Path_1888" data-name="Path 1888" d="M682.105,378.592a7.594,7.594,0,0,1-.9-.612c-1.232,1.659-4.458,10-4.458,10,.209.637,1.768.779,2.263.629a1.036,1.036,0,0,0,.478-.352c.989-3.931,3.059-7.182,4.165-9.336A8.034,8.034,0,0,1,682.105,378.592Z" transform="translate(-674.877 -377.527)" fill="none" stroke="#24263d" stroke-width="1"/>
        <path id="Path_1889" data-name="Path 1889" d="M683.427,377.969c.888.411,1.157.754,1.039.9s-1.022-.1-1.5-.31-.955-.52-.9-.662S682.58,377.651,683.427,377.969Z" transform="translate(-675.738 -377.492)" fill="none" stroke="#24263d" stroke-width="1"/>
        <path id="Path_1890" data-name="Path 1890" d="M683.5,377.927c.67.327.88.612.788.721s-.771-.075-1.14-.251-.721-.419-.679-.528S682.855,377.667,683.5,377.927Z" transform="translate(-675.803 -377.491)" fill="#6770b3" fill-rule="evenodd"/>
      </g>
    </g>
  </g>
</svg>
