<svg id="Fantom_icon" data-name="Fantom icon" xmlns="http://www.w3.org/2000/svg" width="32" height="32" viewBox="0 0 32 32">
  <rect id="Boundary" width="32" height="32" rx="12" transform="translate(0 32) rotate(-90)" fill="transparent" />
  <g id="Layer_x0020_1" transform="translate(10 6)">
    <path id="Path_56" data-name="Path 56" d="M6.083.168l5.5,3.174V16.033L5.791,19.375,0,16.033V3.342L5.791,0l.292.168Zm.3,7.531v3.977L9.821,9.687,6.379,7.7ZM5.2,11.676V7.7L1.761,9.687,5.2,11.676Zm5.2-.972L5.791,13.367,1.176,10.7v4.653l4.615,2.666,4.615-2.666ZM6.962,6.684l3.444,1.987V4.7L6.962,6.684ZM1.176,8.671,4.62,6.684,1.176,4.7V8.671ZM1.761,3.68l4.03,2.328L9.821,3.68,5.791,1.352,1.761,3.68Z" transform="translate(0 0)" fill="#13b5ec"/>
  </g>
</svg>
