<svg xmlns="http://www.w3.org/2000/svg" xmlns:xlink="http://www.w3.org/1999/xlink" width="54.537" height="18.393" viewBox="0 0 54.537 18.393">
  <defs>
    <linearGradient id="linear-gradient" x1="0.554" y1="0.58" x2="0.052" y2="0.409" gradientUnits="objectBoundingBox">
      <stop offset="0" stop-color="#6000ff"/>
      <stop offset="0.651" stop-color="#4900c3"/>
      <stop offset="1" stop-color="#320086"/>
    </linearGradient>
    <linearGradient id="linear-gradient-2" x1="0.06" y1="-0.087" x2="0.486" y2="0.653" gradientUnits="objectBoundingBox">
      <stop offset="0" stop-color="#6a0aff"/>
      <stop offset="0.047" stop-color="#8c2dff"/>
      <stop offset="0.102" stop-color="#6a0aff"/>
      <stop offset="0.902" stop-color="#af50ff"/>
      <stop offset="1" stop-color="#af50ff"/>
    </linearGradient>
    <linearGradient id="linear-gradient-3" x1="1.071" y1="0.062" x2="0.095" y2="1.049" gradientUnits="objectBoundingBox">
      <stop offset="0" stop-color="#6a0aff"/>
      <stop offset="0.51" stop-color="#8c2dff"/>
      <stop offset="0.969" stop-color="#af50ff"/>
      <stop offset="1" stop-color="#af50ff"/>
    </linearGradient>
    <linearGradient id="linear-gradient-4" x1="0.448" y1="0.297" x2="0.538" y2="0.8" gradientUnits="objectBoundingBox">
      <stop offset="0" stop-color="#6000ff"/>
      <stop offset="1" stop-color="#3e00a5"/>
    </linearGradient>
    <linearGradient id="linear-gradient-5" x1="-0.529" y1="1.069" x2="1.092" y2="0.86" gradientUnits="objectBoundingBox">
      <stop offset="0" stop-color="#ae60ff"/>
      <stop offset="0.322" stop-color="#af50ff"/>
      <stop offset="1" stop-color="#6000ff"/>
    </linearGradient>
    <linearGradient id="linear-gradient-6" x1="-0.111" y1="0.274" x2="0.872" y2="1.224" gradientUnits="objectBoundingBox">
      <stop offset="0" stop-color="#6f0fff"/>
      <stop offset="0.702" stop-color="#af50ff"/>
      <stop offset="1" stop-color="#af50ff"/>
    </linearGradient>
    <linearGradient id="linear-gradient-7" x1="0.015" y1="0.007" x2="0.985" y2="0.95" gradientUnits="objectBoundingBox">
      <stop offset="0" stop-color="#ae60ff"/>
      <stop offset="0.031" stop-color="#b670fa"/>
      <stop offset="1" stop-color="#be80f5"/>
    </linearGradient>
  </defs>
  <g id="Ambire_Wallet" data-name="Ambire Wallet" transform="translate(-6.688 -4.366)">
    <g id="_1967776972864" transform="translate(6.688 4.366)">
      <path id="Path_634" data-name="Path 634" d="M1319.759,794.256l-.656-1.245h-2.969l-.656,1.245h-1.467q1.5-2.783,3-5.567h1.25l3.006,5.567h-1.5Zm-2.141-4.055-.891,1.68h1.776l-.885-1.68Zm4.395,4.055V788.69h1.35l2.38,3.329,2.358-3.329h1.343v5.567h-1.3v-3.577l-1.878,2.69H1325.2l-1.886-2.659v3.547Zm13.049,0h-3.969V788.69h3.857a2.223,2.223,0,0,1,1.37.39,1.343,1.343,0,0,1,.525,1.111,1.356,1.356,0,0,1-.621,1.168,1.562,1.562,0,0,1,.516.379,1.371,1.371,0,0,1,.336.929,1.423,1.423,0,0,1-.551,1.183A2.372,2.372,0,0,1,1335.061,794.256Zm.266-4.323a.913.913,0,0,0-.564-.145h-2.326v1.1h2.333a.852.852,0,0,0,.546-.159.5.5,0,0,0,.176-.407.469.469,0,0,0-.165-.391Zm.163,2.226a1.03,1.03,0,0,0-.63-.163h-2.423v1.161h2.445a1.023,1.023,0,0,0,.619-.151.49.49,0,0,0,.178-.414.516.516,0,0,0-.189-.432Zm2.847,2.1V788.69h1.368v5.567Zm3.016,0V788.69h3.611a2.266,2.266,0,0,1,1.516.472,1.7,1.7,0,0,1,.559,1.342,1.659,1.659,0,0,1-.5,1.247,1.942,1.942,0,0,1-1,.478l1.883,2.028h-1.747l-1.768-1.917h-1.191v1.917h-1.368Zm4.115-4.251a1.056,1.056,0,0,0-.676-.179h-2.072V791.2h2.072a1.056,1.056,0,0,0,.673-.181.615.615,0,0,0,.206-.5.628.628,0,0,0-.2-.513Zm2.9,4.251V788.69h5.328v1.137h-3.982v1.026h3.513v1.129h-3.513v1.138h3.982v1.136h-5.328Z" transform="translate(-1299.157 -785.192)" fill="#3e436b" fill-rule="evenodd"/>
      <path id="Path_635" data-name="Path 635" d="M1316.323,1206.813h-.787l-1.527-3.973h1.042l.963,2.668,1.061-2.668h.879l1.072,2.659.964-2.659h1.032l-1.532,3.973h-.886l-1.1-2.708-1.1,2.708Zm9.158,0h-.867l-.469-.889h-2.12l-.469.889h-1.047q1.07-1.987,2.14-3.973h.892q1.071,1.987,2.145,3.973Zm-2.4-2.895-.636,1.2h1.269Zm6.5,2.895h-3.365v-3.973h.976v3.146h2.513v.827Zm4.229,0h-3.365v-3.973h.976v3.146h2.513v.827Zm4.543,0h-3.679v-3.973h3.765v.811h-2.806v.733h2.507v.805h-2.507V1206h2.843v.811Zm3.09,0h-.853v-3.146H1338.9v-.827h4.372v.827h-1.7v3.146h-.123Z" transform="translate(-1299.157 -1191.917)" fill="#3e436b"/>
      <g id="Group_190" data-name="Group 190">
        <path id="Path_636" data-name="Path 636" d="M522.414,626.586l2.414,5.138a.145.145,0,0,1-.03.16l-6.349,6.135a.07.07,0,0,1-.119-.053V632.33l4-3.862a.13.13,0,0,0,.042-.1l.012-1.78c0-.012.024-.012.03,0Z" transform="translate(-512.596 -619.646)" fill="#6000ff"/>
        <path id="Path_637" data-name="Path 637" d="M518.34,799.511v5.636a.07.07,0,0,0,.119.053h0l6.349-6.135a.146.146,0,0,0,.03-.16h0l-2.479-3.276Z" transform="translate(-512.606 -786.828)" fill-rule="evenodd" fill="url(#linear-gradient)"/>
        <path id="Path_638" data-name="Path 638" d="M881.659,626.01h0a.013.013,0,0,0-.014.014h0l-.01,1.78a.148.148,0,0,1-.023.083l2.488,3.359a.155.155,0,0,0-.012-.089h0l-2.414-5.138a.017.017,0,0,0-.015-.008h0Z" transform="translate(-871.857 -619.084)" fill-rule="evenodd" fill="url(#linear-gradient-2)"/>
        <path id="Path_639" data-name="Path 639" d="M893.484,811.647a.154.154,0,0,0-.012-.089h0l-.125-.267L891.1,808.43l2.384,3.217Z" transform="translate(-881.242 -799.486)" fill="#be80f5" fill-rule="evenodd"/>
        <path id="Path_640" data-name="Path 640" d="M38.2,235.5l-1.135,3.216a.149.149,0,0,0,.006.113l1.058,2.082-2.913,1.649a.076.076,0,0,1-.1-.03l-.63-1.311a.126.126,0,0,1,.012-.136l3.674-5.6a.018.018,0,0,1,.03.018Z" transform="translate(-34.093 -232.874)" fill="#6000ff"/>
        <path id="Path_641" data-name="Path 641" d="M54.233,235.46h0a.016.016,0,0,0-.011,0h0L50.7,240.826l0,.007,2.415-2.135.008-.022h0l1.127-3.192a.018.018,0,0,0-.017-.023Z" transform="translate(-50.139 -232.855)" fill-rule="evenodd" fill="url(#linear-gradient-3)"/>
        <path id="Path_642" data-name="Path 642" d="M34.49,530.547a.126.126,0,0,0-.012.136h0l.63,1.311a.076.076,0,0,0,.1.03h0l2.913-1.649-1.058-2.082a.148.148,0,0,1-.006-.113Z" transform="translate(-34.083 -522.336)" fill-rule="evenodd" fill="url(#linear-gradient-4)"/>
        <path id="Path_643" data-name="Path 643" d="M5.748.019v5a.143.143,0,0,1-.03.083h0L.041,12.8a.138.138,0,0,0,.018.184h0l3.983,3.844a.068.068,0,0,0,.113-.024h0L8.482,6.676a.164.164,0,0,0,0-.107h0L5.8.007A.025.025,0,0,0,5.777-.01h0a.029.029,0,0,0-.029.029Z" transform="translate(-0.013 0.01)" fill-rule="evenodd" fill="url(#linear-gradient-5)"/>
        <path id="Path_644" data-name="Path 644" d="M517.7,0h0a.029.029,0,0,0-.029.029l0,5a.14.14,0,0,1-.007.042L520.367,6.5,517.719.017A.026.026,0,0,0,517.7,0Zm-.035,5.072.517.3Z" transform="translate(-511.933 0)" fill-rule="evenodd" fill="url(#linear-gradient-6)"/>
        <path id="Path_645" data-name="Path 645" d="M520.421,460.023h0a.157.157,0,0,0-.008-.052h0l-.034-.085-2.709-1.425.519.3Z" transform="translate(-511.943 -453.388)" fill-rule="evenodd" fill="url(#linear-gradient-7)"/>
        <path id="Path_646" data-name="Path 646" d="M37.18,530.306l-.15.228L39.6,528.17Z" transform="translate(-36.62 -522.327)" fill="#be80f5"/>
      </g>
    </g>
  </g>
</svg>
