<svg id="Send_2" data-name="Send 2" xmlns="http://www.w3.org/2000/svg" width="24" height="24" viewBox="0 0 24 24">
  <rect id="Boundary" width="24" height="24" transform="translate(0 24) rotate(-90)" fill="none"/>
  <path id="Path_93" data-name="Path 93" d="M1713.414-305.657l-6.458-6.448h13.37a.976.976,0,0,1,.693.288.978.978,0,0,1,.286.693.98.98,0,0,1-.979.981h-8.633l3.1,3.1a.981.981,0,0,1,0,1.386.975.975,0,0,1-.693.288A.974.974,0,0,1,1713.414-305.657Zm-10.375-8.408,6.458-6.448a.98.98,0,0,1,1.385,0,.982.982,0,0,1,0,1.385v0l-3.1,3.1h8.633a.979.979,0,0,1,.979.98.979.979,0,0,1-.286.694.976.976,0,0,1-.693.287Z" transform="translate(1001.354 -1420.159) rotate(135)" fill="#ebecff"/>
</svg>
