<svg id="Moonbeam_icon" data-name="Moonbeam icon" xmlns="http://www.w3.org/2000/svg" width="32" height="32" viewBox="0 0 32 32">
  <rect id="Boundary" width="32" height="32" rx="12" transform="translate(0 32) rotate(-90)" fill="transparent" />
  <g id="Moonbeam_icon-2" data-name="Moonbeam icon" transform="translate(-134.715 -583.813)">
    <path id="Path_99" data-name="Path 99" d="M-1.332,0H12.713a.409.409,0,0,1,.415.4.409.409,0,0,1-.415.4H-1.332A.409.409,0,0,1-1.748.4.409.409,0,0,1-1.332,0Z" transform="translate(146.938 598.915)" fill="#e1137b"/>
    <path id="Path_106" data-name="Path 106" d="M-1.332,0h.013A.409.409,0,0,1-.9.4a.409.409,0,0,1-.415.4h-.013A.409.409,0,0,1-1.748.4.409.409,0,0,1-1.332,0Z" transform="translate(145.467 598.915)" fill="#e1137b"/>
    <path id="Path_107" data-name="Path 107" d="M-1.332,0h.013A.409.409,0,0,1-.9.4a.409.409,0,0,1-.415.4h-.013A.409.409,0,0,1-1.748.4.409.409,0,0,1-1.332,0Z" transform="translate(142.748 600.626)" fill="#e1137b"/>
    <path id="Path_108" data-name="Path 108" d="M-1.332,0h.013A.409.409,0,0,1-.9.4a.409.409,0,0,1-.415.4h-.013A.409.409,0,0,1-1.748.4.409.409,0,0,1-1.332,0Z" transform="translate(145.63 602.266)" fill="#e1137b"/>
    <path id="Path_109" data-name="Path 109" d="M-1.332,0h.013A.409.409,0,0,1-.9.4a.409.409,0,0,1-.415.4h-.013A.409.409,0,0,1-1.748.4.409.409,0,0,1-1.332,0Z" transform="translate(143.468 603.95)" fill="#e1137b"/>
    <path id="Path_110" data-name="Path 110" d="M-1.332,0h.013A.409.409,0,0,1-.9.4a.409.409,0,0,1-.415.4h-.013A.409.409,0,0,1-1.748.4.409.409,0,0,1-1.332,0Z" transform="translate(151.874 605.598)" fill="#e1137b"/>
    <path id="Path_111" data-name="Path 111" d="M-1.332,0h.013A.409.409,0,0,1-.9.4a.409.409,0,0,1-.415.4h-.013A.409.409,0,0,1-1.748.4.409.409,0,0,1-1.332,0Z" transform="translate(148.031 607.322)" fill="#e1137b"/>
    <path id="Path_100" data-name="Path 100" d="M.747,0H10.857a.442.442,0,0,1,.475.4.442.442,0,0,1-.475.4H.747A.442.442,0,0,1,.272.4.442.442,0,0,1,.747,0Z" transform="translate(142.022 600.626)" fill="#e1137b"/>
    <path id="Path_101" data-name="Path 101" d="M.676,0H13.1a.4.4,0,0,1,.4.384.4.4,0,0,1-.4.384H.676a.4.4,0,0,1-.4-.384A.4.4,0,0,1,.676,0Z" transform="translate(144.832 602.302)" fill="#e1137b"/>
    <path id="Path_102" data-name="Path 102" d="M.635,0h5A.368.368,0,0,1,6,.372a.368.368,0,0,1-.363.372h-5A.368.368,0,0,1,.272.372.368.368,0,0,1,.635,0Z" transform="translate(142.667 603.947)" fill="#e1137b"/>
    <path id="Path_103" data-name="Path 103" d="M.42,0H10.666a.368.368,0,0,1,.363.372.368.368,0,0,1-.363.372H.42A.368.368,0,0,1,.057.372.368.368,0,0,1,.42,0Z" transform="translate(149.4 603.947)" fill="#e1137b"/>
    <path id="Path_104" data-name="Path 104" d="M2.52,0H8.845a.368.368,0,0,1,.363.372.368.368,0,0,1-.363.372H2.52A.368.368,0,0,1,2.157.372.368.368,0,0,1,2.52,0Z" transform="translate(149.318 605.652)" fill="#e1137b"/>
    <path id="Path_105" data-name="Path 105" d="M2.52,0H8.845a.374.374,0,0,1,.363.384.374.374,0,0,1-.363.384H2.52A.374.374,0,0,1,2.157.384.374.374,0,0,1,2.52,0Z" transform="translate(145.475 607.321)" fill="#e1137b"/>
    <path id="Path_112" data-name="Path 112" d="M-7941.1,29.341H-7953.3c0-.083,0-.162,0-.242a6.108,6.108,0,0,1,6.1-6.1,6.107,6.107,0,0,1,6.1,6.1c0,.088,0,.167,0,.241Z" transform="translate(8099.776 568.5)" fill="#52cbc8"/>
  </g>
</svg>
