<svg xmlns="http://www.w3.org/2000/svg" width="30" height="30" viewBox="0 0 30 30">
  <g id="alert_icon" data-name="alert icon" transform="translate(-54 -1114)">
    <rect id="Boundary" width="30" height="30" transform="translate(54 1114)" fill="none"/>
    <path id="Subtraction_10" data-name="Subtraction 10" d="M14.638,16.6H3.194A3.19,3.19,0,0,1,.411,11.848L6.133,1.631a3.19,3.19,0,0,1,5.566,0L17.42,11.848A3.189,3.189,0,0,1,14.638,16.6ZM8.916,11.813a.8.8,0,1,0,.8.8A.8.8,0,0,0,8.916,11.813Zm0-7.177a.8.8,0,0,0-.8.8V9.42a.8.8,0,1,0,1.594,0V5.433A.8.8,0,0,0,8.916,4.635Z" transform="translate(60.084 1120.193)" fill="#ebecff"/>
  </g>
</svg>
