<svg id="Error_icon" data-name="Error icon" xmlns="http://www.w3.org/2000/svg" width="34" height="34" viewBox="0 0 34 34">
  <rect id="Boundary" width="34" height="34" rx="12" transform="translate(34 34) rotate(180)" fill="#fd1a64"/>
  <g id="Group_66" data-name="Group 66" transform="translate(7.813 7.912)">
    <g id="Group_103" data-name="Group 103" transform="translate(0)">
      <path id="Line_37" data-name="Line 37" d="M1.821,22.06A1.821,1.821,0,0,1,0,20.238V1.821a1.821,1.821,0,0,1,3.643,0V20.238A1.821,1.821,0,0,1,1.821,22.06Z" transform="translate(15.599) rotate(45)" fill="#fff"/>
      <path id="Line_37-2" data-name="Line 37" d="M1.821,0A1.821,1.821,0,0,0,0,1.821V20.238a1.821,1.821,0,0,0,3.643,0V1.821A1.821,1.821,0,0,0,1.821,0Z" transform="translate(18.174 15.599) rotate(135)" fill="#fff"/>
    </g>
  </g>
</svg>
