<svg id="AdEx_staking_bonus_inactive" data-name="AdEx staking bonus inactive" xmlns="http://www.w3.org/2000/svg" width="38" height="38" viewBox="0 0 38 38">
  <rect id="Rectangle_878" data-name="Rectangle 878" width="38" height="38" fill="none"/>
  <g id="Group_541" data-name="Group 541" transform="translate(5 2.59)">
    <g id="Group_540" data-name="Group 540">
      <path id="Path_1941" data-name="Path 1941" d="M952.265,376.59a14.044,14.044,0,0,1-14.045-14.042V350.321a4.106,4.106,0,0,1,2.73-3.864l10.105-3.361a3.828,3.828,0,0,1,2.414,0l10.113,3.363a4.1,4.1,0,0,1,2.722,3.862v12.227a14.044,14.044,0,0,1-14.04,14.042Z" transform="translate(-938.22 -342.9)" fill="none" stroke="#6770b3" stroke-linecap="round" stroke-width="1" stroke-dasharray="1 2"/>
    </g>
  </g>
  <g id="adex_token" transform="translate(8.521 8.914)">
    <ellipse id="Ellipse_184" data-name="Ellipse 184" cx="10.522" cy="10.522" rx="10.522" ry="10.522" transform="translate(0 0)" fill="#2d314d" stroke="#6770b3" stroke-linecap="round" stroke-linejoin="round" stroke-width="1" stroke-dasharray="1 2"/>
    <g id="Layer_x0020_1" transform="translate(6.041 2.956)">
      <g id="_2583651711024_00000058554860177999400870000008691308943655005829_" transform="translate(0)">
        <path id="Path_1950" data-name="Path 1950" d="M979.53,391.522l2.872-2.872-2.872-2.872,1.7-1.708,2.875,2.875,2.875-2.875,1.7,1.708-2.872,2.872,2.872,2.872-1.708,1.7-2.872-2.872-2.872,2.872Z" transform="translate(-979.53 -381.198)" fill="#3e436b" fill-rule="evenodd"/>
        <path id="Path_1951" data-name="Path 1951" d="M985.86,377.18l2.68-2.68,2.68,2.68-1.437,1.438-1.242-1.242-1.242,1.242Z" transform="translate(-983.96 -374.5)" fill="#3e436b" fill-rule="evenodd"/>
        <path id="Path_1952" data-name="Path 1952" d="M985.86,411.867l2.68,2.683,2.68-2.683-1.437-1.437-1.242,1.242L987.3,410.43Z" transform="translate(-983.96 -399.647)" fill="#3e436b" fill-rule="evenodd"/>
      </g>
    </g>
  </g>
</svg>
