<svg id="ramp_logo" data-name="ramp logo" xmlns="http://www.w3.org/2000/svg" width="140" height="32.621" viewBox="0 0 140 32.621">
  <path id="Path_24" data-name="Path 24" d="M34.568,19.2l-6.177,6.2a1.35,1.35,0,0,0,0,1.9l4.72,4.727a2.092,2.092,0,0,0,2.924,0L50.5,17.747a2.027,2.027,0,0,0,0-2.886L36.037.6a2.092,2.092,0,0,0-2.923,0l-4.72,4.727a1.35,1.35,0,0,0,0,1.9l6.177,6.2a4.054,4.054,0,0,1,0,5.772Z" transform="translate(0.543 0)" fill="#0a6e5c"/>
  <path id="Path_25" data-name="Path 25" d="M16.538,19.2l6.177,6.2a1.35,1.35,0,0,1,0,1.9l-4.72,4.727a2.092,2.092,0,0,1-2.924,0L.6,17.747a2.028,2.028,0,0,1,0-2.886L15.07.6a2.093,2.093,0,0,1,2.924,0l4.72,4.727a1.35,1.35,0,0,1,0,1.9l-6.177,6.2a4.054,4.054,0,0,0,0,5.771Z" transform="translate(0 0)" fill="#21bf73"/>
  <path id="Path_26" data-name="Path 26" d="M17.822,17.335a1.668,1.668,0,0,1,0-2.359L24.31,8.488a1.668,1.668,0,0,1,2.359,0l6.487,6.488a1.668,1.668,0,0,1,0,2.359l-6.489,6.488a1.668,1.668,0,0,1-2.359,0Z" transform="translate(0.336 0.155)" fill="#21bf73"/>
  <path id="Path_27" data-name="Path 27" d="M78.124,25.981H73.514L70.972,19.33a1.919,1.919,0,0,0-.95-1.1,3.479,3.479,0,0,0-1.565-.306H65.635v8.053h-4.3V6h8.856a7.931,7.931,0,0,1,5.253,1.516,5.386,5.386,0,0,1,1.788,4.35,5.589,5.589,0,0,1-1.061,3.424,5.647,5.647,0,0,1-2.99,2.048,3.476,3.476,0,0,1,2.542,2.447ZM69.547,14.588a4.782,4.782,0,0,0,2.738-.618,2.322,2.322,0,0,0,.866-1.993,2.242,2.242,0,0,0-.866-1.964,4.618,4.618,0,0,0-2.738-.648H65.58v5.219Z" transform="translate(1.19 0.116)" fill="#ddd8d0"/>
  <path id="Path_28" data-name="Path 28" d="M94.669,11.65V25.878H90.505v-2.1a4.471,4.471,0,0,1-1.816,1.711,5.61,5.61,0,0,1-2.65.618,6,6,0,0,1-3.269-.9,6.185,6.185,0,0,1-2.208-2.554,9.117,9.117,0,0,1-.781-3.874,9.315,9.315,0,0,1,.781-3.9A6.243,6.243,0,0,1,82.8,12.239a5.691,5.691,0,0,1,3.241-.954,5.412,5.412,0,0,1,2.65.645A4.654,4.654,0,0,1,90.5,13.67V11.65Zm-7.4,11.226a2.879,2.879,0,0,0,2.4-1.066,4.913,4.913,0,0,0,.837-3.087,4.913,4.913,0,0,0-.837-3.087,2.846,2.846,0,0,0-2.4-1.095,2.9,2.9,0,0,0-2.43,1.121,4.986,4.986,0,0,0-.865,3.115,4.853,4.853,0,0,0,.837,3.058A3.021,3.021,0,0,0,87.267,22.876Z" transform="translate(1.548 0.219)" fill="#ddd8d0"/>
  <path id="Path_29" data-name="Path 29" d="M115.052,11.285a4.309,4.309,0,0,1,3.6,1.487,6.985,6.985,0,0,1,1.2,4.485v8.62h-4.219V17.4a3.678,3.678,0,0,0-.475-2.133A1.78,1.78,0,0,0,113.6,14.6a2.369,2.369,0,0,0-1.984.9,4.036,4.036,0,0,0-.7,2.525v7.858H106.7V17.4a3.592,3.592,0,0,0-.5-2.133,1.747,1.747,0,0,0-1.536-.674,2.447,2.447,0,0,0-2.013.9,4.029,4.029,0,0,0-.7,2.525v7.858H97.73V15.72a33.332,33.332,0,0,0-.222-4.07h3.966l.253,2.133a4.5,4.5,0,0,1,1.788-1.852,5.468,5.468,0,0,1,2.682-.645,4.059,4.059,0,0,1,4.191,2.638,5.1,5.1,0,0,1,1.927-1.909A5.353,5.353,0,0,1,115.052,11.285Z" transform="translate(1.891 0.218)" fill="#ddd8d0"/>
  <path id="Path_30" data-name="Path 30" d="M131.364,11.285a5.689,5.689,0,0,1,3.241.954,6.065,6.065,0,0,1,2.207,2.638,9.007,9.007,0,0,1,.809,3.9,9.1,9.1,0,0,1-.781,3.874,5.929,5.929,0,0,1-2.208,2.554,6,6,0,0,1-3.269.9,5.607,5.607,0,0,1-2.651-.618,4.289,4.289,0,0,1-1.788-1.711V32.4H122.7V15.719a33.094,33.094,0,0,0-.223-4.07h3.969l.278,2.357a4.3,4.3,0,0,1,1.787-1.993A5.575,5.575,0,0,1,131.364,11.285Zm-1.2,11.59a2.909,2.909,0,0,0,2.4-1.039,4.861,4.861,0,0,0,.839-3.058,4.987,4.987,0,0,0-.868-3.115,2.786,2.786,0,0,0-2.374-1.121,2.925,2.925,0,0,0-2.43,1.095,4.9,4.9,0,0,0-.837,3.087,4.9,4.9,0,0,0,.837,3.087,2.956,2.956,0,0,0,2.43,1.066Z" transform="translate(2.377 0.219)" fill="#ddd8d0"/>
</svg>
