<svg xmlns="http://www.w3.org/2000/svg" xmlns:xlink="http://www.w3.org/1999/xlink" width="100%" height="100%" viewBox="0 0 137.917 65">
  <defs>
    <linearGradient id="linear-gradient" x1="0.554" y1="0.58" x2="0.052" y2="0.409" gradientUnits="objectBoundingBox">
      <stop offset="0" stop-color="#6000ff"/>
      <stop offset="0.651" stop-color="#4900c3"/>
      <stop offset="1" stop-color="#320086"/>
    </linearGradient>
    <linearGradient id="linear-gradient-2" x1="0.06" y1="-0.087" x2="0.486" y2="0.653" gradientUnits="objectBoundingBox">
      <stop offset="0" stop-color="#6a0aff"/>
      <stop offset="0.047" stop-color="#8c2dff"/>
      <stop offset="0.102" stop-color="#6a0aff"/>
      <stop offset="0.902" stop-color="#af50ff"/>
      <stop offset="1" stop-color="#af50ff"/>
    </linearGradient>
    <linearGradient id="linear-gradient-3" x1="1.071" y1="0.062" x2="0.095" y2="1.049" gradientUnits="objectBoundingBox">
      <stop offset="0" stop-color="#6a0aff"/>
      <stop offset="0.51" stop-color="#8c2dff"/>
      <stop offset="0.969" stop-color="#af50ff"/>
      <stop offset="1" stop-color="#af50ff"/>
    </linearGradient>
    <linearGradient id="linear-gradient-4" x1="0.448" y1="0.297" x2="0.538" y2="0.8" gradientUnits="objectBoundingBox">
      <stop offset="0" stop-color="#6000ff"/>
      <stop offset="1" stop-color="#3e00a5"/>
    </linearGradient>
    <linearGradient id="linear-gradient-5" x1="-0.529" y1="1.069" x2="1.092" y2="0.86" gradientUnits="objectBoundingBox">
      <stop offset="0" stop-color="#ae60ff"/>
      <stop offset="0.322" stop-color="#af50ff"/>
      <stop offset="1" stop-color="#6000ff"/>
    </linearGradient>
    <linearGradient id="linear-gradient-6" x1="-0.111" y1="0.274" x2="0.872" y2="1.224" gradientUnits="objectBoundingBox">
      <stop offset="0" stop-color="#6f0fff"/>
      <stop offset="0.702" stop-color="#af50ff"/>
      <stop offset="1" stop-color="#af50ff"/>
    </linearGradient>
    <linearGradient id="linear-gradient-7" x1="0.015" y1="0.007" x2="0.985" y2="0.95" gradientUnits="objectBoundingBox">
      <stop offset="0" stop-color="#ae60ff"/>
      <stop offset="0.031" stop-color="#b670fa"/>
      <stop offset="1" stop-color="#be80f5"/>
    </linearGradient>
  </defs>
  <g id="Ambire_Wallet" data-name="Ambire Wallet" transform="translate(-0.013 0.01)">
    <g id="_1967776972864" transform="translate(0.013 -0.01)">
      <path id="Path_634" data-name="Path 634" d="M1326.548,800.83l-1.432-2.716h-6.476l-1.431,2.716h-3.2q3.268-6.07,6.538-12.14h2.726l6.556,12.14h-3.282Zm-4.67-8.843-1.943,3.664h3.873l-1.931-3.664Zm9.584,8.843V788.69h2.945l5.19,7.26,5.143-7.26h2.928v12.14h-2.837v-7.8l-4.1,5.866h-2.324l-4.114-5.8v7.735Zm28.457,0h-8.656V788.69h8.413a4.847,4.847,0,0,1,2.989.85,2.928,2.928,0,0,1,1.146,2.422,2.956,2.956,0,0,1-1.353,2.547,3.405,3.405,0,0,1,1.125.827,2.99,2.99,0,0,1,.732,2.026,3.1,3.1,0,0,1-1.2,2.58A5.172,5.172,0,0,1,1359.919,800.83Zm.579-9.427a1.989,1.989,0,0,0-1.23-.316H1354.2v2.4h5.088a1.857,1.857,0,0,0,1.191-.346,1.1,1.1,0,0,0,.383-.887,1.023,1.023,0,0,0-.361-.852Zm.355,4.854a2.247,2.247,0,0,0-1.374-.355H1354.2v2.531h5.332a2.231,2.231,0,0,0,1.349-.33,1.067,1.067,0,0,0,.388-.9,1.127,1.127,0,0,0-.412-.943Zm6.208,4.573V788.69h2.983v12.14Zm6.577,0V788.69h7.875a4.94,4.94,0,0,1,3.306,1.029,3.7,3.7,0,0,1,1.219,2.927,3.619,3.619,0,0,1-1.081,2.719,4.233,4.233,0,0,1-2.182,1.043l4.107,4.423h-3.809l-3.855-4.18h-2.6v4.18h-2.983Zm8.975-9.27a2.3,2.3,0,0,0-1.474-.391h-4.519v3h4.519a2.3,2.3,0,0,0,1.467-.395,1.341,1.341,0,0,0,.449-1.1,1.368,1.368,0,0,0-.443-1.118Zm6.32,9.27V788.69h11.62v2.479h-8.685v2.238h7.661v2.462h-7.661v2.483h8.685v2.478h-11.62Z" transform="translate(-1262.636 -768.618)" fill="#fff" fill-rule="evenodd"/>
      <path id="Path_635" data-name="Path 635" d="M1319.056,1211.5h-1.716l-3.33-8.664h2.273l2.1,5.818,2.314-5.818h1.917l2.337,5.8,2.1-5.8h2.25l-3.342,8.664h-1.931l-2.4-5.905-2.4,5.905Zm19.972,0h-1.891l-1.022-1.939h-4.623l-1.022,1.939h-2.283q2.333-4.332,4.666-8.664h1.945q2.336,4.334,4.679,8.664Zm-5.225-6.312-1.388,2.617h2.766Zm14.18,6.313h-7.339v-8.664h2.128v6.861h5.48v1.8Zm9.222,0h-7.339v-8.664h2.128v6.861h5.48v1.8Zm9.907,0h-8.024v-8.664h8.212v1.768h-6.118v1.6h5.468v1.757h-5.468v1.773h6.2v1.768h-.269Zm6.737,0h-1.859v-6.861H1368.3v-1.8h9.535v1.8h-3.715v6.861h-.269Z" transform="translate(-1262.636 -1166.576)" fill="#fff"/>
      <g id="Group_190" data-name="Group 190">
        <path id="Path_636" data-name="Path 636" d="M532.764,626.609l8.53,18.157a.514.514,0,0,1-.105.566l-22.438,21.68a.249.249,0,0,1-.42-.189V646.9l14.139-13.649a.459.459,0,0,0,.147-.357l.042-6.29c0-.042.084-.042.105,0Z" transform="translate(-498.065 -602.08)" fill="#6000ff"/>
        <path id="Path_637" data-name="Path 637" d="M518.34,809.348v19.919a.249.249,0,0,0,.42.188h0L541.2,807.775a.514.514,0,0,0,.105-.566h0l-8.76-11.579Z" transform="translate(-498.075 -764.523)" fill-rule="evenodd" fill="url(#linear-gradient)"/>
        <path id="Path_638" data-name="Path 638" d="M881.782,626.01h0a.048.048,0,0,0-.05.05h0l-.036,6.289a.517.517,0,0,1-.082.293l8.795,11.869a.547.547,0,0,0-.042-.315h0l-8.53-18.157a.059.059,0,0,0-.051-.029h0Z" transform="translate(-847.142 -601.534)" fill-rule="evenodd" fill="url(#linear-gradient-2)"/>
        <path id="Path_639" data-name="Path 639" d="M899.524,819.8a.547.547,0,0,0-.042-.315h0l-.441-.943L891.1,808.43l8.424,11.369Z" transform="translate(-856.261 -776.822)" fill="#be80f5" fill-rule="evenodd"/>
        <path id="Path_640" data-name="Path 640" d="M47.657,235.559l-4.013,11.364a.527.527,0,0,0,.021.4l3.74,7.359L37.11,260.509a.27.27,0,0,1-.357-.1l-2.227-4.634a.446.446,0,0,1,.042-.482L47.552,235.5a.064.064,0,0,1,.105.063Z" transform="translate(-33.127 -226.272)" fill="#6000ff"/>
        <path id="Path_641" data-name="Path 641" d="M63.186,235.461h0a.056.056,0,0,0-.039.017h0L50.714,254.424l-.014.025,8.535-7.545.027-.077h0l0-.005,3.984-11.282a.062.062,0,0,0-.061-.08Z" transform="translate(-48.718 -226.254)" fill-rule="evenodd" fill="url(#linear-gradient-3)"/>
        <path id="Path_642" data-name="Path 642" d="M34.557,536.546a.447.447,0,0,0-.042.482h0l2.227,4.634a.269.269,0,0,0,.357.1h0l10.294-5.829-3.74-7.359a.523.523,0,0,1-.021-.4Z" transform="translate(-33.117 -507.529)" fill-rule="evenodd" fill="url(#linear-gradient-4)"/>
        <path id="Path_643" data-name="Path 643" d="M20.278.093V17.768a.5.5,0,0,1-.1.294h0L.11,45.255a.486.486,0,0,0,.063.65h0L14.249,59.492a.241.241,0,0,0,.4-.084h0l15.294-35.79a.578.578,0,0,0,0-.378h0L20.467.051a.09.09,0,0,0-.086-.061h0a.1.1,0,0,0-.1.1Z" transform="translate(-0.013 0.01)" fill-rule="evenodd" fill="url(#linear-gradient-5)"/>
        <path id="Path_644" data-name="Path 644" d="M517.785,0h0a.1.1,0,0,0-.1.1l.006,17.675a.5.5,0,0,1-.026.147l9.565,5.036L517.869.061A.09.09,0,0,0,517.785,0Zm-.125,17.925,1.827,1.048Z" transform="translate(-497.421 0)" fill-rule="evenodd" fill="url(#linear-gradient-6)"/>
        <path id="Path_645" data-name="Path 645" d="M527.394,463.982v0a.577.577,0,0,0-.03-.183h0l-.122-.3-9.572-5.036,1.833,1.048Z" transform="translate(-497.431 -440.535)" fill-rule="evenodd" fill="url(#linear-gradient-7)"/>
        <path id="Path_646" data-name="Path 646" d="M37.559,535.72l-.529.806L46.1,528.17Z" transform="translate(-35.583 -507.52)" fill="#be80f5"/>
      </g>
    </g>
  </g>
</svg>
