<svg fill="none" xmlns="http://www.w3.org/2000/svg" viewBox="0 0 19 18">
  <path
    d="M7.289 17.001a2.12 2.12 0 0 1-2.053-2.181V6.093a2.121 2.121 0 0 1 2.053-2.182h6.158A2.12 2.12 0 0 1 15.5 6.093v8.726a2.12 2.12 0 0 1-2.053 2.182H7.289ZM6.6 6.093v8.726a.708.708 0 0 0 .685.727h6.158a.708.708 0 0 0 .684-.727V6.093a.708.708 0 0 0-.684-.727H7.289a.708.708 0 0 0-.689.727ZM2.5 11.91V5.365a4.245 4.245 0 0 1 4.106-4.364h4.789a.707.707 0 0 1 .684.727.707.707 0 0 1-.684.727H6.606a2.83 2.83 0 0 0-2.737 2.91V11.909a.707.707 0 0 1-.684.727.706.706 0 0 1-.685-.726Z"
    fill="currentColor" />
</svg>