<svg viewBox="0 0 33 32" fill="none" xmlns="http://www.w3.org/2000/svg">
  <path
    d="M26.5 16.5C26.5 10.701 21.799 6 16 6S5.5 10.701 5.5 16.5 10.201 27 16 27s10.5-4.701 10.5-10.5Z"
    stroke="#EBECFF" stroke-width="2" />
  <path
    d="M12.166 13.91h1.548a2.15 2.15 0 0 1 2.394-2.25A2.207 2.207 0 0 1 18.5 14c0 2.178-1.744 2.574-3.8 2.574h-.518l.072 2.844h1.422l.054-1.71c2.52 0 4.338-1.08 4.338-3.708 0-2.286-1.62-3.708-3.978-3.708s-3.942 1.44-3.924 3.618Zm3.87 8.082a1.09 1.09 0 0 0-1.08-1.116 1.1 1.1 0 0 0-1.116 1.116 1.102 1.102 0 0 0 1.89.784 1.09 1.09 0 0 0 .306-.784Z"
    fill="#EBECFF" />
</svg>