<svg xmlns="http://www.w3.org/2000/svg" width="100%" height="100%" viewBox="0 0 120 29.477">
  <path id="ledger-new-logo-" d="M20.728,0H9.421V15.259H24.68V3.952A3.943,3.943,0,0,0,20.728,0ZM5.9,0H3.952A3.943,3.943,0,0,0,0,3.952V5.9H5.9ZM0,9.421H5.9v5.9H0ZM18.846,24.68h1.945a3.943,3.943,0,0,0,3.952-3.952V18.846h-5.9ZM9.421,18.846h5.9v5.9h-5.9ZM0,18.846v1.945a3.943,3.943,0,0,0,3.952,3.952H5.9v-5.9ZM39.757,1.58h-2.31V23.158h12.22V21.093h-9.91ZM57.081,7.294c-4.5,0-7.658,3.342-7.658,8.143v.552a7.884,7.884,0,0,0,7.841,7.6h.3a8.863,8.863,0,0,0,5.714-2.127l.062-.062L62.31,19.7l-.12.062a6.753,6.753,0,0,1-4.557,1.825c-2.794,0-5.651-1.825-5.834-5.9H63.472v-.12s.062-.73.062-1.095c-.014-4.379-2.564-7.178-6.453-7.178Zm-5.229,6.444a5.107,5.107,0,0,1,5.1-4.5c1.945,0,4.072,1.157,4.254,4.5ZM76.9,9.118V9.91a5.511,5.511,0,0,0-4.681-2.674h-.182c-4.134,0-6.991,3.284-6.991,8.086,0,4.864,2.737,8.143,6.809,8.143a5.678,5.678,0,0,0,5.166-2.794v2.372h2.189V1.58H76.959V9.118Zm-4.744,12.34c-2.857,0-4.739-2.43-4.739-6.079,0-3.524,2.007-6.016,4.8-6.016,2.372,0,4.739,1.882,4.739,6.016C76.954,19.878,74.462,21.458,72.153,21.458ZM92.516,9.421v.12c-.427-.73-1.762-2.31-4.984-2.31-4.072,0-6.746,3.1-6.746,7.841s2.794,7.961,6.929,7.961a5.171,5.171,0,0,0,4.8-2.43V22.73c0,2.977-1.882,4.681-5.229,4.681a9.071,9.071,0,0,1-4.134-1.032l-.12-.062-.85,1.882.12.062a11.382,11.382,0,0,0,5.046,1.215c3.587,0,7.414-1.825,7.414-6.871V7.658H92.516Zm-4.5,11.61c-2.977,0-4.922-2.31-4.922-5.9,0-3.649,1.7-5.714,4.619-5.714,3.222,0,4.739,1.882,4.739,5.714.062,3.769-1.517,5.9-4.437,5.9ZM103.944,7.294c-4.5,0-7.6,3.342-7.6,8.086v.547a7.884,7.884,0,0,0,7.841,7.6h.3A8.863,8.863,0,0,0,110.2,21.4l.062-.062-1.095-1.7-.12.062A6.753,6.753,0,0,1,104.5,21.52c-2.794,0-5.651-1.825-5.834-5.9h11.725V15.5s.062-.73.062-1.095c0-4.317-2.554-7.116-6.506-7.116Zm-5.166,6.444a5.107,5.107,0,0,1,5.1-4.5c1.945,0,4.072,1.157,4.254,4.5ZM119.933,7.6c-.3-.062-.547-.062-.85-.12a5.2,5.2,0,0,0-4.8,3.587V7.6h-2.247l.062,15.379v.12h2.31v-6.5a9.327,9.327,0,0,1,.427-2.919c.73-2.372,2.372-3.889,4.317-3.889a2.887,2.887,0,0,1,.73.062H120V7.6Z" transform="translate(0 0)" fill="currentColor"/>
</svg>
