<?xml version="1.0" encoding="utf-8"?>
<svg viewBox="20.986 -45.117 500 500" width="500" height="500" style="shape-rendering: geometricprecision;" xmlns="http://www.w3.org/2000/svg">
  <g id="Layer" transform="matrix(3.153802, 0, 0, 3.153802, 29.444178, -32.559643)" style="">
    <path id="Layer" class="shp0" d="M146.1 65.2L142.1 58.5L142.1 58.5L120.2 21.7L120.1 21.7L119.4 20.4L111.4 20.4L80.3 75.1L111.9 129.5L119.9 129.5L120.1 129.2L146.2 84.5L130.1 84.5L116.2 109.2L96.4 75L115.8 40.8L129.9 65.1L146.1 65.2Z" style="fill: rgb(65, 230, 175);"/>
    <path id="Layer" class="shp0" d="M24.4 56.3L39 31.4L34.1 23.5L34.1 23.5L30.7 17.9L5.7 62L5.7 62L5 63.2L9 70.2L71.9 70.2L103.6 15.9L99.2 8.3L55.2 8.4L54.5 8.4L47.5 8.3L51.2 15.3L51.2 15.3L54.9 22.3L83.7 22.2L63.9 56.3L24.4 56.3Z" style="fill: rgb(65, 230, 175);"/>
    <path id="Layer" class="shp0" d="M55.5 27.5C54.4 27.5 53.2 27.7 52 28.1C50.7 28.5 49.4 29.1 48.2 29.8C44.8 31.9 42.4 34.9 42 37.7C41.8 39 42.1 40.1 42.8 40.9L42.8 40.9C42.9 41.1 43.1 41.2 43.2 41.4C43.3 41.5 43.4 41.5 43.5 41.6C43.6 41.7 43.6 41.7 43.7 41.8C43.9 41.9 44 42 44.2 42.1L44.2 42.1C46.3 43.1 49.6 42.9 52.8 41.4L52.9 41.3C53.2 41.2 53.5 41 53.8 40.9C54.1 40.8 54.3 40.6 54.6 40.4C54.9 40.2 55.2 40 55.5 39.8C55.8 39.6 56 39.4 56.3 39.2L56.5 39.1C56.7 38.9 56.9 38.8 57.1 38.6C57.2 38.5 57.2 38.5 57.3 38.4C57.5 38.3 57.6 38.1 57.7 38C57.8 37.9 57.9 37.8 58 37.6C58.1 37.4 58.3 37.3 58.4 37.1C58.5 37 58.5 37 58.6 36.9C58.7 36.7 58.9 36.6 59 36.4L59.2 36.2C59.3 36 59.4 35.9 59.5 35.7C59.5 35.7 59.5 35.7 59.5 35.6L59.6 35.4C59.8 35.2 59.9 34.9 60 34.7C60.1 34.5 60.2 34.2 60.3 34L60.4 33.9C60.4 33.8 60.5 33.7 60.5 33.7L60.5 33.7C60.5 33.6 60.5 33.6 60.6 33.5C60.6 33.3 60.7 33.2 60.7 33C60.7 32.8 60.8 32.8 60.8 32.7C60.8 32.6 60.8 32.5 60.8 32.5C60.8 32.3 60.8 32.2 60.8 32.1L60.8 31.9C60.8 31.7 60.8 31.6 60.8 31.4C60.8 31.3 60.8 31.3 60.8 31.2C60.8 31.1 60.8 31 60.8 31C60.8 30.9 60.8 30.9 60.8 30.8L60.8 30.7C60.8 30.5 60.7 30.4 60.6 30.2C60.5 30 60.4 29.9 60.3 29.7L60.3 29.7C59.6 28.2 57.7 27.5 55.5 27.5Z" style="fill: rgb(65, 230, 175);"/>
    <path id="Layer" class="shp0" d="M62.8 34.8C62.8 35 62.7 35.1 62.6 35.3L62.6 35.3C62.6 35.4 62.6 35.4 62.5 35.5L62.5 35.5C62.4 35.8 62.3 36 62.1 36.3L62.1 36.3L62.1 36.3C61 38.4 59.2 40.4 57 42C56.7 42.2 56.4 42.4 56.1 42.6C55.8 42.8 55.5 43 55.2 43.1L55.1 43.1L55.1 43.1C55 43.2 54.9 43.2 54.8 43.3C54.6 43.4 54.5 43.5 54.3 43.6L54.2 43.6C54.1 43.6 54 43.7 53.9 43.7C53.7 43.8 53.5 43.9 53.3 43.9L53.1 44C53.1 44 53.1 44 53 44C52.9 44 52.8 44.1 52.7 44.1C52.5 44.2 52.3 44.2 52.1 44.3L51.9 44.4L51.8 44.4C51.6 44.5 51.4 44.5 51.2 44.6C51.1 44.6 51 44.7 50.8 44.7L50.8 44.7L50.8 44.7L50.7 44.7C50.5 44.7 50.3 44.8 50.2 44.8C50.1 44.8 49.9 44.8 49.8 44.9L49.7 44.9C49.6 44.9 49.5 44.9 49.4 45C49.3 45 49.2 45 49.1 45C48.8 45 48.4 45.1 48.1 45.1L48 45.1C47.7 45.1 47.4 45.1 47.1 45.1C47 45.1 46.9 45.1 46.9 45.1L46.8 45.1C46.6 45.1 46.4 45.1 46.2 45C46.1 45 46 45 45.9 44.9C45.7 44.9 45.5 44.8 45.3 44.8C45.2 44.8 45.1 44.7 45 44.7L50.5 53.6L62.3 53.5L68.4 42.7L62.9 33.7C62.9 33.8 62.9 33.9 62.8 34C62.8 34.1 62.8 34.1 62.8 34.2C62.8 34.3 62.7 34.4 62.7 34.6C62.8 34.7 62.8 34.8 62.8 34.8Z" style="fill: rgb(65, 230, 175);"/>
    <path id="Layer" class="shp0" d="M125.5 67.3C126.1 68.2 126.5 69.3 126.8 70.6C127.1 71.9 127.3 73.3 127.3 74.7C127.3 78.7 126 82.3 123.8 84.1C122.8 84.9 121.7 85.3 120.6 85.1L120.6 85.1C120.4 85.1 120.2 85 120 85C119.9 85 119.8 84.9 119.7 84.9C119.6 84.9 119.5 84.8 119.4 84.8C119.2 84.7 119 84.6 118.9 84.5L118.9 84.5C116.9 83.2 115.4 80.3 115 76.8L115 76.7C115 76.4 114.9 76.1 114.9 75.7C114.9 75.4 114.9 75.1 114.9 74.8C114.9 74.4 114.9 74.1 114.9 73.7C114.9 73.4 114.9 73.1 115 72.8L115 72.6C115 72.4 115.1 72.1 115.1 71.9C115.1 71.8 115.1 71.7 115.1 71.6C115.1 71.4 115.2 71.2 115.2 71C115.2 70.8 115.3 70.7 115.3 70.5C115.4 70.3 115.4 70.1 115.5 69.9C115.5 69.8 115.6 69.7 115.6 69.6C115.7 69.4 115.7 69.2 115.8 69L115.9 68.7C116 68.5 116.1 68.4 116.1 68.2C116.1 68.2 116.1 68.2 116.1 68.1L116.2 67.9C116.3 67.6 116.5 67.4 116.6 67.2C116.7 67 116.9 66.8 117 66.6L117.1 66.5C117.2 66.4 117.2 66.4 117.3 66.3L117.3 66.3C117.4 66.2 117.4 66.2 117.4 66.1C117.5 66 117.6 65.9 117.7 65.8C117.8 65.7 117.9 65.6 117.9 65.6C118 65.5 118 65.5 118.1 65.4C118.2 65.3 118.3 65.2 118.4 65.1L118.6 65C118.7 64.9 118.9 64.8 119 64.7C119.1 64.7 119.1 64.7 119.2 64.6C119.3 64.6 119.4 64.5 119.4 64.5C119.4 64.5 119.5 64.5 119.5 64.4L119.6 64.4C119.8 64.4 119.9 64.3 120.1 64.3C120.3 64.3 120.5 64.3 120.7 64.3L120.7 64.3C122.8 64.2 124.3 65.4 125.5 67.3Z" style="fill: rgb(65, 230, 175);"/>
    <path id="Layer" class="shp0" d="M115.4 64.9C115.3 65 115.2 65.2 115.1 65.3L115.1 65.3C115.1 65.4 115 65.4 115 65.5L115 65.5C114.8 65.7 114.7 66 114.5 66.2L114.5 66.2L114.5 66.2C113.2 68.2 112.5 70.8 112.3 73.5C112.3 73.9 112.3 74.2 112.3 74.6C112.3 74.9 112.3 75.3 112.3 75.6L112.3 75.7L112.3 75.7C112.3 75.8 112.3 76 112.3 76.1C112.3 76.3 112.3 76.5 112.4 76.7L112.4 76.8C112.4 76.9 112.4 77 112.4 77.1C112.4 77.3 112.5 77.5 112.5 77.7L112.5 77.9C112.5 77.9 112.5 77.9 112.5 78C112.5 78.1 112.5 78.2 112.6 78.3C112.6 78.5 112.7 78.7 112.7 78.9L112.8 79.1L112.8 79.2C112.8 79.4 112.9 79.6 113 79.8C113 79.9 113.1 80 113.1 80.1L113.1 80.1L113.1 80.1L113.1 80.2C113.2 80.4 113.2 80.5 113.3 80.7C113.3 80.8 113.4 80.9 113.5 81.1L113.5 81.2C113.5 81.3 113.6 81.4 113.6 81.5C113.7 81.6 113.7 81.7 113.7 81.7C113.8 82 114 82.3 114.2 82.6L114.3 82.7C114.5 83 114.6 83.2 114.8 83.4C114.8 83.5 114.9 83.5 114.9 83.6L115 83.7C115.1 83.9 115.3 84 115.4 84.2C115.5 84.3 115.5 84.4 115.6 84.4C115.8 84.6 115.9 84.7 116 84.9C116.1 85 116.2 85 116.2 85.1L105.7 85.1L99.6 75L105.6 64.2L116.1 64.2C116 64.3 116 64.3 115.9 64.4L115.8 64.5C115.7 64.6 115.6 64.7 115.4 64.9C115.5 64.9 115.4 64.9 115.4 64.9Z" style="fill: rgb(65, 230, 175);"/>
    <path id="Layer" class="shp0" d="M55.5 122.4C54.4 122.4 53.2 122.2 52 121.8C50.7 121.4 49.4 120.8 48.2 120.1C44.8 118 42.4 115 42 112.2C41.8 110.9 42.1 109.8 42.8 109L42.8 109C42.9 108.8 43.1 108.7 43.2 108.5C43.3 108.4 43.4 108.4 43.5 108.3C43.6 108.2 43.6 108.2 43.7 108.1C43.9 108 44 107.9 44.2 107.8L44.2 107.8C46.3 106.8 49.6 107 52.8 108.5L52.9 108.6C53.2 108.7 53.5 108.9 53.8 109C54.1 109.1 54.3 109.3 54.6 109.5C54.9 109.7 55.2 109.9 55.5 110.1C55.8 110.3 56 110.5 56.3 110.7L56.5 110.8C56.7 111 56.9 111.1 57.1 111.3C57.2 111.4 57.2 111.4 57.3 111.5C57.5 111.6 57.6 111.8 57.7 111.9C57.8 112 57.9 112.1 58 112.3C58.1 112.5 58.3 112.6 58.4 112.8C58.5 112.9 58.5 112.9 58.6 113C58.7 113.2 58.9 113.3 59 113.5L59.2 113.7C59.3 113.9 59.4 114 59.5 114.2L59.5 114.3L59.6 114.5C59.8 114.7 59.9 115 60 115.2C60.1 115.4 60.2 115.7 60.3 115.9L60.4 116C60.4 116.1 60.5 116.2 60.5 116.2L60.5 116.2C60.5 116.3 60.5 116.3 60.6 116.4C60.6 116.6 60.7 116.7 60.7 116.9C60.7 117.1 60.8 117.1 60.8 117.2C60.8 117.3 60.8 117.4 60.8 117.4C60.8 117.6 60.8 117.7 60.8 117.8L60.8 118C60.8 118.2 60.8 118.3 60.8 118.5C60.8 118.6 60.8 118.6 60.8 118.7C60.8 118.8 60.8 118.9 60.8 118.9C60.8 119 60.8 119 60.8 119.1L60.8 119.2C60.8 119.4 60.7 119.5 60.6 119.7C60.5 119.9 60.4 120 60.3 120.2L60.3 120.2C59.6 121.7 57.7 122.5 55.5 122.4Z" style="fill: rgb(65, 230, 175);"/>
    <path id="Layer" class="shp0" d="M62.8 115.1C62.8 114.9 62.7 114.8 62.6 114.6L62.6 114.6C62.6 114.5 62.6 114.5 62.5 114.4L62.5 114.4C62.4 114.1 62.3 113.9 62.1 113.6L62.1 113.6C61 111.5 59.2 109.5 57 107.9C56.7 107.7 56.4 107.5 56.1 107.3C55.8 107.1 55.5 106.9 55.2 106.8L55.1 106.8L55.1 106.8C55 106.7 54.9 106.7 54.8 106.6C54.6 106.5 54.5 106.4 54.3 106.3L54.2 106.3C54.1 106.3 54 106.2 53.9 106.2C53.7 106.1 53.5 106 53.3 106L53.1 105.9C53.1 105.9 53.1 105.9 53 105.9C52.9 105.9 52.8 105.8 52.7 105.8C52.5 105.7 52.3 105.7 52.1 105.6L51.9 105.5L51.8 105.5C51.6 105.4 51.4 105.4 51.2 105.3C51.1 105.3 51 105.2 50.8 105.2L50.8 105.2L50.8 105.2L50.7 105.2C50.5 105.2 50.3 105.1 50.2 105.1C50.1 105.1 49.9 105.1 49.8 105L49.7 105C49.6 105 49.5 105 49.4 104.9C49.3 104.9 49.2 104.9 49.1 104.9C48.8 104.9 48.4 104.8 48.1 104.8L48 104.8C47.7 104.8 47.4 104.8 47.1 104.8C47 104.8 46.9 104.8 46.9 104.8L46.8 104.8C46.6 104.8 46.4 104.8 46.2 104.9C46.1 104.9 46 104.9 45.9 105C45.7 105 45.5 105.1 45.3 105.1C45.2 105.1 45.1 105.2 45 105.2L50.5 96.3L62.3 96.4L68.4 107.2L62.9 116.2C62.9 116.1 62.9 116 62.8 115.9C62.8 115.8 62.8 115.8 62.8 115.7C62.8 115.6 62.7 115.5 62.7 115.3C62.8 115.2 62.8 115.1 62.8 115.1Z" style="fill: rgb(65, 230, 175);"/>
    <path id="Layer" class="shp0" d="M83.7 127.7L54.9 127.6L50.5 135.9L47.5 141.6L55.2 141.5L55.2 141.6L99.2 141.7L103.6 134.1L71.9 79.8L9 79.7L5 86.7L5.8 88L5.7 88L30.7 132L39 118.5L24.4 93.7L63.9 93.7L83.7 127.7Z" style="fill: rgb(65, 230, 175);"/>
    <path id="Layer" class="shp0" d="M279.5 75C279.5 71.1 279.5 67.8 279.7 65.2C279.8 62.6 280 60.5 280.3 58.8C281.5 51.7 286.9 47.6 293.8 47.6C298.3 47.6 302.4 49.3 305 53.1C306.1 54.8 307 56.7 307.5 58.9C307.6 59.1 307.7 59.2 308 59.2L323.5 59.2C323.7 59.2 323.8 59 323.8 58.8C322.1 49.2 317 40.5 307.9 36.3C303.7 34.3 299 33.3 293.7 33.3C284.9 33.3 277.6 36.3 271.6 42.3C268.2 45.7 265.9 49.9 264.9 54.6C264 59.2 263.5 66 263.5 75C263.5 84 264 90.8 264.9 95.4C265.8 100.2 268.2 104.3 271.6 107.7C277.6 113.7 285 116.7 293.7 116.7C299 116.7 303.7 115.7 307.9 113.7C317 109.4 322.1 100.8 323.8 91.2C323.8 91 323.8 90.8 323.5 90.8L308 90.8C307.7 90.8 307.6 90.9 307.5 91.1C306.9 93.3 306.1 95.2 305 96.9C302.4 100.7 298.3 102.4 293.8 102.4C286.9 102.4 281.5 98.2 280.3 91.2C280 89.6 279.8 87.4 279.7 84.8C279.5 82.2 279.5 78.9 279.5 75Z" style="fill: rgb(65, 230, 175);"/>
    <path id="Layer" class="shp0" d="M360.7 75C360.7 71.1 360.7 67.8 360.9 65.2C361 62.6 361.2 60.5 361.5 58.8C362.7 51.7 368.1 47.6 375 47.6C379.5 47.6 383.6 49.3 386.2 53.1C387.3 54.8 388.2 56.7 388.7 58.9C388.8 59.1 388.9 59.2 389.2 59.2L404.7 59.2C404.9 59.2 405 59 405 58.8C403.3 49.2 398.2 40.5 389.1 36.3C384.9 34.3 380.2 33.3 374.9 33.3C366.1 33.3 358.8 36.3 352.8 42.3C349.4 45.7 347.1 49.9 346.1 54.6C345.2 59.2 344.7 66 344.7 75C344.7 84 345.2 90.8 346.1 95.4C347 100.2 349.4 104.3 352.8 107.7C358.8 113.7 366.2 116.7 374.9 116.7C380.2 116.7 384.9 115.7 389.1 113.7C398.2 109.4 403.3 100.8 405 91.2C405 91 405 90.8 404.7 90.8L389.2 90.8C388.9 90.8 388.8 90.9 388.7 91.1C388.1 93.3 387.3 95.2 386.2 96.9C383.6 100.7 379.5 102.4 375 102.4C368.1 102.4 362.7 98.2 361.5 91.2C361.2 89.6 361 87.4 360.9 84.8C360.8 82.2 360.7 78.9 360.7 75Z" style="fill: rgb(65, 230, 175);"/>
    <path id="Layer" class="shp0" d="M195.5 35.4C195.5 34.6 194.9 34 194.1 34L180.9 34C180.1 34 179.5 34.6 179.5 35.4L179.5 114.6C179.5 115.4 180.1 116 180.9 116L194.1 116C194.9 116 195.5 115.4 195.5 114.6L195.5 91.4L206.1 78.7L227.9 115.6C228.1 115.9 228.3 116 228.7 116L244.7 116C245.4 116 245.6 115.5 245.2 114.9L216.7 66.6L242.8 35.3C243.3 34.7 243.1 34.1 242.3 34.1L224.8 34.1C224.5 34.1 224.4 34.2 224.3 34.4L195.6 68.9L195.6 35.4L195.5 35.4Z" style="fill: rgb(65, 230, 175);"/>
  </g>
</svg>