<svg id="Add_icon" data-name="Add icon" xmlns="http://www.w3.org/2000/svg" width="32" height="32" viewBox="0 0 32 32">
  <rect id="Rectangle_57" data-name="Rectangle 57" width="32" height="32" fill="none"/>
  <path id="Line_16" data-name="Line 16" d="M14.667,16a1.329,1.329,0,0,1-.943-.391L.391,2.276A1.333,1.333,0,0,1,2.276.391L15.609,13.724A1.333,1.333,0,0,1,14.667,16Z" transform="translate(16 4.686) rotate(45)" fill="currentColor"/>
  <path id="Path_44" data-name="Path 44" d="M1.333,16a1.333,1.333,0,0,1-.943-2.276L13.724.391a1.333,1.333,0,1,1,1.886,1.886L2.276,15.609A1.329,1.329,0,0,1,1.333,16Z" transform="translate(16 4.686) rotate(45)" fill="currentColor"/>
</svg>
