<svg xmlns="http://www.w3.org/2000/svg" width="32" height="32" viewBox="0 0 32 32">
  <g id="Earn_icon" data-name="Earn icon" opacity="0.5">
    <rect id="Boundary" width="32" height="32" fill="none"/>
    <path id="Shape" d="M1981.269,25.646a.661.661,0,0,1-.661-.66V23.093c-2.775-.6-4.725-2.46-4.767-5.286h3.966a2.534,2.534,0,0,0,2.8,2.46c1.745,0,2.776-.926,2.776-2.248,0-3.992-9.52-1.586-9.494-8.276,0-2.781,1.879-4.641,4.715-5.18v-1.8a.662.662,0,0,1,.661-.662h2.787a.662.662,0,0,1,.661.662V4.678a5.339,5.339,0,0,1,4.291,4.985h-4.072a2.437,2.437,0,0,0-2.644-2.2c-1.454-.052-2.538.662-2.538,2.169,0,3.7,9.466,1.639,9.466,8.144a5.453,5.453,0,0,1-4.5,5.3v1.9a.661.661,0,0,1-.661.66Z" transform="translate(-1966.664 1.999)" fill="currentColor"/>
  </g>
</svg>
