<svg xmlns="http://www.w3.org/2000/svg" xmlns:xlink="http://www.w3.org/1999/xlink" viewBox="0 0 3442.3 1715.5" opacity="0.32"><g transform="translate(54.002 30)"><linearGradient id="a" gradientUnits="userSpaceOnUse" x1="3497.457" y1="1224.8" x2="3497.457" y2="1224.82" gradientTransform="matrix(2259 0 0 -1715.5 -7899083 2101128)"><stop offset="0" stop-color="#6930c3"/><stop offset="1" stop-color="#222039"/></linearGradient><path d="M543.3-30h2259" fill="url(#a)"/><linearGradient id="b" gradientUnits="userSpaceOnUse" x1="3497.477" y1="1223.97" x2="3497.456" y2="1224.839" gradientTransform="matrix(2259 0 0 -1715.5 -7899083 2101128)"><stop offset="0" stop-color="#6930c3"/><stop offset="1" stop-color="#222039"/></linearGradient><path d="M3388.3-30L2092 1264.3l-422.3 421.2-422.3-421.2L-42.7-30" fill="url(#b)"/></g><path d="M1647.9 504.1h151.6c-9.7 3.4-19.5 6.1-29.6 8.2h-92.5c-10-2.1-19.9-4.8-29.5-8.2zm-139.4-140.8h430.3c2.2-6.5 4.1-13.1 5.7-19.8h-441.7c1.6 6.6 3.5 13.2 5.7 19.8zm54.6 87.4c.7.7 1.4 1.3 2.1 2h317.1c.7-.7 1.4-1.3 2.1-2 3.5-3.5 6.9-7.1 10.2-10.8h-341.7c3.3 3.6 6.6 7.2 10.2 10.8zm39.9 31.8h241.3c5.2-3.3 10.3-6.8 15.3-10.5h-272c5.1 3.7 10.2 7.2 15.4 10.5zm-81.9-89.4h405.2c2.9-5.7 5.6-11.6 8-17.5h-421.2c2.4 5.9 5.1 11.7 8 17.5zm-20.5-59.6h446.1c1.4-7.3 2.5-14.7 3.1-22.1h-452.3c.7 7.3 1.7 14.7 3.1 22.1zm38.7 89.4H1908c3.6-5 6.9-10 10.1-15.2h-388.8c3.1 5.2 6.5 10.2 10 15.2zm345-292.6c-88.7-88.5-232.5-88.5-321.2 0-45.9 45.7-70 108.8-66.1 173.3h453.5c3.8-64.5-20.3-127.6-66.2-173.3z" opacity=".3" fill="#6930c3"/><linearGradient id="c" gradientUnits="userSpaceOnUse" x1="2784.511" y1="1060.565" x2="2784.305" y2="1056.456" gradientTransform="matrix(1 0 0 -1 0 1716)"><stop offset="0" stop-color="#cda7ff" stop-opacity=".239"/><stop offset="1" stop-color="#dabfff"/></linearGradient><path fill="url(#c)" d="M2786.7 655.6l-.7-.2-3.9 4.3z"/><linearGradient id="d" gradientUnits="userSpaceOnUse" x1="2735.495" y1="1018.187" x2="2734.642" y2="1001.15" gradientTransform="matrix(1 0 0 -1 0 1716)"><stop offset="0" stop-color="#cda7ff" stop-opacity=".239"/><stop offset="1" stop-color="#dabfff"/></linearGradient><path fill="url(#d)" d="M2725.8 715.4l18.5-17.4-.8-.2z"/><linearGradient id="e" gradientUnits="userSpaceOnUse" x1="2668.567" y1="958.003" x2="2667.079" y2="928.299" gradientTransform="matrix(1 0 0 -1 0 1716)"><stop offset="0" stop-color="#cda7ff" stop-opacity=".239"/><stop offset="1" stop-color="#dabfff"/></linearGradient><path fill="url(#e)" d="M2683.2 757.9l-30.8 30.8z"/><linearGradient id="f" gradientUnits="userSpaceOnUse" x1="1715.921" y1="1207.71" x2="1675.179" y2="394.348" gradientTransform="matrix(1 0 0 -1 0 1716)"><stop offset="0" stop-color="#cda7ff" stop-opacity=".239"/><stop offset="1" stop-color="#dabfff"/></linearGradient><path d="M2894.1 547.3l1.6-1.6H555.3l1.6 1.6h136.3l-10.4 1.4H558.3l1.6 1.6h111l-12.6 1.7h-.3l-96.3.1 1.5 1.5 83.1-.1-15 2-.4.1h-65.7l1.6 1.6h52.4l-17.9 2.4-.4.1-3.5.5v.7H709l-18.3 2.7-1 .2-10.5 1.6-21.6 3.2-1.1.2-10.5 1.6-25.5 3.8-1.3.2-10.5 1.6-20.2 3 1.4 1.4 29.4-4.4h121l-27.8 4.7H590.2l1.4 1.6h111.6l-32.8 5.6-9.1 1.6-38.9 6.6-9.3 1.6-5.1.9 1.4 1.4 13.1-2.2h139.1l-40 7.7-8 1.6-47.9 9.4-8 1.6-57.8 11.3-72.5 16h216.1l-73.7 17-6.7 1.6-20.3 4.7-78.6 18h184.2l-73.7 17-6.7 1.6-22.2 5.1-3.8 1.5H645.9v.1l.6-.1h124.2L864 685H577.3l63.6-14.4 30.3-7 86-19.9H540.4l56.9-12.3 2.7-.5 65.8-12.9 55.9-10.9 48-9.4 41.8-8.4 36.4-7.1-.2-1.5h-126l27.8-4.7 16.5-2.8 16.4-2.8h244.9l-17.4 4-6.7 1.5h.1l-27.2 6.3h136.4l-19.8 5.6-28.8 8.1-5.4 1.5h148.4l-21.7 7.9-30.1 10.9-35.4 12.9-42.3 15.4-4.2 1.5H1260l-6.3 3.2-27.4 13.9-45.2 23-57.2 29.1-73.7 37.5-.7.3h-272l-3 1.6-68.6 24.9-68.6 24.9-4.4 1.6 4.6.1h307.8l-70.7 36-70.7 36-3.1 1.6 3.5-.1H1171l-66.2 56.1-84.9 76.2h2.4l84.9-76.2 66.2-56.1h367.8l-22.1 56.1-161.5 418.9h1.7l161.5-418.8 22.1-56.1h368l7.9 20.1L2087 1364l-24.8-78-149.7-406.3h367.6l150 127h2.4l-150-127h278.7l31.6-30.8-30 29.2h-282.1l-84.9-71.9h308.9l88.1 42.7-84.6-42.5h126.4l17.7-17.7-15.9 15.9h-131.2l-49-24.9-49-24.9h267.4l8.6 3.1 1.2-1.2-9.4-3.5-88.1-32-11.9-4.3h149.2l1.6-1.6H2566l54.2 19.7 50.1 18.2h-266.2l-67.6-34.4-6.9-3.5-50.8-25.8-6.4-3.2-39.5-20.1-5.7-2.9-33.1-16.8-3.5-1.8-26.2-13.3-4-2-10.2-5.2-12-6.1h164.4l-4.2-1.5-26.6-9.7-16.8-6.1-8.4-3.1-6.8-2.5-15.6-5.7-4.8-1.7-14.8-5.4h130.7l25.1 7.1h141l28.5 6.6 40.6 9.4 47.4 10.9 6.7 1.6 48.9 11.3 36.5 8.4 29.9 6.9h-184.2l71.4 20.1 81.3 23 35 9.9 1.3-1.3-30.5-8.7-5.5-1.6-75.8-21.4h144.4l4.7-5.1-4.1 3.6h-150.6l-60.3-17h179.7l16.4 3.8 22.9 5.3 1.3-1.4-33.5-7.7-6.7-1.6-1.9-.4-57.8-13.3h123l8.5-8.5-22.7-4.4-8-1.6-47.9-9.4-8-1.6-40.1-7.8h148.4l-9.3-1.3-38.9-6.6h59.2l1.3-1.6h-69.7l-32.8-5.6h108.4l1.6-1.6h-119.3l-27.8-4.7h121l26.4 4.4 1.3-1.3-17.1-3.1h20.2l1.6-1.6h-32.2l-26.8-4h63l1.6-1.6h-75.1l-22.8-3.4h101.3l1.6-1.6-19.4-3h22.5l1.2-1.4h-28.7l-18.3-2.4h49.7l1.5-1.6h-63l-15.4-2.1h80.5l1.6-1.6h-93.8l-12.9-1.7 108.8-.4 1.3-1.2h-121.8l-10.7-1.4h133.7v.2zM852.9 686.4l-82.2 23.8-118.1.1 23.4-5.4 79.3-18.3 97.6-.2zm-83.4-90.2H631.6l38.9-6.6h132.7l-33.7 6.6zm70.2-13.8l-28.5 5.6H679.7l32.8-5.6h127.2zm1909-35.1l10.7 1.4h-98.2l-9.6-1.4h97.1zM1607.4 715.5l5.4-13.8 5.4-13.8h217.1l5.4 13.8 5.4 13.8h-238.7zm239.5 1.4l7.1 18.2 7.1 18.2h-268.5l7.1-18.2 7.1-18.2h240.1zm-228-30.6l4.2-10.7 4.2-10.7h199.1l4.2 10.7 4.2 10.7h-215.9zm8.9-23l3.4-8.5 3.2-8.5h184.4l3.4 8.5 3.4 8.5h-197.8zm157.6-102.1l.6 1.4.6 1.4h-119.7l.6-1.4.6-1.4h117.3zm-116.8-1.6l.5-1.2.5-1.2h114.3l.5 1.2.5 1.2h-116.3zm-18 45.9l1.5-3.9 1.7-3.9H1800l1.5 3.9 1.5 3.9h-152.4zm153.2 1.6l1.8 4.7 1.8 4.7h-161l1.8-4.7 1.8-4.7h153.8zm450.7-47.5h-112.7l-3.4-1.2-3.4-1.2h110.8l8.7 2.4zm-3-2.4h109.7l1.5.3 9.1 2.1h-111.6l-8.7-2.4zm-462.3 13.4l.8 2 .8 2h-128l.8-2 .8-2h124.8zm-.3-5h120.6l2 1.7 2 1.7h-123.2l-.7-1.7-.7-1.7zm-124.9 1.7l-.7 1.7H1540l2-1.7 2-1.7h120.6l-.6 1.7zm-120.5-3.3h-118.4l2.8-1.4 2.8-1.4h116.2l-1.7 1.4-1.7 1.4zm-119.2-1.3l-2.8 1.4h-117.4l4-1.4 4-1.4h115l-2.8 1.4zm-2.4 2.9h119.8l-2 1.7-2 1.7h-122.4l3.3-1.7 3.3-1.7zm116.3 5h124.4l-.8 2-.8 2h-127.6l2.4-2 2.4-2zm122.2 5.6l-.9 2.4-.9 2.4H1526l2.8-2.4 2.8-2.4h128.8zm.9 2.3l.9-2.4h129.2l.9 2.4 1 2.4h-132.9l.9-2.4zm130.3-5.9l-.8-2h124.5l2.4 2 2.4 2h-127.6l-.9-2zm124.3-3.6l-2-1.7-2-1.7h119.8l3.3 1.7 3.3 1.7h-122.4zm116.1-4.9l-2.9-1.4-2.8-1.4h115.1l4 1.4 4 1.4H2032zm105.1-4.5h-113.9l-2.4-1.2-2.4-1.2h112l3.4 1.2 3.3 1.2zm-114.1 1.6l2.8 1.4 2.8 1.4h-118.5l-1.7-1.4-1.7-1.4H2023zm-115.2 2.8h-119.4l-.6-1.4-.6-1.4h117.1l1.7 1.4 1.8 1.4zm-120 3.3l.7 1.7h-123.6l.7-1.7.7-1.7h120.8l.7 1.7zm-121.9-4.7l-.6 1.4h-119.4l1.7-1.4 1.7-1.4h117.1l-.5 1.4zm-117.1-3h-115l4.8-2.4h113l-1.4 1.2-1.4 1.2zm-118.5 0h-113.9l6.7-2.4h112l-4.8 2.4zm-115.1-1.2l-3.4 1.2h-112.7l4.3-1.2 4.3-1.2h110.9l-3.4 1.2zm-121.8 1.2h-111.6l5.3-1.2 5.3-1.2H1202l-8.6 2.4zm.1 1.6h114l-4 1.4-4 1.4h-116.2l5.1-1.4 5.1-1.4zm106.3 4.4h118.6l-3.3 1.7-3.3 1.7h-121.3l4.7-1.7 4.6-1.7zm112.4 5h123.7l-2.4 2-2.4 2h-126.8l3.9-2 4-2zm117.1 5.6l-2.8 2.4-2.8 2.4H1392l4.6-2.4 4.6-2.4h128.1zm-5.1 6.2H1658l-1.1 2.8-1.1 2.8h-138.2l3.3-2.8 3.3-2.8zm131 7.2l-1.3 3.3-1.3 3.3H1508l3.9-3.3 3.9-3.3h139.4zm-.9 6.6l1.3-3.3 1.3-3.3h139.8l1.3 3.3 1.3 3.3h-145zm3.2-8.2l1.1-2.8 1.1-2.8h134.2l1.1 2.8 1.1 2.8h-138.6zm137.3-7.1l-.9-2.4-.9-2.4h128.9l2.8 2.4 2.8 2.4h-132.7zm125.5-8.3l-2.4-2h123.6l3.9 2 3.9 2h-126.8l-2.2-2zm118.1-5.3l-3.3-1.7h118.6l4.7 1.7 4.7 1.7h-121.3l-3.4-1.7zm111.6-4.7l-4-1.4h114l10.2 2.9H2154l-4-1.5zm115.7-1.4h112.8l12.5 2.9h-115.1l-10.2-2.9zm119.8 0H2497l14.8 2.9H2398l-12.5-2.9zm-6.8-1.6l-1.4-.3-9.1-2.1h108.4l12.5 2.4h-110.4zm-17.4-4l-8.9-2.1H2458l10.6 2.1h-107.3zm-6.9.1H2246l-7.3-2.1h106.8l4.5 1 4.4 1.1zm-114.2-.2h-109.6l-2.8-1-2.8-1h108l7.2 2zm-114.1.1h-110.7l-2-1-2-1h109.1l2.8 1 2.8 1zm-111.2 1.6l2.4 1.2 2.4 1.2h-115l-1.4-1.2-1.4-1.2h113zm-112.3 2.4h-115.9l-.5-1.2-.5-1.2h113.9l1.4 1.2 1.6 1.2zm-235-1.2l-.5 1.2h-115.9l1.4-1.2 1.4-1.2h113.9l-.3 1.2zm-114.1-2.9h-111.8l2-1 2-1h110.2l-1.2 1-1.2 1zm-113.3-.9l-2 1h-110.7l2.8-1 2.8-1h109.1l-2 1zm-114.7-.1l-2.8 1h-109.6l3.7-1 3.7-1h108l-3 1zm-118 1H1099l4.5-1 4.5-1h106.8l-7.3 2zm-115.4.1H984.9l10.6-2.1h105.6l-9 2.1zm-115.2 0H870.8l12.2-2.1h104.4l-10.5 2.1zm-8 1.6l-12.3 2.4H847.2l14.4-2.4h107.3zm8.1 0h108.5l-10.6 2.4H964.5l12.5-2.4zm98 3.9h112.8l-10.2 2.9h-115.1l6.3-1.4 6.2-1.5zm102.8 4.5h117.6l-4.7 1.7-4.7 1.7h-120.2l6-1.7 6-1.7zm108.4 5h122.4l-3.9 2-3.9 2h-125.7l11.1-4zm111.5 5.6l-4.6 2.4-4.6 2.4h-130.7l6.5-2.4 6.5-2.4h126.9zm-8.8 6.2h132.9l-3.3 2.8-3.3 2.8h-137.3l5.5-2.8 5.5-2.8zm124.4 7.2l-3.9 3.3-3.9 3.3h-143.7l6.5-3.3 6.5-3.3h138.5zm-7.1 8.1H1652l-1.5 3.9-1.5 3.9h-152l4.6-3.9 4.6-3.9zm142.1 9.4l-1.8 4.7-1.8 4.7h-160.6l5.5-4.7 5.5-4.7h153.2zm-4.4 10.9l-2.2 5.7-2.2 5.7h-170.7l6.7-5.7 6.7-5.7h161.7zm-5 12.9l-2.7 6.9-2.7 6.9h-182.7l8.1-6.9 8.1-6.9h171.9zm-3.7 13.8l2.7-6.9 2.7-6.9H1813l2.7 6.9 2.7 6.9h-183.2zm6.1-15.3l2.2-5.7 2.2-5.7h162.2l2.2 5.7 2.2 5.7h-171zm165.8-17.6l-1.8-4.7h153.2l5.5 4.7 5.5 4.7h-160.6l-1.8-4.7zm-2.6-6.2l-1.5-3.9-1.5-3.9h145.9l4.6 3.9 4.6 3.9h-152.1zm-3.6-9.4l-1.3-3.3-1.3-3.3h139.4l3.9 3.3 3.9 3.3h-144.6zm-3.2-8.2l-1.1-2.8-1.1-2.8h133.8l3.3 2.8 3.3 2.8h-138.2zm129.5-9.5l-2.8-2.4h128l4.6 2.4 4.6 2.4h-131.7l-2.7-2.4zm121.6-5.9l-3.9-2h122.5l5.5 2 5.5 2h-125.7l-3.9-2zm114.2-5.3l-4.7-1.7h117.5l8.5 2.4 3.5 1h-120.2l-4.6-1.7zm122-.7l-3.5-1h116.3l2.8.6 11.9 2.8h-119l-8.5-2.4zm119.7-1h115.1l17.4 3.4h-117.8l-14.7-3.4zm100.4-4.4h110.4l17.1 2.9h-112.7l-14.8-2.9zm-7.9-1.6l-12.4-2.4H2592l14.4 2.4h-109.2zm-20.5-4l-10.6-2.1h104.4l12.2 2.1h-106zm-18.5-3.6l-8.8-1.7h101.8l10.2 1.7h-103.2zm-8.1 0h-104.4l-7.5-1.7h103l8.9 1.7zm-111.3-.1h-105.6l-6.1-1.7h104.2l3.7.9 3.8.8zm-111.4.2h-106.7l-2.4-.9-2.4-.9h105.4l6.1 1.8zm-111.2-.1h-107.9l-1.7-.9-1.7-.9h106.5l2.4.9 2.4.9zm-108.3 1.5l2 1 2 1h-111.8l-1.2-1-1.2-1h110.2zm-112.1-1.5l-1-.9-1-.9h107.6l1.7.9 1.7.9h-109zm-.5 1.5l1.2 1 1.2 1H1785l-.4-1-.4-1h111.1zm-111.8-1.5l-.3-.9-.3-.9h108.5l1 .9 1 .9h-109.9zm-.5 2.5l.4 1h-113.1l.4-1 .4-1h111.4l.5 1zm-112.7-3.3l-.3.9h-109.8l1-.9 1-.9h108.5l-.4.9zm-.9 2.3l-.4 1-.4 1h-112.7l1.2-1 1.2-1h111.1zm-110.7-2.3l-1 .9h-109l1.7-.9 1.7-.9h107.7l-1.1.9zm-111.7 0l-1.7.9h-107.9l2.4-.9 2.4-.9h106.5l-1.7.9zm-111.9 0l-2.4.9H1226l3.1-.9 3.1-.9h105.4l-2.5.9zm-114.7.8h-105.6l3.7-.9 3.8-.8h104.2l-6.1 1.7zm-112.5 0h-104.4l8.8-1.7h103l-7.4 1.7zm-112.4 0H892.2l10.2-1.7h101.8l-8.7 1.7zm-112.6 0h-102l11.6-1.7H893l-10.1 1.7zm-9.2 1.5l-12.2 2.1H756.7l13.8-2.1h103.2zm-21.5 3.7l-14.4 2.4h-108l16.4-2.4h106zm-14.2 4h110.4l-14.7 2.9H820.9l17.1-2.9zm118.5 0h111.6l-12.5 2.9H941.7l14.8-2.9zm99.3 4.4h116.3L1160 569h-119l7.4-1.7 7.4-1.7zm104.4 5h121.3l-11 4H1146l7.1-2 7.1-2zm106 5.6l-6.5 2.4-6.5 2.4h-129.5l8.4-2.4 8.4-2.4h125.7zm-12.6 6.2h131.9l-5.5 2.8-5.5 2.8h-136.3l7.7-2.8 7.7-2.8zm117.7 7.2l-6.5 3.3-6.5 3.3h-142.6l9.1-3.3 9.1-3.3h137.4zm-12.5 8.1h144.9l-4.6 3.9-4.6 3.9h-151.1l7.7-3.9 7.7-3.9zm133.8 9.4l-5.5 4.7-5.5 4.7h-159.7l9.2-4.7 9.2-4.7h152.3zm-12.8 10.9l-6.7 5.7-6.7 5.7h-169.8l11.1-5.7 11.1-5.7h161zm-15.3 12.9l-8.1 6.9-8.1 6.9h-181.9l13.5-6.9 13.6-6.9h171zm-15.6 15.4h184l-3.4 8.5-3.4 8.5h-197.4l10.1-8.5 10.1-8.5zm176.7 18.6l-4.2 10.7-4.2 10.7h-215.5l12.6-10.7 12.6-10.7h198.7zm-9 23l-5.4 13.8-5.4 13.8h-238.4l16.2-13.8 16.2-13.8h216.8zm-11.5 29l-7.1 18.2-7.1 18.2h-268.2l21.4-18.2 21.4-18.2h239.6zm-14.9 37.9l-9.8 24.9-9.8 24.9H1262l29.4-24.9 29.4-24.9h269.4zm-8.1 24.9l9.8-24.9h269.8l9.8 24.9 9.8 24.9h-309l9.8-24.9zm291 0l-9.8-24.9h269.4l58.8 49.8h-308.6l-9.8-24.9zm-10.4-26.4l-7.2-18.1-7.1-18.2H2088l42.9 36.3h-268.2zm-14.8-37.9l-5.4-13.8-5.4-13.8h216.7l16.2 13.8 16.2 13.8h-238.3zm-11.5-29.1l-4.2-10.7-4.2-10.7h198.7l12.6 10.7 12.6 10.7h-215.5zm-8.9-23l-3.4-8.5-3.4-8.5h184l20.1 17h-197.3zm-7.4-18.6l-2.7-6.9-2.7-6.9h171.9l8.1 6.9 8.1 6.9h-182.7zm-6.2-15.2l-2.2-5.7-2.2-5.7h161.9l13.3 11.3-170.8.1zm152.5-17.7l-5.5-4.7h152.3l9.2 4.7 9.2 4.7h-159.7l-5.5-4.7zm-7.4-6.2l-4.6-3.9-4.6-3.9h144.9l7.7 3.9 7.7 3.9H1959zm-11-9.4l-7.8-6.6h138.5l6.5 3.3 6.5 3.3H1948zm-9.7-8.2l-3.3-2.8-3.3-2.8h132.9l5.5 2.8 5.5 2.8h-137.3zm122.1-9.5l-4.6-2.4h126.9l6.5 2.4 6.5 2.4h-130.6l-4.7-2.4zm117-5.9l-5.5-2h121.4l7.1 2 7.1 2H2183l-5.6-2zm124.7-1.2l-3-.8h246.1l20.5 4h-252.4l-11.2-3.2zm271.6 4.8l24.1 4.7h-127.1l-20.4-4.7h123.4zm-20.3-5.6h117.8l23.6 4h-121l-20.4-4zm-8.1-1.6l-17.4-3.4h113.9l20.1 3.4h-116.6zm79.6-7.8h109.2l19.4 2.9H2642l-17.1-2.9zm-9.2-1.6l-14.4-2.4h106l16.4 2.4h-108zm-23.6-4l-12.2-2.1h103.2l13.8 2.1h-104.8zm-21.4-3.6l-10.2-1.7H2661l11.6 1.7h-101.9zm70.4-4.7l9.6 1.4h-99.4l-8.5-1.4h98.3zm-107.7 0l8.5 1.4h-100.6l-7.3-1.4h99.4zm-107.4 0l7.3 1.4h-101.8l-6.2-1.4H2426zm-107.7.1l3.1.7 3.1.7h-103l-4.1-1.2-.9-.3 101.8.1zm-107.4-.2l4.1 1.2.9.3h-104.2l-2-.7-2-.7 103.2-.1zm-107.8.1l2 .7 2 .7h-105.3l-1.4-.7-1.4-.7h104.1zm-107.6 0l1.4.7 1.4.7h-106.4l-.8-.7-.8-.7h105.2zm-107.6 0l.8.7.8.7h-107.2l-.3-.7-.3-.7h106.2zm-214.7.7l.3-.7H1780l.3.7.3.7H1673l.2-.7zm-.8 2.2h108.9l.3.9.3.9h-110.2l.3-.9.4-.9zm-107.5-2.2l.8-.7h106.2l-.3.7-.3.7H1564l.9-.7zm-108.3 0l1.4-.7h105.2l-.8.7-.8.7h-106.4l1.4-.7zm-108.2 0l2-.7h104.2l-1.4.7-1.4.7h-105.3l1.9-.7zm-108 0l2.5-.7h103l-2 .7-2 .7h-104.2l2.7-.7zm-108.3 0l3.1-.7h101.9l-5.1 1.4h-103l3.1-.7zm-104.5-.7h100.7l-6.2 1.4h-101.8l7.3-1.4zm-107.6 0h99.5l-7.2 1.4H911.6l8.4-1.4zm-107.5 0h98.3l-8.5 1.4h-99.4l9.6-1.4zm-107.5 0h97l-8.9 1.3-.7.1h-98.2l10.8-1.4zm-22.5 3h99.3l-10.8 1.6-.7.1H669.6l12.9-1.7zm-24.6 3.3h102l-13 1.9-.8.1H642.5l15.4-2zm-45.3 6l18.3-2.4h104.8l-15.5 2.3-.9.1H612.6zm106.8 1.6h109.3l-17.1 2.9H700.1l19.3-2.9zm30 13.4H629.7l26.8-4h116.6l-23.7 4zm32.9-5.6H666.9l22.8-3.4h112.7l-20.1 3.4zm125.9 0H791.6l20.1-3.4h113.9l-17.4 3.4zm8.1 0l17.4-3.4h115.1l-14.7 3.4H916.3zm118 1.6h120.2l-14.2 4h-123.4l17.4-4zm-44.5 10.3l20.4-4.7h124.6l-16.7 4.7H989.8zm113 5.9l15.5-4.4h130.8l-7.7 2.8-7.7 2.8h-135.1l4.2-1.2zm-33 9.4l23.3-6.6h136.3l-9.1 3.3-9.1 3.3h-141.4zm141.7 1.6h143.8l-7.7 3.9-7.7 3.9h-150l21.6-7.8zm-25.9 9.3h151.3l-9.2 4.7-9.2 4.7h-158.7l25.8-9.4zm-30.1 10.9h159.9l-11.1 5.7-11.1 5.7h-168.8l31.1-11.4zm-73.3 26.7l38-13.8h170l-13.6 6.9-13.6 6.9h-180.8zm176 4.2l5.1-2.6h183.2l-10.1 8.5-10.1 8.5h-196.5l28.4-14.4zm-31.5 16h197.7l-12.6 10.7-12.6 10.7h-214.6l42.1-21.4zm-45.2 22.9h215.8l-16.2 13.8-16.2 13.8h-237.5l54.1-27.6zm-57.1 29.1H1363l-21.4 18.2-21.4 18.2h-267.3l71.5-36.4zm-74.5 37.9h268.5l-29.4 24.9-29.4 24.9H951.9l49-24.9 49-24.9zm-408.1 49.8l68.6-24.9 68.6-24.9h267.5l-49 24.9-49 24.9H641.8zm531.1 73.6H807.4l70.7-36 70.7-36h308.9l-42.4 36-42.4 36zm368.9 0h-366.4l42.4-36 42.4-36H1570l-14.1 36-14.1 36zm1.7-.1l14.1-36 14.1-36H1882l14.1 36 14.1 36h-366.7zm734.8 0l-366.5.1-14.1-36-14.1-36h309.8l84.9 71.9zm174.3-98.4l49 24.9h-307.7l-58.8-49.8h268.5l49 24.9zm-117-59.6l65 33.1-267.2-.1-42.9-36.3h238.7l6.4 3.3zm-57.9-29.3l48.4 24.6-237.6.1-16.2-13.8-16.2-13.8H2272l5.7 2.9zm-46-23.4l37.2 18.9h-214.8l-12.6-10.7-12.6-10.7h197.8l5 2.5zm-38.5-19.6l30.5 15.5h-196.4l-10.1-8.5-10.1-8.5h183.1l3 1.5zm-29.9-15.2l23.9 12.1-182 .1-8.1-6.9-8.1-6.9h171.1l3.2 1.6zm-16.6-8.5l10.3 5.3h-169.7l-6.7-5.7-6.7-5.7h160.9l11.9 6.1zm147-7.6h-158.6l-9.3-4.7-9.2-4.7h151.3l25.8 9.4zm-51.7-18.7l9.1 3.3 12.5 4.5h-150.1l-7.7-3.9-7.7-3.9H2242zm-22.3-8.2l13.5 4.9 4.6 1.7h-142.6l-6.5-3.3-6.5-3.3h137.5zm-6.7-2.4l2.3.8v.1h-136.1l-5.5-2.8-5.5-2.8H2200l13 4.7zm-12.7-6.3l-6.5-2.3-6.5-2.4h125.8l5.7 1.6 11 3.1h-129.5zm118.5-4.7h124.6l20.4 4.7h-128.3l-16.7-4.7zm41.9 11.8l-19.8-5.6h129.6l24.1 5.6h-133.9zm116.8-5.6h128.3l28.5 5.6h-132.7l-24.1-5.6zm30.8 7.2h133.9l33.7 6.6h-139.1l-28.5-6.6zm308.9 34.5l-5.7 5.2h-131l-48.9-11.3h156.3l29.3 6.1zm-37.3-7.6h-155.1l-40.6-9.4h147.7l48 9.4zm-56-11h-146.5l-33.9-7.8h140.4l40 7.8zm98.1-9.3h-137.9l-33.7-6.6h132.7l38.9 6.6zm-48-8.2h-131.5l-28.5-5.6h127.1l32.9 5.6zm-42.2-7.1h-125.9l-24.1-4.7H2704l27.8 4.7zm92-6.3h-119.7l-23.6-4h116.6l26.7 4zm-37.1-5.6h-115.4l-20.1-3.4h112.7l22.8 3.4zm80.8-4.9H2764l-19.3-2.9h108l14.8 2.9zm-26.5-4.5h-106.7l-16.4-2.4h104.8l18.3 2.4zm-45.4-6.1l15.4 2.1h-103.6l-13.8-2.1h102zm-24.6-3.2l12.9 1.7h-100.7l-11.6-1.7h99.4z" fill="url(#f)"/></svg>
