<?xml version="1.0" encoding="UTF-8"?> <svg xmlns="http://www.w3.org/2000/svg" width="179" height="30" viewBox="0 0 179 30" fill="none"><path d="M46.592 13.841L52.9452 6.77441H49.6504L42.3665 15.0479V6.77441H39.6775V23.226H42.3665V18.4462L44.7452 15.8101L49.9755 23.226H53.2259L46.592 13.841Z" fill="#2271A7"></path><path fill-rule="evenodd" clip-rule="evenodd" d="M65.3617 16.9857L69.6774 23.226H66.3635L62.4331 17.478H58.9343V23.226H56.129V6.77579H63.2346C64.0754 6.75981 64.9133 6.88312 65.7162 7.141C66.3992 7.35157 67.0337 7.70268 67.5812 8.17311C68.0937 8.61326 68.4955 9.1743 68.7526 9.80861C69.0366 10.496 69.1784 11.2369 69.1688 11.984C69.1792 12.6098 69.0854 13.2328 68.8913 13.8259C68.7007 14.3452 68.4358 14.8323 68.1053 15.2708C67.7634 15.6861 67.3571 16.0402 66.903 16.3188C66.4205 16.6112 65.9021 16.8355 65.3617 16.9857ZM65.4232 14.1748C66.0175 13.6819 66.3493 12.9276 66.3171 12.1423C66.3171 11.2372 66.0243 10.5545 65.454 10.094C64.8683 9.6335 64.0668 9.39532 63.0033 9.39532H58.9341V14.9211H63.0341C64.036 14.9211 64.8375 14.667 65.4232 14.1748Z" fill="#2271A7"></path><path d="M72.5807 6.77441V23.226H75.4839V6.77441H72.5807Z" fill="#2271A7"></path><path fill-rule="evenodd" clip-rule="evenodd" d="M92.5126 10.0139C92.7821 10.7339 92.9151 11.5065 92.9035 12.2847C92.9188 13.1277 92.7604 13.9636 92.4402 14.7301C92.139 15.4178 91.6982 16.0207 91.1516 16.4927C90.5811 16.9795 89.933 17.3456 89.2404 17.5725C88.4838 17.8182 87.6984 17.9412 86.9094 17.9377H83.9267V23.2255H81.2916V6.77456H87.2134C88.0135 6.76367 88.8101 6.89231 89.5734 7.15567C90.2352 7.38682 90.8464 7.76523 91.3688 8.26722C91.863 8.74971 92.2536 9.34623 92.5126 10.0139ZM89.356 14.5077C89.9311 13.978 90.2516 13.1872 90.2247 12.364C90.2247 11.3795 89.9351 10.6332 89.356 10.1409C88.7623 9.64865 87.9805 9.39458 86.9959 9.39458H83.9265V15.3176H86.9959C87.995 15.3176 88.7768 15.0476 89.356 14.5077Z" fill="#2271A7"></path><path d="M103.481 9.44224H108.387V6.77441H95.8065V9.44224H100.728V23.226H103.481V9.44224Z" fill="#2271A7"></path><path fill-rule="evenodd" clip-rule="evenodd" d="M126.165 11.7972C126.574 12.8056 126.781 13.8865 126.772 14.9766C126.781 16.0667 126.574 17.1476 126.165 18.156C125.776 19.1371 125.198 20.03 124.463 20.7825C123.718 21.5455 122.83 22.1511 121.851 22.5642C120.8 23.0168 119.666 23.2418 118.524 23.2246C117.383 23.2393 116.252 23.0198 115.197 22.5795C114.226 22.1753 113.347 21.5742 112.615 20.8132C111.893 20.0602 111.32 19.1737 110.929 18.2021C109.894 15.6369 110.194 12.7184 111.728 10.4232C113.263 8.12798 115.83 6.75912 118.57 6.77461C119.71 6.75996 120.842 6.97942 121.896 7.41971C123.843 8.23997 125.381 9.81757 126.165 11.7972ZM123.493 17.2191C123.75 16.5163 123.879 15.7721 123.873 15.0227C123.879 14.2733 123.75 13.5291 123.493 12.8263C123.239 12.1619 122.862 11.5522 122.384 11.0292C121.911 10.5009 121.33 10.0818 120.683 9.80048C120.006 9.48767 119.27 9.3303 118.526 9.33969C117.789 9.33433 117.059 9.48611 116.384 9.78512C115.75 10.0614 115.18 10.4696 114.713 10.9832C114.234 11.5029 113.862 12.1138 113.619 12.7802C113.093 14.1961 113.093 15.7572 113.619 17.173C113.866 17.8423 114.237 18.4576 114.713 18.9855C115.194 19.501 115.772 19.9137 116.414 20.1989C117.092 20.5086 117.828 20.6658 118.571 20.6596C120.019 20.6798 121.408 20.0834 122.399 19.0162C122.868 18.4885 123.238 17.8797 123.493 17.2191Z" fill="#2271A7"></path><path d="M142.716 11.4272V23.226H145.484V6.77441H142.533L137.742 14.5397L132.936 6.77441H130V23.226H132.723V11.4749L137.651 19.1766H137.742L142.716 11.4272Z" fill="#2271A7"></path><path fill-rule="evenodd" clip-rule="evenodd" d="M155.009 6.77393H157.583L164.514 23.2255H161.59L159.99 19.2702H152.526L150.911 23.2255H148.063L155.009 6.77393ZM153.548 16.7331H158.971L156.244 10.2092L153.548 16.7331Z" fill="#2271A7"></path><path d="M173.152 9.44224H178.065V6.77441H165.484V9.44224H170.396V23.226H173.152V9.44224Z" fill="#2271A7"></path><path fill-rule="evenodd" clip-rule="evenodd" d="M15.0325 2.69758C15.6573 2.70057 16.2811 2.74782 16.8992 2.83898L19.1698 0.565633C17.8234 0.188404 16.4312 -0.0019296 15.0325 1.47468e-05C9.00015 0.00865965 3.5555 3.6046 1.19779 9.13721C-1.15991 14.6698 0.0246837 21.0706 4.20782 25.4013C8.39096 29.7321 14.7647 31.1564 20.4034 29.0206C21.2978 28.6801 22.157 28.2539 22.9688 27.7479L20.982 25.7791L10.1638 14.9998L20.982 4.22039L22.9688 2.25161C22.157 1.74566 21.2978 1.31945 20.4034 0.978969L18.2529 3.12179L14.3884 6.97234L6.3321 14.9998L18.2529 26.8777C17.2024 27.1579 16.1199 27.3005 15.0325 27.302C8.21372 27.302 2.68601 21.7941 2.68601 14.9998C2.68601 8.20545 8.21372 2.69758 15.0325 2.69758ZM23.9717 6.5259L25.8938 4.6093C25.2691 3.95396 24.5895 3.35285 23.8625 2.8125L21.9077 4.76176L11.7188 14.9219L21.9077 25.082L23.8625 27.0312C24.5895 26.4909 25.2691 25.8898 25.8938 25.2344C31.0631 19.7697 31.3896 11.3373 26.6582 5.49137L24.7253 7.41885C28.4138 12.187 28.0948 18.9178 23.9717 23.3179L15.5519 14.9219L18.9592 11.5352L23.9717 6.5259Z" fill="#2271A7"></path></svg> 