<svg xmlns="http://www.w3.org/2000/svg" width="287.045" height="81.586" viewBox="0 0 287.045 81.586"><g transform="translate(-20.8 -19.43)"><path d="M37.93-35.273a13.41,13.41,0,0,1-1.074,5.352,13.862,13.862,0,0,1-2.949,4.375A13.8,13.8,0,0,1,29.512-22.6a13.551,13.551,0,0,1-5.371,1.074h-12.7V0H6.406V-56.016H24.141a13.551,13.551,0,0,1,5.371,1.074,13.8,13.8,0,0,1,4.395,2.949A13.8,13.8,0,0,1,36.855-47.6a13.551,13.551,0,0,1,1.074,5.371Zm-5.039-6.953a8.69,8.69,0,0,0-.7-3.5,9.133,9.133,0,0,0-1.934-2.852A9.133,9.133,0,0,0,27.4-50.508a8.69,8.69,0,0,0-3.5-.7H11.445v24.883H23.906a8.69,8.69,0,0,0,3.5-.7,9.3,9.3,0,0,0,2.852-1.914,8.9,8.9,0,0,0,1.934-2.832,8.69,8.69,0,0,0,.7-3.5ZM71.055,0,68.4-3.984A12.433,12.433,0,0,1,64.3-.527,11.3,11.3,0,0,1,58.906.781H57.7a11.509,11.509,0,0,1-4.57-.918,11.806,11.806,0,0,1-3.75-2.52,11.806,11.806,0,0,1-2.52-3.75,11.509,11.509,0,0,1-.918-4.57v-.391a11.509,11.509,0,0,1,.918-4.57,11.806,11.806,0,0,1,2.52-3.75,11.806,11.806,0,0,1,3.75-2.52,11.509,11.509,0,0,1,4.57-.918H67.852V-29.3a6.788,6.788,0,0,0-.547-2.715,7.006,7.006,0,0,0-1.484-2.207A7.006,7.006,0,0,0,63.613-35.7,6.788,6.788,0,0,0,60.9-36.25H58.086a6.788,6.788,0,0,0-2.715.547,7.006,7.006,0,0,0-2.207,1.484,7.006,7.006,0,0,0-1.484,2.207,6.788,6.788,0,0,0-.547,2.715v1.445l-4.8-.781v-.391a11.509,11.509,0,0,1,.918-4.57,11.806,11.806,0,0,1,2.52-3.75,11.806,11.806,0,0,1,3.75-2.52,11.509,11.509,0,0,1,4.57-.918H60.9a11.509,11.509,0,0,1,4.57.918,11.806,11.806,0,0,1,3.75,2.52,11.806,11.806,0,0,1,2.52,3.75,11.509,11.509,0,0,1,.918,4.57V0Zm-3.2-19.375H57.7a6.788,6.788,0,0,0-2.715.547,6.847,6.847,0,0,0-2.207,1.5A7.246,7.246,0,0,0,51.289-15.1a6.788,6.788,0,0,0-.547,2.715v1.68a6.788,6.788,0,0,0,.547,2.715,7.006,7.006,0,0,0,1.484,2.207A7.006,7.006,0,0,0,54.98-4.3,6.788,6.788,0,0,0,57.7-3.75h3.2A6.788,6.788,0,0,0,63.613-4.3,7.006,7.006,0,0,0,65.82-5.781,7.006,7.006,0,0,0,67.3-7.988a6.788,6.788,0,0,0,.547-2.715Zm20.9,35.391H84.1L91.211-3.437,78.242-40h4.8L93.477-9.687l.156,2.07.156-2.07L104.18-40h4.8Zm40.234-67.227V0h-5.039V-51.211H110.586v-4.8h31.758v4.8ZM160.508-35.43a6.788,6.788,0,0,0-2.715.547,7.006,7.006,0,0,0-2.207,1.484,7.006,7.006,0,0,0-1.484,2.207,6.788,6.788,0,0,0-.547,2.715V0h-4.8V-40h1.6l2.617,4.063a12.009,12.009,0,0,1,4.121-3.535,11.416,11.416,0,0,1,5.41-1.309h2.813v5.352Zm12.422-14.18v-6.406h5.586v6.406ZM173.32,0V-40h4.8V0Zm42.734-10.977a11.509,11.509,0,0,1-.918,4.57,11.806,11.806,0,0,1-2.52,3.75,11.806,11.806,0,0,1-3.75,2.52,11.509,11.509,0,0,1-4.57.918h-3.2a11.509,11.509,0,0,1-4.57-.918,11.806,11.806,0,0,1-3.75-2.52,11.806,11.806,0,0,1-2.52-3.75,11.509,11.509,0,0,1-.918-4.57V-29.023a11.509,11.509,0,0,1,.918-4.57,11.806,11.806,0,0,1,2.52-3.75,11.806,11.806,0,0,1,3.75-2.52,11.509,11.509,0,0,1,4.57-.918h3.2a11.509,11.509,0,0,1,4.57.918,11.806,11.806,0,0,1,3.75,2.52,11.806,11.806,0,0,1,2.52,3.75,11.509,11.509,0,0,1,.918,4.57v9.414H194.141V-10.7a6.788,6.788,0,0,0,.547,2.715,7.006,7.006,0,0,0,1.484,2.207A7.006,7.006,0,0,0,198.379-4.3a6.788,6.788,0,0,0,2.715.547h3.2a6.788,6.788,0,0,0,2.715-.547,7.006,7.006,0,0,0,2.207-1.484A7.006,7.006,0,0,0,210.7-7.988a6.788,6.788,0,0,0,.547-2.715v-2.656l4.8.781Zm-4.8-18.32a6.789,6.789,0,0,0-.547-2.715,7.006,7.006,0,0,0-1.484-2.207,7.006,7.006,0,0,0-2.207-1.484,6.788,6.788,0,0,0-2.715-.547h-3.2a6.788,6.788,0,0,0-2.715.547,7.006,7.006,0,0,0-2.207,1.484,7.006,7.006,0,0,0-1.484,2.207,6.788,6.788,0,0,0-.547,2.715v5.938H211.25Z" transform="translate(91.79 85)" fill="#fff"/><path d="M50,70H20.8L50,19.43,79.2,70.01H50Z" fill="#7e91e0"/><path d="M50,92.12H20.8L50,41.55,79.2,92.12H50Z" fill="rgba(163,176,228,0.65)"/></g></svg>