<svg id="Add_icon" data-name="Add icon" xmlns="http://www.w3.org/2000/svg" width="24" height="24" viewBox="0 0 24 24">
  <rect id="Rectangle_57" data-name="Rectangle 57" width="24" height="24" fill="none"/>
  <path id="Line_16" data-name="Line 16" d="M10,11a1,1,0,0,1-.707-.293l-10-10a1,1,0,0,1,0-1.414,1,1,0,0,1,1.414,0l10,10A1,1,0,0,1,10,11Z" transform="translate(12 4.929) rotate(45)" fill="#ebecff"/>
  <path id="Path_44" data-name="Path 44" d="M0,11a1,1,0,0,1-.707-.293,1,1,0,0,1,0-1.414l10-10a1,1,0,0,1,1.414,0,1,1,0,0,1,0,1.414l-10,10A1,1,0,0,1,0,11Z" transform="translate(12 4.929) rotate(45)" fill="#ebecff"/>
</svg>
