<svg xmlns="http://www.w3.org/2000/svg" width="48" height="48" viewBox="0 0 48 48">
  <g id="Cross-Chain_icon" data-name="Cross-Chain icon" transform="translate(0 48) rotate(-90)">
    <rect id="Boundary" width="48" height="48" rx="13" transform="translate(0 48) rotate(-90)" fill="currentColor" opacity="0"/>
    <g id="Shape" transform="translate(9.411 40.611) rotate(-90)">
      <path id="Path_37" data-name="Path 37" d="M16.769,16.1a1.618,1.618,0,0,0,1.145-2.763L7.826,3.248l7.241.01h0a1.618,1.618,0,0,0,0-3.237L0,0,15.625,15.625A1.614,1.614,0,0,0,16.769,16.1Z" transform="translate(0 13.003) rotate(-45)" fill="currentColor"/>
      <path id="Path_39" data-name="Path 39" d="M1.618,16.1A1.618,1.618,0,0,1,.474,13.337L10.563,3.248l-7.241.01a1.618,1.618,0,0,1,0-3.237L18.388,0,2.763,15.625A1.613,1.613,0,0,1,1.618,16.1Z" transform="translate(22.705 29.242) rotate(-135)" fill="currentColor"/>
    </g>
  </g>
</svg>
