<svg id="Earn_icon" data-name="Earn icon" xmlns="http://www.w3.org/2000/svg" width="24" height="24" viewBox="0 0 24 24">
  <rect id="Boundary" width="24" height="24" fill="none"/>
  <path id="Shape" d="M1979.946,19.908a.5.5,0,0,1-.5-.5V17.978a4.129,4.129,0,0,1-3.605-4h3a1.917,1.917,0,0,0,2.12,1.86c1.319,0,2.1-.7,2.1-1.7,0-3.019-7.2-1.2-7.18-6.26a3.94,3.94,0,0,1,3.566-3.918V2.6a.5.5,0,0,1,.5-.5h2.108a.5.5,0,0,1,.5.5V4.05a4.038,4.038,0,0,1,3.245,3.77h-3.08a1.843,1.843,0,0,0-2-1.661c-1.1-.04-1.92.5-1.92,1.641,0,2.8,7.16,1.239,7.16,6.16a4.125,4.125,0,0,1-3.406,4.009v1.44a.5.5,0,0,1-.5.5Z" transform="translate(-1968.9 1)" fill="#ebecff"/>
</svg>
