<svg id="Open_icon" data-name="Open icon" xmlns="http://www.w3.org/2000/svg" width="40" height="40" viewBox="0 0 40 40">
  <rect id="Boundary" width="40" height="40" fill="none"/>
  <path id="Path_134" data-name="Path 134" d="M2614.313,23.985A3.317,3.317,0,0,1,2611,20.671V6.314A3.318,3.318,0,0,1,2614.313,3h4.97a1.1,1.1,0,0,1,0,2.209h-4.97a1.107,1.107,0,0,0-1.1,1.1V20.671a1.106,1.106,0,0,0,1.1,1.1h14.359a1.1,1.1,0,0,0,1.1-1.1V15.7a1.1,1.1,0,1,1,2.208,0v4.969a3.317,3.317,0,0,1-3.313,3.314Zm3.085-6.4a1.1,1.1,0,0,1,0-1.562l10.816-10.815h-3.961a1.1,1.1,0,1,1,0-2.209h6.627a1.1,1.1,0,0,1,1.1,1.1v6.627a1.1,1.1,0,1,1-2.208,0V6.771l-10.815,10.815a1.1,1.1,0,0,1-1.562,0Z" transform="translate(-2601.252 7)" fill="#ebecff"/>
</svg>
