<svg id="Log_out_icon" data-name="Log out icon" xmlns="http://www.w3.org/2000/svg" width="24" height="24" viewBox="0 0 24 24">
  <rect id="Boundary" width="24" height="24" fill="none"/>
  <path id="Union_15" data-name="Union 15" d="M5.707.293,4.414,1.586h0L2.676,3.324.707,5.292l-.022.023L0,6H0l.707.707,5,5a1,1,0,1,0,1.414-1.414L5.828,9,3.734,6.907h9.312a1,1,0,0,0,0-2H3.922l.168-.168L5.828,3,7.121,1.707A1,1,0,1,0,5.707.293Z" transform="translate(21.499 18.001) rotate(180)" fill="currentColor"/>
  <path id="Path_63" data-name="Path 63" d="M1985.5,26.807H1997v-2h-11.5a1,1,0,0,1-1-1l-.026-15.994a1,1,0,0,1,1-1h11.5v-2h-11.5a3,3,0,0,0-3,3l.026,15.994A3,3,0,0,0,1985.5,26.807Z" transform="translate(-1979.973 -3.813)" fill="currentColor"/>
</svg>
