<svg id="Swap_icon_2" data-name="Swap icon 2" xmlns="http://www.w3.org/2000/svg" width="24" height="24" viewBox="0 0 24 24">
  <rect id="Boundary" width="24" height="24" fill="none"/>
  <g id="Group_40" data-name="Group 40" transform="translate(-431 -270)">
    <path id="Union_13" data-name="Union 13" d="M1987.01,17.075a8.48,8.48,0,0,1-2.807-1.432,9.679,9.679,0,0,1-2.647-2.988,7.614,7.614,0,0,1-1-2.568,9.836,9.836,0,0,1,.745-6.1,1,1,0,1,1,1.813.842,7.659,7.659,0,0,0-.6,4.789c.05.255.109.492.172.708a7.63,7.63,0,0,0,2.672,3.681,6.913,6.913,0,0,0,2.1,1.114,1,1,0,0,1-.226,1.975A1.022,1.022,0,0,1,1987.01,17.075Z" transform="translate(-1546.574 273.931)" fill="#ebecff"/>
    <path id="Union_14" data-name="Union 14" d="M1982.733,16.592a1,1,0,0,1-.509-1.319,7.665,7.665,0,0,0,.512-4.8q-.024-.111-.05-.218a1.012,1.012,0,0,1-.04-.113,7.659,7.659,0,0,0-2.692-4.005,6.887,6.887,0,0,0-2.079-1.15,1,1,0,1,1,.484-1.941,8.489,8.489,0,0,1,2.782,1.481,9.684,9.684,0,0,1,2.647,3.131,8.248,8.248,0,0,1,.891,2.344,9.748,9.748,0,0,1-.627,6.08,1,1,0,0,1-1.32.508Z" transform="translate(-1532.629 270.058)" fill="#ebecff"/>
    <path id="Path_41" data-name="Path 41" d="M-1206.591,246.626a.917.917,0,0,1-.893-.717.917.917,0,0,1,.7-1.094l2.161-.482-.44-2.157a.916.916,0,0,1,.715-1.081.917.917,0,0,1,1.081.715l.8,3.92-3.917.873A.919.919,0,0,1-1206.591,246.626Z" transform="translate(1644.545 45.375)" fill="#ebecff"/>
    <path id="Path_41-2" data-name="Path 41" d="M-1203.389,241.076a.917.917,0,0,1,.893.717.917.917,0,0,1-.7,1.094l-2.161.482.44,2.157a.916.916,0,0,1-.715,1.081.917.917,0,0,1-1.081-.715l-.8-3.92,3.917-.873A.919.919,0,0,1-1203.389,241.076Z" transform="translate(1651.714 30.923)" fill="#ebecff"/>
    <path id="Path_40" data-name="Path 40" d="M-1205.986,246.626a.917.917,0,0,1-.9-.733l-.8-3.92,3.917-.873a.916.916,0,0,1,1.094.695.916.916,0,0,1-.695,1.094l-2.161.482.44,2.157a.916.916,0,0,1-.715,1.081A.92.92,0,0,1-1205.986,246.626Z" transform="translate(1651.89 30.923)" fill="#ebecff"/>
  </g>
</svg>
