<svg id="Recycle_bin_icon" data-name="Recycle bin icon" xmlns="http://www.w3.org/2000/svg" width="24" height="24" viewBox="0 0 24 24">
  <rect id="Boundary" width="24" height="24" fill="none"/>
  <path id="Union_19" data-name="Union 19" d="M2616.5,25a3,3,0,0,1-3-3V8.5H2612a1,1,0,0,1,0-2h5.5a3.5,3.5,0,1,1,7,0h5.5a1,1,0,1,1,0,2h-1.5V22a3,3,0,0,1-3,3Zm-1-3a1,1,0,0,0,1,1h9a1,1,0,0,0,1-1V8.5h-11Zm4-15.5h3a1.5,1.5,0,0,0-3,0Zm2.5,13v-8a1,1,0,1,1,2,0v8a1,1,0,1,1-2,0Zm-4,0v-8a1,1,0,1,1,2,0v8a1,1,0,1,1-2,0Z" transform="translate(-2609 -2)" fill="currentColor"/>
</svg>
