<svg xmlns="http://www.w3.org/2000/svg" width="34" height="34" viewBox="0 0 34 34">
  <g id="privacy_icon" data-name="privacy icon" transform="translate(1 1)">
    <g id="Boundary" transform="translate(0 0)" fill="none" stroke="#ae60ff" stroke-width="1" opacity="0">
      <rect width="32" height="32" stroke="none"/>
      <rect x="-0.5" y="-0.5" width="33" height="33" fill="none"/>
    </g>
    <g id="Path_217_-_Outline" data-name="Path 217 - Outline" transform="translate(2.678 1.244)" fill="none" stroke-linecap="round">
      <path d="M12.883,30.623a24.182,24.182,0,0,1-9.07-5.194,16.145,16.145,0,0,1-3.444-4.5A12.562,12.562,0,0,1-1,15.236V3.158c.671.055,1.08.087,1.737.087A18.935,18.935,0,0,0,6.486,2.39a31.3,31.3,0,0,0,6.835-3.634A31.338,31.338,0,0,0,20.157,2.39a18.935,18.935,0,0,0,5.749.855c.657,0,1.066-.032,1.736-.087V15.236a12.562,12.562,0,0,1-1.368,5.693,16.145,16.145,0,0,1-3.444,4.5,24.184,24.184,0,0,1-9.088,5.2l-.422.127Z" stroke="none"/>
      <path d="M 13.32164669036865 28.66482353210449 C 16.33880233764648 27.70001220703125 19.29827690124512 25.99465370178223 21.46502304077148 23.96853828430176 C 22.77008247375488 22.74819755554199 23.78728294372559 21.42309761047363 24.48836326599121 20.03007698059082 C 25.2547435760498 18.50729751586914 25.64333343505859 16.89432716369629 25.64333343505859 15.2359676361084 L 25.64333343505859 5.243397235870361 C 24.26341819763184 5.226553440093994 21.8481330871582 5.068013191223145 19.52045249938965 4.286227703094482 C 18.02074241638184 3.782577991485596 16.32599258422852 2.972367763519287 14.48328304290771 1.878117918968201 C 14.06803798675537 1.631531000137329 13.67202377319336 1.385235905647278 13.32351875305176 1.162023901939392 C 11.91190719604492 2.068951606750488 9.502859115600586 3.486964225769043 7.122992992401123 4.28621768951416 C 4.795122623443604 5.068063259124756 2.379891872406006 5.226571083068848 1.000002861022949 5.24339771270752 L 1.000002861022949 15.2359676361084 C 1.000002861022949 16.89433860778809 1.388582944869995 18.5073070526123 2.154953002929688 20.03006744384766 C 2.856042861938477 21.42309761047363 3.873242855072021 22.74819755554199 5.178302764892578 23.96853828430176 C 7.344614505767822 25.99423789978027 10.30467128753662 27.70013046264648 13.32164669036865 28.66482353210449 M 13.32166290283203 30.75594711303711 L 12.88273334503174 30.62349700927734 C 9.529772758483887 29.58033752441406 6.237143039703369 27.69682693481445 3.812292814254761 25.42936706542969 C 2.334512948989868 24.04750823974609 1.175842881202698 22.53342819213867 0.3684529066085815 20.9291877746582 C -0.5395870804786682 19.12492752075195 -0.999997079372406 17.20945739746094 -0.999997079372406 15.2359676361084 L -0.999997079372406 3.157687902450562 C -0.329117089509964 3.212617874145508 0.07970290631055832 3.245017766952515 0.7367628812789917 3.245017766952515 C 1.933572888374329 3.245017766952515 4.271973133087158 3.133977890014648 6.486222743988037 2.390297889709473 C 9.78518009185791 1.282373189926147 13.32042980194092 -1.244022130966187 13.32166290283203 -1.244022130966187 C 13.32166290283203 -1.244022130966187 13.32166290283203 -1.244022130966187 13.32166290283203 -1.244022130966187 C 13.3220329284668 -1.243712067604065 16.86359214782715 1.284197926521301 20.15717315673828 2.39028787612915 C 22.3714427947998 3.133977890014648 24.70979309082031 3.245017766952515 25.90659332275391 3.245017766952515 C 26.56382369995117 3.245017766952515 26.9724235534668 3.212617874145508 27.64298248291016 3.158417940139771 L 27.64333343505859 3.817217826843262 L 27.64333343505859 15.2359676361084 C 27.64333343505859 17.20945739746094 27.18291282653809 19.12492752075195 26.27487373352051 20.9291877746582 C 25.46748352050781 22.53342819213867 24.30881309509277 24.04750823974609 22.83103370666504 25.42936706542969 C 20.4020824432373 27.70065879821777 17.10214233398438 29.5867977142334 13.7433032989502 30.62885856628418 L 13.32166290283203 30.75594711303711 Z" stroke="none" fill="#ae60ff"/>
    </g>
    <path id="show" d="M8.666,11.758A9.316,9.316,0,0,1,0,5.879a9.326,9.326,0,0,1,17.334,0,9.318,9.318,0,0,1-8.668,5.879Zm0-9.878a3.94,3.94,0,1,0,3.94,3.94A3.945,3.945,0,0,0,8.668,1.879Zm0,6.3A2.367,2.367,0,1,1,11.03,5.813,2.368,2.368,0,0,1,8.666,8.18Z" transform="translate(7.333 10.121)" fill="#ae60ff" opacity="0"/>
    <path id="hide" d="M9.667,5.729a3.891,3.891,0,0,1,3.75,5.09l2.411,2.411a9.3,9.3,0,0,0,2.505-3.569A9.327,9.327,0,0,0,6.8,4.209l1.71,1.71A4.05,4.05,0,0,1,9.667,5.729ZM2.347,3.1a.785.785,0,0,0,0,1.111L3.9,5.761A9.369,9.369,0,0,0,1,9.669a9.3,9.3,0,0,0,12.062,5.263l2.143,2.143a.786.786,0,0,0,1.111-1.111L3.466,3.1A.794.794,0,0,0,2.347,3.1Zm7.319,10.51A3.941,3.941,0,0,1,5.727,9.669a3.869,3.869,0,0,1,.386-1.686L7.35,9.22a2.705,2.705,0,0,0-.047.449,2.36,2.36,0,0,0,2.364,2.364,2.123,2.123,0,0,0,.449-.055l1.237,1.237A3.792,3.792,0,0,1,9.667,13.608Zm2.34-4.2a2.339,2.339,0,0,0-2.08-2.08Z" transform="translate(6.333 6.289)" fill="#ebecff" fill-rule="evenodd"/>
  </g>
</svg>
