<svg id="AdEx_staking_bonus_active" data-name="AdEx staking bonus active" xmlns="http://www.w3.org/2000/svg" xmlns:xlink="http://www.w3.org/1999/xlink" width="38" height="38" viewBox="0 0 38 38">
  <defs>
    <linearGradient id="linear-gradient" x1="0.5" y1="0.049" x2="0.5" y2="0.959" gradientUnits="objectBoundingBox">
      <stop offset="0" stop-color="#3e436b"/>
      <stop offset="1" stop-color="#2d314d"/>
    </linearGradient>
  </defs>
  <rect id="Rectangle_879" data-name="Rectangle 879" width="38" height="38" fill="none"/>
  <g id="Group_541" data-name="Group 541" transform="translate(4.623 2.213)">
    <g id="Group_540" data-name="Group 540">
      <path id="Path_1941" data-name="Path 1941" d="M952.265,376.59a14.044,14.044,0,0,1-14.045-14.042V350.321a4.106,4.106,0,0,1,2.73-3.864l10.105-3.361a3.828,3.828,0,0,1,2.414,0l10.113,3.363a4.1,4.1,0,0,1,2.722,3.862v12.227a14.044,14.044,0,0,1-14.04,14.042Z" transform="translate(-937.844 -342.524)" fill="url(#linear-gradient)"/>
      <path id="Path_1942" data-name="Path 1942" d="M951.141,342.151a3.5,3.5,0,0,1,1.089.175l10.105,3.361a3.732,3.732,0,0,1,2.474,3.509v12.227a13.667,13.667,0,1,1-27.333,0V349.2a3.735,3.735,0,0,1,2.472-3.509l10.105-3.361a3.406,3.406,0,0,1,1.087-.175m0-.751a4.223,4.223,0,0,0-1.327.215L939.7,344.979a4.478,4.478,0,0,0-2.98,4.218v12.227a14.422,14.422,0,0,0,6.474,12.034h0a14.413,14.413,0,0,0,15.888,0h0a14.418,14.418,0,0,0,6.474-12.034V349.2a4.475,4.475,0,0,0-2.98-4.218l-10.113-3.363a4.1,4.1,0,0,0-1.323-.215Z" transform="translate(-936.72 -341.4)" fill="#6770b3"/>
    </g>
  </g>
  <g id="adex_token" transform="translate(8.52 8.914)">
    <g id="Ellipse_184" data-name="Ellipse 184" transform="translate(0 0)" fill="#904dff" stroke="#24263d" stroke-linecap="round" stroke-linejoin="round" stroke-miterlimit="10" stroke-width="1">
      <ellipse cx="10.522" cy="10.522" rx="10.522" ry="10.522" stroke="none"/>
      <ellipse cx="10.522" cy="10.522" rx="11.022" ry="11.022" fill="none"/>
    </g>
    <ellipse id="Ellipse_185" data-name="Ellipse 185" cx="8.547" cy="9.171" rx="8.547" ry="9.171" transform="translate(1.35 1.35)" fill="#cca4ff"/>
    <ellipse id="Ellipse_186" data-name="Ellipse 186" cx="8.964" cy="9.171" rx="8.964" ry="9.171" transform="translate(1.843 1.35)" fill="#6000ff"/>
    <ellipse id="Ellipse_187" data-name="Ellipse 187" cx="8.547" cy="9.171" rx="8.547" ry="9.171" transform="translate(1.843 1.35)" fill="#904dff"/>
    <g id="Layer_x0020_1" transform="translate(5.513 2.956)">
      <g id="_2583651711024" transform="translate(0 0.174)">
        <g id="Group_544" data-name="Group 544">
          <path id="Path_1947" data-name="Path 1947" d="M977.77,392.109l2.872-2.872-2.872-2.872,1.7-1.7,2.875,2.875,2.872-2.875,1.7,1.7-2.872,2.872,2.872,2.872-1.7,1.708-2.872-2.872-2.872,2.872Z" transform="translate(-977.77 -381.785)" fill="#6000ff" fill-rule="evenodd"/>
          <path id="Path_1948" data-name="Path 1948" d="M984.09,377.763l2.683-2.683,2.68,2.683-1.437,1.438-1.242-1.242L985.53,379.2Z" transform="translate(-982.193 -375.08)" fill="#6000ff" fill-rule="evenodd"/>
          <path id="Path_1949" data-name="Path 1949" d="M984.09,412.457l2.683,2.68,2.68-2.68-1.437-1.437-1.242,1.242-1.242-1.242Z" transform="translate(-982.193 -400.234)" fill="#6000ff" fill-rule="evenodd"/>
        </g>
      </g>
      <g id="_2583651711024_00000058554860177999400870000008691308943655005829_" transform="translate(0.528)">
        <path id="Path_1950" data-name="Path 1950" d="M979.53,391.522l2.872-2.872-2.872-2.872,1.7-1.708,2.875,2.875,2.875-2.875,1.7,1.708-2.872,2.872,2.872,2.872-1.708,1.7-2.872-2.872-2.872,2.872Z" transform="translate(-979.53 -381.198)" fill="#e7cfff" fill-rule="evenodd"/>
        <path id="Path_1951" data-name="Path 1951" d="M985.86,377.18l2.68-2.68,2.68,2.68-1.437,1.438-1.242-1.242-1.242,1.242Z" transform="translate(-983.96 -374.5)" fill="#e7cfff" fill-rule="evenodd"/>
        <path id="Path_1952" data-name="Path 1952" d="M985.86,411.867l2.68,2.683,2.68-2.683-1.437-1.437-1.242,1.242L987.3,410.43Z" transform="translate(-983.96 -399.647)" fill="#e7cfff" fill-rule="evenodd"/>
      </g>
    </g>
  </g>
</svg>
