<svg xmlns="http://www.w3.org/2000/svg" xmlns:xlink="http://www.w3.org/1999/xlink" width="111.98" height="128.468" viewBox="0 0 111.98 128.468">
  <defs>
    <linearGradient id="linear-gradient" x1="0.5" y1="0.049" x2="0.5" y2="0.959" gradientUnits="objectBoundingBox">
      <stop offset="0" stop-color="#3e436b"/>
      <stop offset="1" stop-color="#2d314d"/>
    </linearGradient>
    <filter id="Path_1789" x="0" y="1.257" width="111.98" height="127.211" filterUnits="userSpaceOnUse">
      <feOffset dy="10" input="SourceAlpha"/>
      <feGaussianBlur stdDeviation="3" result="blur"/>
      <feFlood flood-opacity="0.161"/>
      <feComposite operator="in" in2="blur"/>
      <feComposite in="SourceGraphic"/>
    </filter>
  </defs>
  <g id="lobster" transform="translate(7.734)">
    <g id="Group_496" data-name="Group 496">
      <g id="Group_495" data-name="Group 495">
        <g transform="matrix(1, 0, 0, 1, -7.73, 0)" filter="url(#Path_1789)">
          <path id="Path_1789-2" data-name="Path 1789" d="M420.15,451.6a47,47,0,0,1-46.99-46.99V368.222a13.74,13.74,0,0,1,9.135-12.931l33.816-11.247a12.807,12.807,0,0,1,8.079,0L458.031,355.3a13.733,13.733,0,0,1,9.11,12.923v36.389a47,47,0,0,1-46.99,46.99Z" transform="translate(-364.16 -342.13)" fill="url(#linear-gradient)"/>
        </g>
        <path id="Path_1790" data-name="Path 1790" d="M419.906,344.4a11.729,11.729,0,0,1,3.646.587l33.816,11.247a12.48,12.48,0,0,1,8.272,11.741v36.389a45.733,45.733,0,1,1-91.466,0V367.979a12.5,12.5,0,0,1,8.28-11.741l33.816-11.247a11.6,11.6,0,0,1,3.637-.587m0-2.514a14.125,14.125,0,0,0-4.442.721l-33.841,11.255a14.984,14.984,0,0,0-9.973,14.113v36.389a48.26,48.26,0,0,0,21.664,40.269h0a48.233,48.233,0,0,0,53.167,0h0a48.249,48.249,0,0,0,21.664-40.269V367.979a14.976,14.976,0,0,0-9.973-14.113l-33.841-11.255a13.983,13.983,0,0,0-4.425-.721Z" transform="translate(-371.65 -341.89)" fill="#6770b3"/>
      </g>
    </g>
    <g id="Group_497" data-name="Group 497" transform="translate(34.574 82.346)">
      <text id="x1.5" transform="translate(0 15)" fill="#ebecff" font-size="14" font-family="Poppins" font-weight="600"><tspan x="0" y="0">x1.5</tspan></text>
    </g>
    <g id="lobster_00000102517538117611653460000006069879991592402321_" transform="translate(17.717 17.625)">
      <g id="lobster_00000158027293026842713040000007196054433798889374_" transform="translate(6.675 4.316)">
        <g id="tail_00000024707853559199224550000015563893029496517027_" transform="translate(14.885 41.406)">
          <path id="Path_1791" data-name="Path 1791" d="M419.458,426.511l3.822-3.134a2.567,2.567,0,0,1,3.612.36,1.637,1.637,0,0,1,.142.193,2.206,2.206,0,0,1,.411-.034h0a2.888,2.888,0,0,1,.385.025c.042-.067.092-.126.143-.193h0a2.567,2.567,0,0,1,3.612-.36l3.822,3.134a2.567,2.567,0,0,1,.36,3.612h0a2.532,2.532,0,0,1-1.324.855,2.585,2.585,0,0,1-1.768,2.07h0a2.581,2.581,0,0,1-2.791-.863,2.566,2.566,0,0,1-2.447,1.793h0a2.569,2.569,0,0,1-2.464-1.844,2.574,2.574,0,0,1-2.824.914h0a2.547,2.547,0,0,1-1.768-2.078,2.481,2.481,0,0,1-1.291-.846A2.566,2.566,0,0,1,419.458,426.511Z" transform="translate(-418.516 -418.336)" fill="#fd1a64"/>
          <path id="Path_1792" data-name="Path 1792" d="M419.441,427.25a5.041,5.041,0,0,1,2.724,2.581,2.561,2.561,0,0,0,2.824-.913,2.567,2.567,0,0,0,4.911.05,13.181,13.181,0,0,0,5.54-1.718,2.569,2.569,0,0,1,.344,3.6h0a2.531,2.531,0,0,1-1.324.855,2.568,2.568,0,0,1-4.559,1.207,2.567,2.567,0,0,1-4.911-.05,2.574,2.574,0,0,1-2.824.913,2.547,2.547,0,0,1-1.768-2.078,2.482,2.482,0,0,1-1.291-.846A2.553,2.553,0,0,1,419.441,427.25Z" transform="translate(-418.516 -419.059)" fill="#bf1057"/>
          <path id="Path_1793" data-name="Path 1793" d="M423.276,424.563a13.5,13.5,0,0,0,4.584.528,15.585,15.585,0,0,0,4.919-.587c.972-.377,1.726-.771,1.726-1.726h0a1.723,1.723,0,0,0-1.525-1.71,1,1,0,0,0-.352.025,25.379,25.379,0,0,1-4.727.553,21.563,21.563,0,0,1-4.567-.5,1.715,1.715,0,0,0-2.1,1.534v.1h0C421.232,423.725,422.531,424.3,423.276,424.563Z" transform="translate(-418.957 -418.057)" fill="#fd1a64"/>
          <path id="Path_1794" data-name="Path 1794" d="M423.276,420.983a13.5,13.5,0,0,0,4.584.528,15.585,15.585,0,0,0,4.919-.587c.972-.377,1.726-.771,1.726-1.726h0a1.723,1.723,0,0,0-1.525-1.71,1,1,0,0,0-.352.025,25.383,25.383,0,0,1-4.727.553,21.566,21.566,0,0,1-4.567-.5,1.715,1.715,0,0,0-2.1,1.534v.1h0C421.232,420.145,422.531,420.715,423.276,420.983Z" transform="translate(-418.957 -417.477)" fill="#fd1a64"/>
          <path id="Path_1795" data-name="Path 1795" d="M434.381,417.5a1.247,1.247,0,0,1,.352-.025,1.73,1.73,0,0,1,1.525,1.71,1.423,1.423,0,0,1-.788,1.282,20.622,20.622,0,0,1-3.361-2.59C433.174,417.748,434.046,417.58,434.381,417.5Z" transform="translate(-420.717 -417.476)" fill="#f97aa1"/>
        </g>
        <g id="legs_00000129910561044337423300000002954297198189427366_" transform="translate(0.072)">
          <path id="Path_1796" data-name="Path 1796" d="M435.836,368.07c-1.978.168-4.995,1.441-6.7,11.766" transform="translate(-405.423 -368.07)" fill="none" stroke="#24263d" stroke-linecap="round" stroke-width="1"/>
          <path id="Path_1797" data-name="Path 1797" d="M421.14,368.07c1.978.168,4.995,1.441,6.7,11.766" transform="translate(-404.127 -368.07)" fill="none" stroke="#24263d" stroke-linecap="round" stroke-width="1"/>
          <path id="Path_1798" data-name="Path 1798" d="M417.207,404.308h-7.274l-4.048,1.5-3.268-2.59-1.777-2.958" transform="translate(-400.84 -373.283)" fill="none" stroke="#24263d" stroke-linecap="round" stroke-linejoin="round" stroke-width="1"/>
          <path id="Path_1799" data-name="Path 1799" d="M419.192,407.57l-7.107,1.458-3.981,2.481s-.62,5.221,1.6,8.431" transform="translate(-402.004 -374.467)" fill="none" stroke="#24263d" stroke-linecap="round" stroke-linejoin="round" stroke-width="1"/>
          <path id="Path_1800" data-name="Path 1800" d="M421.136,410.1l-5.707,2.439-1.609,3.553.042,2.69,2.1,3.512" transform="translate(-402.942 -374.876)" fill="none" stroke="#24263d" stroke-linecap="round" stroke-linejoin="round" stroke-width="1"/>
          <path id="Path_1801" data-name="Path 1801" d="M437.74,404.308h7.274l4.048,1.5,3.277-2.59,1.777-2.958" transform="translate(-406.815 -373.283)" fill="none" stroke="#24263d" stroke-linecap="round" stroke-linejoin="round" stroke-width="1"/>
          <path id="Path_1802" data-name="Path 1802" d="M436.76,407.57l7.107,1.458,3.981,2.481s.62,5.221-1.6,8.431" transform="translate(-406.657 -374.467)" fill="none" stroke="#24263d" stroke-linecap="round" stroke-linejoin="round" stroke-width="1"/>
          <path id="Path_1803" data-name="Path 1803" d="M435.56,410.1l5.716,2.439,1.6,3.553-.042,2.69-2.1,3.512" transform="translate(-406.462 -374.876)" fill="none" stroke="#24263d" stroke-linecap="round" stroke-linejoin="round" stroke-width="1"/>
        </g>
        <g id="left_claw" transform="translate(0 3.175)">
          <path id="Path_1804" data-name="Path 1804" d="M416.112,396a8.69,8.69,0,0,1-6.629-2.925,11.826,11.826,0,0,1-1.441-2.372l-7.031-2.548s.059,10.7,15.387,10.7c.478,0,.712-.587.687-1.056C417.067,397.421,417.889,396,416.112,396Z" transform="translate(-400.796 -374.498)" fill="#fd1a64"/>
          <path id="Path_1805" data-name="Path 1805" d="M408.444,387.8s7.006-3.646,7.408-9.411a1.167,1.167,0,0,0-.7-1.215c-.511-.168-1.014.226-1.073.872A4.857,4.857,0,0,1,409.45,382s-.57-3.118,5.473-9.6a.319.319,0,0,0-.218-.536,12.389,12.389,0,0,0-10.216,4.66c-4.475,5.582-4.283,8.582-2.749,10.551C404.128,390.138,408.444,387.8,408.444,387.8Z" transform="translate(-400.754 -371.858)" fill="#fd1a64"/>
          <path id="Path_1806" data-name="Path 1806" d="M411.067,380.567a5.126,5.126,0,0,1-1.349.251s-.528-2.9,4.844-8.909a12.26,12.26,0,0,1,1.6-.042.317.317,0,0,1,.218.536C412.692,376.36,411.46,379.059,411.067,380.567Z" transform="translate(-402.203 -371.858)" fill="#f97aa1"/>
          <path id="Path_1807" data-name="Path 1807" d="M407.094,387.346s6.948-3.252,7.35-9.018c0-.008.318-.109.318-.117a.718.718,0,0,1,.478-.008,1.167,1.167,0,0,1,.7,1.215c-.4,5.766-7.409,9.411-7.409,9.411s-4.324,2.33-6.7-.729c-.067-.084-.453-.6-.511-.687C403.742,388.989,407.094,387.346,407.094,387.346Z" transform="translate(-400.846 -372.88)" fill="#f97aa1"/>
          <path id="Path_1808" data-name="Path 1808" d="M414.174,374.092a12.9,12.9,0,0,0-8.749,5.02c-2.69,3.4-2.238,7.945-2.045,9.1-3.637-2.1-3.042-5.623,1.307-11.046a12.389,12.389,0,0,1,10.216-4.66.317.317,0,0,1,.218.536C414.785,373.4,414.475,373.748,414.174,374.092Z" transform="translate(-400.793 -371.962)" fill="#bf1057"/>
        </g>
        <g id="right_claw" transform="translate(31.277 3.175)">
          <path id="Path_1809" data-name="Path 1809" d="M439.118,396a8.69,8.69,0,0,0,6.629-2.925,11.824,11.824,0,0,0,1.442-2.372l7.031-2.548s-.059,10.7-15.387,10.7c-.662,0-.469-.679-.654-1.123C438.029,397.362,437.853,396,439.118,396Z" transform="translate(-438.075 -374.498)" fill="#fd1a64"/>
          <path id="Path_1810" data-name="Path 1810" d="M446.928,387.8s-7.006-3.646-7.409-9.411a1.167,1.167,0,0,1,.7-1.215c.511-.168,1.014.226,1.073.872A4.857,4.857,0,0,0,445.922,382s.57-3.118-5.473-9.6a.319.319,0,0,1,.218-.536,12.389,12.389,0,0,1,10.216,4.66c4.475,5.582,4.282,8.582,2.749,10.551C451.252,390.138,446.928,387.8,446.928,387.8Z" transform="translate(-438.308 -371.858)" fill="#fd1a64"/>
          <path id="Path_1811" data-name="Path 1811" d="M442.9,374.935a12.078,12.078,0,0,1,7.057,3.763c2.238,2.414,4.526,5.338,4.056,7.274,2.154-2.154,1.391-4.023-2.958-9.445a12.389,12.389,0,0,0-10.216-4.66.317.317,0,0,0-.218.536C440.95,372.765,442.6,374.592,442.9,374.935Z" transform="translate(-438.473 -371.858)" fill="#f97aa1"/>
          <path id="Path_1812" data-name="Path 1812" d="M448.43,386.739c-2.774-1.115-7.048-3.8-7.408-9.1v-.017a.718.718,0,0,0-.478-.008,1.167,1.167,0,0,0-.7,1.215c.4,5.766,7.409,9.411,7.409,9.411s4.324,2.33,6.7-.729c.067-.084.67-1.022.729-1.115A6.509,6.509,0,0,1,448.43,386.739Z" transform="translate(-438.36 -372.784)" fill="#bf1057"/>
        </g>
        <g id="body_00000157283228439732656550000015033483714262487231_" transform="translate(16.074 11.766)">
          <path id="Path_1813" data-name="Path 1813" d="M422.981,408.685h0c-8.951-16.51,4.668-26.575,4.668-26.575s13.618,10.065,4.676,26.567c.034-.008.059-.008.084-.017a1.247,1.247,0,0,1,.352-.025,1.73,1.73,0,0,1,1.525,1.71h0c0,.955-.754,1.458-1.726,1.726a18.629,18.629,0,0,1-4.919.587,16.04,16.04,0,0,1-4.9-.587c-.981-.327-1.726-.771-1.726-1.726h0v-.1A1.7,1.7,0,0,1,422.981,408.685Z" transform="translate(-419.934 -382.11)" fill="#fd1a64"/>
          <path id="Path_1814" data-name="Path 1814" d="M430.23,384.07c3.369,3.478,9.7,12.328,2.866,24.924.034-.008.059-.008.084-.017a1.247,1.247,0,0,1,.352-.025,1.73,1.73,0,0,1,1.525,1.71h0c0,.955-.754,1.458-1.726,1.726a16.447,16.447,0,0,1-2.07.411,20.109,20.109,0,0,1-1.031-28.729Z" transform="translate(-420.704 -382.427)" fill="#f97aa1"/>
        </g>
        <g id="Group_498" data-name="Group 498" transform="translate(0 3.175)">
          <path id="Path_1815" data-name="Path 1815" d="M408.444,387.8s7.006-3.646,7.408-9.411a1.167,1.167,0,0,0-.7-1.215c-.511-.168-1.014.226-1.073.872A4.857,4.857,0,0,1,409.45,382s-.57-3.118,5.473-9.6a.319.319,0,0,0-.218-.536,12.389,12.389,0,0,0-10.216,4.66c-4.475,5.582-4.283,8.582-2.749,10.551C404.128,390.138,408.444,387.8,408.444,387.8Z" transform="translate(-400.754 -371.858)" fill="none" stroke="#24263d" stroke-width="1"/>
          <path id="Path_1816" data-name="Path 1816" d="M446.928,387.8s-7.006-3.646-7.409-9.411a1.167,1.167,0,0,1,.7-1.215c.511-.168,1.014.226,1.073.872A4.857,4.857,0,0,0,445.922,382s.57-3.118-5.473-9.6a.319.319,0,0,1,.218-.536,12.389,12.389,0,0,1,10.216,4.66c4.475,5.582,4.282,8.582,2.749,10.551C451.252,390.138,446.928,387.8,446.928,387.8Z" transform="translate(-407.031 -371.858)" fill="none" stroke="#24263d" stroke-width="1"/>
          <path id="Path_1817" data-name="Path 1817" d="M401.786,389.779c1.877,2.414,4.961,1.475,6.185.972l.075.025a11.824,11.824,0,0,0,1.441,2.372c1.056,1.332,3.486,2.489,6.629,2.925.318.042.629.084.93.134a18.743,18.743,0,0,0-.168,2.7l-.469.025c-13.711.746-15.211-8.431-15.37-10.358a.039.039,0,0,1,.075-.017A7.72,7.72,0,0,0,401.786,389.779Z" transform="translate(-400.801 -374.558)" fill="none" stroke="#24263d" stroke-width="1"/>
          <path id="Path_1818" data-name="Path 1818" d="M438.15,396.148c.318-.042.645-.092.981-.134,3.134-.436,5.565-1.592,6.629-2.925a11.823,11.823,0,0,0,1.441-2.372l.05-.017c1.24.511,4.291,1.416,6.16-.98a4.722,4.722,0,0,0,.813-1.55h.008s-.084,11.54-15.387,10.7l-.528-.025A18.586,18.586,0,0,0,438.15,396.148Z" transform="translate(-406.81 -374.5)" fill="none" stroke="#24263d" stroke-width="1"/>
          <path id="Path_1819" data-name="Path 1819" d="M422.981,408.685h0c-8.951-16.51,4.668-26.575,4.668-26.575s13.618,10.065,4.676,26.567c.034-.008.059-.008.084-.017a1.247,1.247,0,0,1,.352-.025,1.73,1.73,0,0,1,1.525,1.71h0c0,.955-.754,1.458-1.726,1.726a18.629,18.629,0,0,1-4.919.587,16.04,16.04,0,0,1-4.9-.587c-.981-.327-1.726-.771-1.726-1.726h0v-.1A1.7,1.7,0,0,1,422.981,408.685Z" transform="translate(-403.86 -373.518)" fill="none" stroke="#24263d" stroke-linecap="round" stroke-linejoin="round" stroke-width="1"/>
          <path id="Path_1820" data-name="Path 1820" d="M422.427,417.617c.168.075.344.134.528.2a15.784,15.784,0,0,0,4.9.587,18.629,18.629,0,0,0,4.919-.587,3.917,3.917,0,0,0,.6-.218,1.713,1.713,0,0,1,1.115,1.609c0,.955-.754,1.349-1.726,1.726a15.553,15.553,0,0,1-4.919.587,13.5,13.5,0,0,1-4.584-.528c-.746-.26-2.045-.838-2.045-1.785v-.1A1.7,1.7,0,0,1,422.427,417.617Z" transform="translate(-404.069 -379.265)" fill="none" stroke="#24263d" stroke-width="1"/>
          <path id="Path_1821" data-name="Path 1821" d="M422.4,421.21a7.838,7.838,0,0,0,.872.377,13.5,13.5,0,0,0,4.584.528,15.585,15.585,0,0,0,4.919-.587,6.513,6.513,0,0,0,.687-.3,1.715,1.715,0,0,1,1.031,1.576c0,.955-.754,1.349-1.726,1.726a15.555,15.555,0,0,1-4.919.587,13.5,13.5,0,0,1-4.584-.528c-.746-.26-2.045-.838-2.045-1.785v-.1A1.7,1.7,0,0,1,422.4,421.21Z" transform="translate(-404.069 -379.85)" fill="none" stroke="#24263d" stroke-width="1"/>
          <path id="Path_1822" data-name="Path 1822" d="M419.458,426.835l2.506-2.045a6.52,6.52,0,0,0,.872.377,13.5,13.5,0,0,0,4.584.528,15.583,15.583,0,0,0,4.919-.587c.226-.084.436-.176.629-.268l2.447,2a2.567,2.567,0,0,1,.36,3.612,2.532,2.532,0,0,1-1.324.855,2.568,2.568,0,0,1-4.559,1.207,2.567,2.567,0,0,1-4.911-.05,2.574,2.574,0,0,1-2.824.913,2.547,2.547,0,0,1-1.768-2.078,2.482,2.482,0,0,1-1.291-.846A2.576,2.576,0,0,1,419.458,426.835Z" transform="translate(-403.631 -380.43)" fill="none" stroke="#24263d" stroke-linejoin="round" stroke-width="1"/>
        </g>
      </g>
      <g id="Group_502" data-name="Group 502">
        <path id="Path_1823" data-name="Path 1823" d="M396.762,409.66h0a6.106,6.106,0,0,0,3.972,3.972h0a6.106,6.106,0,0,0-3.972,3.972h0a6.106,6.106,0,0,0-3.972-3.972h0a6.106,6.106,0,0,0,3.972-3.972Z" transform="translate(-392.79 -370.489)" fill="#ffbc00"/>
        <path id="Path_1824" data-name="Path 1824" d="M461.95,396.92h0a4.369,4.369,0,0,0,4,0h0a4.37,4.37,0,0,0,0,4h0a4.369,4.369,0,0,0-4,0h0a4.37,4.37,0,0,0,0-4Z" transform="translate(-403.99 -368.426)" fill="#ffbc00"/>
        <circle id="Ellipse_162" data-name="Ellipse 162" cx="1.316" cy="1.316" r="1.316" transform="translate(10.384 52.689)" fill="#ffbc00"/>
        <circle id="Ellipse_163" data-name="Ellipse 163" cx="1.366" cy="1.366" r="1.366" transform="translate(15.89)" fill="#ffbc00"/>
        <g id="Group_499" data-name="Group 499" transform="translate(52.287 38.819)">
          <line id="Line_162" data-name="Line 162" x1="0.679" y2="0.687" transform="translate(2.254)" fill="none" stroke="#904dff" stroke-linecap="round" stroke-width="1"/>
          <line id="Line_163" data-name="Line 163" x1="0.679" y2="0.687" transform="translate(0 2.254)" fill="none" stroke="#904dff" stroke-linecap="round" stroke-width="1"/>
          <line id="Line_164" data-name="Line 164" x1="0.679" y1="0.687" transform="translate(2.254 2.254)" fill="none" stroke="#904dff" stroke-linecap="round" stroke-width="1"/>
          <line id="Line_165" data-name="Line 165" x1="0.679" y1="0.679" transform="translate(0 0.008)" fill="none" stroke="#904dff" stroke-linecap="round" stroke-width="1"/>
        </g>
        <g id="Group_500" data-name="Group 500" transform="translate(46.99 3.386)">
          <line id="Line_166" data-name="Line 166" x1="0.679" y2="0.687" transform="translate(2.254)" fill="none" stroke="#904dff" stroke-linecap="round" stroke-width="1"/>
          <line id="Line_167" data-name="Line 167" x1="0.679" y2="0.687" transform="translate(0 2.254)" fill="none" stroke="#904dff" stroke-linecap="round" stroke-width="1"/>
          <line id="Line_168" data-name="Line 168" x1="0.679" y1="0.687" transform="translate(2.254 2.254)" fill="none" stroke="#904dff" stroke-linecap="round" stroke-width="1"/>
          <line id="Line_169" data-name="Line 169" x1="0.679" y1="0.687" fill="none" stroke="#904dff" stroke-linecap="round" stroke-width="1"/>
        </g>
        <g id="Group_501" data-name="Group 501" transform="translate(0.796 23.608)">
          <line id="Line_170" data-name="Line 170" y2="0.972" transform="translate(2.078)" fill="none" stroke="#904dff" stroke-linecap="round" stroke-width="1"/>
          <line id="Line_171" data-name="Line 171" y2="0.972" transform="translate(2.078 3.185)" fill="none" stroke="#904dff" stroke-linecap="round" stroke-width="1"/>
          <line id="Line_172" data-name="Line 172" x1="0.972" transform="translate(3.185 2.078)" fill="none" stroke="#904dff" stroke-linecap="round" stroke-width="1"/>
          <line id="Line_173" data-name="Line 173" x1="0.972" transform="translate(0 2.078)" fill="none" stroke="#904dff" stroke-linecap="round" stroke-width="1"/>
        </g>
      </g>
    </g>
  </g>
</svg>
