<svg xmlns="http://www.w3.org/2000/svg" width="120" height="16" viewBox="0 0 114 16">
  <g id="Group_352" data-name="Group 352" transform="translate(-10572.029 -225.608)">
    <text id="Wallet_Connect" data-name="Wallet Connect" transform="translate(10642.029 237.608)" fill="#fff" font-size="11" font-family="Poppins-SemiBold, Poppins" font-weight="600"><tspan x="-43" y="0">Wallet Connect</tspan></text>
    <g id="Wallet_Connect_logo" data-name="Wallet Connect logo" transform="translate(10572.029 226.608)">
      <path id="Path_203" data-name="Path 203" d="M10754.291,290.644l4.105-4.105,4.105,4.105,4.382-4.383,1.911,1.912-6.293,6.294-4.105-4.105-4.105,4.105-6.294-6.294,1.936-1.936Z" transform="translate(-10747.997 -281.395)" fill="#5194f4"/>
      <path id="Path_204" data-name="Path 204" d="M10753.874,285.446l-1.847-1.846s6.084-6.739,13.571,0c-.03.018-1.846,1.846-1.846,1.846a7.437,7.437,0,0,0-5.031-2.427A6.827,6.827,0,0,0,10753.874,285.446Z" transform="translate(-10748.562 -280.605)" fill="#5194f4"/>
    </g>
  </g>
</svg>
