<svg xmlns="http://www.w3.org/2000/svg" width="32" height="32" viewBox="0 0 32 32">
  <g id="OKX" transform="translate(3124 23396.968)">
    <rect id="Rectangle_1108" data-name="Rectangle 1108" width="32" height="32" transform="translate(-3124 -23396.969)" opacity="0"/>
    <circle id="Ellipse_270" data-name="Ellipse 270" cx="10" cy="10" r="10" transform="translate(-3118 -23390.969)"/>
    <g id="Group_991" data-name="Group 991" transform="translate(3.443 4.102)">
      <path id="Path_2354" data-name="Path 2354" d="M.311,0h3.6a.311.311,0,0,1,.311.311v3.6a.311.311,0,0,1-.311.311H.311A.311.311,0,0,1,0,3.913V.311A.311.311,0,0,1,.311,0Z" transform="translate(-3117.735 -23391.363)" fill="#fff"/>
      <path id="Path_2356" data-name="Path 2356" d="M.311,0h3.6a.311.311,0,0,1,.311.311v3.6a.311.311,0,0,1-.311.311H.311A.311.311,0,0,1,0,3.913V.311A.311.311,0,0,1,.311,0Z" transform="translate(-3113.555 -23387.184)" fill="#fff"/>
      <path id="Path_2357" data-name="Path 2357" d="M.311,0h3.6a.311.311,0,0,1,.311.311v3.6a.311.311,0,0,1-.311.311H.311A.311.311,0,0,1,0,3.913V.311A.311.311,0,0,1,.311,0Z" transform="translate(-3117.735 -23383.004)" fill="#fff"/>
      <path id="Path_2355" data-name="Path 2355" d="M.311,0h3.6a.311.311,0,0,1,.311.311v3.6a.311.311,0,0,1-.311.311H.311A.311.311,0,0,1,0,3.913V.311A.311.311,0,0,1,.311,0Z" transform="translate(-3109.375 -23391.363)" fill="#fff"/>
      <path id="Path_2358" data-name="Path 2358" d="M.311,0h3.6a.311.311,0,0,1,.311.311v3.6a.311.311,0,0,1-.311.311H.311A.311.311,0,0,1,0,3.913V.311A.311.311,0,0,1,.311,0Z" transform="translate(-3109.375 -23383.004)" fill="#fff"/>
    </g>
  </g>
</svg>
