<svg id="KuCoin" xmlns="http://www.w3.org/2000/svg" width="32" height="32" viewBox="0 0 32 32">
  <rect id="Boundary" width="32" height="32" rx="12" transform="translate(0 32) rotate(-90)" fill="transparent" />
  <g id="Layer" transform="translate(6.474 7)">
    <path id="Layer-2" data-name="Layer" d="M262.129,70.382l-.54-.9h0l-2.955-4.966h-.014l-.094-.175h-1.079l-4.2,7.381,4.264,7.34h1.079l.027-.04,3.522-6.031H259.97l-1.876,3.333L255.423,71.7l2.618-4.615,1.9,3.279Z" transform="translate(-243.09 -62.705)" fill="#41e6af"/>
    <path id="Layer-3" data-name="Layer" d="M18.387,32.653l1.97-3.36L19.7,28.228h0l-.459-.756-3.373,5.951h0l-.094.162.54.945H24.8L29.073,27.2l-.594-1.025-5.937.013h-.094l-.945-.013.5.945h0l.5.945,3.886-.013-2.672,4.6Z" transform="translate(-15.769 -26.177)" fill="#41e6af"/>
    <path id="Layer-4" data-name="Layer" d="M134.1,86.729a1.511,1.511,0,0,0-.472.081,2.485,2.485,0,0,0-.513.229,1.681,1.681,0,0,0-.837,1.066.516.516,0,0,0,.108.432h0c.013.027.04.04.054.067s.027.013.04.027l.027.027c.027.013.04.027.067.04h0a1.438,1.438,0,0,0,1.16-.094l.013-.013c.04-.013.081-.04.121-.054a.473.473,0,0,0,.108-.067l.121-.081c.04-.027.067-.054.108-.081l.027-.013c.027-.027.054-.04.081-.067l.027-.027c.027-.013.04-.04.054-.054a.186.186,0,0,0,.04-.054c.014-.027.04-.04.054-.067l.027-.027c.013-.027.04-.04.054-.067l.027-.027c.013-.027.027-.04.04-.067v-.013l.013-.027a.338.338,0,0,0,.054-.094c.014-.027.027-.067.04-.094l.013-.013a.047.047,0,0,1,.014-.027h0c0-.013,0-.013.013-.027s.013-.04.013-.067.014-.027.014-.04v-.27c0-.027-.014-.04-.027-.067s-.027-.04-.04-.067h0A.675.675,0,0,0,134.1,86.729Z" transform="translate(-127.283 -84.139)" fill="#41e6af"/>
    <path id="Layer-5" data-name="Layer" d="M144.323,106.432c0,.027-.014.04-.027.067h0c0,.013,0,.013-.013.027h0a.405.405,0,0,1-.054.108h0a2.308,2.308,0,0,1-.688.769l-.121.081a.547.547,0,0,1-.121.067h-.014c-.013.014-.027.014-.04.027s-.04.027-.067.04h-.013c-.013,0-.027.013-.04.013a.192.192,0,0,1-.081.027l-.027.013H143c-.014,0-.027.013-.04.013s-.054.013-.081.027l-.027.013h-.014c-.027.013-.054.013-.081.027s-.027.013-.054.013h-.013a.585.585,0,0,0-.067.013.081.081,0,0,0-.054.013h-.014a.05.05,0,0,0-.04.013h-.04c-.04,0-.094.013-.135.013h-.175a.171.171,0,0,1-.081-.013.05.05,0,0,1-.04-.013c-.027,0-.054-.013-.081-.013s-.027-.013-.04-.013l.742,1.2,1.592-.014.823-1.457-.742-1.214a.05.05,0,0,1-.013.04v.027c0,.013-.014.027-.014.054A.042.042,0,0,1,144.323,106.432Z" transform="translate(-136.524 -102.856)" fill="#41e6af"/>
    <path id="Layer-6" data-name="Layer" d="M363.8,203.177a1.335,1.335,0,0,1,.175.445,2.484,2.484,0,0,1,.068.553,1.657,1.657,0,0,1-.472,1.268.538.538,0,0,1-.432.135h0c-.027,0-.054-.014-.081-.014s-.027-.013-.04-.013-.027-.014-.04-.014a.3.3,0,0,1-.067-.04h0a1.431,1.431,0,0,1-.526-1.039v-.014c0-.04-.013-.081-.013-.135v-.27a.374.374,0,0,1,.013-.121v-.027c0-.027.014-.067.014-.094v-.04c0-.027.013-.054.013-.081s.013-.04.013-.067.014-.054.027-.081.013-.027.013-.04.013-.054.027-.081l.014-.04c.014-.027.027-.04.027-.067v-.013l.014-.027a.588.588,0,0,1,.054-.094c.013-.027.04-.054.054-.081l.014-.013.027-.027h0c.013-.013.013-.013.013-.027l.04-.04.027-.027.027-.027.04-.04.027-.014c.014-.013.04-.027.054-.04s.013,0,.027-.014a.047.047,0,0,0,.027-.013.013.013,0,0,0,.014-.014h.013c.027,0,.04-.013.068-.013h.081A.717.717,0,0,1,363.8,203.177Z" transform="translate(-347.543 -195.216)" fill="#41e6af"/>
    <path id="Layer-7" data-name="Layer" d="M316.25,202.568c-.013.013-.027.04-.04.054h0c0,.013-.014.013-.014.027h0c-.027.027-.04.067-.067.094h0a2.113,2.113,0,0,0-.3.985v.3h0v.054a.171.171,0,0,0,.013.081v.054c0,.027.013.054.013.081v.04a.049.049,0,0,0,.014.04c0,.027.013.054.013.081l.013.027v.013a.192.192,0,0,0,.027.081c0,.013.014.027.014.04h0v.013c.014.027.014.04.027.067s.014.027.027.054v.013c0,.014.013.027.013.04a.042.042,0,0,1,.013.027.546.546,0,0,0,.067.121l.014.013a.568.568,0,0,0,.067.094c0,.014.013.014.013.027l.013.013c.014.027.04.04.054.067s.013.027.027.027a.236.236,0,0,1,.054.067c.013.013.027.013.027.027h-1.417l-.823-1.363.81-1.457h1.417l-.027.027-.014.014-.054.054Z" transform="translate(-301.354 -194.931)" fill="#41e6af"/>
    <path id="Layer-8" data-name="Layer" d="M134.1,340.084a1.51,1.51,0,0,1-.472-.081,2.483,2.483,0,0,1-.513-.229,1.681,1.681,0,0,1-.837-1.066.516.516,0,0,1,.108-.432h0c.013-.027.04-.04.054-.067s.027-.014.04-.027l.027-.027c.027-.014.04-.027.067-.04h0a1.438,1.438,0,0,1,1.16.094l.013.013c.04.013.081.04.121.054a.471.471,0,0,1,.108.068l.121.081c.04.027.067.054.108.081l.027.014c.027.027.054.04.081.067l.027.027c.027.013.04.04.054.054a.187.187,0,0,1,.04.054c.014.027.04.04.054.068l.027.027c.013.027.04.04.054.067l.027.027c.013.027.027.04.04.067v.013l.013.027a.338.338,0,0,1,.054.094c.014.027.027.067.04.094l.013.013a.047.047,0,0,0,.014.027h0c0,.014,0,.014.013.027s.013.04.013.067.014.027.014.04v.27c0,.027-.014.04-.027.067s-.027.04-.04.067h0A.651.651,0,0,1,134.1,340.084Z" transform="translate(-127.283 -324.688)" fill="#41e6af"/>
    <path id="Layer-9" data-name="Layer" d="M144.323,306.248c0-.027-.014-.04-.027-.067h0c0-.013,0-.013-.013-.027h0a.4.4,0,0,0-.054-.108h0a2.308,2.308,0,0,0-.688-.769l-.121-.081a.549.549,0,0,0-.121-.067h-.014c-.013-.013-.027-.013-.04-.027s-.04-.027-.067-.04h-.013c-.013,0-.027-.013-.04-.013a.191.191,0,0,0-.081-.027l-.027-.013H143c-.014,0-.027-.013-.04-.013s-.054-.014-.081-.027l-.027-.013h-.014c-.027-.014-.054-.014-.081-.027s-.027-.014-.054-.014h-.013a.585.585,0,0,1-.067-.013.081.081,0,0,1-.054-.013h-.014a.05.05,0,0,1-.04-.013h-.04c-.04,0-.094-.013-.135-.013h-.175a.171.171,0,0,0-.081.013.05.05,0,0,0-.04.013c-.027,0-.054.013-.081.013s-.027.013-.04.013l.742-1.2,1.592.014.823,1.457-.742,1.214a.05.05,0,0,0-.013-.04v-.027c0-.014-.014-.027-.014-.054A.042.042,0,0,0,144.323,306.248Z" transform="translate(-136.524 -291.837)" fill="#41e6af"/>
    <path id="Layer-10" data-name="Layer" d="M26.388,257.835l-3.886-.013-.594,1.12-.4.769,1.039-.013v.013l5.937.013.594-1.025L24.8,251.371l-8.487-.014-.54.945.108.175h-.013l3.373,5.937,1.12-1.822-1.97-3.346h5.33Z" transform="translate(-15.769 -241.724)" fill="#41e6af"/>
  </g>
</svg>
