<svg fill="none" xmlns="http://www.w3.org/2000/svg" viewBox="0 0 33 33">
  <path d="M26 17.5C26 11.701 21.299 7 15.5 7S5 11.701 5 17.5 9.701 28 15.5 28 26 23.299 26 17.5Z"
    stroke="#EBECFF" stroke-width="2" />
  <path
    d="M11.666 14.91h1.548a2.15 2.15 0 0 1 2.394-2.25A2.207 2.207 0 0 1 18 15c0 2.178-1.744 2.574-3.8 2.574h-.518l.072 2.844h1.422l.054-1.71c2.52 0 4.338-1.08 4.338-3.708 0-2.286-1.62-3.708-3.978-3.708s-3.942 1.44-3.924 3.618Zm3.87 8.082a1.09 1.09 0 0 0-1.08-1.116 1.1 1.1 0 0 0-1.116 1.116 1.102 1.102 0 0 0 1.89.784 1.09 1.09 0 0 0 .306-.784Z"
    fill="#EBECFF" />
  <circle cx="25" cy="8" r="6.75" fill="#FD1A64" stroke="#1E2033" stroke-width="1.5" />
</svg>