<svg xmlns="http://www.w3.org/2000/svg" xmlns:xlink="http://www.w3.org/1999/xlink" width="143" height="156.151" viewBox="0 0 143 156.151">
  <defs>
    <clipPath id="clip-path">
      <path id="Path_1620" data-name="Path 1620" d="M4475.343-21234.279c2.4,1.721,2.946,4.352-1.1,4.352s-.672,2.926-.672,2.926l7.039-.539-.143-5.8Z" transform="translate(-4472.253 21234.279)" fill="#6000ff" stroke="#707070" stroke-width="1"/>
    </clipPath>
    <linearGradient id="linear-gradient" x1="0.127" y1="0.822" x2="0.87" y2="0.188" gradientUnits="objectBoundingBox">
      <stop offset="0" stop-color="#6000ff"/>
      <stop offset="1" stop-color="#ae60ff"/>
    </linearGradient>
    <linearGradient id="linear-gradient-2" x1="0.127" y1="0.822" x2="0.87" y2="0.188" gradientUnits="objectBoundingBox">
      <stop offset="0" stop-color="#6770b3"/>
      <stop offset="1" stop-color="#dadbf2"/>
    </linearGradient>
    <linearGradient id="linear-gradient-3" x1="0.127" y1="0.822" x2="0.87" y2="0.188" gradientUnits="objectBoundingBox">
      <stop offset="0" stop-color="#c57a15"/>
      <stop offset="1" stop-color="#ffbc00"/>
    </linearGradient>
    <linearGradient id="linear-gradient-4" x1="0.127" y1="0.822" x2="0.87" y2="0.188" gradientUnits="objectBoundingBox">
      <stop offset="0" stop-color="#007d8a"/>
      <stop offset="1" stop-color="#27e8a7"/>
    </linearGradient>
  </defs>
  <g id="by_crypto_illustration" data-name="by crypto illustration" transform="translate(-1714 -224)">
    <g id="Claim_icon" data-name="Claim icon" transform="translate(1753.85 336.85) rotate(-30)">
      <rect id="Rectangle_874" data-name="Rectangle 874" width="50" height="50" fill="none"/>
      <g id="Group_577" data-name="Group 577" transform="translate(-3918.439 20930.26)">
        <g id="Group_402" data-name="Group 402" transform="translate(3920.561 -20924.664)">
          <g id="Group_396" data-name="Group 396" transform="translate(0 0)">
            <g id="wallet_back" data-name="wallet back" transform="translate(0 0)">
              <rect id="Rectangle_845" data-name="Rectangle 845" width="39.373" height="31.065" rx="5" transform="translate(0 0.937)" fill="#904dff"/>
              <rect id="Rectangle_846" data-name="Rectangle 846" width="34.168" height="6.481" rx="3.241" transform="translate(3.389 4.326)" fill="#6000ff"/>
              <g id="Mask_Group_19" data-name="Mask Group 19" transform="translate(32.234)" clip-path="url(#clip-path)">
                <rect id="Rectangle_849" data-name="Rectangle 849" width="39.373" height="31.065" rx="5" transform="translate(-32.234 0.937)" fill="#6000ff"/>
              </g>
            </g>
            <g id="wallet_front" data-name="wallet front" transform="translate(0 6.189)">
              <rect id="Rectangle_844" data-name="Rectangle 844" width="45.186" height="31.508" rx="5" transform="translate(0 0)" fill="#904dff"/>
              <path id="Rectangle_848" data-name="Rectangle 848" d="M4,0h8.991a0,0,0,0,1,0,0V8.984a0,0,0,0,1,0,0H4a4,4,0,0,1-4-4V4A4,4,0,0,1,4,0Z" transform="translate(32.195 12.991)" fill="#6000ff"/>
              <rect id="Rectangle_847" data-name="Rectangle 847" width="16.38" height="9.114" rx="4" transform="translate(30.5 11.861)" fill="#ae60ff"/>
              <circle id="Ellipse_127" data-name="Ellipse 127" cx="2.259" cy="2.259" r="2.259" transform="translate(33.324 14.685)" fill="#6000ff"/>
              <circle id="Ellipse_126" data-name="Ellipse 126" cx="1.977" cy="1.977" r="1.977" transform="translate(33.324 14.12)" fill="#ffbc00"/>
            </g>
          </g>
        </g>
      </g>
    </g>
    <circle id="Ellipse_216" data-name="Ellipse 216" cx="24" cy="24" r="24" transform="translate(1790 264)" fill="url(#linear-gradient)"/>
    <circle id="Ellipse_223" data-name="Ellipse 223" cx="23" cy="23" r="23" transform="translate(1737 236)" fill="url(#linear-gradient-2)"/>
    <circle id="Ellipse_218" data-name="Ellipse 218" cx="16" cy="16" r="16" transform="translate(1793 224)" fill="url(#linear-gradient-3)"/>
    <circle id="Ellipse_220" data-name="Ellipse 220" cx="17" cy="17" r="17" transform="translate(1739 292)" fill="url(#linear-gradient-4)"/>
    <circle id="Ellipse_217" data-name="Ellipse 217" cx="18" cy="18" r="18" transform="translate(1796 270)" fill="#2d314d"/>
    <circle id="Ellipse_222" data-name="Ellipse 222" cx="17" cy="17" r="17" transform="translate(1743 242)" fill="#2d314d"/>
    <circle id="Ellipse_219" data-name="Ellipse 219" cx="12" cy="12" r="12" transform="translate(1797 228)" fill="#2d314d"/>
    <circle id="Ellipse_221" data-name="Ellipse 221" cx="13" cy="13" r="13" transform="translate(1743 296)" fill="#2d314d"/>
    <g id="Ellipse_224" data-name="Ellipse 224" transform="translate(1714 234)" fill="none" stroke="#6000ff" stroke-width="1">
      <circle cx="3" cy="3" r="3" stroke="none"/>
      <circle cx="3" cy="3" r="2.5" fill="none"/>
    </g>
    <g id="Ellipse_233" data-name="Ellipse 233" transform="translate(1845 255)" fill="none" stroke="#6000ff" stroke-width="1">
      <circle cx="3" cy="3" r="3" stroke="none"/>
      <circle cx="3" cy="3" r="2.5" fill="none"/>
    </g>
    <g id="Ellipse_234" data-name="Ellipse 234" transform="translate(1853 267)" fill="none" stroke="#ae60ff" stroke-width="1">
      <circle cx="2" cy="2" r="2" stroke="none"/>
      <circle cx="2" cy="2" r="1.5" fill="none"/>
    </g>
    <g id="Ellipse_228" data-name="Ellipse 228" transform="translate(1717 318)" fill="none" stroke="#27e8a7" stroke-width="1">
      <circle cx="2" cy="2" r="2" stroke="none"/>
      <circle cx="2" cy="2" r="1.5" fill="none"/>
    </g>
    <g id="Ellipse_232" data-name="Ellipse 232" transform="translate(1817 324)" fill="none" stroke="#27e8a7" stroke-width="1">
      <circle cx="2" cy="2" r="2" stroke="none"/>
      <circle cx="2" cy="2" r="1.5" fill="none"/>
    </g>
    <circle id="Ellipse_225" data-name="Ellipse 225" cx="1.5" cy="1.5" r="1.5" transform="translate(1718 284)" fill="#ae60ff"/>
    <circle id="Ellipse_231" data-name="Ellipse 231" cx="1.5" cy="1.5" r="1.5" transform="translate(1836 339)" fill="#ae60ff"/>
    <circle id="Ellipse_226" data-name="Ellipse 226" cx="1.5" cy="1.5" r="1.5" transform="translate(1723 284)" fill="#ae60ff"/>
    <circle id="Ellipse_230" data-name="Ellipse 230" cx="1.5" cy="1.5" r="1.5" transform="translate(1841 339)" fill="#ae60ff"/>
    <circle id="Ellipse_227" data-name="Ellipse 227" cx="1.5" cy="1.5" r="1.5" transform="translate(1728 284)" fill="#ae60ff"/>
    <circle id="Ellipse_229" data-name="Ellipse 229" cx="1.5" cy="1.5" r="1.5" transform="translate(1846 339)" fill="#ae60ff"/>
    <g id="Ethereum_icon" data-name="Ethereum icon" transform="translate(1754 249.262)">
      <g id="Layer_x0020_1">
        <g id="_2487096444368">
          <path id="Path_50" data-name="Path 50" d="M6.012,0,0,9.92l6.012,3.544,5.971-3.531Z" fill="#fff" fill-rule="evenodd"/>
          <path id="Path_51" data-name="Path 51" d="M2922.09,0V13.464l5.971-3.531Z" transform="translate(-2916.078)" fill="#fff" fill-rule="evenodd"/>
          <path id="Path_52" data-name="Path 52" d="M6.012,0,0,9.92,6.012,7.194l5.971,2.74Z" fill="#fff" fill-rule="evenodd"/>
          <path id="Path_53" data-name="Path 53" d="M2922.09,0V7.194l5.971,2.74Z" transform="translate(-2916.078)" fill="#fff" fill-rule="evenodd"/>
          <path id="Path_54" data-name="Path 54" d="M13.2,5373.541l5.985,8.422,5.988-8.423-5.988,3.534Z" transform="translate(-13.173 -5362.484)" fill="#fff" fill-rule="evenodd"/>
          <path id="Path_55" data-name="Path 55" d="M2921.97,5381.963l5.988-8.423-5.988,3.534Z" transform="translate(-2915.958 -5362.484)" fill="#fff" fill-rule="evenodd"/>
        </g>
      </g>
    </g>
    <g id="Binance_icon" data-name="Binance icon" transform="translate(1802 233)">
      <g id="Layer_x0020_1-2" data-name="Layer_x0020_1">
        <path id="Path_58" data-name="Path 58" d="M11.285,9.715,7,14,2.716,9.715,4.278,8.154,7,10.876,9.723,8.154ZM7,5.431,8.569,7,7,8.569,5.431,7ZM1.562,8.562,0,7,1.562,5.438,3.124,7ZM12.438,5.438,14,7,12.438,8.562,10.876,7l1.562-1.562ZM7,0l4.285,4.285L9.723,5.846,7,3.124,4.278,5.846,2.716,4.285Z" transform="translate(0)" fill="#fff" fill-rule="evenodd"/>
      </g>
    </g>
    <g id="_WALLET" data-name="$WALLET" transform="translate(1804.807 274.693)">
      <g id="Layer_x0020_1-3" data-name="Layer_x0020_1">
        <g id="_2328355826240">
          <path id="Path_166" data-name="Path 166" d="M5684.5,6658.955l3.624,7.434a.2.2,0,0,1-.043.231l-9.533,8.876a.107.107,0,0,1-.18-.077v-8.155l6.008-5.589a.185.185,0,0,0,.063-.146l.018-2.575C5684.459,6658.938,5684.5,6658.938,5684.5,6658.955Z" transform="translate(-5669.76 -6648.912)" fill="#fff"/>
          <path id="Path_167" data-name="Path 167" d="M5678.331,8191.986v8.155a.106.106,0,0,0,.179.074h0l9.534-8.872a.207.207,0,0,0,.045-.232h0l-3.723-4.741Z" transform="translate(-5669.72 -8173.634)" fill="#fff" fill-rule="evenodd"/>
          <path id="Path_168" data-name="Path 168" d="M8960.733,6653.79h0a.02.02,0,0,0-.021.021h0l-.016,2.574a.212.212,0,0,1-.034.121l3.737,4.859a.214.214,0,0,0-.019-.129h0l-3.624-7.434a.024.024,0,0,0-.021-.012Z" transform="translate(-8946.016 -6643.77)" fill="#fff" fill-rule="evenodd"/>
          <path id="Path_169" data-name="Path 169" d="M9049.968,8306.673a.206.206,0,0,0-.018-.129h0l-.187-.385-3.374-4.14Z" transform="translate(-9031.586 -8289.079)" fill="#fff" fill-rule="evenodd"/>
          <path id="Path_170" data-name="Path 170" d="M1311.939,3125.2l-1.705,4.653a.208.208,0,0,0,.009.163l1.589,3.013-4.374,2.386a.117.117,0,0,1-.152-.043l-.946-1.9a.177.177,0,0,1,.018-.2l5.516-8.1C1311.913,3125.152,1311.948,3125.169,1311.939,3125.2Z" transform="translate(-1305.766 -3121.393)" fill="#fff"/>
          <path id="Path_171" data-name="Path 171" d="M1458.325,3125.18h0a.028.028,0,0,0-.017.007h0l-5.281,7.757-.006.01,3.626-3.089.011-.031h0v0l1.693-4.619A.026.026,0,0,0,1458.325,3125.18Z" transform="translate(-1452.178 -3121.41)" fill="#fff" fill-rule="evenodd"/>
          <path id="Path_172" data-name="Path 172" d="M1306.4,5773.224a.176.176,0,0,0-.018.2h0l.946,1.9a.117.117,0,0,0,.152.043h0l4.374-2.387-1.589-3.014a.207.207,0,0,1-.009-.163Z" transform="translate(-1305.791 -5761.344)" fill="#fff" fill-rule="evenodd"/>
          <path id="Path_173" data-name="Path 173" d="M1003.613,997.653v7.237a.2.2,0,0,1-.045.12h0l-8.525,11.134a.193.193,0,0,0,.027.266h0l5.981,5.563a.1.1,0,0,0,.17-.034h0l6.5-14.654a.23.23,0,0,0,0-.155h0l-4.026-9.494a.039.039,0,0,0-.036-.025h0A.043.043,0,0,0,1003.613,997.653Z" transform="translate(-995.003 -997.611)" fill="#fff" fill-rule="evenodd"/>
          <path id="Path_174" data-name="Path 174" d="M5672.333,997.61h0a.043.043,0,0,0-.044.042l0,7.237a.216.216,0,0,1-.011.06l4.064,2.062-3.976-9.376A.038.038,0,0,0,5672.333,997.61Zm-.052,7.339.775.429Z" transform="translate(-5663.681 -997.61)" fill="#fff" fill-rule="evenodd"/>
          <path id="Path_175" data-name="Path 175" d="M5676.412,5142.141h0a.22.22,0,0,0-.013-.076h0l-.052-.122-4.067-2.062.78.429Z" transform="translate(-5663.68 -5132.542)" fill="#fff" fill-rule="evenodd"/>
          <path id="Path_176" data-name="Path 176" d="M1329.775,5772.891l-.224.331,3.853-3.421Z" transform="translate(-1328.935 -5761.345)" fill="#fff"/>
        </g>
      </g>
    </g>
    <g id="Group_857" data-name="Group 857" transform="translate(5.868 -0.041)">
      <path id="usdt" d="M149.5,169.4v-2.907H137.3V169.4h4.5v1.9c-3.657.16-6.411.863-6.411,1.707s2.754,1.546,6.411,1.707v6.094H145v-6.1c3.643-.163,6.383-.865,6.383-1.705s-2.74-1.543-6.383-1.706v-1.9h4.5Zm.506,3.434c0,.555-2.13,1.02-5.005,1.149l-.186.008h-.021l-.174.006H144.6l-.394.011H144.2l-.178,0h-.05l-.141,0h-.891l-.139,0h-.048l-.166,0h-.018q-.3-.006-.582-.017h0l-.19-.008c-2.89-.127-5.033-.594-5.033-1.152s2.144-1.023,5.033-1.152v1.763c.5.026,1.035.039,1.589.039s1.107-.014,1.617-.041v-1.756C147.875,171.814,150.005,172.28,150.005,172.835Zm0,0" transform="translate(1606.749 136.363)" fill="#fff"/>
    </g>
  </g>
</svg>
