<svg xmlns="http://www.w3.org/2000/svg" width="32" height="32" viewBox="0 0 32 32">
  <g id="Transfer_icon" data-name="Transfer icon" transform="translate(32) rotate(90)" opacity="0.5">
    <rect id="Boundary" width="32" height="32" fill="none"/>
    <g id="Shape" transform="translate(2.11 28.872) rotate(-90)">
      <path id="Path_37" data-name="Path 37" d="M1.333,12.321A1.333,1.333,0,0,1,.39,10.045L7.759,2.676l-5.966.009h0a1.333,1.333,0,0,1,0-2.667L14.206,0,2.276,11.93A1.329,1.329,0,0,1,1.333,12.321Z" transform="translate(11.377 0) rotate(45)" fill="currentColor"/>
      <path id="Path_39" data-name="Path 39" d="M1.333,12.321a1.333,1.333,0,0,1-.943-2.276L7.759,2.676l-5.966.009a1.333,1.333,0,0,1,0-2.667L14.206,0,2.276,11.93A1.329,1.329,0,0,1,1.333,12.321Z" transform="translate(14.045 28.09) rotate(-135)" fill="currentColor"/>
      <path id="Path_1590" data-name="Path 1590" d="M2.67,6.52H0V4A4.01,4.01,0,0,1,4.014,0H5.537V2.67H4.014A1.337,1.337,0,0,0,2.67,4V6.52Z" transform="translate(0 7.373)" fill="currentColor"/>
      <path id="Path_1591" data-name="Path 1591" d="M2.67,6.52H0V4A4.01,4.01,0,0,1,4.014,0H5.537V2.67H4.014A1.337,1.337,0,0,0,2.67,4V6.52Z" transform="translate(25.536 20.719) rotate(180)" fill="currentColor"/>
      <path id="Path_1591-2" data-name="Path 1591" d="M1.333,1.333V2.667l0-1.333h0M1.333,0A1.333,1.333,0,0,1,2.667,1.333V2.667A1.333,1.333,0,0,1,0,2.667V1.333A1.333,1.333,0,0,1,1.333,0Z" transform="translate(0 11.223)" fill="currentColor"/>
      <path id="Path_1591-3" data-name="Path 1591" d="M1.333,1.333V2.667l0-1.333h0M1.333,0A1.333,1.333,0,0,1,2.667,1.333V2.667A1.333,1.333,0,0,1,0,2.667V1.333A1.333,1.333,0,0,1,1.333,0Z" transform="translate(25.536 16.876) rotate(180)" fill="currentColor"/>
    </g>
  </g>
</svg>
