<svg xmlns="http://www.w3.org/2000/svg" width="30" height="30" viewBox="0 0 30 30">
  <g id="Help_center_icon" data-name="Help center icon" transform="translate(-54 -1065)">
    <rect id="Boundary" width="30" height="30" rx="13" transform="translate(54 1095) rotate(-90)" fill="#1e2033" opacity="0"/>
    <g id="Group_319" data-name="Group 319" transform="translate(59.539 1071.656)">
      <path id="Subtraction_21" data-name="Subtraction 21" d="M2.532,14.437a.845.845,0,0,1-.325-.064.862.862,0,0,1-.532-.8V10.157A2.586,2.586,0,0,1,0,7.739V2.578A2.582,2.582,0,0,1,2.579,0H3.44V1.716H2.579a.862.862,0,0,0-.861.862V7.739a.855.855,0,0,0,.837.861.864.864,0,0,1,.842.857V11.5L6.043,8.851A.863.863,0,0,1,6.654,8.6H9.463a.86.86,0,0,0,.857-.861h1.722a2.581,2.581,0,0,1-2.579,2.578H7.007L3.143,14.186A.863.863,0,0,1,2.532,14.437Z" transform="translate(0 4.306)" fill="#ebecff"/>
      <path id="Path_1578" data-name="Path 1578" d="M6.2,1.531,6.127,7.756l.813,1.287,2.924.275,2.164.162,4.486,3.789-.15-4.139L18.2,8.193l-.5-7.037L12.852.781Z" fill="#ebecff"/>
      <path id="Union_25" data-name="Union 25" d="M19440.229,20125.439a.853.853,0,0,1-.609-.256l-3.867-3.865h-4.168a2.584,2.584,0,0,1-2.584-2.582v-5.158a2.583,2.583,0,0,1,2.584-2.578h8.6a2.582,2.582,0,0,1,2.58,2.578v5.158a2.588,2.588,0,0,1-1.68,2.422v3.42a.856.856,0,0,1-.529.795A.879.879,0,0,1,19440.229,20125.439Zm-8.645-12.723a.861.861,0,0,0-.861.861v5.158a.861.861,0,0,0,.861.865h4.527a.857.857,0,0,1,.605.25l2.652,2.65v-2.043a.859.859,0,0,1,.838-.861.864.864,0,0,0,.836-.861v-5.158a.863.863,0,0,0-.857-.861Z" transform="translate(-19423.84 -20111)" fill="#ebecff"/>
      <path id="Path_1577" data-name="Path 1577" d="M.21-2.016H1.659A.961.961,0,0,1,2.723-3.048.96.96,0,0,1,3.766-2.016c.011.988-.845,1.2-1.986,1.2H1.286L1.34,1.045H2.69L2.734.2c1.46,0,2.524-.724,2.524-2.206A2.272,2.272,0,0,0,2.723-4.332,2.258,2.258,0,0,0,.21-2.016ZM2.943,2.768a.9.9,0,0,0-.933-.9.9.9,0,1,0,0,1.8A.9.9,0,0,0,2.943,2.768Z" transform="translate(9.488 5.733)" fill="#1e2033"/>
    </g>
  </g>
</svg>
