<svg fill="none" xmlns="http://www.w3.org/2000/svg" width="32" height="32" viewBox="0 0 32 32">
  <path d="M25 16a9 9 0 1 0-18 0 9 9 0 0 0 18 0Z" fill="#00D2FF" />
  <path
    d="M22.074 15.55c0-.02-.39-.27-.595-.4a1.43 1.43 0 0 1-.245-.193c-.153-.152-.409-.417-.492-.58-.053-.105-.031-.292.01-.472a1.229 1.229 0 0 0-.152-.919l-.266-.434a2.93 2.93 0 0 1-.294-.631 1.838 1.838 0 0 0-.467-.75c-.434-.424-1.634-.632-2.632-.665a1.636 1.636 0 0 0-.188-.045c-.444-.076-.917-.198-1.342-.119-.631.118-1.27.316-1.745.804-.096.098-.246.145-.35.238-.205.185-.481.185-.663.39-.107.12-.156.512-.436.661-.462.248-.805.521-.917.66-.084.105-.15.227-.232.335-.084.11-.483.295-.599.411a.841.841 0 0 0-.201.734l.016.076c.045.17.17.478.14.62-.033.166-.463 1.413.498 1.745.2.069.285.204.307.409.017.153.062.31.142.48.088.184.26.284.274.296.058.051.328.333.35.374.34.63.245.945.898 1.159.167.055.328.13.48.22.184.111.381.199.588.26l.025.01c.145-.35.292-.683.439-.996a2.91 2.91 0 0 1-.753-2.916.067.067 0 0 1 .108-.03c.247.216.997.995.909 2.401.259-.517.51-.973.741-1.361a2.94 2.94 0 0 1-.017-3.028.068.068 0 0 1 .09-.026c.01.006.018.013.025.023.172.256.642 1.097.351 2.31.211-.323.382-.562.494-.711.303-2.004 1.816-2.66 2.213-2.8a.067.067 0 0 1 .09.07 3.483 3.483 0 0 1-2.047 2.828c-.21.278-.414.57-.608.87.67-.524 1.611-.77 2.392-.58a.068.068 0 0 1 .04.106c-.225.297-1.118 1.3-2.801 1.07-.284.48-.545.966-.776 1.43.726-.55 1.788-.76 2.612-.483a.07.07 0 0 1 .046.048.069.069 0 0 1-.016.064c-.256.276-1.241 1.179-2.86.82-.153.321-.379.849-.49 1.11-.038.09-.073.18-.104.272a9.683 9.683 0 0 1-.283.742.3.3 0 0 0 .177.402 6.602 6.602 0 0 0 3.974.147.298.298 0 0 0 .194-.172l.054-.126s.565-1.312.648-1.884c.033-.225.098-.393.166-.516a.54.54 0 0 1 .443-.278c.43-.023 1.347-.083 1.68-.189.444-.14.251-.948.228-1.035-.024-.087.213-.29.262-.407.049-.118-.12-.159-.189-.288-.069-.13.171-.223.205-.34.034-.118-.078-.248-.123-.335-.046-.087-.063-.195-.063-.195s.324-.238.496-.388c.173-.15.14-.273.14-.302"
    fill="#000" />
</svg>