<?xml version="1.0" encoding="UTF-8"?><!-- Generator: Adobe Illustrator 25.0.0, SVG Export Plug-In . SVG Version: 6.00 Build 0)  --><svg xmlns="http://www.w3.org/2000/svg" xmlns:xlink="http://www.w3.org/1999/xlink" version="1.1" id="Capa_1" x="0px" y="0px" viewBox="0 -128 512 512" style="enable-background:new 0 0 512 512;" xml:space="preserve" width="512" height="512">    <path d="M79.4992542,46.5389641 C142.715504,-15.3550143 245.209294,-15.3550143 308.425541,46.5389641 L316.033719,53.9880033 C319.194531,57.0827021 319.194531,62.1002006 316.033719,65.1949006 L290.007661,90.6765804 C288.427255,92.2239311 285.86491,92.2239311 284.284504,90.6765804 L273.814748,80.4258162 C229.713513,37.2470301 158.211283,37.2470301 114.110047,80.4258162 L102.897805,91.4035389 C101.317397,92.9508883 98.755052,92.9508883 97.1746471,91.4035389 L71.1485898,65.9218591 C67.9877774,62.8271591 67.9877774,57.8096606 71.1485898,54.7149619 L79.4992542,46.5389641 Z M362.249885,99.2377722 L385.413126,121.916595 C388.573922,125.01128 388.573941,130.028748 385.413167,133.123453 L280.968512,235.385079 C277.807722,238.479801 272.683033,238.479836 269.522198,235.385159 C269.522185,235.385146 269.52217,235.385132 269.522157,235.385118 L195.393696,162.807065 C194.603493,162.03339 193.32232,162.03339 192.532117,162.807065 C192.532112,162.80707 192.532108,162.807076 192.532103,162.807079 L118.40522,235.385079 C115.24444,238.479809 110.119749,238.479861 106.958905,235.385192 C106.958887,235.385174 106.958867,235.385155 106.958847,235.385136 L2.51128675,133.12215 C-0.649524409,130.027451 -0.649524409,125.009953 2.51128675,121.915254 L25.6745697,99.2364692 C28.8353808,96.1417705 33.9600712,96.1417705 37.1208837,99.2364692 L111.250424,171.815537 C112.040627,172.589212 113.321798,172.589212 114.112002,171.815537 C114.112014,171.815525 114.112024,171.815514 114.112036,171.815505 L188.237861,99.2364692 C191.398601,96.1416993 196.523291,96.1415832 199.684176,99.2362107 C199.68422,99.2362542 199.684263,99.2362977 199.684307,99.2363413 L273.813749,171.815505 C274.603952,172.589179 275.885125,172.589179 276.675327,171.815505 L350.803571,99.2377722 C353.964384,96.1430722 359.089073,96.1430722 362.249885,99.2377722 Z"		  id="WalletConnect" fill="#3B99FC" fill-rule="nonzero"></path></svg>