<svg id="_coins" data-name="$ coins" xmlns="http://www.w3.org/2000/svg" xmlns:xlink="http://www.w3.org/1999/xlink" width="50" height="50" viewBox="0 0 50 50">
  <defs>
    <radialGradient id="radial-gradient" cx="0.297" cy="0.904" r="1.186" gradientUnits="objectBoundingBox">
      <stop offset="0" stop-color="#2a2929"/>
      <stop offset="0.265" stop-color="#707070" stop-opacity="0.941"/>
      <stop offset="1" stop-color="#fff" stop-opacity="0"/>
    </radialGradient>
  </defs>
  <g id="_coins-2" data-name="$ coins" transform="translate(-242 -280)">
    <g id="Group_570" data-name="Group 570">
      <g id="Group_555" data-name="Group 555" transform="translate(-12)">
        <path id="Union_29" data-name="Union 29" d="M-82,18905.5v-2.7a.8.8,0,0,1,.8-.8h1.084c2.133-1.8,5.866-3,10.117-3s7.981,1.2,10.113,3H-58.8a.8.8,0,0,1,.8.8v2.7c0,3.594-5.373,6.5-12,6.5S-82,18909.092-82,18905.5Z" transform="translate(356 -18593)" fill="#21e2a1"/>
        <g id="Group_554" data-name="Group 554" transform="translate(0.499)">
          <path id="Path_1961" data-name="Path 1961" d="M0,4.389V0" transform="translate(275.5 311.5)" fill="none" stroke="#09ca89" stroke-width="0.5"/>
          <path id="Path_1962" data-name="Path 1962" d="M0,3.727V0" transform="translate(277.5 313.5)" fill="none" stroke="#09ca89" stroke-width="0.5"/>
          <path id="Path_1963" data-name="Path 1963" d="M0,3.213V0" transform="translate(279.5 314.5)" fill="none" stroke="#09ca89" stroke-width="0.5"/>
          <path id="Path_1964" data-name="Path 1964" d="M0,3.35V0" transform="translate(281.5 315)" fill="none" stroke="#09ca89" stroke-width="0.5"/>
          <path id="Path_1971" data-name="Path 1971" d="M0,3.662V0" transform="translate(283.5 315)" fill="none" stroke="#09ca89" stroke-width="0.5"/>
          <path id="Path_1970" data-name="Path 1970" d="M0,3.787V0" transform="translate(285.5 315)" fill="none" stroke="#09ca89" stroke-width="0.5"/>
          <path id="Path_1969" data-name="Path 1969" d="M0,3.688V0" transform="translate(287.5 315)" fill="none" stroke="#09ca89" stroke-width="0.5"/>
          <path id="Path_1968" data-name="Path 1968" d="M0,3.463V0" transform="translate(289.5 315)" fill="none" stroke="#09ca89" stroke-width="0.5"/>
          <path id="Path_1967" data-name="Path 1967" d="M0,3.563V0" transform="translate(291.5 314.5)" fill="none" stroke="#09ca89" stroke-width="0.5"/>
          <path id="Path_1965" data-name="Path 1965" d="M0,3.35V0" transform="translate(293.5 313.689)" fill="none" stroke="#09ca89" stroke-width="0.5"/>
          <path id="Path_1966" data-name="Path 1966" d="M0,3.512V0" transform="translate(295.5 312.289)" fill="none" stroke="#09ca89" stroke-width="0.5"/>
        </g>
        <g id="Union_30" data-name="Union 30" transform="translate(356 -18593)" fill="none">
          <path d="M-82,18905.5v-2.7a.8.8,0,0,1,.8-.8h1.084c2.133-1.8,5.866-3,10.117-3s7.981,1.2,10.113,3H-58.8a.8.8,0,0,1,.8.8v2.7c0,3.594-5.373,6.5-12,6.5S-82,18909.092-82,18905.5Z" stroke="none"/>
          <path d="M -69.99825286865234 18899.5 C -71.99999237060547 18899.5 -73.97379302978516 18899.77734375 -75.70627593994141 18900.302734375 C -77.36507415771484 18900.8046875 -78.77816772460938 18901.5234375 -79.79278564453125 18902.3828125 L -79.93255615234375 18902.5 L -81.19949340820312 18902.5 C -81.36607360839844 18902.5 -81.50160217285156 18902.63671875 -81.50160217285156 18902.802734375 L -81.50160217285156 18905.498046875 C -81.50160217285156 18907.04296875 -80.34622192382812 18908.521484375 -78.248291015625 18909.65625 C -76.05374145507812 18910.845703125 -73.12382507324219 18911.5 -69.99825286865234 18911.5 C -66.874755859375 18911.5 -63.94633483886719 18910.845703125 -61.75241851806641 18909.65625 C -59.65482330322266 18908.521484375 -58.4996337890625 18907.04296875 -58.4996337890625 18905.498046875 L -58.4996337890625 18902.802734375 C -58.4996337890625 18902.63671875 -58.63516235351562 18902.5 -58.8017578125 18902.5 L -60.06844329833984 18902.5 L -60.20822906494141 18902.380859375 C -61.22261810302734 18901.5234375 -62.63528442382812 18900.8046875 -64.29350280761719 18900.302734375 C -66.02527618408203 18899.77734375 -67.99794769287109 18899.5 -69.99825286865234 18899.5 M -69.99825286865234 18899 C -65.75035858154297 18899 -62.01763916015625 18900.197265625 -59.88540649414062 18902 L -58.8017578125 18902 C -58.36035919189453 18902 -57.9996337890625 18902.357421875 -57.9996337890625 18902.802734375 L -57.9996337890625 18905.498046875 C -57.9996337890625 18909.091796875 -63.3724365234375 18912 -69.99825286865234 18912 C -76.62881469726562 18912 -82.00160217285156 18909.091796875 -82.00160217285156 18905.498046875 L -82.00160217285156 18902.802734375 C -82.00160217285156 18902.357421875 -81.64089965820312 18902 -81.19949340820312 18902 L -80.11557006835938 18902 C -77.98294067382812 18900.197265625 -74.24919891357422 18899 -69.99825286865234 18899 Z" stroke="none" fill="#3afbba"/>
        </g>
        <ellipse id="Ellipse_190" data-name="Ellipse 190" cx="12" cy="6.5" rx="12" ry="6.5" transform="translate(274 303)" fill="#01a66e"/>
        <ellipse id="Ellipse_191" data-name="Ellipse 191" cx="11" cy="5.5" rx="11" ry="5.5" transform="translate(275 304.5)" fill="#19da99"/>
        <g id="Ellipse_188" data-name="Ellipse 188" transform="translate(274 303)" fill="none" stroke="#37f8b7" stroke-width="1">
          <ellipse cx="12" cy="6.5" rx="12" ry="6.5" stroke="none"/>
          <ellipse cx="12" cy="6.5" rx="11.5" ry="6" fill="none"/>
        </g>
        <path id="Path_1959" data-name="Path 1959" d="M-.008-2.6H1.05v-.782c2.611-.068,4.032-.985,4.032-2.027,0-1.5-2.264-1.776-4.032-2.066v-1.5c.463.1.777.319.843.676H4.917c-.149-1.226-1.6-1.9-3.867-2.008v-.782H-.008v.782c-2.247.087-3.982.8-3.982,2.008,0,1.515,2.214,1.805,3.982,2.075V-4.7C-.569-4.8-.9-5.046-.966-5.441H-3.973C-3.891-4.2-2.255-3.511-.008-3.4ZM2.124-5.354c0,.357-.413.618-1.074.685V-6.04C1.694-5.895,2.124-5.7,2.124-5.354ZM-1-8.376c0-.376.38-.589.991-.647v1.342C-.6-7.835-1-8.038-1-8.376Z" transform="translate(285.454 316.805)" fill="#01be7e"/>
        <path id="Path_1960" data-name="Path 1960" d="M-.008-2.6H1.05v-.782c2.611-.068,4.032-.985,4.032-2.027,0-1.5-2.264-1.776-4.032-2.066v-1.5c.463.1.777.319.843.676H4.917c-.149-1.226-1.6-1.9-3.867-2.008v-.782H-.008v.782c-2.247.087-3.982.8-3.982,2.008,0,1.515,2.214,1.805,3.982,2.075V-4.7C-.569-4.8-.9-5.046-.966-5.441H-3.973C-3.891-4.2-2.255-3.511-.008-3.4ZM2.124-5.354c0,.357-.413.618-1.074.685V-6.04C1.694-5.895,2.124-5.7,2.124-5.354ZM-1-8.376c0-.376.38-.589.991-.647v1.342C-.6-7.835-1-8.038-1-8.376Z" transform="translate(285.454 316.465)" fill="#dffff4"/>
      </g>
      <g id="Group_556" data-name="Group 556" transform="translate(-12 -3)">
        <path id="Union_29-2" data-name="Union 29" d="M-82,18905.5v-2.7a.8.8,0,0,1,.8-.8h1.084c2.133-1.8,5.866-3,10.117-3s7.981,1.2,10.113,3H-58.8a.8.8,0,0,1,.8.8v2.7c0,3.594-5.373,6.5-12,6.5S-82,18909.092-82,18905.5Z" transform="translate(356 -18593)" fill="#21e2a1"/>
        <g id="Group_554-2" data-name="Group 554" transform="translate(0.499)">
          <path id="Path_1961-2" data-name="Path 1961" d="M0,4.389V0" transform="translate(275.5 311.5)" fill="none" stroke="#09ca89" stroke-width="0.5"/>
          <path id="Path_1962-2" data-name="Path 1962" d="M0,3.727V0" transform="translate(277.5 313.5)" fill="none" stroke="#09ca89" stroke-width="0.5"/>
          <path id="Path_1963-2" data-name="Path 1963" d="M0,3.213V0" transform="translate(279.5 314.5)" fill="none" stroke="#09ca89" stroke-width="0.5"/>
          <path id="Path_1964-2" data-name="Path 1964" d="M0,3.35V0" transform="translate(281.5 315)" fill="none" stroke="#09ca89" stroke-width="0.5"/>
          <path id="Path_1971-2" data-name="Path 1971" d="M0,3.662V0" transform="translate(283.5 315)" fill="none" stroke="#09ca89" stroke-width="0.5"/>
          <path id="Path_1970-2" data-name="Path 1970" d="M0,3.787V0" transform="translate(285.5 315)" fill="none" stroke="#09ca89" stroke-width="0.5"/>
          <path id="Path_1969-2" data-name="Path 1969" d="M0,3.688V0" transform="translate(287.5 315)" fill="none" stroke="#09ca89" stroke-width="0.5"/>
          <path id="Path_1968-2" data-name="Path 1968" d="M0,3.463V0" transform="translate(289.5 315)" fill="none" stroke="#09ca89" stroke-width="0.5"/>
          <path id="Path_1967-2" data-name="Path 1967" d="M0,3.563V0" transform="translate(291.5 314.5)" fill="none" stroke="#09ca89" stroke-width="0.5"/>
          <path id="Path_1965-2" data-name="Path 1965" d="M0,3.35V0" transform="translate(293.5 313.689)" fill="none" stroke="#09ca89" stroke-width="0.5"/>
          <path id="Path_1966-2" data-name="Path 1966" d="M0,3.512V0" transform="translate(295.5 312.289)" fill="none" stroke="#09ca89" stroke-width="0.5"/>
        </g>
        <g id="Union_30-2" data-name="Union 30" transform="translate(356 -18593)" fill="none">
          <path d="M-82,18905.5v-2.7a.8.8,0,0,1,.8-.8h1.084c2.133-1.8,5.866-3,10.117-3s7.981,1.2,10.113,3H-58.8a.8.8,0,0,1,.8.8v2.7c0,3.594-5.373,6.5-12,6.5S-82,18909.092-82,18905.5Z" stroke="none"/>
          <path d="M -69.99825286865234 18899.5 C -71.99999237060547 18899.5 -73.97379302978516 18899.77734375 -75.70627593994141 18900.302734375 C -77.36507415771484 18900.8046875 -78.77816772460938 18901.5234375 -79.79278564453125 18902.3828125 L -79.93255615234375 18902.5 L -81.19949340820312 18902.5 C -81.36607360839844 18902.5 -81.50160217285156 18902.63671875 -81.50160217285156 18902.802734375 L -81.50160217285156 18905.498046875 C -81.50160217285156 18907.04296875 -80.34622192382812 18908.521484375 -78.248291015625 18909.65625 C -76.05374145507812 18910.845703125 -73.12382507324219 18911.5 -69.99825286865234 18911.5 C -66.874755859375 18911.5 -63.94633483886719 18910.845703125 -61.75241851806641 18909.65625 C -59.65482330322266 18908.521484375 -58.4996337890625 18907.04296875 -58.4996337890625 18905.498046875 L -58.4996337890625 18902.802734375 C -58.4996337890625 18902.63671875 -58.63516235351562 18902.5 -58.8017578125 18902.5 L -60.06844329833984 18902.5 L -60.20822906494141 18902.380859375 C -61.22261810302734 18901.5234375 -62.63528442382812 18900.8046875 -64.29350280761719 18900.302734375 C -66.02527618408203 18899.77734375 -67.99794769287109 18899.5 -69.99825286865234 18899.5 M -69.99825286865234 18899 C -65.75035858154297 18899 -62.01763916015625 18900.197265625 -59.88540649414062 18902 L -58.8017578125 18902 C -58.36035919189453 18902 -57.9996337890625 18902.357421875 -57.9996337890625 18902.802734375 L -57.9996337890625 18905.498046875 C -57.9996337890625 18909.091796875 -63.3724365234375 18912 -69.99825286865234 18912 C -76.62881469726562 18912 -82.00160217285156 18909.091796875 -82.00160217285156 18905.498046875 L -82.00160217285156 18902.802734375 C -82.00160217285156 18902.357421875 -81.64089965820312 18902 -81.19949340820312 18902 L -80.11557006835938 18902 C -77.98294067382812 18900.197265625 -74.24919891357422 18899 -69.99825286865234 18899 Z" stroke="none" fill="#3afbba"/>
        </g>
        <ellipse id="Ellipse_190-2" data-name="Ellipse 190" cx="12" cy="6.5" rx="12" ry="6.5" transform="translate(274 303)" fill="#01a66e"/>
        <ellipse id="Ellipse_191-2" data-name="Ellipse 191" cx="11" cy="5.5" rx="11" ry="5.5" transform="translate(275 304.5)" fill="#19da99"/>
        <g id="Ellipse_188-2" data-name="Ellipse 188" transform="translate(274 303)" fill="none" stroke="#37f8b7" stroke-width="1">
          <ellipse cx="12" cy="6.5" rx="12" ry="6.5" stroke="none"/>
          <ellipse cx="12" cy="6.5" rx="11.5" ry="6" fill="none"/>
        </g>
        <path id="Path_1959-2" data-name="Path 1959" d="M-.008-2.6H1.05v-.782c2.611-.068,4.032-.985,4.032-2.027,0-1.5-2.264-1.776-4.032-2.066v-1.5c.463.1.777.319.843.676H4.917c-.149-1.226-1.6-1.9-3.867-2.008v-.782H-.008v.782c-2.247.087-3.982.8-3.982,2.008,0,1.515,2.214,1.805,3.982,2.075V-4.7C-.569-4.8-.9-5.046-.966-5.441H-3.973C-3.891-4.2-2.255-3.511-.008-3.4ZM2.124-5.354c0,.357-.413.618-1.074.685V-6.04C1.694-5.895,2.124-5.7,2.124-5.354ZM-1-8.376c0-.376.38-.589.991-.647v1.342C-.6-7.835-1-8.038-1-8.376Z" transform="translate(285.454 316.805)" fill="#01be7e"/>
        <path id="Path_1960-2" data-name="Path 1960" d="M-.008-2.6H1.05v-.782c2.611-.068,4.032-.985,4.032-2.027,0-1.5-2.264-1.776-4.032-2.066v-1.5c.463.1.777.319.843.676H4.917c-.149-1.226-1.6-1.9-3.867-2.008v-.782H-.008v.782c-2.247.087-3.982.8-3.982,2.008,0,1.515,2.214,1.805,3.982,2.075V-4.7C-.569-4.8-.9-5.046-.966-5.441H-3.973C-3.891-4.2-2.255-3.511-.008-3.4ZM2.124-5.354c0,.357-.413.618-1.074.685V-6.04C1.694-5.895,2.124-5.7,2.124-5.354ZM-1-8.376c0-.376.38-.589.991-.647v1.342C-.6-7.835-1-8.038-1-8.376Z" transform="translate(285.454 316.465)" fill="#dffff4"/>
      </g>
      <g id="Group_557" data-name="Group 557" transform="translate(-12 -6)">
        <path id="Union_29-3" data-name="Union 29" d="M-82,18905.5v-2.7a.8.8,0,0,1,.8-.8h1.084c2.133-1.8,5.866-3,10.117-3s7.981,1.2,10.113,3H-58.8a.8.8,0,0,1,.8.8v2.7c0,3.594-5.373,6.5-12,6.5S-82,18909.092-82,18905.5Z" transform="translate(356 -18593)" fill="#21e2a1"/>
        <g id="Group_554-3" data-name="Group 554" transform="translate(0.499)">
          <path id="Path_1961-3" data-name="Path 1961" d="M0,4.389V0" transform="translate(275.5 311.5)" fill="none" stroke="#09ca89" stroke-width="0.5"/>
          <path id="Path_1962-3" data-name="Path 1962" d="M0,3.727V0" transform="translate(277.5 313.5)" fill="none" stroke="#09ca89" stroke-width="0.5"/>
          <path id="Path_1963-3" data-name="Path 1963" d="M0,3.213V0" transform="translate(279.5 314.5)" fill="none" stroke="#09ca89" stroke-width="0.5"/>
          <path id="Path_1964-3" data-name="Path 1964" d="M0,3.35V0" transform="translate(281.5 315)" fill="none" stroke="#09ca89" stroke-width="0.5"/>
          <path id="Path_1971-3" data-name="Path 1971" d="M0,3.662V0" transform="translate(283.5 315)" fill="none" stroke="#09ca89" stroke-width="0.5"/>
          <path id="Path_1970-3" data-name="Path 1970" d="M0,3.787V0" transform="translate(285.5 315)" fill="none" stroke="#09ca89" stroke-width="0.5"/>
          <path id="Path_1969-3" data-name="Path 1969" d="M0,3.688V0" transform="translate(287.5 315)" fill="none" stroke="#09ca89" stroke-width="0.5"/>
          <path id="Path_1968-3" data-name="Path 1968" d="M0,3.463V0" transform="translate(289.5 315)" fill="none" stroke="#09ca89" stroke-width="0.5"/>
          <path id="Path_1967-3" data-name="Path 1967" d="M0,3.563V0" transform="translate(291.5 314.5)" fill="none" stroke="#09ca89" stroke-width="0.5"/>
          <path id="Path_1965-3" data-name="Path 1965" d="M0,3.35V0" transform="translate(293.5 313.689)" fill="none" stroke="#09ca89" stroke-width="0.5"/>
          <path id="Path_1966-3" data-name="Path 1966" d="M0,3.512V0" transform="translate(295.5 312.289)" fill="none" stroke="#09ca89" stroke-width="0.5"/>
        </g>
        <g id="Union_30-3" data-name="Union 30" transform="translate(356 -18593)" fill="none">
          <path d="M-82,18905.5v-2.7a.8.8,0,0,1,.8-.8h1.084c2.133-1.8,5.866-3,10.117-3s7.981,1.2,10.113,3H-58.8a.8.8,0,0,1,.8.8v2.7c0,3.594-5.373,6.5-12,6.5S-82,18909.092-82,18905.5Z" stroke="none"/>
          <path d="M -69.99825286865234 18899.5 C -71.99999237060547 18899.5 -73.97379302978516 18899.77734375 -75.70627593994141 18900.302734375 C -77.36507415771484 18900.8046875 -78.77816772460938 18901.5234375 -79.79278564453125 18902.3828125 L -79.93255615234375 18902.5 L -81.19949340820312 18902.5 C -81.36607360839844 18902.5 -81.50160217285156 18902.63671875 -81.50160217285156 18902.802734375 L -81.50160217285156 18905.498046875 C -81.50160217285156 18907.04296875 -80.34622192382812 18908.521484375 -78.248291015625 18909.65625 C -76.05374145507812 18910.845703125 -73.12382507324219 18911.5 -69.99825286865234 18911.5 C -66.874755859375 18911.5 -63.94633483886719 18910.845703125 -61.75241851806641 18909.65625 C -59.65482330322266 18908.521484375 -58.4996337890625 18907.04296875 -58.4996337890625 18905.498046875 L -58.4996337890625 18902.802734375 C -58.4996337890625 18902.63671875 -58.63516235351562 18902.5 -58.8017578125 18902.5 L -60.06844329833984 18902.5 L -60.20822906494141 18902.380859375 C -61.22261810302734 18901.5234375 -62.63528442382812 18900.8046875 -64.29350280761719 18900.302734375 C -66.02527618408203 18899.77734375 -67.99794769287109 18899.5 -69.99825286865234 18899.5 M -69.99825286865234 18899 C -65.75035858154297 18899 -62.01763916015625 18900.197265625 -59.88540649414062 18902 L -58.8017578125 18902 C -58.36035919189453 18902 -57.9996337890625 18902.357421875 -57.9996337890625 18902.802734375 L -57.9996337890625 18905.498046875 C -57.9996337890625 18909.091796875 -63.3724365234375 18912 -69.99825286865234 18912 C -76.62881469726562 18912 -82.00160217285156 18909.091796875 -82.00160217285156 18905.498046875 L -82.00160217285156 18902.802734375 C -82.00160217285156 18902.357421875 -81.64089965820312 18902 -81.19949340820312 18902 L -80.11557006835938 18902 C -77.98294067382812 18900.197265625 -74.24919891357422 18899 -69.99825286865234 18899 Z" stroke="none" fill="#3afbba"/>
        </g>
        <ellipse id="Ellipse_190-3" data-name="Ellipse 190" cx="12" cy="6.5" rx="12" ry="6.5" transform="translate(274 303)" fill="#01a66e"/>
        <ellipse id="Ellipse_191-3" data-name="Ellipse 191" cx="11" cy="5.5" rx="11" ry="5.5" transform="translate(275 304.5)" fill="#19da99"/>
        <g id="Ellipse_188-3" data-name="Ellipse 188" transform="translate(274 303)" fill="none" stroke="#37f8b7" stroke-width="1">
          <ellipse cx="12" cy="6.5" rx="12" ry="6.5" stroke="none"/>
          <ellipse cx="12" cy="6.5" rx="11.5" ry="6" fill="none"/>
        </g>
        <path id="Path_1959-3" data-name="Path 1959" d="M-.008-2.6H1.05v-.782c2.611-.068,4.032-.985,4.032-2.027,0-1.5-2.264-1.776-4.032-2.066v-1.5c.463.1.777.319.843.676H4.917c-.149-1.226-1.6-1.9-3.867-2.008v-.782H-.008v.782c-2.247.087-3.982.8-3.982,2.008,0,1.515,2.214,1.805,3.982,2.075V-4.7C-.569-4.8-.9-5.046-.966-5.441H-3.973C-3.891-4.2-2.255-3.511-.008-3.4ZM2.124-5.354c0,.357-.413.618-1.074.685V-6.04C1.694-5.895,2.124-5.7,2.124-5.354ZM-1-8.376c0-.376.38-.589.991-.647v1.342C-.6-7.835-1-8.038-1-8.376Z" transform="translate(285.454 316.805)" fill="#01be7e"/>
        <path id="Path_1960-3" data-name="Path 1960" d="M-.008-2.6H1.05v-.782c2.611-.068,4.032-.985,4.032-2.027,0-1.5-2.264-1.776-4.032-2.066v-1.5c.463.1.777.319.843.676H4.917c-.149-1.226-1.6-1.9-3.867-2.008v-.782H-.008v.782c-2.247.087-3.982.8-3.982,2.008,0,1.515,2.214,1.805,3.982,2.075V-4.7C-.569-4.8-.9-5.046-.966-5.441H-3.973C-3.891-4.2-2.255-3.511-.008-3.4ZM2.124-5.354c0,.357-.413.618-1.074.685V-6.04C1.694-5.895,2.124-5.7,2.124-5.354ZM-1-8.376c0-.376.38-.589.991-.647v1.342C-.6-7.835-1-8.038-1-8.376Z" transform="translate(285.454 316.465)" fill="#dffff4"/>
      </g>
      <g id="Group_558" data-name="Group 558" transform="translate(-12 -9)">
        <path id="Union_29-4" data-name="Union 29" d="M-82,18905.5v-2.7a.8.8,0,0,1,.8-.8h1.084c2.133-1.8,5.866-3,10.117-3s7.981,1.2,10.113,3H-58.8a.8.8,0,0,1,.8.8v2.7c0,3.594-5.373,6.5-12,6.5S-82,18909.092-82,18905.5Z" transform="translate(356 -18593)" fill="#21e2a1"/>
        <g id="Group_554-4" data-name="Group 554" transform="translate(0.499)">
          <path id="Path_1961-4" data-name="Path 1961" d="M0,4.389V0" transform="translate(275.5 311.5)" fill="none" stroke="#09ca89" stroke-width="0.5"/>
          <path id="Path_1962-4" data-name="Path 1962" d="M0,3.727V0" transform="translate(277.5 313.5)" fill="none" stroke="#09ca89" stroke-width="0.5"/>
          <path id="Path_1963-4" data-name="Path 1963" d="M0,3.213V0" transform="translate(279.5 314.5)" fill="none" stroke="#09ca89" stroke-width="0.5"/>
          <path id="Path_1964-4" data-name="Path 1964" d="M0,3.35V0" transform="translate(281.5 315)" fill="none" stroke="#09ca89" stroke-width="0.5"/>
          <path id="Path_1971-4" data-name="Path 1971" d="M0,3.662V0" transform="translate(283.5 315)" fill="none" stroke="#09ca89" stroke-width="0.5"/>
          <path id="Path_1970-4" data-name="Path 1970" d="M0,3.787V0" transform="translate(285.5 315)" fill="none" stroke="#09ca89" stroke-width="0.5"/>
          <path id="Path_1969-4" data-name="Path 1969" d="M0,3.688V0" transform="translate(287.5 315)" fill="none" stroke="#09ca89" stroke-width="0.5"/>
          <path id="Path_1968-4" data-name="Path 1968" d="M0,3.463V0" transform="translate(289.5 315)" fill="none" stroke="#09ca89" stroke-width="0.5"/>
          <path id="Path_1967-4" data-name="Path 1967" d="M0,3.563V0" transform="translate(291.5 314.5)" fill="none" stroke="#09ca89" stroke-width="0.5"/>
          <path id="Path_1965-4" data-name="Path 1965" d="M0,3.35V0" transform="translate(293.5 313.689)" fill="none" stroke="#09ca89" stroke-width="0.5"/>
          <path id="Path_1966-4" data-name="Path 1966" d="M0,3.512V0" transform="translate(295.5 312.289)" fill="none" stroke="#09ca89" stroke-width="0.5"/>
        </g>
        <g id="Union_30-4" data-name="Union 30" transform="translate(356 -18593)" fill="none">
          <path d="M-82,18905.5v-2.7a.8.8,0,0,1,.8-.8h1.084c2.133-1.8,5.866-3,10.117-3s7.981,1.2,10.113,3H-58.8a.8.8,0,0,1,.8.8v2.7c0,3.594-5.373,6.5-12,6.5S-82,18909.092-82,18905.5Z" stroke="none"/>
          <path d="M -69.99825286865234 18899.5 C -71.99999237060547 18899.5 -73.97379302978516 18899.77734375 -75.70627593994141 18900.302734375 C -77.36507415771484 18900.8046875 -78.77816772460938 18901.5234375 -79.79278564453125 18902.3828125 L -79.93255615234375 18902.5 L -81.19949340820312 18902.5 C -81.36607360839844 18902.5 -81.50160217285156 18902.63671875 -81.50160217285156 18902.802734375 L -81.50160217285156 18905.498046875 C -81.50160217285156 18907.04296875 -80.34622192382812 18908.521484375 -78.248291015625 18909.65625 C -76.05374145507812 18910.845703125 -73.12382507324219 18911.5 -69.99825286865234 18911.5 C -66.874755859375 18911.5 -63.94633483886719 18910.845703125 -61.75241851806641 18909.65625 C -59.65482330322266 18908.521484375 -58.4996337890625 18907.04296875 -58.4996337890625 18905.498046875 L -58.4996337890625 18902.802734375 C -58.4996337890625 18902.63671875 -58.63516235351562 18902.5 -58.8017578125 18902.5 L -60.06844329833984 18902.5 L -60.20822906494141 18902.380859375 C -61.22261810302734 18901.5234375 -62.63528442382812 18900.8046875 -64.29350280761719 18900.302734375 C -66.02527618408203 18899.77734375 -67.99794769287109 18899.5 -69.99825286865234 18899.5 M -69.99825286865234 18899 C -65.75035858154297 18899 -62.01763916015625 18900.197265625 -59.88540649414062 18902 L -58.8017578125 18902 C -58.36035919189453 18902 -57.9996337890625 18902.357421875 -57.9996337890625 18902.802734375 L -57.9996337890625 18905.498046875 C -57.9996337890625 18909.091796875 -63.3724365234375 18912 -69.99825286865234 18912 C -76.62881469726562 18912 -82.00160217285156 18909.091796875 -82.00160217285156 18905.498046875 L -82.00160217285156 18902.802734375 C -82.00160217285156 18902.357421875 -81.64089965820312 18902 -81.19949340820312 18902 L -80.11557006835938 18902 C -77.98294067382812 18900.197265625 -74.24919891357422 18899 -69.99825286865234 18899 Z" stroke="none" fill="#3afbba"/>
        </g>
        <ellipse id="Ellipse_190-4" data-name="Ellipse 190" cx="12" cy="6.5" rx="12" ry="6.5" transform="translate(274 303)" fill="#01a66e"/>
        <ellipse id="Ellipse_191-4" data-name="Ellipse 191" cx="11" cy="5.5" rx="11" ry="5.5" transform="translate(275 304.5)" fill="#19da99"/>
        <g id="Ellipse_188-4" data-name="Ellipse 188" transform="translate(274 303)" fill="none" stroke="#37f8b7" stroke-width="1">
          <ellipse cx="12" cy="6.5" rx="12" ry="6.5" stroke="none"/>
          <ellipse cx="12" cy="6.5" rx="11.5" ry="6" fill="none"/>
        </g>
        <path id="Path_1959-4" data-name="Path 1959" d="M-.008-2.6H1.05v-.782c2.611-.068,4.032-.985,4.032-2.027,0-1.5-2.264-1.776-4.032-2.066v-1.5c.463.1.777.319.843.676H4.917c-.149-1.226-1.6-1.9-3.867-2.008v-.782H-.008v.782c-2.247.087-3.982.8-3.982,2.008,0,1.515,2.214,1.805,3.982,2.075V-4.7C-.569-4.8-.9-5.046-.966-5.441H-3.973C-3.891-4.2-2.255-3.511-.008-3.4ZM2.124-5.354c0,.357-.413.618-1.074.685V-6.04C1.694-5.895,2.124-5.7,2.124-5.354ZM-1-8.376c0-.376.38-.589.991-.647v1.342C-.6-7.835-1-8.038-1-8.376Z" transform="translate(285.454 316.805)" fill="#01be7e"/>
        <path id="Path_1960-4" data-name="Path 1960" d="M-.008-2.6H1.05v-.782c2.611-.068,4.032-.985,4.032-2.027,0-1.5-2.264-1.776-4.032-2.066v-1.5c.463.1.777.319.843.676H4.917c-.149-1.226-1.6-1.9-3.867-2.008v-.782H-.008v.782c-2.247.087-3.982.8-3.982,2.008,0,1.515,2.214,1.805,3.982,2.075V-4.7C-.569-4.8-.9-5.046-.966-5.441H-3.973C-3.891-4.2-2.255-3.511-.008-3.4ZM2.124-5.354c0,.357-.413.618-1.074.685V-6.04C1.694-5.895,2.124-5.7,2.124-5.354ZM-1-8.376c0-.376.38-.589.991-.647v1.342C-.6-7.835-1-8.038-1-8.376Z" transform="translate(285.454 316.465)" fill="#dffff4"/>
      </g>
      <g id="Group_559" data-name="Group 559" transform="translate(-12 -12)">
        <path id="Union_29-5" data-name="Union 29" d="M-82,18905.5v-2.7a.8.8,0,0,1,.8-.8h1.084c2.133-1.8,5.866-3,10.117-3s7.981,1.2,10.113,3H-58.8a.8.8,0,0,1,.8.8v2.7c0,3.594-5.373,6.5-12,6.5S-82,18909.092-82,18905.5Z" transform="translate(356 -18593)" fill="#21e2a1"/>
        <g id="Group_554-5" data-name="Group 554" transform="translate(0.499)">
          <path id="Path_1961-5" data-name="Path 1961" d="M0,4.389V0" transform="translate(275.5 311.5)" fill="none" stroke="#09ca89" stroke-width="0.5"/>
          <path id="Path_1962-5" data-name="Path 1962" d="M0,3.727V0" transform="translate(277.5 313.5)" fill="none" stroke="#09ca89" stroke-width="0.5"/>
          <path id="Path_1963-5" data-name="Path 1963" d="M0,3.213V0" transform="translate(279.5 314.5)" fill="none" stroke="#09ca89" stroke-width="0.5"/>
          <path id="Path_1964-5" data-name="Path 1964" d="M0,3.35V0" transform="translate(281.5 315)" fill="none" stroke="#09ca89" stroke-width="0.5"/>
          <path id="Path_1971-5" data-name="Path 1971" d="M0,3.662V0" transform="translate(283.5 315)" fill="none" stroke="#09ca89" stroke-width="0.5"/>
          <path id="Path_1970-5" data-name="Path 1970" d="M0,3.787V0" transform="translate(285.5 315)" fill="none" stroke="#09ca89" stroke-width="0.5"/>
          <path id="Path_1969-5" data-name="Path 1969" d="M0,3.688V0" transform="translate(287.5 315)" fill="none" stroke="#09ca89" stroke-width="0.5"/>
          <path id="Path_1968-5" data-name="Path 1968" d="M0,3.463V0" transform="translate(289.5 315)" fill="none" stroke="#09ca89" stroke-width="0.5"/>
          <path id="Path_1967-5" data-name="Path 1967" d="M0,3.563V0" transform="translate(291.5 314.5)" fill="none" stroke="#09ca89" stroke-width="0.5"/>
          <path id="Path_1965-5" data-name="Path 1965" d="M0,3.35V0" transform="translate(293.5 313.689)" fill="none" stroke="#09ca89" stroke-width="0.5"/>
          <path id="Path_1966-5" data-name="Path 1966" d="M0,3.512V0" transform="translate(295.5 312.289)" fill="none" stroke="#09ca89" stroke-width="0.5"/>
        </g>
        <g id="Union_30-5" data-name="Union 30" transform="translate(356 -18593)" fill="none">
          <path d="M-82,18905.5v-2.7a.8.8,0,0,1,.8-.8h1.084c2.133-1.8,5.866-3,10.117-3s7.981,1.2,10.113,3H-58.8a.8.8,0,0,1,.8.8v2.7c0,3.594-5.373,6.5-12,6.5S-82,18909.092-82,18905.5Z" stroke="none"/>
          <path d="M -69.99825286865234 18899.5 C -71.99999237060547 18899.5 -73.97379302978516 18899.77734375 -75.70627593994141 18900.302734375 C -77.36507415771484 18900.8046875 -78.77816772460938 18901.5234375 -79.79278564453125 18902.3828125 L -79.93255615234375 18902.5 L -81.19949340820312 18902.5 C -81.36607360839844 18902.5 -81.50160217285156 18902.63671875 -81.50160217285156 18902.802734375 L -81.50160217285156 18905.498046875 C -81.50160217285156 18907.04296875 -80.34622192382812 18908.521484375 -78.248291015625 18909.65625 C -76.05374145507812 18910.845703125 -73.12382507324219 18911.5 -69.99825286865234 18911.5 C -66.874755859375 18911.5 -63.94633483886719 18910.845703125 -61.75241851806641 18909.65625 C -59.65482330322266 18908.521484375 -58.4996337890625 18907.04296875 -58.4996337890625 18905.498046875 L -58.4996337890625 18902.802734375 C -58.4996337890625 18902.63671875 -58.63516235351562 18902.5 -58.8017578125 18902.5 L -60.06844329833984 18902.5 L -60.20822906494141 18902.380859375 C -61.22261810302734 18901.5234375 -62.63528442382812 18900.8046875 -64.29350280761719 18900.302734375 C -66.02527618408203 18899.77734375 -67.99794769287109 18899.5 -69.99825286865234 18899.5 M -69.99825286865234 18899 C -65.75035858154297 18899 -62.01763916015625 18900.197265625 -59.88540649414062 18902 L -58.8017578125 18902 C -58.36035919189453 18902 -57.9996337890625 18902.357421875 -57.9996337890625 18902.802734375 L -57.9996337890625 18905.498046875 C -57.9996337890625 18909.091796875 -63.3724365234375 18912 -69.99825286865234 18912 C -76.62881469726562 18912 -82.00160217285156 18909.091796875 -82.00160217285156 18905.498046875 L -82.00160217285156 18902.802734375 C -82.00160217285156 18902.357421875 -81.64089965820312 18902 -81.19949340820312 18902 L -80.11557006835938 18902 C -77.98294067382812 18900.197265625 -74.24919891357422 18899 -69.99825286865234 18899 Z" stroke="none" fill="#3afbba"/>
        </g>
        <ellipse id="Ellipse_190-5" data-name="Ellipse 190" cx="12" cy="6.5" rx="12" ry="6.5" transform="translate(274 303)" fill="#01a66e"/>
        <ellipse id="Ellipse_191-5" data-name="Ellipse 191" cx="11" cy="5.5" rx="11" ry="5.5" transform="translate(275 304.5)" fill="#19da99"/>
        <g id="Ellipse_188-5" data-name="Ellipse 188" transform="translate(274 303)" fill="none" stroke="#37f8b7" stroke-width="1">
          <ellipse cx="12" cy="6.5" rx="12" ry="6.5" stroke="none"/>
          <ellipse cx="12" cy="6.5" rx="11.5" ry="6" fill="none"/>
        </g>
        <path id="Path_1959-5" data-name="Path 1959" d="M-.008-2.6H1.05v-.782c2.611-.068,4.032-.985,4.032-2.027,0-1.5-2.264-1.776-4.032-2.066v-1.5c.463.1.777.319.843.676H4.917c-.149-1.226-1.6-1.9-3.867-2.008v-.782H-.008v.782c-2.247.087-3.982.8-3.982,2.008,0,1.515,2.214,1.805,3.982,2.075V-4.7C-.569-4.8-.9-5.046-.966-5.441H-3.973C-3.891-4.2-2.255-3.511-.008-3.4ZM2.124-5.354c0,.357-.413.618-1.074.685V-6.04C1.694-5.895,2.124-5.7,2.124-5.354ZM-1-8.376c0-.376.38-.589.991-.647v1.342C-.6-7.835-1-8.038-1-8.376Z" transform="translate(285.454 316.805)" fill="#01be7e"/>
        <path id="Path_1960-5" data-name="Path 1960" d="M-.008-2.6H1.05v-.782c2.611-.068,4.032-.985,4.032-2.027,0-1.5-2.264-1.776-4.032-2.066v-1.5c.463.1.777.319.843.676H4.917c-.149-1.226-1.6-1.9-3.867-2.008v-.782H-.008v.782c-2.247.087-3.982.8-3.982,2.008,0,1.515,2.214,1.805,3.982,2.075V-4.7C-.569-4.8-.9-5.046-.966-5.441H-3.973C-3.891-4.2-2.255-3.511-.008-3.4ZM2.124-5.354c0,.357-.413.618-1.074.685V-6.04C1.694-5.895,2.124-5.7,2.124-5.354ZM-1-8.376c0-.376.38-.589.991-.647v1.342C-.6-7.835-1-8.038-1-8.376Z" transform="translate(285.454 316.465)" fill="#dffff4"/>
      </g>
      <g id="Group_565" data-name="Group 565" transform="translate(-12 -15)">
        <path id="Union_29-6" data-name="Union 29" d="M-82,18905.5v-2.7a.8.8,0,0,1,.8-.8h1.084c2.133-1.8,5.866-3,10.117-3s7.981,1.2,10.113,3H-58.8a.8.8,0,0,1,.8.8v2.7c0,3.594-5.373,6.5-12,6.5S-82,18909.092-82,18905.5Z" transform="translate(356 -18593)" fill="#21e2a1"/>
        <g id="Group_554-6" data-name="Group 554" transform="translate(0.499)">
          <path id="Path_1961-6" data-name="Path 1961" d="M0,4.389V0" transform="translate(275.5 311.5)" fill="none" stroke="#09ca89" stroke-width="0.5"/>
          <path id="Path_1962-6" data-name="Path 1962" d="M0,3.727V0" transform="translate(277.5 313.5)" fill="none" stroke="#09ca89" stroke-width="0.5"/>
          <path id="Path_1963-6" data-name="Path 1963" d="M0,3.213V0" transform="translate(279.5 314.5)" fill="none" stroke="#09ca89" stroke-width="0.5"/>
          <path id="Path_1964-6" data-name="Path 1964" d="M0,3.35V0" transform="translate(281.5 315)" fill="none" stroke="#09ca89" stroke-width="0.5"/>
          <path id="Path_1971-6" data-name="Path 1971" d="M0,3.662V0" transform="translate(283.5 315)" fill="none" stroke="#09ca89" stroke-width="0.5"/>
          <path id="Path_1970-6" data-name="Path 1970" d="M0,3.787V0" transform="translate(285.5 315)" fill="none" stroke="#09ca89" stroke-width="0.5"/>
          <path id="Path_1969-6" data-name="Path 1969" d="M0,3.688V0" transform="translate(287.5 315)" fill="none" stroke="#09ca89" stroke-width="0.5"/>
          <path id="Path_1968-6" data-name="Path 1968" d="M0,3.463V0" transform="translate(289.5 315)" fill="none" stroke="#09ca89" stroke-width="0.5"/>
          <path id="Path_1967-6" data-name="Path 1967" d="M0,3.563V0" transform="translate(291.5 314.5)" fill="none" stroke="#09ca89" stroke-width="0.5"/>
          <path id="Path_1965-6" data-name="Path 1965" d="M0,3.35V0" transform="translate(293.5 313.689)" fill="none" stroke="#09ca89" stroke-width="0.5"/>
          <path id="Path_1966-6" data-name="Path 1966" d="M0,3.512V0" transform="translate(295.5 312.289)" fill="none" stroke="#09ca89" stroke-width="0.5"/>
        </g>
        <g id="Union_30-6" data-name="Union 30" transform="translate(356 -18593)" fill="none">
          <path d="M-82,18905.5v-2.7a.8.8,0,0,1,.8-.8h1.084c2.133-1.8,5.866-3,10.117-3s7.981,1.2,10.113,3H-58.8a.8.8,0,0,1,.8.8v2.7c0,3.594-5.373,6.5-12,6.5S-82,18909.092-82,18905.5Z" stroke="none"/>
          <path d="M -69.99825286865234 18899.5 C -71.99999237060547 18899.5 -73.97379302978516 18899.77734375 -75.70627593994141 18900.302734375 C -77.36507415771484 18900.8046875 -78.77816772460938 18901.5234375 -79.79278564453125 18902.3828125 L -79.93255615234375 18902.5 L -81.19949340820312 18902.5 C -81.36607360839844 18902.5 -81.50160217285156 18902.63671875 -81.50160217285156 18902.802734375 L -81.50160217285156 18905.498046875 C -81.50160217285156 18907.04296875 -80.34622192382812 18908.521484375 -78.248291015625 18909.65625 C -76.05374145507812 18910.845703125 -73.12382507324219 18911.5 -69.99825286865234 18911.5 C -66.874755859375 18911.5 -63.94633483886719 18910.845703125 -61.75241851806641 18909.65625 C -59.65482330322266 18908.521484375 -58.4996337890625 18907.04296875 -58.4996337890625 18905.498046875 L -58.4996337890625 18902.802734375 C -58.4996337890625 18902.63671875 -58.63516235351562 18902.5 -58.8017578125 18902.5 L -60.06844329833984 18902.5 L -60.20822906494141 18902.380859375 C -61.22261810302734 18901.5234375 -62.63528442382812 18900.8046875 -64.29350280761719 18900.302734375 C -66.02527618408203 18899.77734375 -67.99794769287109 18899.5 -69.99825286865234 18899.5 M -69.99825286865234 18899 C -65.75035858154297 18899 -62.01763916015625 18900.197265625 -59.88540649414062 18902 L -58.8017578125 18902 C -58.36035919189453 18902 -57.9996337890625 18902.357421875 -57.9996337890625 18902.802734375 L -57.9996337890625 18905.498046875 C -57.9996337890625 18909.091796875 -63.3724365234375 18912 -69.99825286865234 18912 C -76.62881469726562 18912 -82.00160217285156 18909.091796875 -82.00160217285156 18905.498046875 L -82.00160217285156 18902.802734375 C -82.00160217285156 18902.357421875 -81.64089965820312 18902 -81.19949340820312 18902 L -80.11557006835938 18902 C -77.98294067382812 18900.197265625 -74.24919891357422 18899 -69.99825286865234 18899 Z" stroke="none" fill="#3afbba"/>
        </g>
        <ellipse id="Ellipse_190-6" data-name="Ellipse 190" cx="12" cy="6.5" rx="12" ry="6.5" transform="translate(274 303)" fill="#01a66e"/>
        <ellipse id="Ellipse_191-6" data-name="Ellipse 191" cx="11" cy="5.5" rx="11" ry="5.5" transform="translate(275 304.5)" fill="#19da99"/>
        <g id="Ellipse_188-6" data-name="Ellipse 188" transform="translate(274 303)" fill="none" stroke="#37f8b7" stroke-width="1">
          <ellipse cx="12" cy="6.5" rx="12" ry="6.5" stroke="none"/>
          <ellipse cx="12" cy="6.5" rx="11.5" ry="6" fill="none"/>
        </g>
        <path id="Path_1959-6" data-name="Path 1959" d="M-.008-2.6H1.05v-.782c2.611-.068,4.032-.985,4.032-2.027,0-1.5-2.264-1.776-4.032-2.066v-1.5c.463.1.777.319.843.676H4.917c-.149-1.226-1.6-1.9-3.867-2.008v-.782H-.008v.782c-2.247.087-3.982.8-3.982,2.008,0,1.515,2.214,1.805,3.982,2.075V-4.7C-.569-4.8-.9-5.046-.966-5.441H-3.973C-3.891-4.2-2.255-3.511-.008-3.4ZM2.124-5.354c0,.357-.413.618-1.074.685V-6.04C1.694-5.895,2.124-5.7,2.124-5.354ZM-1-8.376c0-.376.38-.589.991-.647v1.342C-.6-7.835-1-8.038-1-8.376Z" transform="translate(285.454 316.805)" fill="#01be7e"/>
        <path id="Path_1960-6" data-name="Path 1960" d="M-.008-2.6H1.05v-.782c2.611-.068,4.032-.985,4.032-2.027,0-1.5-2.264-1.776-4.032-2.066v-1.5c.463.1.777.319.843.676H4.917c-.149-1.226-1.6-1.9-3.867-2.008v-.782H-.008v.782c-2.247.087-3.982.8-3.982,2.008,0,1.515,2.214,1.805,3.982,2.075V-4.7C-.569-4.8-.9-5.046-.966-5.441H-3.973C-3.891-4.2-2.255-3.511-.008-3.4ZM2.124-5.354c0,.357-.413.618-1.074.685V-6.04C1.694-5.895,2.124-5.7,2.124-5.354ZM-1-8.376c0-.376.38-.589.991-.647v1.342C-.6-7.835-1-8.038-1-8.376Z" transform="translate(285.454 316.465)" fill="#dffff4"/>
      </g>
      <g id="Group_566" data-name="Group 566" transform="translate(-12 -18)">
        <path id="Union_29-7" data-name="Union 29" d="M-82,18905.5v-2.7a.8.8,0,0,1,.8-.8h1.084c2.133-1.8,5.866-3,10.117-3s7.981,1.2,10.113,3H-58.8a.8.8,0,0,1,.8.8v2.7c0,3.594-5.373,6.5-12,6.5S-82,18909.092-82,18905.5Z" transform="translate(356 -18593)" fill="#21e2a1"/>
        <g id="Group_554-7" data-name="Group 554" transform="translate(0.499)">
          <path id="Path_1961-7" data-name="Path 1961" d="M0,4.389V0" transform="translate(275.5 311.5)" fill="none" stroke="#09ca89" stroke-width="0.5"/>
          <path id="Path_1962-7" data-name="Path 1962" d="M0,3.727V0" transform="translate(277.5 313.5)" fill="none" stroke="#09ca89" stroke-width="0.5"/>
          <path id="Path_1963-7" data-name="Path 1963" d="M0,3.213V0" transform="translate(279.5 314.5)" fill="none" stroke="#09ca89" stroke-width="0.5"/>
          <path id="Path_1964-7" data-name="Path 1964" d="M0,3.35V0" transform="translate(281.5 315)" fill="none" stroke="#09ca89" stroke-width="0.5"/>
          <path id="Path_1971-7" data-name="Path 1971" d="M0,3.662V0" transform="translate(283.5 315)" fill="none" stroke="#09ca89" stroke-width="0.5"/>
          <path id="Path_1970-7" data-name="Path 1970" d="M0,3.787V0" transform="translate(285.5 315)" fill="none" stroke="#09ca89" stroke-width="0.5"/>
          <path id="Path_1969-7" data-name="Path 1969" d="M0,3.688V0" transform="translate(287.5 315)" fill="none" stroke="#09ca89" stroke-width="0.5"/>
          <path id="Path_1968-7" data-name="Path 1968" d="M0,3.463V0" transform="translate(289.5 315)" fill="none" stroke="#09ca89" stroke-width="0.5"/>
          <path id="Path_1967-7" data-name="Path 1967" d="M0,3.563V0" transform="translate(291.5 314.5)" fill="none" stroke="#09ca89" stroke-width="0.5"/>
          <path id="Path_1965-7" data-name="Path 1965" d="M0,3.35V0" transform="translate(293.5 313.689)" fill="none" stroke="#09ca89" stroke-width="0.5"/>
          <path id="Path_1966-7" data-name="Path 1966" d="M0,3.512V0" transform="translate(295.5 312.289)" fill="none" stroke="#09ca89" stroke-width="0.5"/>
        </g>
        <g id="Union_30-7" data-name="Union 30" transform="translate(356 -18593)" fill="none">
          <path d="M-82,18905.5v-2.7a.8.8,0,0,1,.8-.8h1.084c2.133-1.8,5.866-3,10.117-3s7.981,1.2,10.113,3H-58.8a.8.8,0,0,1,.8.8v2.7c0,3.594-5.373,6.5-12,6.5S-82,18909.092-82,18905.5Z" stroke="none"/>
          <path d="M -69.99825286865234 18899.5 C -71.99999237060547 18899.5 -73.97379302978516 18899.77734375 -75.70627593994141 18900.302734375 C -77.36507415771484 18900.8046875 -78.77816772460938 18901.5234375 -79.79278564453125 18902.3828125 L -79.93255615234375 18902.5 L -81.19949340820312 18902.5 C -81.36607360839844 18902.5 -81.50160217285156 18902.63671875 -81.50160217285156 18902.802734375 L -81.50160217285156 18905.498046875 C -81.50160217285156 18907.04296875 -80.34622192382812 18908.521484375 -78.248291015625 18909.65625 C -76.05374145507812 18910.845703125 -73.12382507324219 18911.5 -69.99825286865234 18911.5 C -66.874755859375 18911.5 -63.94633483886719 18910.845703125 -61.75241851806641 18909.65625 C -59.65482330322266 18908.521484375 -58.4996337890625 18907.04296875 -58.4996337890625 18905.498046875 L -58.4996337890625 18902.802734375 C -58.4996337890625 18902.63671875 -58.63516235351562 18902.5 -58.8017578125 18902.5 L -60.06844329833984 18902.5 L -60.20822906494141 18902.380859375 C -61.22261810302734 18901.5234375 -62.63528442382812 18900.8046875 -64.29350280761719 18900.302734375 C -66.02527618408203 18899.77734375 -67.99794769287109 18899.5 -69.99825286865234 18899.5 M -69.99825286865234 18899 C -65.75035858154297 18899 -62.01763916015625 18900.197265625 -59.88540649414062 18902 L -58.8017578125 18902 C -58.36035919189453 18902 -57.9996337890625 18902.357421875 -57.9996337890625 18902.802734375 L -57.9996337890625 18905.498046875 C -57.9996337890625 18909.091796875 -63.3724365234375 18912 -69.99825286865234 18912 C -76.62881469726562 18912 -82.00160217285156 18909.091796875 -82.00160217285156 18905.498046875 L -82.00160217285156 18902.802734375 C -82.00160217285156 18902.357421875 -81.64089965820312 18902 -81.19949340820312 18902 L -80.11557006835938 18902 C -77.98294067382812 18900.197265625 -74.24919891357422 18899 -69.99825286865234 18899 Z" stroke="none" fill="#3afbba"/>
        </g>
        <ellipse id="Ellipse_190-7" data-name="Ellipse 190" cx="12" cy="6.5" rx="12" ry="6.5" transform="translate(274 303)" fill="#01a66e"/>
        <ellipse id="Ellipse_191-7" data-name="Ellipse 191" cx="11" cy="5.5" rx="11" ry="5.5" transform="translate(275 304.5)" fill="#19da99"/>
        <g id="Ellipse_188-7" data-name="Ellipse 188" transform="translate(274 303)" fill="none" stroke="#37f8b7" stroke-width="1">
          <ellipse cx="12" cy="6.5" rx="12" ry="6.5" stroke="none"/>
          <ellipse cx="12" cy="6.5" rx="11.5" ry="6" fill="none"/>
        </g>
        <path id="Path_1959-7" data-name="Path 1959" d="M-.008-2.6H1.05v-.782c2.611-.068,4.032-.985,4.032-2.027,0-1.5-2.264-1.776-4.032-2.066v-1.5c.463.1.777.319.843.676H4.917c-.149-1.226-1.6-1.9-3.867-2.008v-.782H-.008v.782c-2.247.087-3.982.8-3.982,2.008,0,1.515,2.214,1.805,3.982,2.075V-4.7C-.569-4.8-.9-5.046-.966-5.441H-3.973C-3.891-4.2-2.255-3.511-.008-3.4ZM2.124-5.354c0,.357-.413.618-1.074.685V-6.04C1.694-5.895,2.124-5.7,2.124-5.354ZM-1-8.376c0-.376.38-.589.991-.647v1.342C-.6-7.835-1-8.038-1-8.376Z" transform="translate(285.454 316.805)" fill="#01be7e"/>
        <path id="Path_1960-7" data-name="Path 1960" d="M-.008-2.6H1.05v-.782c2.611-.068,4.032-.985,4.032-2.027,0-1.5-2.264-1.776-4.032-2.066v-1.5c.463.1.777.319.843.676H4.917c-.149-1.226-1.6-1.9-3.867-2.008v-.782H-.008v.782c-2.247.087-3.982.8-3.982,2.008,0,1.515,2.214,1.805,3.982,2.075V-4.7C-.569-4.8-.9-5.046-.966-5.441H-3.973C-3.891-4.2-2.255-3.511-.008-3.4ZM2.124-5.354c0,.357-.413.618-1.074.685V-6.04C1.694-5.895,2.124-5.7,2.124-5.354ZM-1-8.376c0-.376.38-.589.991-.647v1.342C-.6-7.835-1-8.038-1-8.376Z" transform="translate(285.454 316.465)" fill="#dffff4"/>
      </g>
      <g id="Group_567" data-name="Group 567" transform="translate(-12 -21)">
        <path id="Union_29-8" data-name="Union 29" d="M-82,18905.5v-2.7a.8.8,0,0,1,.8-.8h1.084c2.133-1.8,5.866-3,10.117-3s7.981,1.2,10.113,3H-58.8a.8.8,0,0,1,.8.8v2.7c0,3.594-5.373,6.5-12,6.5S-82,18909.092-82,18905.5Z" transform="translate(356 -18593)" fill="#21e2a1"/>
        <g id="Group_554-8" data-name="Group 554" transform="translate(0.499)">
          <path id="Path_1961-8" data-name="Path 1961" d="M0,4.389V0" transform="translate(275.5 311.5)" fill="none" stroke="#09ca89" stroke-width="0.5"/>
          <path id="Path_1962-8" data-name="Path 1962" d="M0,3.727V0" transform="translate(277.5 313.5)" fill="none" stroke="#09ca89" stroke-width="0.5"/>
          <path id="Path_1963-8" data-name="Path 1963" d="M0,3.213V0" transform="translate(279.5 314.5)" fill="none" stroke="#09ca89" stroke-width="0.5"/>
          <path id="Path_1964-8" data-name="Path 1964" d="M0,3.35V0" transform="translate(281.5 315)" fill="none" stroke="#09ca89" stroke-width="0.5"/>
          <path id="Path_1971-8" data-name="Path 1971" d="M0,3.662V0" transform="translate(283.5 315)" fill="none" stroke="#09ca89" stroke-width="0.5"/>
          <path id="Path_1970-8" data-name="Path 1970" d="M0,3.787V0" transform="translate(285.5 315)" fill="none" stroke="#09ca89" stroke-width="0.5"/>
          <path id="Path_1969-8" data-name="Path 1969" d="M0,3.688V0" transform="translate(287.5 315)" fill="none" stroke="#09ca89" stroke-width="0.5"/>
          <path id="Path_1968-8" data-name="Path 1968" d="M0,3.463V0" transform="translate(289.5 315)" fill="none" stroke="#09ca89" stroke-width="0.5"/>
          <path id="Path_1967-8" data-name="Path 1967" d="M0,3.563V0" transform="translate(291.5 314.5)" fill="none" stroke="#09ca89" stroke-width="0.5"/>
          <path id="Path_1965-8" data-name="Path 1965" d="M0,3.35V0" transform="translate(293.5 313.689)" fill="none" stroke="#09ca89" stroke-width="0.5"/>
          <path id="Path_1966-8" data-name="Path 1966" d="M0,3.512V0" transform="translate(295.5 312.289)" fill="none" stroke="#09ca89" stroke-width="0.5"/>
        </g>
        <g id="Union_30-8" data-name="Union 30" transform="translate(356 -18593)" fill="none">
          <path d="M-82,18905.5v-2.7a.8.8,0,0,1,.8-.8h1.084c2.133-1.8,5.866-3,10.117-3s7.981,1.2,10.113,3H-58.8a.8.8,0,0,1,.8.8v2.7c0,3.594-5.373,6.5-12,6.5S-82,18909.092-82,18905.5Z" stroke="none"/>
          <path d="M -69.99825286865234 18899.5 C -71.99999237060547 18899.5 -73.97379302978516 18899.77734375 -75.70627593994141 18900.302734375 C -77.36507415771484 18900.8046875 -78.77816772460938 18901.5234375 -79.79278564453125 18902.3828125 L -79.93255615234375 18902.5 L -81.19949340820312 18902.5 C -81.36607360839844 18902.5 -81.50160217285156 18902.63671875 -81.50160217285156 18902.802734375 L -81.50160217285156 18905.498046875 C -81.50160217285156 18907.04296875 -80.34622192382812 18908.521484375 -78.248291015625 18909.65625 C -76.05374145507812 18910.845703125 -73.12382507324219 18911.5 -69.99825286865234 18911.5 C -66.874755859375 18911.5 -63.94633483886719 18910.845703125 -61.75241851806641 18909.65625 C -59.65482330322266 18908.521484375 -58.4996337890625 18907.04296875 -58.4996337890625 18905.498046875 L -58.4996337890625 18902.802734375 C -58.4996337890625 18902.63671875 -58.63516235351562 18902.5 -58.8017578125 18902.5 L -60.06844329833984 18902.5 L -60.20822906494141 18902.380859375 C -61.22261810302734 18901.5234375 -62.63528442382812 18900.8046875 -64.29350280761719 18900.302734375 C -66.02527618408203 18899.77734375 -67.99794769287109 18899.5 -69.99825286865234 18899.5 M -69.99825286865234 18899 C -65.75035858154297 18899 -62.01763916015625 18900.197265625 -59.88540649414062 18902 L -58.8017578125 18902 C -58.36035919189453 18902 -57.9996337890625 18902.357421875 -57.9996337890625 18902.802734375 L -57.9996337890625 18905.498046875 C -57.9996337890625 18909.091796875 -63.3724365234375 18912 -69.99825286865234 18912 C -76.62881469726562 18912 -82.00160217285156 18909.091796875 -82.00160217285156 18905.498046875 L -82.00160217285156 18902.802734375 C -82.00160217285156 18902.357421875 -81.64089965820312 18902 -81.19949340820312 18902 L -80.11557006835938 18902 C -77.98294067382812 18900.197265625 -74.24919891357422 18899 -69.99825286865234 18899 Z" stroke="none" fill="#3afbba"/>
        </g>
        <ellipse id="Ellipse_190-8" data-name="Ellipse 190" cx="12" cy="6.5" rx="12" ry="6.5" transform="translate(274 303)" fill="#01a66e"/>
        <ellipse id="Ellipse_191-8" data-name="Ellipse 191" cx="11" cy="5.5" rx="11" ry="5.5" transform="translate(275 304.5)" fill="#19da99"/>
        <g id="Ellipse_188-8" data-name="Ellipse 188" transform="translate(274 303)" fill="none" stroke="#37f8b7" stroke-width="1">
          <ellipse cx="12" cy="6.5" rx="12" ry="6.5" stroke="none"/>
          <ellipse cx="12" cy="6.5" rx="11.5" ry="6" fill="none"/>
        </g>
        <path id="Path_1959-8" data-name="Path 1959" d="M-.008-2.6H1.05v-.782c2.611-.068,4.032-.985,4.032-2.027,0-1.5-2.264-1.776-4.032-2.066v-1.5c.463.1.777.319.843.676H4.917c-.149-1.226-1.6-1.9-3.867-2.008v-.782H-.008v.782c-2.247.087-3.982.8-3.982,2.008,0,1.515,2.214,1.805,3.982,2.075V-4.7C-.569-4.8-.9-5.046-.966-5.441H-3.973C-3.891-4.2-2.255-3.511-.008-3.4ZM2.124-5.354c0,.357-.413.618-1.074.685V-6.04C1.694-5.895,2.124-5.7,2.124-5.354ZM-1-8.376c0-.376.38-.589.991-.647v1.342C-.6-7.835-1-8.038-1-8.376Z" transform="translate(285.454 316.805)" fill="#01be7e"/>
        <path id="Path_1960-8" data-name="Path 1960" d="M-.008-2.6H1.05v-.782c2.611-.068,4.032-.985,4.032-2.027,0-1.5-2.264-1.776-4.032-2.066v-1.5c.463.1.777.319.843.676H4.917c-.149-1.226-1.6-1.9-3.867-2.008v-.782H-.008v.782c-2.247.087-3.982.8-3.982,2.008,0,1.515,2.214,1.805,3.982,2.075V-4.7C-.569-4.8-.9-5.046-.966-5.441H-3.973C-3.891-4.2-2.255-3.511-.008-3.4ZM2.124-5.354c0,.357-.413.618-1.074.685V-6.04C1.694-5.895,2.124-5.7,2.124-5.354ZM-1-8.376c0-.376.38-.589.991-.647v1.342C-.6-7.835-1-8.038-1-8.376Z" transform="translate(285.454 316.465)" fill="#dffff4"/>
      </g>
      <g id="Group_568" data-name="Group 568" transform="translate(-12)" style="mix-blend-mode: multiply;isolation: isolate">
        <path id="Union_29-9" data-name="Union 29" d="M-82,18905.5v-22.7a.8.8,0,0,1,.8-.8h22.4a.8.8,0,0,1,.8.8v22.7c0,3.594-5.373,6.5-12,6.5S-82,18909.092-82,18905.5Z" transform="translate(356 -18593)" fill="url(#radial-gradient)"/>
      </g>
    </g>
    <g id="Group_569" data-name="Group 569">
      <g id="Group_563" data-name="Group 563" transform="translate(-26 9)">
        <path id="Union_29-10" data-name="Union 29" d="M-82,18905.5v-2.7a.8.8,0,0,1,.8-.8h1.084c2.133-1.8,5.866-3,10.117-3s7.981,1.2,10.113,3H-58.8a.8.8,0,0,1,.8.8v2.7c0,3.594-5.373,6.5-12,6.5S-82,18909.092-82,18905.5Z" transform="translate(356 -18593)" fill="#21e2a1"/>
        <g id="Group_554-9" data-name="Group 554" transform="translate(0.499)">
          <path id="Path_1961-9" data-name="Path 1961" d="M0,4.389V0" transform="translate(275.5 311.5)" fill="none" stroke="#09ca89" stroke-width="0.5"/>
          <path id="Path_1962-9" data-name="Path 1962" d="M0,3.727V0" transform="translate(277.5 313.5)" fill="none" stroke="#09ca89" stroke-width="0.5"/>
          <path id="Path_1963-9" data-name="Path 1963" d="M0,3.213V0" transform="translate(279.5 314.5)" fill="none" stroke="#09ca89" stroke-width="0.5"/>
          <path id="Path_1964-9" data-name="Path 1964" d="M0,3.35V0" transform="translate(281.5 315)" fill="none" stroke="#09ca89" stroke-width="0.5"/>
          <path id="Path_1971-9" data-name="Path 1971" d="M0,3.662V0" transform="translate(283.5 315)" fill="none" stroke="#09ca89" stroke-width="0.5"/>
          <path id="Path_1970-9" data-name="Path 1970" d="M0,3.787V0" transform="translate(285.5 315)" fill="none" stroke="#09ca89" stroke-width="0.5"/>
          <path id="Path_1969-9" data-name="Path 1969" d="M0,3.688V0" transform="translate(287.5 315)" fill="none" stroke="#09ca89" stroke-width="0.5"/>
          <path id="Path_1968-9" data-name="Path 1968" d="M0,3.463V0" transform="translate(289.5 315)" fill="none" stroke="#09ca89" stroke-width="0.5"/>
          <path id="Path_1967-9" data-name="Path 1967" d="M0,3.563V0" transform="translate(291.5 314.5)" fill="none" stroke="#09ca89" stroke-width="0.5"/>
          <path id="Path_1965-9" data-name="Path 1965" d="M0,3.35V0" transform="translate(293.5 313.689)" fill="none" stroke="#09ca89" stroke-width="0.5"/>
          <path id="Path_1966-9" data-name="Path 1966" d="M0,3.512V0" transform="translate(295.5 312.289)" fill="none" stroke="#09ca89" stroke-width="0.5"/>
        </g>
        <g id="Union_30-9" data-name="Union 30" transform="translate(356 -18593)" fill="none">
          <path d="M-82,18905.5v-2.7a.8.8,0,0,1,.8-.8h1.084c2.133-1.8,5.866-3,10.117-3s7.981,1.2,10.113,3H-58.8a.8.8,0,0,1,.8.8v2.7c0,3.594-5.373,6.5-12,6.5S-82,18909.092-82,18905.5Z" stroke="none"/>
          <path d="M -69.99825286865234 18899.5 C -71.99999237060547 18899.5 -73.97379302978516 18899.77734375 -75.70627593994141 18900.302734375 C -77.36507415771484 18900.8046875 -78.77816772460938 18901.5234375 -79.79278564453125 18902.3828125 L -79.93255615234375 18902.5 L -81.19949340820312 18902.5 C -81.36607360839844 18902.5 -81.50160217285156 18902.63671875 -81.50160217285156 18902.802734375 L -81.50160217285156 18905.498046875 C -81.50160217285156 18907.04296875 -80.34622192382812 18908.521484375 -78.248291015625 18909.65625 C -76.05374145507812 18910.845703125 -73.12382507324219 18911.5 -69.99825286865234 18911.5 C -66.874755859375 18911.5 -63.94633483886719 18910.845703125 -61.75241851806641 18909.65625 C -59.65482330322266 18908.521484375 -58.4996337890625 18907.04296875 -58.4996337890625 18905.498046875 L -58.4996337890625 18902.802734375 C -58.4996337890625 18902.63671875 -58.63516235351562 18902.5 -58.8017578125 18902.5 L -60.06844329833984 18902.5 L -60.20822906494141 18902.380859375 C -61.22261810302734 18901.5234375 -62.63528442382812 18900.8046875 -64.29350280761719 18900.302734375 C -66.02527618408203 18899.77734375 -67.99794769287109 18899.5 -69.99825286865234 18899.5 M -69.99825286865234 18899 C -65.75035858154297 18899 -62.01763916015625 18900.197265625 -59.88540649414062 18902 L -58.8017578125 18902 C -58.36035919189453 18902 -57.9996337890625 18902.357421875 -57.9996337890625 18902.802734375 L -57.9996337890625 18905.498046875 C -57.9996337890625 18909.091796875 -63.3724365234375 18912 -69.99825286865234 18912 C -76.62881469726562 18912 -82.00160217285156 18909.091796875 -82.00160217285156 18905.498046875 L -82.00160217285156 18902.802734375 C -82.00160217285156 18902.357421875 -81.64089965820312 18902 -81.19949340820312 18902 L -80.11557006835938 18902 C -77.98294067382812 18900.197265625 -74.24919891357422 18899 -69.99825286865234 18899 Z" stroke="none" fill="#3afbba"/>
        </g>
        <ellipse id="Ellipse_190-9" data-name="Ellipse 190" cx="12" cy="6.5" rx="12" ry="6.5" transform="translate(274 303)" fill="#01a66e"/>
        <ellipse id="Ellipse_191-9" data-name="Ellipse 191" cx="11" cy="5.5" rx="11" ry="5.5" transform="translate(275 304.5)" fill="#19da99"/>
        <g id="Ellipse_188-9" data-name="Ellipse 188" transform="translate(274 303)" fill="none" stroke="#37f8b7" stroke-width="1">
          <ellipse cx="12" cy="6.5" rx="12" ry="6.5" stroke="none"/>
          <ellipse cx="12" cy="6.5" rx="11.5" ry="6" fill="none"/>
        </g>
        <path id="Path_1959-9" data-name="Path 1959" d="M-.008-2.6H1.05v-.782c2.611-.068,4.032-.985,4.032-2.027,0-1.5-2.264-1.776-4.032-2.066v-1.5c.463.1.777.319.843.676H4.917c-.149-1.226-1.6-1.9-3.867-2.008v-.782H-.008v.782c-2.247.087-3.982.8-3.982,2.008,0,1.515,2.214,1.805,3.982,2.075V-4.7C-.569-4.8-.9-5.046-.966-5.441H-3.973C-3.891-4.2-2.255-3.511-.008-3.4ZM2.124-5.354c0,.357-.413.618-1.074.685V-6.04C1.694-5.895,2.124-5.7,2.124-5.354ZM-1-8.376c0-.376.38-.589.991-.647v1.342C-.6-7.835-1-8.038-1-8.376Z" transform="translate(285.454 316.805)" fill="#01be7e"/>
        <path id="Path_1960-9" data-name="Path 1960" d="M-.008-2.6H1.05v-.782c2.611-.068,4.032-.985,4.032-2.027,0-1.5-2.264-1.776-4.032-2.066v-1.5c.463.1.777.319.843.676H4.917c-.149-1.226-1.6-1.9-3.867-2.008v-.782H-.008v.782c-2.247.087-3.982.8-3.982,2.008,0,1.515,2.214,1.805,3.982,2.075V-4.7C-.569-4.8-.9-5.046-.966-5.441H-3.973C-3.891-4.2-2.255-3.511-.008-3.4ZM2.124-5.354c0,.357-.413.618-1.074.685V-6.04C1.694-5.895,2.124-5.7,2.124-5.354ZM-1-8.376c0-.376.38-.589.991-.647v1.342C-.6-7.835-1-8.038-1-8.376Z" transform="translate(285.454 316.465)" fill="#dffff4"/>
      </g>
      <g id="Group_564" data-name="Group 564" transform="translate(-26 6)">
        <path id="Union_29-11" data-name="Union 29" d="M-82,18905.5v-2.7a.8.8,0,0,1,.8-.8h1.084c2.133-1.8,5.866-3,10.117-3s7.981,1.2,10.113,3H-58.8a.8.8,0,0,1,.8.8v2.7c0,3.594-5.373,6.5-12,6.5S-82,18909.092-82,18905.5Z" transform="translate(356 -18593)" fill="#21e2a1"/>
        <g id="Group_554-10" data-name="Group 554" transform="translate(0.499)">
          <path id="Path_1961-10" data-name="Path 1961" d="M0,4.389V0" transform="translate(275.5 311.5)" fill="none" stroke="#09ca89" stroke-width="0.5"/>
          <path id="Path_1962-10" data-name="Path 1962" d="M0,3.727V0" transform="translate(277.5 313.5)" fill="none" stroke="#09ca89" stroke-width="0.5"/>
          <path id="Path_1963-10" data-name="Path 1963" d="M0,3.213V0" transform="translate(279.5 314.5)" fill="none" stroke="#09ca89" stroke-width="0.5"/>
          <path id="Path_1964-10" data-name="Path 1964" d="M0,3.35V0" transform="translate(281.5 315)" fill="none" stroke="#09ca89" stroke-width="0.5"/>
          <path id="Path_1971-10" data-name="Path 1971" d="M0,3.662V0" transform="translate(283.5 315)" fill="none" stroke="#09ca89" stroke-width="0.5"/>
          <path id="Path_1970-10" data-name="Path 1970" d="M0,3.787V0" transform="translate(285.5 315)" fill="none" stroke="#09ca89" stroke-width="0.5"/>
          <path id="Path_1969-10" data-name="Path 1969" d="M0,3.688V0" transform="translate(287.5 315)" fill="none" stroke="#09ca89" stroke-width="0.5"/>
          <path id="Path_1968-10" data-name="Path 1968" d="M0,3.463V0" transform="translate(289.5 315)" fill="none" stroke="#09ca89" stroke-width="0.5"/>
          <path id="Path_1967-10" data-name="Path 1967" d="M0,3.563V0" transform="translate(291.5 314.5)" fill="none" stroke="#09ca89" stroke-width="0.5"/>
          <path id="Path_1965-10" data-name="Path 1965" d="M0,3.35V0" transform="translate(293.5 313.689)" fill="none" stroke="#09ca89" stroke-width="0.5"/>
          <path id="Path_1966-10" data-name="Path 1966" d="M0,3.512V0" transform="translate(295.5 312.289)" fill="none" stroke="#09ca89" stroke-width="0.5"/>
        </g>
        <g id="Union_30-10" data-name="Union 30" transform="translate(356 -18593)" fill="none">
          <path d="M-82,18905.5v-2.7a.8.8,0,0,1,.8-.8h1.084c2.133-1.8,5.866-3,10.117-3s7.981,1.2,10.113,3H-58.8a.8.8,0,0,1,.8.8v2.7c0,3.594-5.373,6.5-12,6.5S-82,18909.092-82,18905.5Z" stroke="none"/>
          <path d="M -69.99825286865234 18899.5 C -71.99999237060547 18899.5 -73.97379302978516 18899.77734375 -75.70627593994141 18900.302734375 C -77.36507415771484 18900.8046875 -78.77816772460938 18901.5234375 -79.79278564453125 18902.3828125 L -79.93255615234375 18902.5 L -81.19949340820312 18902.5 C -81.36607360839844 18902.5 -81.50160217285156 18902.63671875 -81.50160217285156 18902.802734375 L -81.50160217285156 18905.498046875 C -81.50160217285156 18907.04296875 -80.34622192382812 18908.521484375 -78.248291015625 18909.65625 C -76.05374145507812 18910.845703125 -73.12382507324219 18911.5 -69.99825286865234 18911.5 C -66.874755859375 18911.5 -63.94633483886719 18910.845703125 -61.75241851806641 18909.65625 C -59.65482330322266 18908.521484375 -58.4996337890625 18907.04296875 -58.4996337890625 18905.498046875 L -58.4996337890625 18902.802734375 C -58.4996337890625 18902.63671875 -58.63516235351562 18902.5 -58.8017578125 18902.5 L -60.06844329833984 18902.5 L -60.20822906494141 18902.380859375 C -61.22261810302734 18901.5234375 -62.63528442382812 18900.8046875 -64.29350280761719 18900.302734375 C -66.02527618408203 18899.77734375 -67.99794769287109 18899.5 -69.99825286865234 18899.5 M -69.99825286865234 18899 C -65.75035858154297 18899 -62.01763916015625 18900.197265625 -59.88540649414062 18902 L -58.8017578125 18902 C -58.36035919189453 18902 -57.9996337890625 18902.357421875 -57.9996337890625 18902.802734375 L -57.9996337890625 18905.498046875 C -57.9996337890625 18909.091796875 -63.3724365234375 18912 -69.99825286865234 18912 C -76.62881469726562 18912 -82.00160217285156 18909.091796875 -82.00160217285156 18905.498046875 L -82.00160217285156 18902.802734375 C -82.00160217285156 18902.357421875 -81.64089965820312 18902 -81.19949340820312 18902 L -80.11557006835938 18902 C -77.98294067382812 18900.197265625 -74.24919891357422 18899 -69.99825286865234 18899 Z" stroke="none" fill="#3afbba"/>
        </g>
        <ellipse id="Ellipse_190-10" data-name="Ellipse 190" cx="12" cy="6.5" rx="12" ry="6.5" transform="translate(274 303)" fill="#01a66e"/>
        <ellipse id="Ellipse_191-10" data-name="Ellipse 191" cx="11" cy="5.5" rx="11" ry="5.5" transform="translate(275 304.5)" fill="#19da99"/>
        <g id="Ellipse_188-10" data-name="Ellipse 188" transform="translate(274 303)" fill="none" stroke="#37f8b7" stroke-width="1">
          <ellipse cx="12" cy="6.5" rx="12" ry="6.5" stroke="none"/>
          <ellipse cx="12" cy="6.5" rx="11.5" ry="6" fill="none"/>
        </g>
        <path id="Path_1959-10" data-name="Path 1959" d="M-.008-2.6H1.05v-.782c2.611-.068,4.032-.985,4.032-2.027,0-1.5-2.264-1.776-4.032-2.066v-1.5c.463.1.777.319.843.676H4.917c-.149-1.226-1.6-1.9-3.867-2.008v-.782H-.008v.782c-2.247.087-3.982.8-3.982,2.008,0,1.515,2.214,1.805,3.982,2.075V-4.7C-.569-4.8-.9-5.046-.966-5.441H-3.973C-3.891-4.2-2.255-3.511-.008-3.4ZM2.124-5.354c0,.357-.413.618-1.074.685V-6.04C1.694-5.895,2.124-5.7,2.124-5.354ZM-1-8.376c0-.376.38-.589.991-.647v1.342C-.6-7.835-1-8.038-1-8.376Z" transform="translate(285.454 316.805)" fill="#01be7e"/>
        <path id="Path_1960-10" data-name="Path 1960" d="M-.008-2.6H1.05v-.782c2.611-.068,4.032-.985,4.032-2.027,0-1.5-2.264-1.776-4.032-2.066v-1.5c.463.1.777.319.843.676H4.917c-.149-1.226-1.6-1.9-3.867-2.008v-.782H-.008v.782c-2.247.087-3.982.8-3.982,2.008,0,1.515,2.214,1.805,3.982,2.075V-4.7C-.569-4.8-.9-5.046-.966-5.441H-3.973C-3.891-4.2-2.255-3.511-.008-3.4ZM2.124-5.354c0,.357-.413.618-1.074.685V-6.04C1.694-5.895,2.124-5.7,2.124-5.354ZM-1-8.376c0-.376.38-.589.991-.647v1.342C-.6-7.835-1-8.038-1-8.376Z" transform="translate(285.454 316.465)" fill="#dffff4"/>
      </g>
      <g id="Group_561" data-name="Group 561" transform="translate(-26 3)">
        <path id="Union_29-12" data-name="Union 29" d="M-82,18905.5v-2.7a.8.8,0,0,1,.8-.8h1.084c2.133-1.8,5.866-3,10.117-3s7.981,1.2,10.113,3H-58.8a.8.8,0,0,1,.8.8v2.7c0,3.594-5.373,6.5-12,6.5S-82,18909.092-82,18905.5Z" transform="translate(356 -18593)" fill="#21e2a1"/>
        <g id="Group_554-11" data-name="Group 554" transform="translate(0.499)">
          <path id="Path_1961-11" data-name="Path 1961" d="M0,4.389V0" transform="translate(275.5 311.5)" fill="none" stroke="#09ca89" stroke-width="0.5"/>
          <path id="Path_1962-11" data-name="Path 1962" d="M0,3.727V0" transform="translate(277.5 313.5)" fill="none" stroke="#09ca89" stroke-width="0.5"/>
          <path id="Path_1963-11" data-name="Path 1963" d="M0,3.213V0" transform="translate(279.5 314.5)" fill="none" stroke="#09ca89" stroke-width="0.5"/>
          <path id="Path_1964-11" data-name="Path 1964" d="M0,3.35V0" transform="translate(281.5 315)" fill="none" stroke="#09ca89" stroke-width="0.5"/>
          <path id="Path_1971-11" data-name="Path 1971" d="M0,3.662V0" transform="translate(283.5 315)" fill="none" stroke="#09ca89" stroke-width="0.5"/>
          <path id="Path_1970-11" data-name="Path 1970" d="M0,3.787V0" transform="translate(285.5 315)" fill="none" stroke="#09ca89" stroke-width="0.5"/>
          <path id="Path_1969-11" data-name="Path 1969" d="M0,3.688V0" transform="translate(287.5 315)" fill="none" stroke="#09ca89" stroke-width="0.5"/>
          <path id="Path_1968-11" data-name="Path 1968" d="M0,3.463V0" transform="translate(289.5 315)" fill="none" stroke="#09ca89" stroke-width="0.5"/>
          <path id="Path_1967-11" data-name="Path 1967" d="M0,3.563V0" transform="translate(291.5 314.5)" fill="none" stroke="#09ca89" stroke-width="0.5"/>
          <path id="Path_1965-11" data-name="Path 1965" d="M0,3.35V0" transform="translate(293.5 313.689)" fill="none" stroke="#09ca89" stroke-width="0.5"/>
          <path id="Path_1966-11" data-name="Path 1966" d="M0,3.512V0" transform="translate(295.5 312.289)" fill="none" stroke="#09ca89" stroke-width="0.5"/>
        </g>
        <g id="Union_30-11" data-name="Union 30" transform="translate(356 -18593)" fill="none">
          <path d="M-82,18905.5v-2.7a.8.8,0,0,1,.8-.8h1.084c2.133-1.8,5.866-3,10.117-3s7.981,1.2,10.113,3H-58.8a.8.8,0,0,1,.8.8v2.7c0,3.594-5.373,6.5-12,6.5S-82,18909.092-82,18905.5Z" stroke="none"/>
          <path d="M -69.99825286865234 18899.5 C -71.99999237060547 18899.5 -73.97379302978516 18899.77734375 -75.70627593994141 18900.302734375 C -77.36507415771484 18900.8046875 -78.77816772460938 18901.5234375 -79.79278564453125 18902.3828125 L -79.93255615234375 18902.5 L -81.19949340820312 18902.5 C -81.36607360839844 18902.5 -81.50160217285156 18902.63671875 -81.50160217285156 18902.802734375 L -81.50160217285156 18905.498046875 C -81.50160217285156 18907.04296875 -80.34622192382812 18908.521484375 -78.248291015625 18909.65625 C -76.05374145507812 18910.845703125 -73.12382507324219 18911.5 -69.99825286865234 18911.5 C -66.874755859375 18911.5 -63.94633483886719 18910.845703125 -61.75241851806641 18909.65625 C -59.65482330322266 18908.521484375 -58.4996337890625 18907.04296875 -58.4996337890625 18905.498046875 L -58.4996337890625 18902.802734375 C -58.4996337890625 18902.63671875 -58.63516235351562 18902.5 -58.8017578125 18902.5 L -60.06844329833984 18902.5 L -60.20822906494141 18902.380859375 C -61.22261810302734 18901.5234375 -62.63528442382812 18900.8046875 -64.29350280761719 18900.302734375 C -66.02527618408203 18899.77734375 -67.99794769287109 18899.5 -69.99825286865234 18899.5 M -69.99825286865234 18899 C -65.75035858154297 18899 -62.01763916015625 18900.197265625 -59.88540649414062 18902 L -58.8017578125 18902 C -58.36035919189453 18902 -57.9996337890625 18902.357421875 -57.9996337890625 18902.802734375 L -57.9996337890625 18905.498046875 C -57.9996337890625 18909.091796875 -63.3724365234375 18912 -69.99825286865234 18912 C -76.62881469726562 18912 -82.00160217285156 18909.091796875 -82.00160217285156 18905.498046875 L -82.00160217285156 18902.802734375 C -82.00160217285156 18902.357421875 -81.64089965820312 18902 -81.19949340820312 18902 L -80.11557006835938 18902 C -77.98294067382812 18900.197265625 -74.24919891357422 18899 -69.99825286865234 18899 Z" stroke="none" fill="#3afbba"/>
        </g>
        <ellipse id="Ellipse_190-11" data-name="Ellipse 190" cx="12" cy="6.5" rx="12" ry="6.5" transform="translate(274 303)" fill="#01a66e"/>
        <ellipse id="Ellipse_191-11" data-name="Ellipse 191" cx="11" cy="5.5" rx="11" ry="5.5" transform="translate(275 304.5)" fill="#19da99"/>
        <g id="Ellipse_188-11" data-name="Ellipse 188" transform="translate(274 303)" fill="none" stroke="#37f8b7" stroke-width="1">
          <ellipse cx="12" cy="6.5" rx="12" ry="6.5" stroke="none"/>
          <ellipse cx="12" cy="6.5" rx="11.5" ry="6" fill="none"/>
        </g>
        <path id="Path_1959-11" data-name="Path 1959" d="M-.008-2.6H1.05v-.782c2.611-.068,4.032-.985,4.032-2.027,0-1.5-2.264-1.776-4.032-2.066v-1.5c.463.1.777.319.843.676H4.917c-.149-1.226-1.6-1.9-3.867-2.008v-.782H-.008v.782c-2.247.087-3.982.8-3.982,2.008,0,1.515,2.214,1.805,3.982,2.075V-4.7C-.569-4.8-.9-5.046-.966-5.441H-3.973C-3.891-4.2-2.255-3.511-.008-3.4ZM2.124-5.354c0,.357-.413.618-1.074.685V-6.04C1.694-5.895,2.124-5.7,2.124-5.354ZM-1-8.376c0-.376.38-.589.991-.647v1.342C-.6-7.835-1-8.038-1-8.376Z" transform="translate(285.454 316.805)" fill="#01be7e"/>
        <path id="Path_1960-11" data-name="Path 1960" d="M-.008-2.6H1.05v-.782c2.611-.068,4.032-.985,4.032-2.027,0-1.5-2.264-1.776-4.032-2.066v-1.5c.463.1.777.319.843.676H4.917c-.149-1.226-1.6-1.9-3.867-2.008v-.782H-.008v.782c-2.247.087-3.982.8-3.982,2.008,0,1.515,2.214,1.805,3.982,2.075V-4.7C-.569-4.8-.9-5.046-.966-5.441H-3.973C-3.891-4.2-2.255-3.511-.008-3.4ZM2.124-5.354c0,.357-.413.618-1.074.685V-6.04C1.694-5.895,2.124-5.7,2.124-5.354ZM-1-8.376c0-.376.38-.589.991-.647v1.342C-.6-7.835-1-8.038-1-8.376Z" transform="translate(285.454 316.465)" fill="#dffff4"/>
      </g>
      <g id="Group_562" data-name="Group 562" transform="translate(-26)">
        <path id="Union_29-13" data-name="Union 29" d="M-82,18905.5v-2.7a.8.8,0,0,1,.8-.8h1.084c2.133-1.8,5.866-3,10.117-3s7.981,1.2,10.113,3H-58.8a.8.8,0,0,1,.8.8v2.7c0,3.594-5.373,6.5-12,6.5S-82,18909.092-82,18905.5Z" transform="translate(356 -18593)" fill="#21e2a1"/>
        <g id="Group_554-12" data-name="Group 554" transform="translate(0.499)">
          <path id="Path_1961-12" data-name="Path 1961" d="M0,4.389V0" transform="translate(275.5 311.5)" fill="none" stroke="#09ca89" stroke-width="0.5"/>
          <path id="Path_1962-12" data-name="Path 1962" d="M0,3.727V0" transform="translate(277.5 313.5)" fill="none" stroke="#09ca89" stroke-width="0.5"/>
          <path id="Path_1963-12" data-name="Path 1963" d="M0,3.213V0" transform="translate(279.5 314.5)" fill="none" stroke="#09ca89" stroke-width="0.5"/>
          <path id="Path_1964-12" data-name="Path 1964" d="M0,3.35V0" transform="translate(281.5 315)" fill="none" stroke="#09ca89" stroke-width="0.5"/>
          <path id="Path_1971-12" data-name="Path 1971" d="M0,3.662V0" transform="translate(283.5 315)" fill="none" stroke="#09ca89" stroke-width="0.5"/>
          <path id="Path_1970-12" data-name="Path 1970" d="M0,3.787V0" transform="translate(285.5 315)" fill="none" stroke="#09ca89" stroke-width="0.5"/>
          <path id="Path_1969-12" data-name="Path 1969" d="M0,3.688V0" transform="translate(287.5 315)" fill="none" stroke="#09ca89" stroke-width="0.5"/>
          <path id="Path_1968-12" data-name="Path 1968" d="M0,3.463V0" transform="translate(289.5 315)" fill="none" stroke="#09ca89" stroke-width="0.5"/>
          <path id="Path_1967-12" data-name="Path 1967" d="M0,3.563V0" transform="translate(291.5 314.5)" fill="none" stroke="#09ca89" stroke-width="0.5"/>
          <path id="Path_1965-12" data-name="Path 1965" d="M0,3.35V0" transform="translate(293.5 313.689)" fill="none" stroke="#09ca89" stroke-width="0.5"/>
          <path id="Path_1966-12" data-name="Path 1966" d="M0,3.512V0" transform="translate(295.5 312.289)" fill="none" stroke="#09ca89" stroke-width="0.5"/>
        </g>
        <g id="Union_30-12" data-name="Union 30" transform="translate(356 -18593)" fill="none">
          <path d="M-82,18905.5v-2.7a.8.8,0,0,1,.8-.8h1.084c2.133-1.8,5.866-3,10.117-3s7.981,1.2,10.113,3H-58.8a.8.8,0,0,1,.8.8v2.7c0,3.594-5.373,6.5-12,6.5S-82,18909.092-82,18905.5Z" stroke="none"/>
          <path d="M -69.99825286865234 18899.5 C -71.99999237060547 18899.5 -73.97379302978516 18899.77734375 -75.70627593994141 18900.302734375 C -77.36507415771484 18900.8046875 -78.77816772460938 18901.5234375 -79.79278564453125 18902.3828125 L -79.93255615234375 18902.5 L -81.19949340820312 18902.5 C -81.36607360839844 18902.5 -81.50160217285156 18902.63671875 -81.50160217285156 18902.802734375 L -81.50160217285156 18905.498046875 C -81.50160217285156 18907.04296875 -80.34622192382812 18908.521484375 -78.248291015625 18909.65625 C -76.05374145507812 18910.845703125 -73.12382507324219 18911.5 -69.99825286865234 18911.5 C -66.874755859375 18911.5 -63.94633483886719 18910.845703125 -61.75241851806641 18909.65625 C -59.65482330322266 18908.521484375 -58.4996337890625 18907.04296875 -58.4996337890625 18905.498046875 L -58.4996337890625 18902.802734375 C -58.4996337890625 18902.63671875 -58.63516235351562 18902.5 -58.8017578125 18902.5 L -60.06844329833984 18902.5 L -60.20822906494141 18902.380859375 C -61.22261810302734 18901.5234375 -62.63528442382812 18900.8046875 -64.29350280761719 18900.302734375 C -66.02527618408203 18899.77734375 -67.99794769287109 18899.5 -69.99825286865234 18899.5 M -69.99825286865234 18899 C -65.75035858154297 18899 -62.01763916015625 18900.197265625 -59.88540649414062 18902 L -58.8017578125 18902 C -58.36035919189453 18902 -57.9996337890625 18902.357421875 -57.9996337890625 18902.802734375 L -57.9996337890625 18905.498046875 C -57.9996337890625 18909.091796875 -63.3724365234375 18912 -69.99825286865234 18912 C -76.62881469726562 18912 -82.00160217285156 18909.091796875 -82.00160217285156 18905.498046875 L -82.00160217285156 18902.802734375 C -82.00160217285156 18902.357421875 -81.64089965820312 18902 -81.19949340820312 18902 L -80.11557006835938 18902 C -77.98294067382812 18900.197265625 -74.24919891357422 18899 -69.99825286865234 18899 Z" stroke="none" fill="#3afbba"/>
        </g>
        <ellipse id="Ellipse_190-12" data-name="Ellipse 190" cx="12" cy="6.5" rx="12" ry="6.5" transform="translate(274 303)" fill="#01a66e"/>
        <ellipse id="Ellipse_191-12" data-name="Ellipse 191" cx="11" cy="5.5" rx="11" ry="5.5" transform="translate(275 304.5)" fill="#19da99"/>
        <g id="Ellipse_188-12" data-name="Ellipse 188" transform="translate(274 303)" fill="none" stroke="#37f8b7" stroke-width="1">
          <ellipse cx="12" cy="6.5" rx="12" ry="6.5" stroke="none"/>
          <ellipse cx="12" cy="6.5" rx="11.5" ry="6" fill="none"/>
        </g>
        <path id="Path_1959-12" data-name="Path 1959" d="M-.008-2.6H1.05v-.782c2.611-.068,4.032-.985,4.032-2.027,0-1.5-2.264-1.776-4.032-2.066v-1.5c.463.1.777.319.843.676H4.917c-.149-1.226-1.6-1.9-3.867-2.008v-.782H-.008v.782c-2.247.087-3.982.8-3.982,2.008,0,1.515,2.214,1.805,3.982,2.075V-4.7C-.569-4.8-.9-5.046-.966-5.441H-3.973C-3.891-4.2-2.255-3.511-.008-3.4ZM2.124-5.354c0,.357-.413.618-1.074.685V-6.04C1.694-5.895,2.124-5.7,2.124-5.354ZM-1-8.376c0-.376.38-.589.991-.647v1.342C-.6-7.835-1-8.038-1-8.376Z" transform="translate(285.454 316.805)" fill="#01be7e"/>
        <path id="Path_1960-12" data-name="Path 1960" d="M-.008-2.6H1.05v-.782c2.611-.068,4.032-.985,4.032-2.027,0-1.5-2.264-1.776-4.032-2.066v-1.5c.463.1.777.319.843.676H4.917c-.149-1.226-1.6-1.9-3.867-2.008v-.782H-.008v.782c-2.247.087-3.982.8-3.982,2.008,0,1.515,2.214,1.805,3.982,2.075V-4.7C-.569-4.8-.9-5.046-.966-5.441H-3.973C-3.891-4.2-2.255-3.511-.008-3.4ZM2.124-5.354c0,.357-.413.618-1.074.685V-6.04C1.694-5.895,2.124-5.7,2.124-5.354ZM-1-8.376c0-.376.38-.589.991-.647v1.342C-.6-7.835-1-8.038-1-8.376Z" transform="translate(285.454 316.465)" fill="#dffff4"/>
      </g>
      <g id="Group_560" data-name="Group 560" transform="translate(-26 -3)">
        <path id="Union_29-14" data-name="Union 29" d="M-82,18905.5v-2.7a.8.8,0,0,1,.8-.8h1.084c2.133-1.8,5.866-3,10.117-3s7.981,1.2,10.113,3H-58.8a.8.8,0,0,1,.8.8v2.7c0,3.594-5.373,6.5-12,6.5S-82,18909.092-82,18905.5Z" transform="translate(356 -18593)" fill="#21e2a1"/>
        <g id="Group_554-13" data-name="Group 554" transform="translate(0.499)">
          <path id="Path_1961-13" data-name="Path 1961" d="M0,4.389V0" transform="translate(275.5 311.5)" fill="none" stroke="#09ca89" stroke-width="0.5"/>
          <path id="Path_1962-13" data-name="Path 1962" d="M0,3.727V0" transform="translate(277.5 313.5)" fill="none" stroke="#09ca89" stroke-width="0.5"/>
          <path id="Path_1963-13" data-name="Path 1963" d="M0,3.213V0" transform="translate(279.5 314.5)" fill="none" stroke="#09ca89" stroke-width="0.5"/>
          <path id="Path_1964-13" data-name="Path 1964" d="M0,3.35V0" transform="translate(281.5 315)" fill="none" stroke="#09ca89" stroke-width="0.5"/>
          <path id="Path_1971-13" data-name="Path 1971" d="M0,3.662V0" transform="translate(283.5 315)" fill="none" stroke="#09ca89" stroke-width="0.5"/>
          <path id="Path_1970-13" data-name="Path 1970" d="M0,3.787V0" transform="translate(285.5 315)" fill="none" stroke="#09ca89" stroke-width="0.5"/>
          <path id="Path_1969-13" data-name="Path 1969" d="M0,3.688V0" transform="translate(287.5 315)" fill="none" stroke="#09ca89" stroke-width="0.5"/>
          <path id="Path_1968-13" data-name="Path 1968" d="M0,3.463V0" transform="translate(289.5 315)" fill="none" stroke="#09ca89" stroke-width="0.5"/>
          <path id="Path_1967-13" data-name="Path 1967" d="M0,3.563V0" transform="translate(291.5 314.5)" fill="none" stroke="#09ca89" stroke-width="0.5"/>
          <path id="Path_1965-13" data-name="Path 1965" d="M0,3.35V0" transform="translate(293.5 313.689)" fill="none" stroke="#09ca89" stroke-width="0.5"/>
          <path id="Path_1966-13" data-name="Path 1966" d="M0,3.512V0" transform="translate(295.5 312.289)" fill="none" stroke="#09ca89" stroke-width="0.5"/>
        </g>
        <g id="Union_30-13" data-name="Union 30" transform="translate(356 -18593)" fill="none">
          <path d="M-82,18905.5v-2.7a.8.8,0,0,1,.8-.8h1.084c2.133-1.8,5.866-3,10.117-3s7.981,1.2,10.113,3H-58.8a.8.8,0,0,1,.8.8v2.7c0,3.594-5.373,6.5-12,6.5S-82,18909.092-82,18905.5Z" stroke="none"/>
          <path d="M -69.99825286865234 18899.5 C -71.99999237060547 18899.5 -73.97379302978516 18899.77734375 -75.70627593994141 18900.302734375 C -77.36507415771484 18900.8046875 -78.77816772460938 18901.5234375 -79.79278564453125 18902.3828125 L -79.93255615234375 18902.5 L -81.19949340820312 18902.5 C -81.36607360839844 18902.5 -81.50160217285156 18902.63671875 -81.50160217285156 18902.802734375 L -81.50160217285156 18905.498046875 C -81.50160217285156 18907.04296875 -80.34622192382812 18908.521484375 -78.248291015625 18909.65625 C -76.05374145507812 18910.845703125 -73.12382507324219 18911.5 -69.99825286865234 18911.5 C -66.874755859375 18911.5 -63.94633483886719 18910.845703125 -61.75241851806641 18909.65625 C -59.65482330322266 18908.521484375 -58.4996337890625 18907.04296875 -58.4996337890625 18905.498046875 L -58.4996337890625 18902.802734375 C -58.4996337890625 18902.63671875 -58.63516235351562 18902.5 -58.8017578125 18902.5 L -60.06844329833984 18902.5 L -60.20822906494141 18902.380859375 C -61.22261810302734 18901.5234375 -62.63528442382812 18900.8046875 -64.29350280761719 18900.302734375 C -66.02527618408203 18899.77734375 -67.99794769287109 18899.5 -69.99825286865234 18899.5 M -69.99825286865234 18899 C -65.75035858154297 18899 -62.01763916015625 18900.197265625 -59.88540649414062 18902 L -58.8017578125 18902 C -58.36035919189453 18902 -57.9996337890625 18902.357421875 -57.9996337890625 18902.802734375 L -57.9996337890625 18905.498046875 C -57.9996337890625 18909.091796875 -63.3724365234375 18912 -69.99825286865234 18912 C -76.62881469726562 18912 -82.00160217285156 18909.091796875 -82.00160217285156 18905.498046875 L -82.00160217285156 18902.802734375 C -82.00160217285156 18902.357421875 -81.64089965820312 18902 -81.19949340820312 18902 L -80.11557006835938 18902 C -77.98294067382812 18900.197265625 -74.24919891357422 18899 -69.99825286865234 18899 Z" stroke="none" fill="#3afbba"/>
        </g>
        <ellipse id="Ellipse_190-13" data-name="Ellipse 190" cx="12" cy="6.5" rx="12" ry="6.5" transform="translate(274 303)" fill="#01a66e"/>
        <ellipse id="Ellipse_191-13" data-name="Ellipse 191" cx="11" cy="5.5" rx="11" ry="5.5" transform="translate(275 304.5)" fill="#19da99"/>
        <g id="Ellipse_188-13" data-name="Ellipse 188" transform="translate(274 303)" fill="none" stroke="#37f8b7" stroke-width="1">
          <ellipse cx="12" cy="6.5" rx="12" ry="6.5" stroke="none"/>
          <ellipse cx="12" cy="6.5" rx="11.5" ry="6" fill="none"/>
        </g>
        <path id="Path_1959-13" data-name="Path 1959" d="M-.008-2.6H1.05v-.782c2.611-.068,4.032-.985,4.032-2.027,0-1.5-2.264-1.776-4.032-2.066v-1.5c.463.1.777.319.843.676H4.917c-.149-1.226-1.6-1.9-3.867-2.008v-.782H-.008v.782c-2.247.087-3.982.8-3.982,2.008,0,1.515,2.214,1.805,3.982,2.075V-4.7C-.569-4.8-.9-5.046-.966-5.441H-3.973C-3.891-4.2-2.255-3.511-.008-3.4ZM2.124-5.354c0,.357-.413.618-1.074.685V-6.04C1.694-5.895,2.124-5.7,2.124-5.354ZM-1-8.376c0-.376.38-.589.991-.647v1.342C-.6-7.835-1-8.038-1-8.376Z" transform="translate(285.454 316.805)" fill="#01be7e"/>
        <path id="Path_1960-13" data-name="Path 1960" d="M-.008-2.6H1.05v-.782c2.611-.068,4.032-.985,4.032-2.027,0-1.5-2.264-1.776-4.032-2.066v-1.5c.463.1.777.319.843.676H4.917c-.149-1.226-1.6-1.9-3.867-2.008v-.782H-.008v.782c-2.247.087-3.982.8-3.982,2.008,0,1.515,2.214,1.805,3.982,2.075V-4.7C-.569-4.8-.9-5.046-.966-5.441H-3.973C-3.891-4.2-2.255-3.511-.008-3.4ZM2.124-5.354c0,.357-.413.618-1.074.685V-6.04C1.694-5.895,2.124-5.7,2.124-5.354ZM-1-8.376c0-.376.38-.589.991-.647v1.342C-.6-7.835-1-8.038-1-8.376Z" transform="translate(285.454 316.465)" fill="#dffff4"/>
      </g>
    </g>
  </g>
  <rect id="Rectangle_873" data-name="Rectangle 873" width="50" height="50" fill="none"/>
</svg>
