<svg xmlns="http://www.w3.org/2000/svg" width="65.812" height="97.981" viewBox="0 0 65.812 97.981">
  <g id="My_Ambire_Rewards_inactive" data-name="My Ambire Rewards inactive" transform="translate(0.828 0.75)">
    <path id="Path_1775" data-name="Path 1775" d="M52.966,39.57,65.624,66.513a.767.767,0,0,1-.158.838L32.17,99.53a.366.366,0,0,1-.62-.279V71.8l1.531-3.584,19.448-18.78a.672.672,0,0,0,.219-.534l.061-9.329c.012-.073.134-.073.158,0" transform="translate(-1.477 -3.163)" fill="none" stroke="#6770b3" stroke-linecap="round" stroke-miterlimit="10" stroke-width="1.5" stroke-dasharray="1 4"/>
    <path id="Path_1776" data-name="Path 1776" d="M28,20.949,22.046,37.81a.785.785,0,0,0,.036.6l4.495,8.843-3.389,4.592L12.352,57.975a.4.4,0,0,1-.534-.158l-3.3-6.863a.668.668,0,0,1,.061-.717L27.84,20.864c.073-.061.194,0,.158.085" transform="translate(-6.44 -7.175)" fill="none" stroke="#6770b3" stroke-linecap="round" stroke-miterlimit="10" stroke-width="1.5" stroke-dasharray="1 4"/>
    <path id="Path_1777" data-name="Path 1777" d="M36.867,9.736V35.963a.714.714,0,0,1-.158.437L6.935,76.767a.715.715,0,0,0,.1.96L27.926,97.891a.365.365,0,0,0,.6-.121l22.7-53.122a.879.879,0,0,0,0-.559L37.146,9.675a.126.126,0,0,0-.121-.085.151.151,0,0,0-.158.146" transform="translate(-6.793 -9.59)" fill="none" stroke="#6770b3" stroke-linecap="round" stroke-miterlimit="10" stroke-width="1.5" stroke-dasharray="1 4" fill-rule="evenodd"/>
    <line id="Line_148" data-name="Line 148" y1="12.524" x2="13.569" transform="translate(2 30.94)" fill="none"/>
    <line id="Line_149" data-name="Line 149" x2="14.395" y2="8.406" transform="translate(30.074 26.386)" fill="none"/>
    <line id="Line_150" data-name="Line 150" x2="13.022" y2="17.833" transform="translate(51.198 46.076)" fill="none"/>
  </g>
</svg>
