<svg id="Information_icon" data-name="Information icon" xmlns="http://www.w3.org/2000/svg" width="100%" height="100%" viewBox="0 0 24 24">
  <g id="Group_29" data-name="Group 29" transform="translate(78 849) rotate(180)">
    <rect id="Boundary" width="24" height="24" transform="translate(54 825)" fill="none"/>
    <path id="Shape" d="M1987,23a10,10,0,1,1,10-10A10.012,10.012,0,0,1,1987,23Zm0-8a1,1,0,1,0,1,1A1,1,0,0,0,1987,15Zm0-8a1,1,0,0,0-1,1v5a1,1,0,1,0,2,0V8A1,1,0,0,0,1987,7Z" transform="translate(-1921 824)" fill="currentColor"/>
  </g>
</svg>
