<svg id="paytrie_logo" data-name="paytrie logo" xmlns="http://www.w3.org/2000/svg" width="140" height="39.885" viewBox="0 0 140 39.885">
  <path id="Path_117" data-name="Path 117" d="M21.781-45.875a6.57,6.57,0,0,1-.524,2.617,6.766,6.766,0,0,1-1.438,2.139,6.732,6.732,0,0,1-2.144,1.44,6.593,6.593,0,0,1-2.62.525H8.862v10.524H6.406V-56.016h8.65a6.614,6.614,0,0,1,2.62.526,6.724,6.724,0,0,1,2.144,1.442A6.75,6.75,0,0,1,21.257-51.9a6.645,6.645,0,0,1,.524,2.626Zm-2.458-3.4a4.257,4.257,0,0,0-.341-1.711,4.472,4.472,0,0,0-.943-1.395,4.47,4.47,0,0,0-1.394-.944,4.229,4.229,0,0,0-1.707-.342H8.864V-41.5h6.078a4.219,4.219,0,0,0,1.707-.342,4.542,4.542,0,0,0,1.391-.936,4.351,4.351,0,0,0,.943-1.385,4.255,4.255,0,0,0,.341-1.711ZM37.937-28.631l-1.295-1.948a6.079,6.079,0,0,1-2,1.69,5.5,5.5,0,0,1-2.631.639h-.588a5.606,5.606,0,0,1-2.229-.449,5.754,5.754,0,0,1-1.829-1.232,5.773,5.773,0,0,1-1.229-1.833A5.638,5.638,0,0,1,25.689-34v-.191a5.639,5.639,0,0,1,.448-2.234,5.764,5.764,0,0,1,1.229-1.833,5.745,5.745,0,0,1,1.829-1.232,5.606,5.606,0,0,1,2.229-.449h4.951v-3.019a3.323,3.323,0,0,0-.267-1.327,3.414,3.414,0,0,0-.724-1.078,3.412,3.412,0,0,0-1.077-.723,3.3,3.3,0,0,0-1.323-.269H31.612a3.293,3.293,0,0,0-1.324.267,3.423,3.423,0,0,0-1.076.725,3.434,3.434,0,0,0-.724,1.08,3.323,3.323,0,0,0-.267,1.327v.707l-2.341-.382v-.191a5.64,5.64,0,0,1,.448-2.234,5.77,5.77,0,0,1,1.229-1.833,5.765,5.765,0,0,1,1.829-1.232,5.6,5.6,0,0,1,2.229-.449h1.37a5.6,5.6,0,0,1,2.229.449,5.766,5.766,0,0,1,1.829,1.232,5.771,5.771,0,0,1,1.229,1.833,5.639,5.639,0,0,1,.448,2.234v14.189ZM36.377-38.1H31.424a3.3,3.3,0,0,0-1.324.267,3.339,3.339,0,0,0-1.076.734,3.532,3.532,0,0,0-.726,1.089,3.321,3.321,0,0,0-.267,1.327v.822a3.323,3.323,0,0,0,.267,1.327,3.425,3.425,0,0,0,.724,1.079,3.424,3.424,0,0,0,1.077.725,3.3,3.3,0,0,0,1.327.269h1.561a3.3,3.3,0,0,0,1.323-.269,3.414,3.414,0,0,0,1.076-.724,3.419,3.419,0,0,0,.722-1.078,3.324,3.324,0,0,0,.267-1.328ZM46.57-20.8H44.3l3.468-9.51L41.443-48.186h2.341l5.089,14.819.076,1.012.076-1.012,5.068-14.819h2.341ZM66.193-53.666v25.035H63.736V-53.666H57.218v-2.347H72.707v2.347Zm15.373,7.715a3.313,3.313,0,0,0-1.324.267,3.424,3.424,0,0,0-1.076.726,3.426,3.426,0,0,0-.724,1.079,3.325,3.325,0,0,0-.267,1.327v13.922H75.834V-48.186h.78L77.891-46.2a5.855,5.855,0,0,1,2.01-1.729,5.565,5.565,0,0,1,2.639-.64h1.372v2.617Zm6.059-6.933v-3.132h2.725v3.132Zm.19,24.254V-48.186h2.341v19.555ZM108.658-34a5.637,5.637,0,0,1-.448,2.234,5.772,5.772,0,0,1-1.229,1.833,5.754,5.754,0,0,1-1.829,1.232,5.605,5.605,0,0,1-2.229.449h-1.561a5.606,5.606,0,0,1-2.229-.449A5.753,5.753,0,0,1,97.3-29.93a5.773,5.773,0,0,1-1.229-1.833A5.636,5.636,0,0,1,95.627-34v-8.822a5.636,5.636,0,0,1,.448-2.234A5.771,5.771,0,0,1,97.3-46.887a5.755,5.755,0,0,1,1.829-1.232,5.6,5.6,0,0,1,2.229-.449h1.561a5.6,5.6,0,0,1,2.229.449,5.756,5.756,0,0,1,1.829,1.232,5.769,5.769,0,0,1,1.229,1.833,5.635,5.635,0,0,1,.448,2.234v4.6H97.97v4.355a3.328,3.328,0,0,0,.267,1.328,3.425,3.425,0,0,0,.724,1.079,3.412,3.412,0,0,0,1.076.723,3.3,3.3,0,0,0,1.324.267h1.561a3.3,3.3,0,0,0,1.324-.267,3.424,3.424,0,0,0,1.076-.726,3.422,3.422,0,0,0,.724-1.077,3.327,3.327,0,0,0,.267-1.328v-1.3l2.341.382Zm-2.341-8.956a3.325,3.325,0,0,0-.267-1.327,3.435,3.435,0,0,0-.724-1.08,3.423,3.423,0,0,0-1.076-.725,3.293,3.293,0,0,0-1.324-.267h-1.561a3.293,3.293,0,0,0-1.324.267,3.414,3.414,0,0,0-1.076.725,3.434,3.434,0,0,0-.724,1.08,3.322,3.322,0,0,0-.267,1.327v2.9h8.341Z" transform="translate(31.342 60.687)" fill="#fff"/>
  <path id="Path_118" data-name="Path 118" d="M35.042,44.152H20.8L35.042,19.43,49.283,44.157H35.042Z" transform="translate(-20.8 -19.43)" fill="#7e91e0"/>
  <path id="Path_119" data-name="Path 119" d="M35.042,66.272H20.8L35.042,41.55,49.283,66.272Z" transform="translate(-20.8 -30.736)" fill="rgba(163,176,228,0.65)"/>
</svg>
