<svg id="Layer_x0020_1" xmlns="http://www.w3.org/2000/svg" width="26" height="26" viewBox="0 0 26 26">
  <g id="Group_763" data-name="Group 763">
    <rect id="Rectangle_930" data-name="Rectangle 930" width="26" height="26" fill="none"/>
    <g id="Group_762" data-name="Group 762" transform="translate(1.142 1.142)">
      <path id="Path_2004" data-name="Path 2004" d="M825.23,386.28h9.83a4.5,4.5,0,0,1,4.491,4.49h0a4.5,4.5,0,0,1-4.491,4.49H831.27" transform="translate(-815.838 -383.402)" fill="none" stroke="#ebecff" stroke-linecap="round" stroke-linejoin="round" stroke-width="1" fill-rule="evenodd"/>
      <path id="Path_2005" data-name="Path 2005" d="M28.694,1523.67H24.811a4.5,4.5,0,0,0-4.491,4.49h0a4.5,4.5,0,0,0,4.491,4.49H37.637" transform="translate(-20.32 -1511.81)" fill="none" stroke="#ebecff" stroke-linecap="round" stroke-linejoin="round" stroke-width="1" stroke-dasharray="1 2" fill-rule="evenodd"/>
      <ellipse id="Ellipse_206" data-name="Ellipse 206" cx="2.874" cy="2.874" rx="2.874" ry="2.874" transform="translate(17.963 17.965)" fill="none" stroke="#ebecff" stroke-linecap="round" stroke-linejoin="round" stroke-width="1.5"/>
      <ellipse id="Ellipse_207" data-name="Ellipse 207" cx="2.874" cy="2.874" rx="2.874" ry="2.874" transform="translate(8.999 8.986)" fill="none" stroke="#ebecff" stroke-linecap="round" stroke-linejoin="round" stroke-width="1.5"/>
      <path id="Path_2006" data-name="Path 2006" d="M26.043,24.6,20.31,27.478,21.517,24.6,20.31,21.73Z" transform="translate(-20.31 -21.73)" fill="none" stroke="#ebecff" stroke-linecap="round" stroke-linejoin="round" stroke-width="1.5" fill-rule="evenodd"/>
    </g>
  </g>
</svg>
