<svg xmlns="http://www.w3.org/2000/svg" width="32" height="32" viewBox="0 0 32 32">
  <g id="security_icon" data-name="security icon" transform="translate(-12 -750)" opacity="0.5">
    <rect id="Rectangle_304" data-name="Rectangle 304" width="32" height="32" transform="translate(12 750)" fill="none"/>
    <path id="Subtraction_19" data-name="Subtraction 19" d="M14467,18903h-12a3.005,3.005,0,0,1-3-3v-10a3,3,0,0,1,3-3h12a3,3,0,0,1,3,3v10A3,3,0,0,1,14467,18903Zm-6-10a2,2,0,1,0,2,2A2,2,0,0,0,14461,18893Z" transform="translate(-14433 -18125)" fill="currentColor"/>
    <path id="Rectangle_297" data-name="Rectangle 297" d="M5,2A3,3,0,0,0,2,5V8A3,3,0,0,0,8,8V5A3,3,0,0,0,5,2M5,0a5,5,0,0,1,5,5V8A5,5,0,0,1,0,8V5A5,5,0,0,1,5,0Z" transform="translate(23 754)" fill="currentColor"/>
  </g>
</svg>
