<svg id="Confirmed" xmlns="http://www.w3.org/2000/svg" width="34" height="34" viewBox="0 0 34 34">
  <rect id="Boundary" width="34" height="34" rx="12" transform="translate(34 34) rotate(180)" fill="#27e8a7"/>
  <g id="Group_66" data-name="Group 66" transform="translate(5.58 7.913)">
    <path id="Line_37" data-name="Line 37" d="M1.821,22.06A1.821,1.821,0,0,1,0,20.238V1.821a1.821,1.821,0,0,1,3.643,0V20.238A1.821,1.821,0,0,1,1.821,22.06Z" transform="translate(21.609 0) rotate(45)" fill="#fff"/>
    <path id="Line_38" data-name="Line 38" d="M1.821,12.143A1.821,1.821,0,0,1,0,10.321v-8.5a1.821,1.821,0,0,1,3.643,0v8.5A1.821,1.821,0,0,1,1.821,12.143Z" transform="translate(0 9.588) rotate(-45)" fill="#fff"/>
  </g>
</svg>
