<svg id="Alert_icon_2" data-name="Alert icon 2" xmlns="http://www.w3.org/2000/svg" width="34" height="30.6" viewBox="0 0 34 30.6">
  <path id="Path_60" data-name="Path 60" d="M14.512,7.194a6.185,6.185,0,0,1,10.612,0l10.91,18.838a5.885,5.885,0,0,1-5.306,8.754H8.909A5.885,5.885,0,0,1,3.6,26.032Z" transform="translate(-2.819 -4.187)" fill="#ffbc00"/>
  <path id="Path_59" data-name="Path 59" d="M-3969.3,23.583a1.7,1.7,0,0,1-1.7-1.689,1.7,1.7,0,0,1,1.7-1.689,1.7,1.7,0,0,1,1.7,1.689A1.7,1.7,0,0,1-3969.3,23.583Zm0-6.758a1.7,1.7,0,0,1-1.7-1.689V6.689A1.7,1.7,0,0,1-3969.3,5a1.7,1.7,0,0,1,1.7,1.689v8.447A1.7,1.7,0,0,1-3969.3,16.825Z" transform="translate(3986.298 3.093)" fill="#fff"/>
</svg>
