<svg id="main-logo" xmlns="http://www.w3.org/2000/svg" xmlns:xlink="http://www.w3.org/1999/xlink" width="140" height="55.975" viewBox="0 0 140 55.975">
  <defs>
    <linearGradient id="linear-gradient" x1="1.295" y1="1.037" x2="0.093" y2="0.088" gradientUnits="objectBoundingBox">
      <stop offset="0.14" stop-color="#adadad"/>
      <stop offset="0.29" stop-color="#cbcbcb"/>
      <stop offset="0.43" stop-color="#e2e2e2"/>
      <stop offset="0.59" stop-color="#f2f2f2"/>
      <stop offset="0.77" stop-color="#fcfcfc"/>
      <stop offset="1" stop-color="#fff"/>
    </linearGradient>
    <linearGradient id="linear-gradient-2" x1="0.023" y1="1.207" x2="0.952" y2="-0.001" gradientUnits="objectBoundingBox">
      <stop offset="0.15" stop-color="#adadad"/>
      <stop offset="0.29" stop-color="#cbcbcb"/>
      <stop offset="0.44" stop-color="#e2e2e2"/>
      <stop offset="0.6" stop-color="#f2f2f2"/>
      <stop offset="0.77" stop-color="#fcfcfc"/>
      <stop offset="1" stop-color="#fff"/>
    </linearGradient>
    <linearGradient id="linear-gradient-3" x1="-0.096" y1="3.097" x2="0.376" y2="1.041" gradientUnits="objectBoundingBox">
      <stop offset="0.14" stop-color="#adadad"/>
      <stop offset="0.43" stop-color="#c9c9c9"/>
      <stop offset="1" stop-color="#fff"/>
    </linearGradient>
    <linearGradient id="linear-gradient-4" x1="0.5" y1="-0.567" x2="0.5" y2="1" gradientUnits="objectBoundingBox">
      <stop offset="0.09" stop-color="#adadad"/>
      <stop offset="0.24" stop-color="#cbcbcb"/>
      <stop offset="0.425" stop-color="#e2e2e2"/>
      <stop offset="0.537" stop-color="#f2f2f2"/>
      <stop offset="1" stop-color="#fff"/>
    </linearGradient>
    <linearGradient id="linear-gradient-5" x1="0.5" y1="1.753" x2="0.5" y2="-0.848" gradientUnits="objectBoundingBox">
      <stop offset="0.18" stop-color="#adadad"/>
      <stop offset="0.32" stop-color="#cbcbcb"/>
      <stop offset="0.46" stop-color="#e2e2e2"/>
      <stop offset="0.61" stop-color="#f2f2f2"/>
      <stop offset="0.78" stop-color="#fcfcfc"/>
      <stop offset="1" stop-color="#fff"/>
    </linearGradient>
  </defs>
  <g id="Group_216" data-name="Group 216" transform="translate(52.276)">
    <path id="Path_664" data-name="Path 664" d="M25.971,9.646c2.218,2.96-4.277,8.681-2.817,6.318H9.32A16.246,16.246,0,0,1,6.3,9.646Z" transform="translate(3.203 4.905)" fill="url(#linear-gradient)"/>
    <path id="Path_665" data-name="Path 665" d="M25.165,31.6a35.835,35.835,0,0,1-6.341,4.046l-1.1.554-1.107-.552C6.209,30.429,0,21.433,0,11.575V0H6.348V11.575A16.059,16.059,0,0,0,6.5,13.782c.8,5.989,4.842,11.515,11.2,15.235a.085.085,0,0,0,.02.014c.007,0,.01-.007.017-.01L17.764,29A22.911,22.911,0,0,0,25.165,31.6Z" transform="translate(0)" fill="#fff"/>
    <path id="Path_666" data-name="Path 666" d="M29.26,9.646A23.608,23.608,0,0,1,27.4,16.272,28.178,28.178,0,0,1,19.177,26.7a22.91,22.91,0,0,1-7.4-2.6,28.563,28.563,0,0,0,2.411-1.591,2.623,2.623,0,0,0,.223-.162,22.98,22.98,0,0,0,8.769-12.7Z" transform="translate(5.99 4.905)" fill="url(#linear-gradient-2)"/>
    <path id="Path_667" data-name="Path 667" d="M33.308,0H4.208V6.346h29.1Z" transform="translate(2.14 0.001)" fill="url(#linear-gradient-3)"/>
    <path id="Path_668" data-name="Path 668" d="M25.644,4.208V9.435c0,.216-.007.433-.014.65H19.279c.006-.217.01-.434.01-.65V4.208Z" transform="translate(9.803 2.14)" fill="url(#linear-gradient-4)"/>
  </g>
  <path id="Path_669" data-name="Path 669" d="M64.86,10.394a9.122,9.122,0,0,1-.414,3,5.269,5.269,0,0,1-2.086,2.718,5.94,5.94,0,0,1-3.317.911A5.721,5.721,0,0,1,54.261,14.9,6.045,6.045,0,0,1,53,11.065a6.07,6.07,0,0,1,1.476-4.153A5.886,5.886,0,0,1,59.153,5a5.559,5.559,0,0,1,3.4,1.029,5.749,5.749,0,0,1,1.7,2.154L61.469,9.335a3.283,3.283,0,0,0-.832-1.187,2.473,2.473,0,0,0-1.62-.562,2.708,2.708,0,0,0-2.678,1.976,4.112,4.112,0,0,0-.284,1.505,3.758,3.758,0,0,0,1.025,2.693,2.642,2.642,0,0,0,2.021.8,2.413,2.413,0,0,0,1.778-.652,2.229,2.229,0,0,0,.567-1.271H59.025V10.394Zm15.132,1.491a7.847,7.847,0,0,1-.173,1.738A4.041,4.041,0,0,1,78.6,15.673a5.138,5.138,0,0,1-3.682,1.3,4.929,4.929,0,0,1-3.662-1.326A3.646,3.646,0,0,1,70.3,13.9a8.75,8.75,0,0,1-.181-2.006V5.362h2.942v6.12q0,.739.027,1.1a1.775,1.775,0,0,0,1.043,1.608,2.006,2.006,0,0,0,.878.189,1.879,1.879,0,0,0,1.624-.753,3.915,3.915,0,0,0,.408-2.145V5.362h2.942Zm15.5,4.791H92.347L91.619,14.7H87.557l-.778,1.973H83.67L88.016,5.362H91.23Zm-4.667-4.21L89.607,8.859,88.37,12.466Zm18.773,4.21h-3.65l-2.811-4.346v4.346h-2.95V5.362h4.576a3.57,3.57,0,0,1,2.967,1.2,3.533,3.533,0,0,1,.779,2.281,3.232,3.232,0,0,1-.9,2.4,3.127,3.127,0,0,1-1.575.8ZM105.458,9a1.343,1.343,0,0,0-.441-1.017,1.912,1.912,0,0,0-1.34-.388h-.549v2.818h.549a1.9,1.9,0,0,0,1.34-.389A1.352,1.352,0,0,0,105.456,9Zm18.688,2.009a5.8,5.8,0,0,1-3.79,5.354,5.418,5.418,0,0,1-1.789.306H114.22V5.362h4.346a5.3,5.3,0,0,1,2.955.886,5.713,5.713,0,0,1,2.044,2.3A5.6,5.6,0,0,1,124.146,11.014Zm-3.051,0a3.308,3.308,0,0,0-.658-2.044,3.05,3.05,0,0,0-2.607-1.154h-.673v6.407h.673a3.054,3.054,0,0,0,2.607-1.156,3.34,3.34,0,0,0,.654-2.053ZM138.8,16.676h-3.14l-.731-1.973h-4.062l-.778,1.973h-3.108l4.346-11.314h3.214Zm-4.666-4.21-1.217-3.607-1.227,3.607Zm18.772,4.21h-3.66l-2.809-4.346v4.346H143.5V5.362h4.574a3.572,3.572,0,0,1,2.968,1.2,3.536,3.536,0,0,1,.779,2.281,3.239,3.239,0,0,1-.9,2.4,3.13,3.13,0,0,1-1.574.8ZM148.775,9a1.343,1.343,0,0,0-.442-1.017A1.921,1.921,0,0,0,147,7.6h-.55v2.818h.544a1.9,1.9,0,0,0,1.339-.389A1.364,1.364,0,0,0,148.773,9Zm11.707,7.671h-2.944V5.362h2.943Zm16.525,0h-3.143l-.73-1.973h-4.06l-.778,1.973h-3.11L169.53,5.362h3.207Zm-4.666-4.21-1.217-3.607-1.236,3.607ZM193,16.676h-2.944l-5.413-6.929v6.929H181.7V5.362h2.942l5.413,6.922V5.362H193Z" transform="translate(-53 38.95)" fill="url(#linear-gradient-5)"/>
</svg>
