<svg id="kriptomat.4c8e4fc1" xmlns="http://www.w3.org/2000/svg" width="140" height="23.587" viewBox="0 0 140 23.587">
  <path id="Path_670" data-name="Path 670" d="M45.114,12.33l5-5.556h-2.59l-5.727,6.5v-6.5H39.677V19.709h2.114V15.951l1.871-2.073,4.111,5.831H50.33Z" transform="translate(-8.482 -1.448)" fill="#2271a7"/>
  <path id="Path_671" data-name="Path 671" d="M63.388,14.8l3.393,4.906H64.175l-3.09-4.519H58.334v4.519H56.129V6.776h5.587a6,6,0,0,1,1.951.287,4.1,4.1,0,0,1,1.467.812,3.354,3.354,0,0,1,.921,1.286,4.338,4.338,0,0,1,.327,1.71,4.444,4.444,0,0,1-.218,1.448,4.422,4.422,0,0,1-.618,1.136,3.794,3.794,0,0,1-.945.824A4.833,4.833,0,0,1,63.388,14.8Zm.048-2.21a1.972,1.972,0,0,0,.7-1.6,1.95,1.95,0,0,0-.679-1.61,3.025,3.025,0,0,0-1.927-.549h-3.2V13.18h3.224A2.836,2.836,0,0,0,63.436,12.593Z" transform="translate(-11.999 -1.448)" fill="#2271a7" fill-rule="evenodd"/>
  <path id="Path_672" data-name="Path 672" d="M72.581,6.774V19.709h2.282V6.774Z" transform="translate(-15.515 -1.448)" fill="#2271a7"/>
  <path id="Path_673" data-name="Path 673" d="M90.115,9.321a4.919,4.919,0,0,1,.308,1.785,4.8,4.8,0,0,1-.365,1.923,3.873,3.873,0,0,1-1.013,1.386,4.447,4.447,0,0,1-1.5.849,5.847,5.847,0,0,1-1.832.287H83.364v4.157H81.292V6.774h4.656a5.461,5.461,0,0,1,1.857.3,3.813,3.813,0,0,1,2.311,2.247Zm-2.483,3.533a2.192,2.192,0,0,0,.684-1.685,2.169,2.169,0,0,0-.684-1.748,2.807,2.807,0,0,0-1.855-.587H83.364v4.657h2.412A2.6,2.6,0,0,0,87.632,12.854Z" transform="translate(-17.377 -1.448)" fill="#2271a7" fill-rule="evenodd"/>
  <path id="Path_674" data-name="Path 674" d="M101.841,8.872H105.7v-2.1H95.807v2.1h3.868V19.709h2.166Z" transform="translate(-20.481 -1.448)" fill="#2271a7"/>
  <path id="Path_675" data-name="Path 675" d="M122.778,10.723a6.785,6.785,0,0,1,0,5,6.268,6.268,0,0,1-3.391,3.466,6.374,6.374,0,0,1-2.616.519,6.567,6.567,0,0,1-2.616-.507,6.023,6.023,0,0,1-2.03-1.389,6.447,6.447,0,0,1-1.326-2.053,6.587,6.587,0,0,1,.627-6.116,6.434,6.434,0,0,1,5.381-2.869,6.566,6.566,0,0,1,2.615.507A6.208,6.208,0,0,1,122.778,10.723Zm-2.1,4.263a5.135,5.135,0,0,0,0-3.454,4.457,4.457,0,0,0-.872-1.413,3.865,3.865,0,0,0-1.338-.966,3.917,3.917,0,0,0-1.7-.362,4.09,4.09,0,0,0-1.685.35,3.867,3.867,0,0,0-1.313.942,4.237,4.237,0,0,0-.861,1.413,4.973,4.973,0,0,0,0,3.454,4.438,4.438,0,0,0,.861,1.425,4.112,4.112,0,0,0,1.338.954,4.15,4.15,0,0,0,4.7-.93A4.639,4.639,0,0,0,120.677,14.986Z" transform="translate(-23.583 -1.448)" fill="#2271a7" fill-rule="evenodd"/>
  <path id="Path_676" data-name="Path 676" d="M140,10.433v9.277h2.177V6.774h-2.319l-3.768,6.105L132.31,6.774H130V19.709h2.141V10.47l3.875,6.055h.071Z" transform="translate(-27.79 -1.448)" fill="#2271a7"/>
  <path id="Path_677" data-name="Path 677" d="M153.522,6.774h2.026L161,19.709h-2.3l-1.26-3.11h-5.869l-1.267,3.11h-2.239Zm-1.147,7.83h4.263l-2.144-5.129Z" transform="translate(-31.651 -1.448)" fill="#2271a7" fill-rule="evenodd"/>
  <path id="Path_678" data-name="Path 678" d="M171.512,8.872h3.862v-2.1h-9.89v2.1h3.862V19.709h2.166Z" transform="translate(-35.374 -1.448)" fill="#2271a7"/>
  <path id="Path_679" data-name="Path 679" d="M11.819,2.121a10.4,10.4,0,0,1,1.468.111L15.072.445A12,12,0,0,0,11.819,0a11.8,11.8,0,1,0,4.223,22.817,11.647,11.647,0,0,0,2.017-1L16.5,20.268,7.991,11.793,16.5,3.318,18.059,1.77a11.649,11.649,0,0,0-2.017-1L14.351,2.454,11.313,5.482,4.979,11.793l9.373,9.339a9.877,9.877,0,0,1-2.532.334,9.672,9.672,0,1,1,0-19.345Zm7.028,3.01,1.511-1.507a12.547,12.547,0,0,0-1.6-1.413L17.225,3.744,9.214,11.732l8.011,7.988,1.537,1.533a12.54,12.54,0,0,0,1.6-1.413,11.786,11.786,0,0,0,.6-15.523L19.44,5.833a9.643,9.643,0,0,1-.593,12.5l-6.62-6.6,2.679-2.663Z" transform="translate(0 0)" fill="#2271a7" fill-rule="evenodd"/>
</svg>
