<?xml version="1.0" encoding="UTF-8"?>
<svg xmlns="http://www.w3.org/2000/svg" id="Layer_1" viewBox="0 0 1148.14 286.65">
  <defs>
    <style>.cls-1{fill:#fff}</style>
  </defs>
  <path
    d="M158.4 6.26c-8.35-8.35-21.89-8.35-30.23 0L6.26 128.2c-8.35 8.35-8.35 21.89 0 30.24l121.9 121.94c8.35 8.35 21.89 8.35 30.23 0l53.01-53.03-68.89-68.91c-8.35-8.35-8.35-21.89 0-30.24l68.89-68.91-53-53.03Z"
    style="fill:#00a754;fill-rule:evenodd" />
  <path
    d="M294.65 6.26c-8.35-8.35-21.89-8.35-30.23 0l-53.01 53.02 68.89 68.91c8.35 8.35 8.35 21.89 0 30.24l-68.89 68.91 53.01 53.03c8.35 8.35 21.89 8.35 30.23 0l121.9-121.94c8.35-8.35 8.35-21.89 0-30.24L294.65 6.26Z"
    style="fill-rule:evenodd;fill:#0a6e5c" />
  <path
    d="m936.27 271.67-14.28-24.57-10.01 12.89v11.68h-8.79v-55.5h8.79v30.85l23.78-30.85h10.26l-18.31 23.57 18.71 31.93h-10.15zM874.26 271.67l-9.6-21.15h-13.1v21.15h-8.78v-55.5h21.05c6.23 0 11.14 1.52 14.58 4.51 3.47 2.97 5.23 7.21 5.23 12.59 0 3.64-.85 6.8-2.54 9.37-1.64 2.53-4.11 4.49-7.34 5.83l-.55.23 10.65 22.97h-9.6Zm-22.71-28.77h12.27c3.28 0 5.89-.86 7.74-2.55 1.87-1.7 2.82-4.09 2.82-7.08s-.95-5.34-2.83-6.94c-1.85-1.63-4.45-2.46-7.73-2.46h-12.27v19.03ZM796.87 272.6c-5.24 0-9.94-1.22-13.96-3.64-4.02-2.41-7.21-5.8-9.48-10.08-2.21-4.28-3.34-9.3-3.34-14.92s1.15-10.71 3.42-15c2.27-4.34 5.44-7.75 9.4-10.16 4.02-2.41 8.74-3.64 14.04-3.64s9.99 1.22 13.96 3.64c4.02 2.41 7.21 5.8 9.48 10.08 2.27 4.29 3.42 9.33 3.42 15s-1.15 10.66-3.42 15c-2.27 4.28-5.46 7.67-9.48 10.08-4.02 2.41-8.74 3.64-14.04 3.64Zm.08-49.05c-3.56 0-6.71.87-9.37 2.57-2.61 1.65-4.66 4.02-6.1 7.05-1.42 3.02-2.15 6.62-2.15 10.7s.72 7.71 2.14 10.78c1.44 3.03 3.49 5.41 6.1 7.06 2.66 1.65 5.82 2.49 9.37 2.49s6.76-.84 9.37-2.49c2.61-1.71 4.66-4.11 6.1-7.13 1.42-3.06 2.14-6.66 2.14-10.7s-.72-7.69-2.14-10.7c-1.44-3.03-3.49-5.4-6.1-7.05-2.6-1.7-5.76-2.57-9.37-2.57ZM732.54 271.67l-12.51-42.64-12.82 42.64h-8.84l-16.55-55.5h9.12l8.87 29.5c.46 1.53.9 3.19 1.31 4.92.41 1.67.82 3.77 1.23 6.24h1.12c.46-2.51.9-4.61 1.31-6.23.46-1.69.92-3.34 1.39-4.94l8.86-29.5h10.08l8.63 29.5c.48 1.66.92 3.35 1.31 5 .46 1.75.93 3.83 1.39 6.18h1.11c.5-2.56.97-4.72 1.38-6.4.46-1.69.9-3.23 1.31-4.63l9.02-29.65h8.89l-16.86 55.5h-8.76ZM643.38 271.67v-47.5H626.8v-8h41.94v8h-16.58v47.5h-8.78zM577.38 271.67v-55.5h34.04v8h-25.26v15.71h22.63v7.62h-22.63v16.16h25.26v8.01h-34.04zM546.3 271.67l-27.53-41.47v41.47h-8.63v-55.5h8.97l27.45 41.53v-41.53h8.63v55.5h-8.89zM602.65 173.02l-34.07-57.8h-28.55v57.8h-29.89V14.05h70.4c30.46 0 53.44 22.14 53.44 51.51 0 21.96-13.7 40.38-34.89 46.92l-1.45.45 40.01 60.1h-34.99Zm-62.7-83.58h39.85c13.3 0 23.33-10.21 23.33-23.74S593.1 41.96 579.8 41.96h-39.85v47.47ZM706.43 175.9c-32.48 0-56.98-26.26-56.98-61.08s24.5-61.01 56.98-61.01c15 0 28.1 5.68 37.88 16.42l1.97 2.17V56.62h28.04v116.49h-28.04v-15.77l-1.97 2.15c-9.85 10.74-22.95 16.42-37.88 16.42Zm5.82-95.06c-19.27 0-33.8 14.6-33.8 33.97s14.53 33.97 33.8 33.97 34.03-14.6 34.03-33.97-14.63-33.97-34.03-33.97ZM965.45 173.02V105.9c0-15.27-9.59-25.14-24.44-25.14-15.63 0-26.14 10.28-26.14 25.58v66.6h-28.04v-67.12c0-15.04-9.82-25.14-24.44-25.14-15.52 0-26.35 10.52-26.35 25.58v66.6h-28.05V56.53h28.12v14.23l1.98-2.24c8.67-9.81 20.25-14.78 34.4-14.78 16.23 0 29.64 7.25 36.77 19.89l.88 1.57 1.03-1.47c9.16-13.07 22.94-19.98 39.85-19.98 25.79 0 42.45 16.92 42.45 43.12v76.17h-28.04ZM1023.56 217.27V56.53h28.04V72.3l1.97-2.15c9.85-10.74 22.95-16.42 37.88-16.42 32.32 0 56.68 26.23 56.68 61.01s-24.37 61.08-56.68 61.08c-15 0-28.1-5.68-37.88-16.42l-1.97-2.17v60.03h-28.04Zm61.77-136.43c-19.27 0-33.81 14.6-33.81 33.97s14.53 33.97 33.81 33.97 33.8-14.6 33.8-33.97-14.53-33.97-33.8-33.97Z"
    class="cls-1" />
</svg>