<svg xmlns="http://www.w3.org/2000/svg" xmlns:xlink="http://www.w3.org/1999/xlink" width="140" height="36.984" viewBox="0 0 140 36.984">
  <defs>
    <linearGradient id="linear-gradient" x1="-0.033" y1="-0.012" x2="1.038" y2="0.807" gradientUnits="objectBoundingBox">
      <stop offset="0.13" stop-color="#3495f7"/>
      <stop offset="0.306" stop-color="#2b87f2"/>
      <stop offset="0.639" stop-color="#1461e5"/>
      <stop offset="0.723" stop-color="#0e57e1"/>
    </linearGradient>
    <linearGradient id="linear-gradient-2" y1="0.5" x2="1" y2="0.5" gradientUnits="objectBoundingBox">
      <stop offset="0" stop-color="#3495f7"/>
      <stop offset="0.494" stop-color="#1461e5"/>
      <stop offset="1" stop-color="#0e57e1"/>
    </linearGradient>
  </defs>
  <g id="transak_logo" data-name="transak logo" transform="translate(0 0)">
    <g id="logo_4_">
      <path id="Path_120" data-name="Path 120" d="M168.791,198.685H138.574a3.071,3.071,0,0,1-3.074-3.076V164.776a3.071,3.071,0,0,1,3.074-3.076H168.8a3.071,3.071,0,0,1,3.074,3.076v30.832A3.078,3.078,0,0,1,168.791,198.685Z" transform="translate(-135.5 -161.7)" fill="url(#linear-gradient)"/>
      <path id="Path_121" data-name="Path 121" d="M432.18,451.6v11.509a3.071,3.071,0,0,1-3.076,3.071H417.6Z" transform="translate(-395.806 -429.2)" fill="#2970e2"/>
      <g id="Group_93" data-name="Group 93" transform="translate(3.824 10.314)">
        <g id="Group_88" data-name="Group 88" transform="translate(6.251)">
          <g id="Group_85" data-name="Group 85" transform="translate(0.515 0.2)">
            <path id="Path_122" data-name="Path 122" d="M274.18,309.521l10.732-11.157a2.061,2.061,0,0,1,2.957.093l6.208,5.981a1.959,1.959,0,0,1,.029,2.554c-.8.8-1.692.854-2.9.034l-4.5-4.868-11.3,10.752a2.049,2.049,0,0,1-2.717.313c-.41-.552.4-1.621.085-1.938Z" transform="translate(-272.57 -297.783)" fill="#d1d9e6"/>
          </g>
          <g id="Group_86" data-name="Group 86">
            <path id="Path_123" data-name="Path 123" d="M267.541,310.884a1.55,1.55,0,0,1-1.641-1.338l.054-12.759a1.666,1.666,0,0,1,3.33.132v12.656A1.548,1.548,0,0,1,267.541,310.884Z" transform="translate(-265.9 -295.2)" fill="#d1d9e6"/>
          </g>
          <g id="Group_87" data-name="Group 87" transform="translate(12.54 1.336)">
            <path id="Path_124" data-name="Path 124" d="M429.817,327.182a1.513,1.513,0,0,1-1.616-1.5v-11.7a1.691,1.691,0,0,1,3.354-.034v11.567A1.636,1.636,0,0,1,429.817,327.182Z" transform="translate(-428.2 -312.489)" fill="#d1d9e6"/>
          </g>
        </g>
        <g id="Group_92" data-name="Group 92" transform="translate(0 0.138)">
          <g id="Group_89" data-name="Group 89" transform="translate(6.251)">
            <path id="Path_125" data-name="Path 125" d="M267.15,312.674a1.329,1.329,0,0,1-1.25-1.338V298.582c0-.7.549-1.562,1.25-1.592.735-.034,1.355.815,1.355,1.563v12.822A1.3,1.3,0,0,1,267.15,312.674Z" transform="translate(-265.9 -296.989)" fill="#fff"/>
          </g>
          <g id="Group_90" data-name="Group 90" transform="translate(18.745 0.387)">
            <path id="Path_126" data-name="Path 126" d="M428.9,317.43a1.546,1.546,0,0,1-1.3-1.562V303.3a1.306,1.306,0,0,1,2.612,0v12.573C430.2,316.585,429.621,317.43,428.9,317.43Z" transform="translate(-427.6 -302)" fill="#fff"/>
          </g>
          <g id="Group_91" data-name="Group 91" transform="translate(0 0.309)">
            <path id="Path_127" data-name="Path 127" d="M192.546,316.239a1.629,1.629,0,0,1-1.167-.483l-5.911-5.927a1.656,1.656,0,1,1,2.349-2.334l4.758,4.79,11.389-10.84a1.648,1.648,0,0,1,2.288.01l6.2,5.977a1.656,1.656,0,0,1-2.295,2.388l-5.061-4.873-11.411,10.84A1.638,1.638,0,0,1,192.546,316.239Z" transform="translate(-184.988 -300.988)" fill="#fff"/>
          </g>
        </g>
        <path id="Path_128" data-name="Path 128" d="M414.956,363.113l-.718.679s.2-1.138-.381-.586.9-1.406.9-1.406l.3.376Z" transform="translate(-396.05 -356.656)" fill="#fff"/>
        <path id="Path_129" data-name="Path 129" d="M461.02,366.264s.039-.693.8.5v-.937L461,365.4Z" transform="translate(-439.676 -359.978)" fill="#fff"/>
        <path id="Path_130" data-name="Path 130" d="M299.329,416.525s.107.771.786-.225v.938l-.815.425Z" transform="translate(-290.469 -406.943)" fill="#fff"/>
      </g>
    </g>
    <path id="Path_131" data-name="Path 131" d="M719.79,334.259l.166.049c.02.439.039,1.27.039,2.48,0,.078-.117.107-.352.107h-1.592c-.146,0-.225.117-.225.352v9.487c0,.015-.039.034-.1.083a.212.212,0,0,1-.127.063h-2.891l-.137-.112q-.044-.051-.049-8.643v-1.143q-2.227,0-2.227-.278v-2.358c0-.015.049-.044.156-.107h3.3a2.228,2.228,0,0,1,.313.059c.029,0,.049-.02.049-.059h3.672Zm4.551-.034h5.088a4.326,4.326,0,0,1,3.086,1.274,4.069,4.069,0,0,1,1.328,3.042,3.842,3.842,0,0,1-.771,2.388,4.99,4.99,0,0,1-2.109,1.563c-.039,0-.049.034-.049.093v.015a.059.059,0,0,1,.01.039l3.145,3.843a1.11,1.11,0,0,1,.107.2,1.519,1.519,0,0,0,.078.156c.02.029.039.049.039.059,0,.039-.205.068-.615.1s-.664.044-.811.044c-.1,0-.166-.015-.2-.054H730.7a.432.432,0,0,1-.312-.2l-2.559-3.013a.911.911,0,0,1-.068-.093.555.555,0,0,0-.117-.107.194.194,0,0,0-.107-.039c-.02,0-.049.078-.088.239v2.983c0,.1-.039.146-.107.146h-2.51a.54.54,0,0,1-.439-.146,1.057,1.057,0,0,1-.146-.5q0-1.633.029-4.146c.02-1.68.039-2.935.039-3.779,0-.132-.01-.625-.02-1.47l-.039-1.27A8.9,8.9,0,0,1,724.341,334.225Zm6.191,4.277a1.632,1.632,0,0,0-.244-.9,2.111,2.111,0,0,0-1.914-.718c-.166,0-.43.01-.762.039l-.166.181c0,.161-.01.41-.02.747s-.02.62-.029.85-.01.405-.01.5c0,.82.078,1.279.234,1.387h.2a4.379,4.379,0,0,0,2.129-.43C730.347,339.9,730.532,339.356,730.532,338.5Zm11.934-4.424h2.188c.068,0,.244.342.537,1.011a9.016,9.016,0,0,1,.42,1.123q.4,1.011,4.18,10.273a.3.3,0,0,1-.225.322,3.038,3.038,0,0,1-.82.068l-.928-.02c-.625-.015-1.094-.015-1.406-.015-.029-.078-.088-.2-.156-.386s-.127-.327-.166-.425c-.059-.1-.117-.225-.205-.371a2.116,2.116,0,0,0-.283-.4c-.078,0-.244-.02-.508-.049a6.166,6.166,0,0,0-.7-.044l-2.295.034c-.049,0-.146,0-.332-.01s-.283-.02-.293-.02c-.225,0-.41.288-.576.864a2.218,2.218,0,0,1-.4.977,11.035,11.035,0,0,1-1.221-.034c-.488-.029-.889-.044-1.221-.044-.518,0-.771-.078-.771-.225a.351.351,0,0,1,.01-.093v-.078l1.064-3.086a11.729,11.729,0,0,0,.586-1.44c.225-.635.371-1.025.439-1.177.244-.63.654-1.694,1.25-3.184s1.045-2.622,1.357-3.433C742.007,334.122,742.163,334.078,742.466,334.078Zm.2,8.584h.479c.879-.024,1.318-.078,1.318-.146a6.926,6.926,0,0,0-.566-1.68,4.979,4.979,0,0,0-.264-.586l-.234-.571a4.686,4.686,0,0,0-.615,1.27,7.233,7.233,0,0,0-.527,1.489C742.251,342.584,742.388,342.662,742.661,342.662Zm21.865-1.528c0,.024-.01.073-.02.161a2.281,2.281,0,0,0-.039.254l-.01.107c0,.527.01,1.323.029,2.373s.049,1.841.049,2.358c0,.352-.078.532-.225.532h-2.392a.507.507,0,0,1-.43-.2l-2.266-3.384a.988.988,0,0,0-.146-.244.751.751,0,0,1-.156-.181l-1.855-2.681-.225-.244-.029.083a53.327,53.327,0,0,1-.166,6.816h-2.9l-.117-.049c0-.947.02-2.568.039-4.873s.039-4,.039-5.122c0-.84-.02-1.484-.039-1.914l.078-.532.371-.078,2.314.078c.059,0,.137.063.225.186a.861.861,0,0,1,.156.293l1.738,2.5a2.32,2.32,0,0,0,.137.21,1.194,1.194,0,0,1,.137.21l2.373,3.252c.049.088.088.132.146.132s.059-.015.059-.054v-6.636l.107-.093a6.809,6.809,0,0,1,.781-.015,10.757,10.757,0,0,1,2.177.078l.078.107v6.567Zm9.658,1.714a4.715,4.715,0,0,0-.7-.562c-.293-.2-.625-.4-1.006-.61-.361-.22-.6-.356-.684-.42a4.316,4.316,0,0,1-2.373-3.643,3.044,3.044,0,0,1,1.26-2.666,5.522,5.522,0,0,1,3.223-.879,5.926,5.926,0,0,1,2.188.439,6.881,6.881,0,0,1,.654.3c.3.142.449.254.449.308l-.01.093c0,.015-.02.029-.049.063a.34.34,0,0,0-.029.083,13.1,13.1,0,0,1-1.1,1.914.1.1,0,0,1-.1.059,6.7,6.7,0,0,1-.84-.3,3.66,3.66,0,0,0-1.2-.3,1.441,1.441,0,0,0-.762.225.692.692,0,0,0-.342.61,1.242,1.242,0,0,0,.547.938c.254.181.732.508,1.475.972.156.107.361.254.625.435s.449.313.605.42a4.373,4.373,0,0,1,.488.391,2.6,2.6,0,0,1,.469.449,3.54,3.54,0,0,1,.586,1.025,3.413,3.413,0,0,1,.156,1.118,3.583,3.583,0,0,1-1.3,2.847,4.69,4.69,0,0,1-3.115,1.108,7.434,7.434,0,0,1-3.691-.957c-.518-.312-.771-.508-.771-.571v-.078c.547-.981.986-1.738,1.348-2.275a1.02,1.02,0,0,1,.586.249,2.706,2.706,0,0,0,.4.278,4.735,4.735,0,0,0,2.227.5c.723,0,1.074-.269,1.074-.811A1.017,1.017,0,0,0,774.184,342.848Zm12.2-8.77h2.188a3.255,3.255,0,0,1,.518,1.011,7.687,7.687,0,0,1,.439,1.123q.381,1.011,4.17,10.273a.3.3,0,0,1-.225.322,3.048,3.048,0,0,1-.811.068l-.928-.02c-.635-.015-1.1-.015-1.426-.015-.02-.078-.068-.2-.137-.386s-.137-.327-.186-.425a2.551,2.551,0,0,0-.2-.371,2.071,2.071,0,0,0-.273-.4c-.088,0-.254-.02-.518-.049a6.139,6.139,0,0,0-.693-.044l-2.295.034c-.049,0-.156,0-.342-.01s-.283-.02-.293-.02c-.225,0-.41.288-.576.864a2.218,2.218,0,0,1-.4.977,11.091,11.091,0,0,1-1.221-.034c-.479-.029-.879-.044-1.211-.044-.527,0-.781-.078-.781-.225a.351.351,0,0,1,.01-.093.275.275,0,0,0,.01-.078l1.064-3.086a13.544,13.544,0,0,0,.586-1.44c.215-.635.361-1.025.42-1.177.254-.63.674-1.694,1.27-3.184s1.045-2.622,1.348-3.433C785.922,334.122,786.079,334.078,786.381,334.078Zm.186,8.584h.479c.879-.024,1.318-.078,1.318-.146a6.277,6.277,0,0,0-.576-1.68,4.17,4.17,0,0,0-.254-.586l-.234-.571a4.686,4.686,0,0,0-.615,1.27,7.233,7.233,0,0,0-.527,1.489C786.157,342.584,786.293,342.662,786.567,342.662ZM800.288,334c.381,0,.566.068.566.2v3.755c0,.127.02.186.049.186.078,0,.186-.078.322-.239a6.4,6.4,0,0,0,.391-.537,2.364,2.364,0,0,1,.313-.4l2.051-2.793a.344.344,0,0,1,.264-.112h2.725l.43.083c.029,0,.049.02.049.078a.21.21,0,0,1-.049.161l-.781,1.25-.107.078-2.363,3.145a.24.24,0,0,0-.049.146.5.5,0,0,0,.049.22l3.574,7.378v.049l.02.054c0,.21-.371.313-1.1.313-.439,0-.937-.015-1.5-.054s-.889-.054-.947-.054l-.127-.1c-.078-.073-.762-1.489-2.07-4.243a2.55,2.55,0,0,0-.254-.591c-.039,0-.176.171-.43.518a6.472,6.472,0,0,0-.42.61c0,.225,0,.581.01,1.069s.01.947.01,1.372c0,.874-.107,1.323-.3,1.362-.234,0-.547,0-.918.029s-.615.029-.762.029a5.2,5.2,0,0,1-.83-.078c-.361-.044-.537-.088-.537-.127v-6.328c.078-.591.107-.928.107-1.011,0-.552-.029-1.377-.078-2.485s-.078-1.924-.078-2.466c0-.22.049-.352.146-.4C798.305,334.02,799.165,334,800.288,334Z" transform="translate(-667.738 -320.687)" fill="url(#linear-gradient-2)"/>
  </g>
</svg>
