<svg id="ramp" xmlns="http://www.w3.org/2000/svg" width="137.333" height="32" viewBox="0 0 137.333 32">
  <path id="Path_24" data-name="Path 24" d="M34.443,18.831l-6.059,6.081a1.324,1.324,0,0,0,0,1.867l4.63,4.637a2.052,2.052,0,0,0,2.868,0L50.075,17.409a1.989,1.989,0,0,0,0-2.831L35.884.584a2.053,2.053,0,0,0-2.868,0l-4.63,4.637a1.324,1.324,0,0,0,0,1.867l6.059,6.081A3.977,3.977,0,0,1,34.443,18.831Z" fill="#0a6e5c"/>
  <path id="Path_25" data-name="Path 25" d="M16.223,18.831l6.059,6.081a1.324,1.324,0,0,1,0,1.867l-4.63,4.637a2.052,2.052,0,0,1-2.868,0L.592,17.409a1.989,1.989,0,0,1,0-2.831L14.783.584a2.053,2.053,0,0,1,2.868,0l4.63,4.637a1.324,1.324,0,0,1,0,1.867l-6.059,6.081A3.977,3.977,0,0,0,16.223,18.831Z" fill="#21bf73"/>
  <path id="Path_26" data-name="Path 26" d="M17.813,17.157a1.636,1.636,0,0,1,0-2.314l6.364-6.364a1.636,1.636,0,0,1,2.314,0l6.364,6.364a1.636,1.636,0,0,1,0,2.314L26.49,23.521a1.636,1.636,0,0,1-2.314,0Z" fill="#21bf73"/>
  <path id="Path_27" data-name="Path 27" d="M77.805,25.6H73.283l-2.494-6.524A1.885,1.885,0,0,0,69.857,18a3.413,3.413,0,0,0-1.535-.3H65.554v7.9H61.333V6h8.688a7.782,7.782,0,0,1,5.153,1.487,5.283,5.283,0,0,1,1.754,4.267,5.479,5.479,0,0,1-1.041,3.359,5.54,5.54,0,0,1-2.933,2.009,3.409,3.409,0,0,1,2.494,2.4ZM69.391,14.424a4.691,4.691,0,0,0,2.686-.606,2.278,2.278,0,0,0,.85-1.955,2.2,2.2,0,0,0-.85-1.927A4.53,4.53,0,0,0,69.391,9.3H65.5v5.12Z" fill="#ddd8d0"/>
  <path id="Path_28" data-name="Path 28" d="M94.386,11.643V25.6H90.3V23.536a4.381,4.381,0,0,1-1.781,1.679,5.506,5.506,0,0,1-2.6.606,5.887,5.887,0,0,1-3.207-.881,6.059,6.059,0,0,1-2.165-2.505,8.923,8.923,0,0,1-.767-3.8,9.11,9.11,0,0,1,.767-3.826,6.116,6.116,0,0,1,2.193-2.588,5.582,5.582,0,0,1,3.179-.936,5.312,5.312,0,0,1,2.6.633A4.571,4.571,0,0,1,90.3,13.625V11.643ZM87.124,22.655a2.821,2.821,0,0,0,2.357-1.046,4.815,4.815,0,0,0,.822-3.028,4.816,4.816,0,0,0-.822-3.028,2.791,2.791,0,0,0-2.357-1.074,2.839,2.839,0,0,0-2.384,1.1,4.894,4.894,0,0,0-.85,3.056,4.765,4.765,0,0,0,.822,3A2.965,2.965,0,0,0,87.124,22.655Z" fill="#ddd8d0"/>
  <path id="Path_29" data-name="Path 29" d="M114.719,11.285a4.228,4.228,0,0,1,3.536,1.459,6.852,6.852,0,0,1,1.178,4.4V25.6h-4.138V17.287a3.612,3.612,0,0,0-.466-2.092,1.747,1.747,0,0,0-1.535-.661,2.322,2.322,0,0,0-1.946.881,3.951,3.951,0,0,0-.685,2.477V25.6h-4.139V17.287a3.524,3.524,0,0,0-.493-2.092,1.714,1.714,0,0,0-1.507-.661,2.4,2.4,0,0,0-1.974.881,3.957,3.957,0,0,0-.685,2.477V25.6H97.727V15.635a32.586,32.586,0,0,0-.219-3.992H101.4l.247,2.092a4.416,4.416,0,0,1,1.754-1.817,5.369,5.369,0,0,1,2.631-.633,3.983,3.983,0,0,1,4.111,2.588A5.018,5.018,0,0,1,112.033,12,5.259,5.259,0,0,1,114.719,11.285Z" fill="#ddd8d0"/>
  <path id="Path_30" data-name="Path 30" d="M131.194,11.285a5.584,5.584,0,0,1,3.18.936,5.945,5.945,0,0,1,2.165,2.588,8.839,8.839,0,0,1,.794,3.826,8.917,8.917,0,0,1-.767,3.8A5.806,5.806,0,0,1,134.4,24.94a5.888,5.888,0,0,1-3.207.881,5.5,5.5,0,0,1-2.6-.606,4.2,4.2,0,0,1-1.754-1.679V32H122.7V15.635a32.63,32.63,0,0,0-.219-3.992h3.892l.274,2.312A4.213,4.213,0,0,1,128.4,12,5.466,5.466,0,0,1,131.194,11.285Zm-1.178,11.369a2.854,2.854,0,0,0,2.357-1.019,4.765,4.765,0,0,0,.822-3,4.89,4.89,0,0,0-.85-3.056,2.735,2.735,0,0,0-2.329-1.1,2.87,2.87,0,0,0-2.385,1.074,4.816,4.816,0,0,0-.822,3.028,4.816,4.816,0,0,0,.822,3.028A2.9,2.9,0,0,0,130.016,22.655Z" fill="#ddd8d0"/>
</svg>
