<svg xmlns="http://www.w3.org/2000/svg" width="184" height="63" viewBox="0 0 184 63">
  <g fill="none">
    <g fill="#292840" transform="translate(102.435 17.272)">
      <path d="M18.8558018 21.3747066L14.105867 21.3747066 7.94054759 14.3217731 4.10221643 14.3217731 4.10221643 21.3747066.119947849 21.3747066.119947849.215906128C3.47848761.215906128 6.81303781.239895698 10.1715776.239895698 15.1614081.263885267 17.7762712 3.59843546 17.7762712 7.24485007 17.7762712 10.147588 16.4568449 13.0743155 12.4265971 13.8899609L18.8318123 21.1108214 18.8318123 21.3747066 18.8558018 21.3747066zM4.126206 3.95827901L4.126206 10.7233377 10.1955671 10.7233377C12.7384615 10.7233377 13.8179922 9.0440678 13.8179922 7.34080834 13.8179922 5.66153846 12.6904824 3.95827901 10.1955671 3.95827901L4.126206 3.95827901zM32.0260756 6.5011734L35.5525424 6.5011734 35.5525424 21.3747066 32.0740548 21.3747066 31.8821382 19.1916558C31.0425033 20.9428944 28.715515 21.7825293 27.0602347 21.8065189 22.6461538 21.8305085 19.3835724 19.1196871 19.3835724 13.8899609 19.3835724 8.75619296 22.7900913 6.06936115 27.1322034 6.09335072 29.1233377 6.09335072 31.0185137 7.02894394 31.8821382 8.51629726L32.0260756 6.5011734zM23.0779661 13.93794C23.0779661 16.7687093 25.0451108 18.4719687 27.4920469 18.4719687 33.2975228 18.4719687 33.2975228 9.45189048 27.4920469 9.45189048 25.0451108 9.42790091 23.0779661 11.0831812 23.0779661 13.93794zM48.5788787 21.3747066L48.5788787 13.4101695C48.5788787 11.4430248 47.5473272 9.66779661 45.5322034 9.66779661 43.5410691 9.66779661 42.3655802 11.4430248 42.3655802 13.4101695L42.3655802 21.3747066 38.6711864 21.3747066 38.6711864 6.47718383 42.0777053 6.47718383 42.3415906 8.30039113C43.1332464 6.78904824 44.8365059 6.23728814 46.2758801 6.23728814 48.0511082 6.23728814 49.8503259 6.95697523 50.6899609 9.02007823 52.0093872 6.90899609 53.7366362 6.30925684 55.6797914 6.30925684 59.9019557 6.30925684 61.9890482 8.90013038 61.9890482 13.3621904L61.9890482 21.3986962 58.2946545 21.3986962 58.2946545 13.3621904C58.2946545 11.3950456 57.4790091 9.73976532 55.4878748 9.73976532 53.4967405 9.73976532 52.2492829 11.4670143 52.2492829 13.4341591L52.2492829 21.3986962 48.5788787 21.3986962 48.5788787 21.3747066zM65.4195567 27.6119948L65.4195567 6.5011734 68.8500652 6.5011734 69.0899609 8.5642764C70.2414602 6.90899609 72.2325945 6.189309 73.9118644 6.189309 78.4938722 6.189309 81.5405476 9.5958279 81.5405476 13.9859192 81.5405476 18.3280313 78.7817471 21.7825293 74.0318123 21.7825293 72.4724902 21.7825293 70.145502 21.3027379 69.0899609 19.6714472L69.0899609 27.6359844 65.4195567 27.6359844 65.4195567 27.6119948zM77.8701434 13.9619296C77.8701434 11.6349413 76.3108214 9.73976532 73.6479791 9.73976532 70.9851369 9.73976532 69.4258149 11.6349413 69.4258149 13.9619296 69.4258149 16.2889179 71.1530639 18.1840939 73.6479791 18.1840939 76.166884 18.1840939 77.8701434 16.2889179 77.8701434 13.9619296z"/>
    </g>
    <path fill="#56BE89" d="M31.3063885,36.6800522 L44.884485,50.2581486 L34.0411995,61.1014342 C32.5298566,62.6127771 30.0589309,62.6127771 28.547588,61.1014342 L1.36740548,33.9212516 C-0.143937419,32.4099087 -0.143937419,29.9389831 1.36740548,28.4276402 L28.547588,1.2714472 C30.0589309,-0.239895698 32.5298566,-0.239895698 34.0411995,1.2714472 L44.884485,12.1147327 L31.3063885,25.6928292 C28.2837027,28.715515 28.2837027,33.6573664 31.3063885,36.6800522 Z"/>
    <path fill="#56BE89" d="M61.221382,33.9212516 L47.6432855,47.4993481 L34.065189,33.9212516 C32.5538462,32.4099087 32.5538462,29.9389831 34.065189,28.4276402 L47.6432855,14.8495437 L61.221382,28.4276402 C62.7327249,29.9629726 62.7327249,32.4099087 61.221382,33.9212516 Z"/>
    <path fill="#31335D" d="M93.895176,33.9212516 L66.7149935,61.1014342 C65.2036506,62.6127771 62.7327249,62.6127771 61.221382,61.1014342 L50.3780965,50.2581486 L63.956193,36.6800522 C66.9788787,33.6573664 66.9788787,28.7395046 63.956193,25.6928292 L50.3780965,12.1147327 L61.221382,1.2714472 C62.7327249,-0.239895698 65.2036506,-0.239895698 66.7149935,1.2714472 L93.895176,28.4516297 C95.4065189,29.9629726 95.4065189,32.4099087 93.895176,33.9212516 Z"/>
  </g>
</svg>
