<svg xmlns="http://www.w3.org/2000/svg" xmlns:xlink="http://www.w3.org/1999/xlink" width="111.98" height="128.468" viewBox="0 0 111.98 128.468">
  <defs>
    <linearGradient id="linear-gradient" x1="0.5" y1="0.049" x2="0.5" y2="0.959" gradientUnits="objectBoundingBox">
      <stop offset="0" stop-color="#3e436b"/>
      <stop offset="1" stop-color="#2d314d"/>
    </linearGradient>
    <filter id="Path_1781" x="0" y="1.257" width="111.98" height="127.211" filterUnits="userSpaceOnUse">
      <feOffset dy="10" input="SourceAlpha"/>
      <feGaussianBlur stdDeviation="3" result="blur"/>
      <feFlood flood-opacity="0.161"/>
      <feComposite operator="in" in2="blur"/>
      <feComposite in="SourceGraphic"/>
    </filter>
    <linearGradient id="linear-gradient-2" x1="0.155" y1="0.839" x2="0.893" y2="-0.346" gradientUnits="objectBoundingBox">
      <stop offset="0" stop-color="#6000ff"/>
      <stop offset="0.198" stop-color="#6507ff"/>
      <stop offset="0.493" stop-color="#711cff"/>
      <stop offset="0.848" stop-color="#863dff"/>
      <stop offset="1" stop-color="#904dff"/>
    </linearGradient>
  </defs>
  <g id="Beta_testers" transform="translate(7.734)">
    <g id="Group_477" data-name="Group 477">
      <g id="Group_476" data-name="Group 476">
        <g transform="matrix(1, 0, 0, 1, -7.73, 0)" filter="url(#Path_1781)">
          <path id="Path_1781-2" data-name="Path 1781" d="M278.88,451.6a47,47,0,0,1-46.99-46.99V368.222a13.74,13.74,0,0,1,9.135-12.931l33.816-11.247a12.807,12.807,0,0,1,8.079,0L316.761,355.3a13.733,13.733,0,0,1,9.11,12.923v36.389a47,47,0,0,1-46.99,46.99Z" transform="translate(-222.89 -342.13)" fill="url(#linear-gradient)"/>
        </g>
        <path id="Path_1782" data-name="Path 1782" d="M278.636,344.4a11.729,11.729,0,0,1,3.646.587L316.1,356.238a12.487,12.487,0,0,1,8.28,11.741v36.389a45.733,45.733,0,1,1-91.466,0V367.979a12.5,12.5,0,0,1,8.272-11.741L275,344.991a11.6,11.6,0,0,1,3.637-.587m0-2.514a14.125,14.125,0,0,0-4.442.721l-33.841,11.255a14.984,14.984,0,0,0-9.973,14.113v36.389a48.26,48.26,0,0,0,21.664,40.269h0a48.233,48.233,0,0,0,53.167,0h0a48.249,48.249,0,0,0,21.664-40.269V367.979a14.976,14.976,0,0,0-9.973-14.113l-33.841-11.255a13.944,13.944,0,0,0-4.425-.721Z" transform="translate(-230.38 -341.89)" fill="#6770b3"/>
      </g>
    </g>
    <g id="Group_493" data-name="Group 493" transform="translate(29.496 17.557)">
      <g id="Group_479" data-name="Group 479" transform="translate(0 9.411)">
        <g id="Group_478" data-name="Group 478">
          <path id="Path_1783" data-name="Path 1783" d="M289.758,389.189V377.4a.562.562,0,0,1,.562-.562h0a.841.841,0,0,0,.838-.838v-1.089a.841.841,0,0,0-.838-.838H278.343a.841.841,0,0,0-.838.838V376a.841.841,0,0,0,.838.838h0a.562.562,0,0,1,.562.562v11.792a18.743,18.743,0,1,0,10.853,0Z" transform="translate(-265.576 -374.07)" fill="#98a1ed"/>
        </g>
        <path id="Path_1784" data-name="Path 1784" d="M297.791,396.655a19.093,19.093,0,0,1,6.931,11.716l-3.872.494-2.229-2.3a31.655,31.655,0,0,0-6.671-12.789A34.824,34.824,0,0,1,297.791,396.655Z" transform="translate(-269.847 -377.262)" fill="#ebecff"/>
        <path id="Path_1785" data-name="Path 1785" d="M284.235,409.88c-8,2.112-13.091.67-17.893-2.64a18.744,18.744,0,1,0,36.732,5.263C300.619,410.215,295.825,406.813,284.235,409.88Z" transform="translate(-265.577 -379.441)" fill="url(#linear-gradient-2)"/>
        <path id="Path_1786" data-name="Path 1786" d="M297.162,409.03a19.319,19.319,0,0,1,.327,3.5,19.067,19.067,0,0,1-14.549,18.521,17.937,17.937,0,0,0,3.017.453A18.751,18.751,0,0,0,305.9,412.793,13.8,13.8,0,0,0,297.162,409.03Z" transform="translate(-268.388 -379.731)" fill="#ae60ff"/>
        <path id="Path_1787" data-name="Path 1787" d="M300.451,410.542a16.467,16.467,0,0,1,.126,1.944,16.25,16.25,0,1,1-32.5,0,16.03,16.03,0,0,1,.486-3.88,24.728,24.728,0,0,1-2.221-1.366,18.744,18.744,0,1,0,36.732,5.263A14.1,14.1,0,0,0,300.451,410.542Z" transform="translate(-265.577 -379.441)" fill="#40169b"/>
      </g>
      <g id="Group_492" data-name="Group 492" transform="translate(4.604)">
        <g id="Group_491" data-name="Group 491">
          <g id="Group_480" data-name="Group 480" transform="translate(3.813 37.889)">
            <circle id="Ellipse_151" data-name="Ellipse 151" cx="3.444" cy="3.444" r="3.444" fill="#ae50ff"/>
          </g>
          <g id="Group_481" data-name="Group 481" transform="translate(12.931 31.134)">
            <circle id="Ellipse_152" data-name="Ellipse 152" cx="2.598" cy="2.598" r="2.598" fill="#ae50ff"/>
          </g>
          <g id="Group_482" data-name="Group 482" transform="translate(19.25 34.436)">
            <circle id="Ellipse_153" data-name="Ellipse 153" cx="1.14" cy="1.14" r="1.14" fill="#ae50ff"/>
          </g>
          <g id="Group_483" data-name="Group 483" transform="translate(13.216 21.429)">
            <circle id="Ellipse_154" data-name="Ellipse 154" cx="1.14" cy="1.14" r="1.14" fill="#ae50ff"/>
          </g>
          <g id="Group_484" data-name="Group 484" transform="translate(25.93 10.275)">
            <circle id="Ellipse_155" data-name="Ellipse 155" cx="1.14" cy="1.14" r="1.14" fill="#c792ff"/>
          </g>
          <g id="Group_485" data-name="Group 485" transform="translate(0 9.411)">
            <circle id="Ellipse_156" data-name="Ellipse 156" cx="1.249" cy="1.249" r="1.249" fill="#c792ff"/>
          </g>
          <g id="Group_486" data-name="Group 486" transform="translate(13.803)">
            <circle id="Ellipse_157" data-name="Ellipse 157" cx="0.872" cy="0.872" r="0.872" fill="#c792ff"/>
          </g>
          <g id="Group_487" data-name="Group 487" transform="translate(4.609 2.288)">
            <circle id="Ellipse_158" data-name="Ellipse 158" cx="1.542" cy="1.542" r="1.542" fill="#ae50ff"/>
          </g>
          <g id="Group_488" data-name="Group 488" transform="translate(11.465 15.747)">
            <circle id="Ellipse_159" data-name="Ellipse 159" cx="1.81" cy="1.81" r="1.81" fill="#ae50ff"/>
          </g>
          <g id="Group_489" data-name="Group 489" transform="translate(20.809 4.475)">
            <circle id="Ellipse_160" data-name="Ellipse 160" cx="1.81" cy="1.81" r="1.81" fill="#ae50ff"/>
          </g>
          <g id="Group_490" data-name="Group 490" transform="translate(10.325 4.492)">
            <circle id="Ellipse_161" data-name="Ellipse 161" cx="2.715" cy="2.715" r="2.715" fill="#ae50ff"/>
          </g>
        </g>
      </g>
      <path id="Path_1788" data-name="Path 1788" d="M289.758,389.189V377.4a.562.562,0,0,1,.562-.562h0a.841.841,0,0,0,.838-.838v-1.089a.841.841,0,0,0-.838-.838H278.343a.841.841,0,0,0-.838.838V376a.841.841,0,0,0,.838.838h0a.562.562,0,0,1,.562.562v11.792a18.743,18.743,0,1,0,10.853,0Z" transform="translate(-265.576 -364.659)" fill="none" stroke="#24263d" stroke-linecap="round" stroke-linejoin="round" stroke-width="1"/>
    </g>
    <g id="Group_494" data-name="Group 494" transform="translate(30.529 82.346)">
      <text id="x1.25" transform="translate(0 15)" fill="#ebecff" font-size="14" font-family="Poppins" font-weight="600"><tspan x="0" y="0">x1.25</tspan></text>
    </g>
  </g>
</svg>
