<svg xmlns="http://www.w3.org/2000/svg" width="30" height="30" viewBox="0 0 30 30">
  <g id="Twitter_icon" data-name="Twitter icon" transform="translate(-28 -225)">
    <rect id="Boundary" width="30" height="30" rx="13" transform="translate(28 255) rotate(-90)" fill="#1e2033" opacity="0"/>
    <path id="Path_1573" data-name="Path 1573" d="M18271.3,18381.25a10.283,10.283,0,0,1-5.645-1.672,7.258,7.258,0,0,0,.875.055,7.431,7.431,0,0,0,4.594-1.574,3.692,3.692,0,0,1-3.449-2.566,3.458,3.458,0,0,0,.7.074,3.588,3.588,0,0,0,.973-.137,3.709,3.709,0,0,1-2.961-3.617v-.043a3.561,3.561,0,0,0,1.662.453,3.709,3.709,0,0,1-1.145-4.918,10.5,10.5,0,0,0,7.609,3.855,3.351,3.351,0,0,1-.1-.844,3.7,3.7,0,0,1,3.7-3.684,3.643,3.643,0,0,1,2.686,1.16,7.417,7.417,0,0,0,2.344-.895,3.683,3.683,0,0,1-1.617,2.043,7.451,7.451,0,0,0,2.113-.586,7.421,7.421,0,0,1-1.838,1.922c.008.152.008.3.008.477a10.875,10.875,0,0,1-2.709,7.074A10.042,10.042,0,0,1,18271.3,18381.25Z" transform="translate(-18231.248 -18133.43)" fill="#ebecff"/>
  </g>
</svg>
