<svg xmlns="http://www.w3.org/2000/svg" width="30" height="30" viewBox="0 0 30 30">
  <g id="Telegram_icon" data-name="Telegram icon" transform="translate(-28 -275)">
    <rect id="Boundary" width="30" height="30" rx="13" transform="translate(28 305) rotate(-90)" fill="#1e2033" opacity="0"/>
    <path id="Path_1574" data-name="Path 1574" d="M18280.344,18383.5a1.254,1.254,0,0,1-.609-.191l-3.746-2.758-1.809,1.742-.023.018a.912.912,0,0,1-.734.35l.266-3.818,6.949-6.277c.09-.08.125-.154.105-.211s-.086-.078-.172-.078a.744.744,0,0,0-.4.139l-8.59,5.4-3.7-1.156c-.367-.117-.586-.3-.594-.508,0-.24.27-.49.758-.684l14.461-5.576a1.1,1.1,0,0,1,.363-.066.68.68,0,0,1,.547.248,1.179,1.179,0,0,1,.137,1l-2.461,11.6C18280.969,18383.219,18280.719,18383.5,18280.344,18383.5Z" transform="translate(-18233.184 -18085.797)" fill="#ebecff"/>
  </g>
</svg>
