<svg id="Moonriver_icon" data-name="Moonriver icon" xmlns="http://www.w3.org/2000/svg" width="32" height="32" viewBox="0 0 32 32">
  <rect id="Boundary" width="32" height="32" rx="12" transform="translate(0 32) rotate(-90)" fill="transparent" />
  <g id="Moonriver_icon-2" data-name="Moonriver icon" transform="translate(-352.344 -587.946)">
    <path id="Path_115" data-name="Path 115" d="M47.672,10.356h0a5.25,5.25,0,0,1-1.9-.373A7.548,7.548,0,0,1,43.783,8.8a5.275,5.275,0,0,0-3.354-1.147A5.692,5.692,0,0,0,36.471,9.19,7.33,7.33,0,0,1,36.477,6.3a7.219,7.219,0,0,1,1.092-2.6,7.28,7.28,0,0,1,3.194-2.63A7.222,7.222,0,0,1,42.125.648a7.329,7.329,0,0,1,2.926,0,7.219,7.219,0,0,1,2.6,1.092,7.28,7.28,0,0,1,2.63,3.194A7.222,7.222,0,0,1,50.7,6.3a7.329,7.329,0,0,1,0,2.91A4.583,4.583,0,0,1,47.672,10.356Z" transform="translate(324.593 593.731)" fill="#f2b705"/>
    <path id="Path_116" data-name="Path 116" d="M4.319,10.817V2.225a.469.469,0,0,1,.938,0v8.592a.469.469,0,0,1-.938,0ZM9.652,9.039V4.694a.469.469,0,1,1,.938,0V9.039a.469.469,0,0,1-.938,0Zm1.778-.494V4.892a.469.469,0,0,1,.938,0V8.546a.469.469,0,0,1-.938,0ZM2.541,6.62v-4.3a.469.469,0,1,1,.938,0v4.3a.469.469,0,1,1-.938,0Zm-1.778-.3V3.262a.469.469,0,1,1,.938,0V6.324a.469.469,0,0,1-.938,0Zm12.443-.3V4.447a.469.469,0,0,1,.938,0v1.58a.469.469,0,1,1-.938,0Zm-7.11,0V2.966a.469.469,0,0,1,.938,0V6.027a.469.469,0,1,1-.938,0ZM7.874,4.793V4.052a.469.469,0,1,1,.938,0v.741a.469.469,0,1,1-.938,0ZM7.526,1.938a5.4,5.4,0,0,0-6.8.269.42.42,0,0,1-.6-.584,6.2,6.2,0,0,1,7.921-.349c2.244,1.735,4.44,1.837,6.526.3a.42.42,0,0,1,.5.676,5.854,5.854,0,0,1-3.5,1.243A6.621,6.621,0,0,1,7.526,1.938Z" transform="translate(360.727 602.375)" fill="#53cbc8"/>
  </g>
</svg>
