<svg width="30" height="30" fill="none" xmlns="http://www.w3.org/2000/svg" viewBox="0 0 31 31">
  <path
    d="M12 21V11h6v10h-6Zm3-12.5A1.5 1.5 0 0 0 16.5 7h3A1.5 1.5 0 0 1 21 8.5v15a1.5 1.5 0 0 1-1.5 1.5h-3a1.5 1.5 0 1 0-3 0h-3A1.5 1.5 0 0 1 9 23.5v-15A1.5 1.5 0 0 1 10.5 7h3A1.5 1.5 0 0 0 15 8.5ZM11.75 10a.75.75 0 0 0-.75.75v10.5a.748.748 0 0 0 .75.75h6.5a.75.75 0 0 0 .75-.75v-10.5a.75.75 0 0 0-.75-.75h-6.5Z"
    fill="#EBECFF" />
  <circle cx="23" cy="8" r="6.75" fill="#DC4637" stroke="#1E2033" stroke-width="1.5" />
</svg>