<svg fill="none" xmlns="http://www.w3.org/2000/svg" viewBox="0 0 30 30">
  <path
    d="M8.071 25.4a.845.845 0 0 1-.713-.383.862.862 0 0 1-.144-.481V21.12a2.586 2.586 0 0 1-1.675-2.418v-5.161a2.582 2.582 0 0 1 2.579-2.578h.861v1.716h-.861a.862.862 0 0 0-.861.862v5.161a.855.855 0 0 0 .837.861.864.864 0 0 1 .842.857v2.043l2.646-2.649a.864.864 0 0 1 .611-.251h2.809a.86.86 0 0 0 .857-.861h1.722a2.581 2.581 0 0 1-2.579 2.578h-2.456l-3.864 3.869a.864.864 0 0 1-.611.251Z"
    fill="#EBECFF" />
  <path
    d="m11.739 8.188-.073 6.225.813 1.287 2.924.275 2.164.162 4.486 3.789-.15-4.139 1.836-.937-.5-7.037-4.848-.375-6.652.75Z"
    fill="#EBECFF" />
  <path
    d="M21.927 21.096a.85.85 0 0 1-.609-.255l-3.865-3.866h-4.168a2.584 2.584 0 0 1-2.584-2.582V9.235a2.584 2.584 0 0 1 2.584-2.578h8.6a2.58 2.58 0 0 1 2.58 2.578v5.158c0 .527-.163 1.04-.463 1.473-.3.433-.724.764-1.217.95v3.42a.858.858 0 0 1-.858.86ZM13.283 8.374a.863.863 0 0 0-.61.252.858.858 0 0 0-.251.607v5.158a.858.858 0 0 0 .531.799.86.86 0 0 0 .33.067h4.527c.227 0 .445.09.606.25l2.65 2.65v-2.043a.86.86 0 0 1 .838-.861.865.865 0 0 0 .838-.861V9.232a.86.86 0 0 0-.858-.86h-8.601Z"
    fill="#EBECFF" />
  <path
    d="M15.237 10.374h1.449a.962.962 0 0 1 1.064-1.032.96.96 0 0 1 1.043 1.032c.011.988-.845 1.2-1.986 1.2h-.494l.054 1.861h1.35l.044-.845c1.46 0 2.524-.724 2.524-2.206a2.272 2.272 0 0 0-2.535-2.326 2.258 2.258 0 0 0-2.513 2.316Zm2.733 4.784a.9.9 0 0 0-.933-.9.9.9 0 0 0 0 1.8.902.902 0 0 0 .933-.9Z"
    fill="#2F3251" />
</svg>