<svg id="Avalance_icon" data-name="Avalance icon" xmlns="http://www.w3.org/2000/svg" width="32" height="32" viewBox="0 0 32 32">
  <rect id="Boundary" width="32" height="32" rx="12" transform="translate(0 32) rotate(-90)" fill="transparent" />
  <g id="Layer_x0020_1" transform="translate(7 6)">
    <path id="Path_48" data-name="Path 48" d="M.108,15.234,8.472.4A.786.786,0,0,1,9.836.4l2.357,4.077a2.281,2.281,0,0,1,.015,2.256l-4.7,8.4a2.461,2.461,0,0,1-2.147,1.258H.778a.77.77,0,0,1-.67-1.148Zm13.876-5.153-2.931,5.076a.816.816,0,0,0,.707,1.224h5.861a.816.816,0,0,0,.707-1.224L15.4,10.082a.816.816,0,0,0-1.414,0Z" transform="translate(-0.007 -0.003)" fill="#e84142"/>
  </g>
</svg>
