<svg xmlns="http://www.w3.org/2000/svg" width="100%" height="100%" viewBox="0 0 159.196 30.2">
  <g id="MetaMask_Fox" transform="translate(0.1 0.1)">
    <path id="Path_1513" data-name="Path 1513" d="M187.227,35.5,174.6,44.878l2.335-5.533Z" transform="translate(-156.478 -35.5)" fill="currentColor" stroke="currentColor" stroke-linecap="round" stroke-linejoin="round" stroke-width="0.2"/>
    <path id="Path_1514" data-name="Path 1514" d="M44.4,35.5l12.525,9.467L54.7,39.345Z" transform="translate(-42.801 -35.5)" fill="currentColor" stroke="currentColor" stroke-linecap="round" stroke-linejoin="round" stroke-width="0.2"/>
    <path id="Path_1515" data-name="Path 1515" d="M215.163,206.8l-3.363,5.152,7.2,1.98,2.069-7.018Z" transform="translate(-188.957 -185.061)" fill="currentColor" stroke="currentColor" opacity="0.6" stroke-linecap="round" stroke-linejoin="round" stroke-width="0.2"/>
    <path id="Path_1516" data-name="Path 1516" d="M33.9,206.914l2.056,7.018,7.2-1.98L39.788,206.8Z" transform="translate(-33.634 -185.061)" fill="currentColor" stroke="currentColor" opacity="0.6" stroke-linecap="round" stroke-linejoin="round" stroke-width="0.2"/>
    <path id="Path_1517" data-name="Path 1517" d="M89.805,108.427,87.8,111.46l7.145.317-.254-7.678Z" transform="translate(-80.693 -95.394)" fill="currentColor" stroke="currentColor" stroke-linecap="round" stroke-linejoin="round" stroke-width="0.2"/>
    <path id="Path_1518" data-name="Path 1518" d="M179.714,107.816l-4.949-4.416-.165,7.767,7.132-.317Z" transform="translate(-156.478 -94.783)" fill="currentColor" stroke="currentColor" stroke-linecap="round" stroke-linejoin="round" stroke-width="0.2"/>
    <path id="Path_1519" data-name="Path 1519" d="M106.8,213.087l4.289-2.094-3.706-2.893Z" transform="translate(-97.282 -186.196)" fill="currentColor" stroke="currentColor" opacity="0.6" stroke-linecap="round" stroke-linejoin="round" stroke-width="0.2"/>
    <path id="Path_1520" data-name="Path 1520" d="M177.9,210.993l4.3,2.094-.6-4.987Z" transform="translate(-159.359 -186.196)" fill="currentColor" stroke="currentColor" opacity="0.6" stroke-linecap="round" stroke-linejoin="round" stroke-width="0.2"/>
    <path id="Path_1521" data-name="Path 1521" d="M182.2,232.994l-4.3-2.094.343,2.8-.038,1.18Z" transform="translate(-159.359 -206.103)" fill="#ebecff" stroke="#ebecff" stroke-linecap="round" stroke-linejoin="round" stroke-width="0.2"/>
    <path id="Path_1522" data-name="Path 1522" d="M106.8,232.994l4,1.891-.025-1.18.317-2.8Z" transform="translate(-97.282 -206.103)" fill="#ebecff" stroke="#ebecff" stroke-linecap="round" stroke-linejoin="round" stroke-width="0.2"/>
    <path id="Path_1523" data-name="Path 1523" d="M114.179,178.308l-3.579-1.053,2.525-1.155Z" transform="translate(-100.6 -158.257)" fill="#1e2033" stroke="#1e2033" stroke-linecap="round" stroke-linejoin="round" stroke-width="0.2"/>
    <path id="Path_1524" data-name="Path 1524" d="M179.7,178.308l1.053-2.208,2.538,1.155Z" transform="translate(-160.931 -158.257)" fill="#1e2033" stroke="#1e2033" stroke-linecap="round" stroke-linejoin="round" stroke-width="0.2"/>
    <path id="Path_1525" data-name="Path 1525" d="M83.663,211.952l.609-5.152-3.972.114Z" transform="translate(-74.145 -185.061)" fill="currentColor" stroke="currentColor" stroke-linecap="round" stroke-linejoin="round" stroke-width="0.2"/>
    <path id="Path_1526" data-name="Path 1526" d="M207,206.8l.609,5.152,3.363-5.038Z" transform="translate(-184.767 -185.061)" fill="currentColor" stroke="currentColor" stroke-linecap="round" stroke-linejoin="round" stroke-width="0.2"/>
    <path id="Path_1527" data-name="Path 1527" d="M181.732,162.1l-7.132.317.66,3.668,1.053-2.208,2.538,1.155Z" transform="translate(-156.478 -146.034)" fill="currentColor" stroke="currentColor" opacity="0.6" opacity="0.6" stroke-linecap="round" stroke-linejoin="round" stroke-width="0.2"/>
    <path id="Path_1528" data-name="Path 1528" d="M90.693,165.031l2.538-1.155,1.041,2.208.673-3.668L87.8,162.1Z" transform="translate(-80.693 -146.034)" fill="currentColor" stroke="currentColor" opacity="0.6" stroke-linecap="round" stroke-linejoin="round" stroke-width="0.2"/>
    <path id="Path_1529" data-name="Path 1529" d="M87.8,162.1l2.995,5.838-.1-2.906Z" transform="translate(-80.693 -146.034)" fill="currentColor" stroke="currentColor" stroke-linecap="round" stroke-linejoin="round" stroke-width="0.2"/>
    <path id="Path_1530" data-name="Path 1530" d="M207.227,165.031l-.127,2.906,3.008-5.838Z" transform="translate(-184.854 -146.034)" fill="currentColor" stroke="currentColor" stroke-linecap="round" stroke-linejoin="round" stroke-width="0.2"/>
    <path id="Path_1531" data-name="Path 1531" d="M139.473,164.6l-.673,3.668.838,4.327.19-5.7Z" transform="translate(-125.221 -148.217)" fill="currentColor" stroke="currentColor" stroke-linecap="round" stroke-linejoin="round" stroke-width="0.2"/>
    <path id="Path_1532" data-name="Path 1532" d="M172.243,164.6l-.343,2.284.152,5.711.85-4.327Z" transform="translate(-154.121 -148.217)" fill="currentColor" stroke="currentColor" stroke-linecap="round" stroke-linejoin="round" stroke-width="0.2"/>
    <path id="Path_1533" data-name="Path 1533" d="M173.95,186.253l-.85,4.327.609.419,3.706-2.893.127-2.906Z" transform="translate(-155.169 -166.203)" fill="currentColor" stroke="currentColor" stroke-linecap="round" stroke-linejoin="round" stroke-width="0.2"/>
    <path id="Path_1534" data-name="Path 1534" d="M110.6,185.2l.1,2.906L114.407,191l.609-.419-.838-4.327Z" transform="translate(-100.6 -166.203)" fill="currentColor" stroke="currentColor" stroke-linecap="round" stroke-linejoin="round" stroke-width="0.2"/>
    <path id="Path_1535" data-name="Path 1535" d="M116.127,249.291l.038-1.18-.317-.279h-4.784l-.292.279.025,1.18-4-1.891,1.4,1.142,2.83,1.967h4.86l2.843-1.967,1.4-1.142Z" transform="translate(-97.282 -220.509)" fill="#c8c9da" stroke="#c8c9da" stroke-linecap="round" stroke-linejoin="round" stroke-width="0.2"/>
    <path id="Path_1536" data-name="Path 1536" d="M143.151,228.019l-.609-.419h-3.515l-.609.419-.317,2.8.292-.279h4.784l.317.279Z" transform="translate(-124.61 -203.222)" fill="currentColor" stroke="currentColor" stroke-linecap="round" stroke-linejoin="round" opacity="0.3" stroke-width="0.2"/>
    <path id="Path_1537" data-name="Path 1537" d="M190.641,45.487l1.079-5.178-1.612-4.81L177.9,44.561l4.7,3.972,6.637,1.942,1.472-1.713-.635-.457,1.015-.926-.787-.609,1.015-.774Z" transform="translate(-159.359 -35.5)" fill="currentColor" stroke="currentColor" opacity="0.3" stroke-linecap="round" stroke-linejoin="round" stroke-width="0.2"/>
    <path id="Path_1538" data-name="Path 1538" d="M31.8,40.31l1.079,5.178-.685.508,1.015.774-.774.609,1.015.926-.635.457,1.459,1.713,6.637-1.942,4.7-3.972L33.4,35.5Z" transform="translate(-31.8 -35.5)" fill="currentColor" stroke="currentColor" opacity="0.3" stroke-linecap="round" stroke-linejoin="round" stroke-width="0.2"/>
    <path id="Path_1539" data-name="Path 1539" d="M214.727,140.142,208.09,138.2l2.018,3.033-3.008,5.838,3.959-.051h5.9Z" transform="translate(-184.854 -125.167)" fill="currentColor" stroke="currentColor" stroke-linecap="round" stroke-linejoin="round" stroke-width="0.2"/>
    <path id="Path_1540" data-name="Path 1540" d="M42.745,138.2l-6.637,1.942L33.9,147.02h5.888l3.947.051-2.995-5.838Z" transform="translate(-33.633 -125.167)" fill="currentColor" stroke="currentColor" stroke-linecap="round" stroke-linejoin="round" stroke-width="0.2"/>
    <path id="Path_1541" data-name="Path 1541" d="M131.818,78.338l.419-7.322,1.929-5.216H125.6l1.9,5.216.444,7.322.152,2.31.013,5.685h3.515l.025-5.685Z" transform="translate(-113.696 -61.955)" fill="currentColor" stroke="currentColor" stroke-linecap="round" stroke-linejoin="round" stroke-width="0.2"/>
    <path id="decoration" data-name="Union 27" d="M13131.655,19463.053a.1.1,0,0,1-.1-.1v-14.469a.1.1,0,0,1,.1-.1h2.12a.1.1,0,0,1,.1.1v5.592c0,.1,0,.191.1.1l5.5-5.689h2.794c.1,0,.2,0,.1.092l-6.561,6.756v.1l7.234,7.426c.1,0,0,.1,0,.1h-2.794l-6.271-6.463s-.1,0-.1.092v6.371a.1.1,0,0,1-.1.1Zm-13.794-1.061a3.244,3.244,0,0,1-1.446-3.092.1.1,0,0,1,.1-.094h2.12a.093.093,0,0,1,.1.094,1.412,1.412,0,0,0,.1.58,2.455,2.455,0,0,0,2.218,1.545,2.42,2.42,0,0,0,2.315-1.256,1.966,1.966,0,0,0-.87-2.506c-.962-.582-3.663-1.93-3.956-2.125-2.794-1.637-2.315-7.039,2.8-7.039a4.62,4.62,0,0,1,2.7.963,3.657,3.657,0,0,1,1.446,2.8c0,.1,0,.1-.1.1h-1.93a.094.094,0,0,1-.093-.1,2.355,2.355,0,0,0-3.669-1.348,1.727,1.727,0,0,0-.19,2.7,8.35,8.35,0,0,0,1.734,1.066c.869.482,1.832.863,2.7,1.445a3.767,3.767,0,0,1,1.642,4.049c-.288,1.641-1.739,3.283-4.631,3.283A4.81,4.81,0,0,1,13117.861,19461.992Zm-58.845,1.061a.094.094,0,0,1-.093-.1v-12.539h-3.859a.1.1,0,0,1-.1-.1v-1.832a.1.1,0,0,1,.1-.1h9.838l.288,1.93a.092.092,0,0,1-.093.1h-3.858v12.539a.1.1,0,0,1-.1.1Zm-34.822,0a.094.094,0,0,1-.093-.1v-14.469a.092.092,0,0,1,.093-.1h2.994a.094.094,0,0,1,.093.1l1.739,5.689c.093.094.19.094.19,0l1.738-5.689a.093.093,0,0,1,.094-.1h2.026v-.1h1.446a.1.1,0,0,1,.1.1v14.469a.1.1,0,0,1-.1.1h-2.12a.1.1,0,0,1-.1-.1v-11c0-.1-.19-.1-.19,0l-1.739,5.691-.1.385a.092.092,0,0,1-.093.1h-1.641a.1.1,0,0,1-.1-.1l-.1-.385-1.734-5.691c-.1-.1-.2-.1-.2,0v11.094a.092.092,0,0,1-.093.1Zm85.466-.1-1.153-4.344a.1.1,0,0,0-.1-.1h-4.244a.1.1,0,0,0-.1.1l-1.158,4.246a.1.1,0,0,1-.1.1h-1.93c-.093,0-.093,0-.093-.1l3.952-14.469a.1.1,0,0,1,.1-.1h2.8a.1.1,0,0,1,.1.1l3.951,14.469a.094.094,0,0,1-.093.1Zm-3.376-11.963-1.543,5.6a.092.092,0,0,0,.1.092h3.087c.1,0,.1,0,.1-.092l-1.543-5.6a.216.216,0,0,0-.135-.074C13106.309,19450.918,13106.284,19450.943,13106.284,19450.992Zm-13.119,11.963a.094.094,0,0,1-.093-.1v-11c0-.1-.2-.1-.2,0l-1.733,5.691-.1.385a.1.1,0,0,1-.1.1h-1.642a.094.094,0,0,1-.093-.1l-.1-.385-1.734-5.691c-.1-.1-.2-.1-.2,0v11a.1.1,0,0,1-.1.1h-2.119a.1.1,0,0,1-.1-.1v-14.469a.1.1,0,0,1,.1-.1h3.087a.094.094,0,0,1,.093.1l1.738,5.689c.1.1.2.1.2,0l1.832-5.689v-.1h3.375a.1.1,0,0,1,.1.1v14.469a.1.1,0,0,1-.1.1Zm-15.914,0h0l-1.158-4.344a.1.1,0,0,0-.1-.1h-4.244a.094.094,0,0,0-.093.1l-1.158,4.246a.1.1,0,0,1-.1.1h-1.93c-.1,0-.1,0-.1-.1l3.957-14.469a.1.1,0,0,1,.1-.1h2.794a.1.1,0,0,1,.1.1l3.956,14.469a.1.1,0,0,1-.1.1Zm-3.474-11.963-1.543,5.6a.092.092,0,0,0,.1.092h3.087c.1,0,.1,0,.1-.092l-1.544-5.6a.215.215,0,0,0-.134-.074C13073.8,19450.918,13073.777,19450.943,13073.777,19450.992Zm-30.963,11.865h-2.125a.094.094,0,0,1-.093-.1v-14.273a.092.092,0,0,1,.093-.1h8.587a.1.1,0,0,1,.1.1v1.637a.1.1,0,0,1-.1.1h-6.364a.1.1,0,0,0-.1.1v3.857a.1.1,0,0,0,.1.094h5.593a.1.1,0,0,1,.1.1v1.832a.1.1,0,0,1-.1.1h-5.593a.1.1,0,0,0-.1.1v4.439l6.657-.1a.094.094,0,0,1,.093.1v1.926a.092.092,0,0,1-.093.1Zm49.1-14.469Z" transform="translate(-12983.983 -19440.574)" fill="currentColor"/>
  </g>
</svg>
