<svg xmlns="http://www.w3.org/2000/svg" xmlns:xlink="http://www.w3.org/1999/xlink" width="111.98" height="128.468" viewBox="0 0 111.98 128.468">
  <defs>
    <linearGradient id="linear-gradient" x1="0.5" y1="0.049" x2="0.5" y2="0.959" gradientUnits="objectBoundingBox">
      <stop offset="0" stop-color="#3e436b"/>
      <stop offset="1" stop-color="#2d314d"/>
    </linearGradient>
    <filter id="Path_1825" x="0" y="1.257" width="111.98" height="127.211" filterUnits="userSpaceOnUse">
      <feOffset dy="10" input="SourceAlpha"/>
      <feGaussianBlur stdDeviation="3" result="blur"/>
      <feFlood flood-opacity="0.161"/>
      <feComposite operator="in" in2="blur"/>
      <feComposite in="SourceGraphic"/>
    </filter>
  </defs>
  <g id="crypto_tester" transform="translate(7.735)">
    <g id="Group_504" data-name="Group 504">
      <g id="Group_503" data-name="Group 503">
        <g transform="matrix(1, 0, 0, 1, -7.73, 0)" filter="url(#Path_1825)">
          <path id="Path_1825-2" data-name="Path 1825" d="M561.42,451.6a47,47,0,0,1-46.99-46.99V368.222a13.74,13.74,0,0,1,9.135-12.931l33.816-11.247a12.807,12.807,0,0,1,8.079,0L599.3,355.3a13.733,13.733,0,0,1,9.11,12.923v36.389a47,47,0,0,1-46.99,46.99Z" transform="translate(-505.43 -342.13)" fill="url(#linear-gradient)"/>
        </g>
        <path id="Path_1826" data-name="Path 1826" d="M561.176,344.4a11.729,11.729,0,0,1,3.646.587l33.816,11.247a12.48,12.48,0,0,1,8.272,11.741v36.389a45.733,45.733,0,1,1-91.466,0V367.979a12.5,12.5,0,0,1,8.28-11.741l33.816-11.247a11.6,11.6,0,0,1,3.637-.587m0-2.514a14.125,14.125,0,0,0-4.442.721l-33.841,11.255a14.984,14.984,0,0,0-9.973,14.113v36.389a48.26,48.26,0,0,0,21.664,40.269h0a48.233,48.233,0,0,0,53.167,0h0a48.249,48.249,0,0,0,21.664-40.269V367.979a14.976,14.976,0,0,0-9.973-14.113L565.6,342.611a14.019,14.019,0,0,0-4.425-.721Z" transform="translate(-512.92 -341.89)" fill="#6770b3"/>
      </g>
    </g>
    <g id="Group_505" data-name="Group 505" transform="translate(30.244 82.346)">
      <text id="x1.25" transform="translate(0 15)" fill="#ebecff" font-size="14" font-family="Poppins" font-weight="600"><tspan x="0" y="0">x1.25</tspan></text>
    </g>
    <g id="crypto_tester-2" data-name="crypto_tester" transform="translate(16.4 17.582)">
      <g id="Group_510" data-name="Group 510" transform="translate(1.388)">
        <g id="Group_507" data-name="Group 507" transform="translate(15.424)">
          <path id="Path_1827" data-name="Path 1827" d="M568.77,364.546c7.383,0,13.627,13.367,13.627,29.2a52.6,52.6,0,0,1-2.925,17.809c.561.126,1.123.235,1.676.335a54.313,54.313,0,0,0,2.925-18.144c0-17.046-6.847-30.874-15.3-30.874-4.1,0-7.811,3.252-10.56,8.54.562.117,1.123.243,1.685.386C562.3,367.3,565.417,364.546,568.77,364.546Z" transform="translate(-553.467 -362.87)" fill="#24263d"/>
          <path id="Path_1828" data-name="Path 1828" d="M577.04,423.493c-2.422,4.634-5.59,7.492-9,7.492-5.372,0-10.141-7.082-12.336-17.038-.679-.444-1.349-.905-2-1.358,2.171,11.724,7.769,20.072,14.339,20.072,4.157,0,7.928-3.352,10.685-8.791Q577.895,423.707,577.04,423.493Z" transform="translate(-552.736 -370.922)" fill="#24263d"/>
          <g id="Group_506" data-name="Group 506" transform="translate(0 12.47)">
            <path id="Path_1829" data-name="Path 1829" d="M555.811,383.608a43.6,43.6,0,0,1,1.634-5.514c-.561-.134-1.123-.243-1.676-.344a46.437,46.437,0,0,0-1.969,7.224C554.454,384.513,555.124,384.052,555.811,383.608Z" transform="translate(-552.752 -377.75)" fill="#24263d"/>
            <path id="Path_1830" data-name="Path 1830" d="M554.62,391.65c-.629.469-1.24.939-1.835,1.425-.151,1.735-.235,3.511-.235,5.33q0,2.552.2,4.986c.6.478,1.2.939,1.827,1.408a58.188,58.188,0,0,1,.042-13.149Z" transform="translate(-552.55 -380.001)" fill="#24263d"/>
          </g>
        </g>
        <g id="Group_508" data-name="Group 508" transform="translate(0 8.892)">
          <path id="Path_1831" data-name="Path 1831" d="M565.261,420c-1.768.654-3.52,1.2-5.221,1.643.218.536.453,1.056.687,1.55a60.383,60.383,0,0,0,6.646-2.2C566.661,420.67,565.957,420.344,565.261,420Z" transform="translate(-538.339 -381.013)" fill="#24263d"/>
          <path id="Path_1832" data-name="Path 1832" d="M582.749,410.4c-1.517,1.039-3.109,2.045-4.752,3-1.8,1.039-3.629,1.986-5.447,2.841.7.293,1.408.578,2.1.838,1.391-.687,2.782-1.425,4.174-2.229q1.81-1.043,3.5-2.154C582.489,411.942,582.624,411.171,582.749,410.4Z" transform="translate(-540.365 -379.459)" fill="#24263d"/>
          <path id="Path_1833" data-name="Path 1833" d="M602.71,378.215c-1.844-3.185-5.925-4.735-11.272-4.735h0a34.6,34.6,0,0,0-5.808.528c.235.511.461,1.048.679,1.584a32.857,32.857,0,0,1,5.129-.436h0c4.886,0,8.372,1.383,9.822,3.9,1.718,2.983.612,7.643-3.042,12.789a48.226,48.226,0,0,1-8.691,9.093q-.1,1.182-.251,2.338C600.413,394.574,606.238,384.325,602.71,378.215Z" transform="translate(-542.483 -373.48)" fill="#24263d"/>
          <path id="Path_1834" data-name="Path 1834" d="M574.734,378.421c1.785-.654,3.545-1.215,5.263-1.659-.226-.528-.453-1.048-.7-1.542a58.653,58.653,0,0,0-6.671,2.221C573.334,377.751,574.038,378.078,574.734,378.421Z" transform="translate(-540.378 -373.762)" fill="#24263d"/>
          <path id="Path_1835" data-name="Path 1835" d="M557.783,384.347c1.81-1.048,3.637-1.986,5.456-2.841-.712-.3-1.416-.578-2.12-.846q-2.087,1.031-4.182,2.238c-16.342,9.437-26.089,23.164-21.764,30.656,1.844,3.185,5.925,4.735,11.272,4.735a35.4,35.4,0,0,0,5.866-.536c-.226-.511-.444-1.039-.662-1.584a32.817,32.817,0,0,1-5.2.444c-4.886,0-8.372-1.383-9.822-3.9-1.718-2.984-.612-7.643,3.042-12.789C543.653,394.32,550.081,388.789,557.783,384.347Z" transform="translate(-534.146 -374.643)" fill="#24263d"/>
        </g>
        <g id="Group_509" data-name="Group 509" transform="translate(0.008 8.883)">
          <path id="Path_1836" data-name="Path 1836" d="M540.545,393.005c-.3-.385-.6-.779-.872-1.173-3.654-5.146-4.768-9.814-3.042-12.789,1.45-2.514,4.936-3.9,9.822-3.9,7.258,0,16.485,2.925,25.318,8.029q2.439,1.408,4.7,2.958c-.134-.788-.277-1.55-.444-2.3-1.106-.721-2.238-1.425-3.419-2.1a66.6,66.6,0,0,0-16.535-6.906l-.377-.092c-.553-.134-1.1-.26-1.643-.377l-.587-.126a36.5,36.5,0,0,0-7.015-.754c-5.347,0-9.437,1.55-11.272,4.735-2.355,4.081-.536,10.006,4.241,16.082C539.791,393.86,540.16,393.433,540.545,393.005Z" transform="translate(-534.156 -373.47)" fill="#24263d"/>
          <path id="Path_1837" data-name="Path 1837" d="M591.684,400.689c-.36.427-.737.846-1.123,1.274.3.394.6.788.88,1.19,3.654,5.146,4.769,9.814,3.042,12.789-1.45,2.514-4.936,3.9-9.822,3.9a33.422,33.422,0,0,1-5.028-.419v.008l-.226-.042c-.846-.134-1.718-.3-2.6-.5l-1.349-.3.008-.017a65.12,65.12,0,0,1-16.124-6.746,64.229,64.229,0,0,1-14.473-11.188c-.377.427-.746.846-1.089,1.274A66.036,66.036,0,0,0,558.5,413.268c9.395,5.422,18.932,8.255,26.156,8.255,5.347,0,9.437-1.55,11.272-4.735C598.288,412.7,596.469,406.773,591.684,400.689Z" transform="translate(-535.715 -377.868)" fill="#24263d"/>
          <path id="Path_1838" data-name="Path 1838" d="M589.95,389.98q.151,1.156.251,2.338a54.291,54.291,0,0,1,5.079,4.718c.377-.427.738-.855,1.089-1.282A59.137,59.137,0,0,0,589.95,389.98Z" transform="translate(-543.191 -376.144)" fill="#24263d"/>
        </g>
      </g>
      <g id="Group_511" data-name="Group 511" transform="translate(23.583 22.276)">
        <circle id="Ellipse_164" data-name="Ellipse 164" cx="8.473" cy="8.473" r="8.473" fill="#904dff"/>
        <path id="Path_1839" data-name="Path 1839" d="M571.808,404.2a8.466,8.466,0,0,1-6.7-13.644c-2.246,1.525-4.173,4.065-4.173,6.981,0,4.685,2.59,8.515,8.934,8.515a8.444,8.444,0,0,0,6.7-3.31A8.473,8.473,0,0,1,571.808,404.2Z" transform="translate(-560.679 -389.63)" fill="#6000ff"/>
        <path id="Path_1840" data-name="Path 1840" d="M571.7,390.03a6.636,6.636,0,0,0-.821.059,5.3,5.3,0,0,0,7.526,7.45,7.546,7.546,0,0,0,.042-.754A6.744,6.744,0,0,0,571.7,390.03Z" transform="translate(-562.063 -389.544)" fill="#cca4ff"/>
        <circle id="Ellipse_165" data-name="Ellipse 165" cx="8.473" cy="8.473" r="8.473" fill="none" stroke="#24263d" stroke-width="1.5"/>
      </g>
      <g id="Group_512" data-name="Group 512" transform="translate(45.113 4.542)">
        <circle id="Ellipse_166" data-name="Ellipse 166" cx="4.526" cy="4.526" r="4.526" transform="translate(0 0.176)" fill="#27e8a7"/>
        <path id="Path_1841" data-name="Path 1841" d="M592.556,375.983a4.528,4.528,0,0,1-4.526-4.526,4.462,4.462,0,0,1,.947-2.757,4.71,4.71,0,0,0-2.187,3.746c0,2.5,1.266,4.526,4.727,4.526A4.5,4.5,0,0,0,595.1,375.2,4.5,4.5,0,0,1,592.556,375.983Z" transform="translate(-586.396 -368.356)" fill="#007d8a"/>
        <path id="Path_1842" data-name="Path 1842" d="M592.112,368.82a3.7,3.7,0,0,0-.436.025,2.829,2.829,0,0,0,2.087,4.743,2.858,2.858,0,0,0,1.936-.763,3.236,3.236,0,0,0,.025-.4A3.621,3.621,0,0,0,592.112,368.82Z" transform="translate(-587.067 -368.376)" fill="#a9ffe0"/>
        <circle id="Ellipse_167" data-name="Ellipse 167" cx="4.526" cy="4.526" r="4.526" fill="none" stroke="#24263d" stroke-width="1"/>
      </g>
      <g id="Group_513" data-name="Group 513" transform="translate(34.863 52.111)">
        <circle id="Ellipse_168" data-name="Ellipse 168" cx="4.526" cy="4.526" r="4.526" fill="#fd1a64"/>
        <path id="Path_1843" data-name="Path 1843" d="M580.332,432.753a4.528,4.528,0,0,1-4.526-4.526,4.463,4.463,0,0,1,.947-2.757,4.691,4.691,0,0,0-2.154,3.755c0,3.025,1.726,4.6,4.693,4.517a4.627,4.627,0,0,0,3.578-1.768A4.5,4.5,0,0,1,580.332,432.753Z" transform="translate(-574.173 -425.118)" fill="#bf1057"/>
        <path id="Path_1844" data-name="Path 1844" d="M579.882,425.58a3.686,3.686,0,0,0-.436.025,2.829,2.829,0,0,0,2.087,4.743,2.859,2.859,0,0,0,1.936-.763,3.236,3.236,0,0,0,.025-.4A3.627,3.627,0,0,0,579.882,425.58Z" transform="translate(-574.837 -425.136)" fill="#f97aa1"/>
        <circle id="Ellipse_169" data-name="Ellipse 169" cx="4.526" cy="4.526" r="4.526" fill="none" stroke="#24263d" stroke-width="1"/>
      </g>
      <g id="Group_514" data-name="Group 514" transform="translate(0 20.524)">
        <circle id="Ellipse_170" data-name="Ellipse 170" cx="4.526" cy="4.526" r="4.526" fill="#ffbc00"/>
        <path id="Path_1845" data-name="Path 1845" d="M538.729,395.053a4.528,4.528,0,0,1-4.526-4.526,4.462,4.462,0,0,1,.947-2.757,4.629,4.629,0,0,0-2.12,3.738c0,2.766,1.391,4.534,4.66,4.534a4.5,4.5,0,0,0,3.579-1.768A4.482,4.482,0,0,1,538.729,395.053Z" transform="translate(-532.577 -387.426)" fill="#b78404"/>
        <path id="Path_1846" data-name="Path 1846" d="M538.272,387.89a3.7,3.7,0,0,0-.436.025,2.829,2.829,0,0,0,2.087,4.743,2.858,2.858,0,0,0,1.936-.763,3.236,3.236,0,0,0,.025-.4A3.611,3.611,0,0,0,538.272,387.89Z" transform="translate(-533.235 -387.446)" fill="#fce19d"/>
        <circle id="Ellipse_171" data-name="Ellipse 171" cx="4.526" cy="4.526" r="4.526" fill="none" stroke="#24263d" stroke-width="1"/>
      </g>
    </g>
  </g>
</svg>
